<?xml version="1.0" standalone="no"?>
<!DOCTYPE svg PUBLIC "-//W3C//DTD SVG 20010904//EN"
 "http://www.w3.org/TR/2001/REC-SVG-20010904/DTD/svg10.dtd">
<svg version="1.0" xmlns="http://www.w3.org/2000/svg"
 width="726.000000pt" height="726.000000pt" viewBox="0 0 726.000000 726.000000"
 preserveAspectRatio="xMidYMid meet">
<metadata>
Created by potrace 1.11, written by Peter Selinger 2001-2013
</metadata>
<g transform="translate(0.000000,726.000000) scale(0.100000,-0.100000)"
fill="#000000" stroke="none">
<path d="M3393 5471 c-43 -55 -203 -260 -355 -458 -152 -197 -458 -593 -680
-880 -222 -286 -446 -577 -498 -644 -52 -68 -174 -225 -270 -350 -96 -124
-185 -239 -197 -255 -13 -16 -141 -182 -286 -369 l-263 -340 -273 -3 -272 -2
-149 -111 c-83 -61 -150 -111 -150 -112 0 -1 772 -2 1715 -2 l1715 0 0 112 0
113 -530 0 c-503 0 -530 1 -521 18 5 9 87 208 181 442 95 234 178 439 185 455
7 17 36 86 63 155 81 202 243 602 257 635 7 17 55 134 105 260 183 454 291
720 300 740 9 21 84 208 93 235 3 8 6 -30 6 -85 1 -94 2 -1032 1 -1286 l0
-116 -50 2 c-28 1 -54 -3 -57 -8 -7 -12 -7 -422 0 -434 3 -5 19 -8 36 -7 l29
2 1 -707 c0 -388 0 -717 1 -731 0 -24 2 -25 65 -24 36 1 68 4 71 7 3 3 6 332
6 730 l0 725 31 0 c18 0 37 0 42 1 6 1 10 79 9 219 -1 119 -2 220 -3 223 0 3
-26 5 -56 4 -44 -1 -55 2 -56 14 -6 127 1 1665 8 1672 7 7 207 -253 559 -723
301 -403 784 -1048 1072 -1433 288 -385 534 -713 545 -729 12 -15 59 -78 105
-140 l83 -111 -1116 -3 -1115 -2 -1 -23 c-4 -90 -3 -197 1 -198 20 -5 3437 -3
3432 2 -4 4 -72 54 -151 113 l-143 106 -274 0 -273 0 -148 192 c-81 105 -173
224 -203 263 -173 225 -249 323 -286 369 -22 28 -77 99 -122 158 -44 59 -88
115 -96 125 -14 17 -376 485 -421 544 -11 15 -56 73 -101 130 -44 57 -165 214
-269 349 -104 135 -193 250 -198 255 -11 15 -181 234 -347 449 -80 103 -152
196 -160 206 -8 10 -73 95 -145 189 l-130 170 -137 1 -137 0 -78 -99z m-56
-448 c-3 -5 -15 -30 -27 -58 -12 -27 -37 -81 -55 -120 -44 -94 -59 -128 -235
-510 -84 -181 -167 -361 -185 -400 -18 -38 -46 -100 -63 -137 -45 -96 -443
-958 -487 -1053 -20 -44 -49 -107 -65 -140 -15 -33 -51 -109 -78 -170 -28 -60
-66 -145 -86 -187 l-36 -78 -415 -2 c-338 -2 -414 -1 -410 10 4 12 481 649
835 1117 75 99 287 380 471 625 183 245 338 450 342 455 5 6 81 107 170 226
89 118 173 229 187 246 14 18 50 66 79 107 30 42 57 76 59 76 2 0 1 -3 -1 -7z"/>
</g>
</svg>
