<?xml version="1.0" standalone="no"?>
<!DOCTYPE svg PUBLIC "-//W3C//DTD SVG 1.1//EN" "http://www.w3.org/Graphics/SVG/1.1/DTD/svg11.dtd" >
<svg>
<metadata>
Created by FontForge 20090622 at Sun Dec  1 21:50:09 2019
 By deploy user
Copyright (c) 2005 by Frantisek Storm, www.stormtype.com. All rights reserved.
</metadata>
<defs>
<font id="EtelkaLightPro" horiz-adv-x="622" >
  <font-face 
    font-family="Etelka Light Pro"
    font-weight="400"
    font-stretch="normal"
    units-per-em="1000"
    panose-1="2 0 5 3 3 0 0 2 0 4"
    ascent="800"
    descent="-200"
    x-height="505"
    cap-height="697"
    bbox="-208 -314 1343 876"
    underline-thickness="50"
    underline-position="-100"
    unicode-range="U+0020-U+FB04"
  />
<missing-glyph horiz-adv-x="500" 
d="M0 0v697h500v-697h-500zM250 394l170 253h-340zM280 349l170 -254v507zM80 50h340l-170 254zM50 602v-507l170 254z" />
    <glyph glyph-name="ff" unicode="ff" horiz-adv-x="667" 
d="M479 552v-47h180v-60h-180v-445h-65v445h-247v-445h-65v445h-89v60h89v39q0 43 11.5 75t29.5 51t45.5 30t55 15t61.5 4q83 0 159 -29q36 29 114 29q61 0 114 -16l-17 -57q-41 13 -97 13q-21 0 -36 -3t-31 -13t-24 -33t-8 -58zM167 544v-39h247v47q0 53 14 87
q-60 20 -123 20q-69 0 -103.5 -23t-34.5 -92z" />
    <glyph glyph-name="fi" unicode="fi" horiz-adv-x="554" 
d="M479 505v-505h-65v445h-247v-445h-65v445h-89v60h89v39q0 43 11.5 75t29.5 51t45.5 30t55 15t61.5 4q93 0 171 -34l-20 -56q-74 30 -151 30q-69 0 -103.5 -23t-34.5 -92v-39h312z" />
    <glyph glyph-name="fl" unicode="fl" horiz-adv-x="559" 
d="M479 685v-555q0 -36 10 -58.5t38 -50.5l-51 -42q-33 33 -47.5 64t-14.5 83v518q-51 15 -109 15q-69 0 -103.5 -23t-34.5 -92v-39h180v-60h-180v-445h-65v445h-89v60h89v39q0 43 11.5 75t29.5 51t45.5 30t55 15t61.5 4q91 0 174 -34z" />
    <glyph glyph-name="ffi" unicode="ffi" horiz-adv-x="866" 
d="M791 505v-505h-65v445h-247v-445h-65v445h-247v-445h-65v445h-89v60h89v39q0 43 11.5 75t29.5 51t45.5 30t55 15t61.5 4q95 0 170 -33q48 33 142 33q93 0 171 -34l-20 -56q-74 30 -151 30q-69 0 -103.5 -23t-34.5 -92v-39h312zM167 544v-39h247v39q0 53 18 92
q-58 23 -127 23t-103.5 -23t-34.5 -92z" />
    <glyph glyph-name="ffl" unicode="ffl" horiz-adv-x="872" 
d="M791 685v-555q0 -36 10 -58.5t38 -50.5l-51 -42q-33 33 -47.5 64t-14.5 83v518q-51 15 -109 15q-69 0 -103.5 -23t-34.5 -92v-39h180v-60h-180v-445h-65v445h-247v-445h-65v445h-89v60h89v39q0 43 11.5 75t29.5 51t45.5 30t55 15t61.5 4q91 0 169 -33q48 33 143 33
q91 0 174 -34zM414 544q0 55 19 93q-63 22 -128 22q-69 0 -103.5 -23t-34.5 -92v-39h247v39z" />
    <glyph glyph-name="Th" unicode="Th" horiz-adv-x="1035" 
d="M622 697v-219q20 16 61 28.5t86 12.5q105 0 148 -49.5t43 -184.5v-285h-65v272q0 113 -27.5 149t-105.5 36q-57 0 -98.5 -19t-41.5 -52v-386h-65v637h-236v-637h-73v637h-242v60h616z" />
    <glyph glyph-name="ffk" unicode="ffk" horiz-adv-x="1128" 
d="M791 685v-685h-65v644q-51 15 -109 15q-69 0 -103.5 -23t-34.5 -92v-39h180v-60h-180v-445h-65v445h-247v-445h-65v445h-89v60h89v39q0 43 11.5 75t29.5 51t45.5 30t55 15t61.5 4q91 0 169 -33q48 33 143 33q91 0 174 -34zM414 544q0 55 19 93q-63 22 -128 22
q-69 0 -103.5 -23t-34.5 -92v-39h247v39zM1130 0h-84q-203 249 -255 267q58 39 237 238h84q-171 -189 -231 -229q49 -25 249 -276z" />
    <glyph glyph-name="fk" unicode="fk" horiz-adv-x="816" 
d="M479 0h-65v644q-51 15 -109 15q-69 0 -103.5 -23t-34.5 -92v-39h180v-60h-180v-445h-65v445h-89v60h89v39q0 43 11.5 75t29.5 51t45.5 30t55 15t61.5 4q91 0 174 -34v-685zM818 0h-84q-203 249 -255 267q58 39 237 238h84q-171 -189 -231 -229q49 -25 249 -276z" />
    <glyph glyph-name="fj" unicode="fj" horiz-adv-x="554" 
d="M479 505v-533q0 -103 -42.5 -139t-122.5 -36v60q54 0 77 22t23 93v473h-247v-445h-65v445h-89v60h89v39q0 43 11.5 75t29.5 51t45.5 30t55 15t61.5 4q93 0 171 -34l-20 -56q-74 30 -151 30q-69 0 -103.5 -23t-34.5 -92v-39h312z" />
    <glyph glyph-name=".notdef" horiz-adv-x="500" 
d="M0 0v697h500v-697h-500zM250 394l170 253h-340zM280 349l170 -254v507zM80 50h340l-170 254zM50 602v-507l170 254z" />
    <glyph glyph-name=".null" horiz-adv-x="0" 
 />
    <glyph glyph-name="nonmarkingreturn" horiz-adv-x="333" 
 />
    <glyph glyph-name="space" unicode=" " horiz-adv-x="286" 
 />
    <glyph glyph-name="exclam" unicode="!" horiz-adv-x="331" 
d="M118 697h94l-22 -499h-50zM165 103q31 0 42 -9t11 -40q0 -33 -11 -43.5t-42 -10.5q-30 0 -41 10.5t-11 43.5q0 31 11 40t41 9z" />
    <glyph glyph-name="quotedbl" unicode="&#x22;" horiz-adv-x="305" 
d="M45 697h77l-19 -230h-47zM186 697h74l-19 -230h-46z" />
    <glyph glyph-name="numbersign" unicode="#" horiz-adv-x="659" 
d="M43 455l4 55h141l11 187h64l-11 -187h165l11 187h64l-11 -187h148l-4 -55h-148l-12 -194h151l-4 -54h-150l-13 -207h-64l13 207h-165l-13 -207h-64l13 207h-139l4 54h138l12 194h-141zM248 455l-12 -194h165l12 194h-165z" />
    <glyph glyph-name="dollar" unicode="$" horiz-adv-x="624" 
d="M283 825h60v-141q108 0 182 -21l-21 -65q-45 24 -161 24v-241q106 -13 155 -57.5t49 -128.5q0 -166 -204 -187v-145h-60v142q-118 0 -189 21l22 65q62 -24 167 -24v256q-107 10 -154.5 49t-47.5 122q0 167 202 186v145zM474 194q0 54 -28.5 82.5t-102.5 39.5v-245
q64 8 97.5 36.5t33.5 86.5zM154 495q0 -52 28 -76t101 -32v232q-129 -16 -129 -124z" />
    <glyph glyph-name="percent" unicode="%" horiz-adv-x="862" 
d="M591 697h71l-394 -697h-71zM204 277q-79 0 -116.5 49t-37.5 173q0 122 37 168.5t117 46.5t117 -46t37 -169q0 -124 -37.5 -173t-116.5 -49zM204 661q-51 0 -72 -33t-21 -131q0 -94 21.5 -131t71.5 -37q52 0 72.5 36.5t20.5 131.5q0 99 -20 131.5t-73 32.5zM658 -14
q-79 0 -116.5 49t-37.5 173q0 122 37 168.5t117 46.5t117 -46t37 -169q0 -124 -37.5 -173t-116.5 -49zM658 370q-51 0 -72 -33t-21 -131q0 -94 21.5 -131t71.5 -37q52 0 72.5 36.5t20.5 131.5q0 99 -20 131.5t-73 32.5z" />
    <glyph glyph-name="ampersand" unicode="&#x26;" horiz-adv-x="758" 
d="M717 401q0 -129 -88 -244q24 -34 100 -157h-81q-20 37 -64 104q-69 -67 -124 -92.5t-149 -25.5q-128 0 -188 43.5t-60 155.5q0 78 43.5 130t136.5 56q-36 3 -61.5 14t-39 25t-20.5 37.5t-8.5 42.5t-1.5 49q0 175 219 175q114 0 167 -42.5t53 -127.5q0 -73 -31 -118
t-117 -53q41 -5 83 -40t105 -124q59 89 59 192h67zM311 47q85 0 132.5 22.5t105.5 86.5q-65 96 -117.5 142t-110.5 46q-94 0 -137.5 -34.5t-43.5 -115.5t37 -114t134 -33zM323 403q155 0 155 131q0 64 -33.5 91.5t-113.5 27.5t-112.5 -27t-32.5 -91q0 -70 31.5 -101
t105.5 -31z" />
    <glyph glyph-name="quotesingle" unicode="'" horiz-adv-x="167" 
d="M45 697h77l-19 -230h-47z" />
    <glyph glyph-name="parenleft" unicode="(" horiz-adv-x="255" 
d="M68 249q0 405 200 507l32 -53q-69 -25 -115 -136.5t-46 -317.5t46 -317.5t115 -136.5l-32 -53q-200 102 -200 507z" />
    <glyph glyph-name="parenright" unicode=")" horiz-adv-x="255" 
d="M187 249q0 -405 -200 -507l-32 53q69 25 115 136.5t46 317.5t-46 317.5t-115 136.5l32 53q200 -102 200 -507z" />
    <glyph glyph-name="asterisk" unicode="*" horiz-adv-x="420" 
d="M30 518v54h133l-66 116l47 26l65 -115l67 115l48 -27l-67 -115h133v-54h-134l67 -116l-47 -26l-66 114l-66 -114l-48 27l66 115h-132z" />
    <glyph glyph-name="plus" unicode="+" 
d="M71 328v60h208v210h62v-210h209v-60h-209v-209h-62v209h-208z" />
    <glyph glyph-name="comma" unicode="," horiz-adv-x="256" 
d="M192 98l-109 -257h-60l78 257h91z" />
    <glyph glyph-name="hyphen" unicode="-" horiz-adv-x="277" 
d="M33 245v60h211v-60h-211z" />
    <glyph glyph-name="hyphen" unicode="&#xad;" horiz-adv-x="277" 
d="M33 245v60h211v-60h-211z" />
    <glyph glyph-name="period" unicode="." horiz-adv-x="256" 
d="M127 103q32 0 42.5 -9t10.5 -40q0 -34 -10.5 -44t-42.5 -10q-30 0 -40.5 10.5t-10.5 43.5q0 31 10.5 40t40.5 9z" />
    <glyph glyph-name="slash" unicode="/" horiz-adv-x="427" 
d="M397 697h76l-357 -697h-74z" />
    <glyph glyph-name="zero" unicode="0" 
d="M311 -14q-86 0 -138.5 33t-80.5 115.5t-28 223.5q0 139 28 218t80 108.5t139 29.5q88 0 139.5 -29.5t79.5 -108.5t28 -218q0 -208 -58.5 -290t-188.5 -82zM310 656q-67 0 -101.5 -21t-53 -85.5t-18.5 -191.5q0 -121 18 -188.5t54.5 -94.5t100.5 -27q97 0 136 65.5
t39 244.5q0 96 -9 154.5t-31.5 90.5t-53 42.5t-81.5 10.5z" />
    <glyph glyph-name="one" unicode="1" 
d="M372 0h-72v621l-156 -75l-24 54l252 122v-722z" />
    <glyph glyph-name="two" unicode="2" 
d="M155 60h379v-60h-472v56l225 182.5t118.5 116t52 82t8.5 80.5q0 75 -40.5 103.5t-135.5 28.5q-45 0 -97.5 -7.5t-76.5 -19.5l-18 65q110 27 193 27q130 0 190 -45t60 -150q0 -55 -12.5 -95t-54.5 -93t-116.5 -115t-202.5 -156z" />
    <glyph glyph-name="three" unicode="3" 
d="M386 375q91 -4 126.5 -53t35.5 -130q0 -114 -64.5 -160t-208.5 -46q-97 0 -213 29l17 56q79 -24 196 -24q114 0 155 32.5t41 114.5q0 83 -41.5 116.5t-142.5 33.5h-80v59h80q91 0 132 31t41 101q0 65 -38 91.5t-142 26.5q-112 0 -192 -26l-18 60q126 27 210 27
q138 0 196 -41.5t58 -128.5q0 -72 -31.5 -116.5t-116.5 -52.5z" />
    <glyph glyph-name="four" unicode="4" horiz-adv-x="615" 
d="M389 263v389q-64 -78 -137.5 -193t-118.5 -196h256zM460 697v-434h99v-59h-99v-204h-71v204h-353v15q56 103 143.5 240t165.5 238h115z" />
    <glyph glyph-name="five" unicode="5" 
d="M181 637v-225q51 6 113 6q140 0 197 -49.5t57 -164.5q0 -122 -63 -170t-208 -48q-81 0 -199 29l18 56q78 -24 181 -24q114 0 154 33t40 115q0 92 -36.5 127t-140.5 35q-105 0 -183 -19v359h394v-60h-324z" />
    <glyph glyph-name="six" unicode="6" 
d="M553 685l-23 -64q-69 28 -156 28q-63 0 -101.5 -9t-70 -35t-46 -75.5t-17.5 -128.5q85 17 181 17q140 0 197.5 -49.5t57.5 -164.5q0 -122 -58 -170t-192 -48q-98 0 -153 32.5t-81.5 112t-26.5 222.5q0 106 19 176.5t60 111t95.5 57t134.5 16.5q88 0 180 -29zM325 47
q103 0 138 32.5t35 115.5q0 92 -37 127t-141 35q-101 0 -181 -18q1 -90 12 -147.5t36 -89t57 -43.5t81 -12z" />
    <glyph glyph-name="seven" unicode="7" 
d="M584 697v-26q-80 -129 -168 -320.5t-144 -350.5h-82q62 171 145 348.5t153 288.5h-397v60h493z" />
    <glyph glyph-name="eight" unicode="8" 
d="M311 47q97 0 134.5 33t37.5 114q0 82 -40 116t-132 34t-131.5 -34t-39.5 -116q0 -81 37 -114t134 -33zM311 403q82 0 118.5 31t36.5 101q0 64 -34.5 91t-120.5 27t-120.5 -27t-34.5 -91q0 -70 36.5 -101t118.5 -31zM311 -14q-126 0 -187 47t-61 159q0 81 35.5 130
t127.5 53q-85 8 -114.5 51.5t-29.5 117.5q0 86 54 128t175 42t175.5 -42t54.5 -128q0 -74 -29.5 -117.5t-114.5 -51.5q91 -4 126.5 -53t35.5 -130q0 -113 -60.5 -159.5t-187.5 -46.5z" />
    <glyph glyph-name="nine" unicode="9" 
d="M314 282q-143 0 -199 44t-56 157q0 123 59 177t191 54q146 0 200 -49.5t54 -193.5q0 -75 -23.5 -144.5t-67 -129.5t-85 -103.5t-98.5 -93.5h-100q197 164 260 292q-80 -10 -135 -10zM489 459q0 53 -7 89t-19.5 57t-36.5 32t-49.5 14t-67.5 3q-102 0 -137.5 -38.5
t-35.5 -124.5q0 -89 35.5 -118t142.5 -29q92 0 160 13q15 48 15 102z" />
    <glyph glyph-name="colon" unicode=":" horiz-adv-x="256" 
d="M127 103q32 0 42.5 -9t10.5 -40q0 -34 -10.5 -44t-42.5 -10q-30 0 -40.5 10.5t-10.5 43.5q0 31 10.5 40t40.5 9zM127 505q32 0 42.5 -9t10.5 -40q0 -34 -10.5 -44t-42.5 -10q-30 0 -40.5 10t-10.5 44q0 31 10.5 40t40.5 9z" />
    <glyph glyph-name="semicolon" unicode=";" horiz-adv-x="256" 
d="M192 98l-109 -257h-60l78 257h91zM127 505q32 0 42.5 -9t10.5 -40q0 -34 -10.5 -44t-42.5 -10q-30 0 -40.5 10t-10.5 44q0 31 10.5 40t40.5 9z" />
    <glyph glyph-name="less" unicode="&#x3c;" 
d="M516 622l-320 -264l320 -266l-37 -44l-368 292v34l366 291z" />
    <glyph glyph-name="equal" unicode="=" 
d="M71 221v60h479v-60h-479zM71 427v60h479v-60h-479z" />
    <glyph glyph-name="greater" unicode="&#x3e;" 
d="M112 92l320 264l-320 266l37 44l368 -292v-34l-366 -291z" />
    <glyph glyph-name="question" unicode="?" horiz-adv-x="466" 
d="M214 103q32 0 42.5 -9t10.5 -40q0 -34 -10.5 -44t-42.5 -10q-30 0 -40.5 10.5t-10.5 43.5q0 31 10.5 40t40.5 9zM257 198h-81q90 85 131.5 162.5t41.5 163.5q0 63 -31 94t-115 31q-85 0 -137 -24l-20 64q27 10 75.5 17.5t81.5 7.5q222 0 222 -184q0 -90 -38 -166.5
t-130 -165.5z" />
    <glyph glyph-name="at" unicode="@" horiz-adv-x="932" 
d="M446 432q93 0 151 -12q-1 86 -40 117t-136 31q-85 0 -135 -11.5t-86 -45t-49.5 -92.5t-13.5 -156q0 -180 68.5 -240.5t259.5 -60.5q97 0 158 14.5t101.5 53t57 100.5t16.5 160q0 148 -24 215h73q22 -67 22 -217q0 -113 -23.5 -188t-75 -119.5t-124.5 -63t-181 -18.5
t-180 17t-123.5 58t-75 112t-23.5 179q0 106 21.5 177.5t66.5 112t107.5 57.5t152.5 17q46 0 78 -3.5t62.5 -13.5t49.5 -28.5t34 -48t21.5 -72.5t6.5 -102q0 -84 -10.5 -136t-37 -80.5t-62 -38.5t-94.5 -10q-113 0 -159.5 36t-46.5 134q0 54 11.5 87.5t38 50.5t58.5 22.5
t85 5.5zM466 374q-85 0 -112.5 -19t-27.5 -86t28.5 -90.5t106.5 -23.5q79 0 107.5 32t28.5 125v53q-52 9 -131 9z" />
    <glyph glyph-name="A" unicode="A" horiz-adv-x="668" 
d="M580 0q-56 139 -84 215h-340l-72 -215h-71q128 372 263 697h123q140 -417 262 -697h-81zM349 641h-29q-91 -225 -142 -366h296q-65 179 -125 366z" />
    <glyph glyph-name="B" unicode="B" horiz-adv-x="689" 
d="M446 60q98 0 98 138q0 67 -25 106.5t-77 39.5h-269v-284h273zM436 403q92 0 92 120q0 57 -20 85.5t-72 28.5h-263v-234h263zM464 375q91 -4 124 -50t33 -128q0 -97 -44.5 -147t-129.5 -50h-346v697h335q50 0 84 -13t51.5 -37.5t24 -51.5t6.5 -63q0 -73 -26.5 -111
t-111.5 -46z" />
    <glyph glyph-name="C" unicode="C" horiz-adv-x="602" 
d="M63 355q0 106 19 176t60.5 110.5t98 56.5t141.5 16q104 0 195 -27l-23 -65q-67 27 -171 27q-71 0 -113 -10t-73.5 -41t-43.5 -89t-12 -154q0 -127 25 -192.5t74 -88t143 -22.5q103 0 171 26l23 -64q-89 -28 -195 -28q-168 0 -243.5 81t-75.5 288z" />
    <glyph glyph-name="D" unicode="D" horiz-adv-x="703" 
d="M101 697h215q85 0 143 -16.5t100 -55.5t61.5 -107t19.5 -168q0 -195 -77 -272.5t-247 -77.5h-215v697zM563 350q0 91 -12.5 147t-44.5 87.5t-75 42t-115 10.5h-143v-577h143q138 0 192.5 61t54.5 229z" />
    <glyph glyph-name="E" unicode="E" horiz-adv-x="610" 
d="M101 697h477v-60h-405v-234h287v-60h-287v-283h405v-60h-477v697z" />
    <glyph glyph-name="F" unicode="F" horiz-adv-x="571" 
d="M101 697h470v-60h-398v-268h287v-60h-287v-309h-72v697z" />
    <glyph glyph-name="G" unicode="G" horiz-adv-x="677" 
d="M523 67v249h-182v58h254v-365q-73 -23 -213 -23q-168 0 -243.5 81t-75.5 288q0 106 19 176t60.5 110.5t98 56.5t141.5 16q104 0 195 -27l-23 -63q-68 26 -171 26q-71 0 -113 -10t-73.5 -41.5t-43.5 -89.5t-12 -154q0 -127 25 -193t74.5 -89t142.5 -23q76 0 140 17z" />
    <glyph glyph-name="H" unicode="H" horiz-adv-x="714" 
d="M173 341v-341h-72v697h72v-291h370v291h71v-697h-71v341h-370z" />
    <glyph glyph-name="I" unicode="I" horiz-adv-x="273" 
d="M101 697h72v-697h-72v697z" />
    <glyph glyph-name="J" unicode="J" horiz-adv-x="440" 
d="M339 697v-505q0 -62 -15.5 -104.5t-44 -63.5t-59.5 -29.5t-71 -8.5q-67 0 -136 30l24 67q50 -26 112 -26q116 0 116 135v505h74z" />
    <glyph glyph-name="K" unicode="K" horiz-adv-x="617" 
d="M173 697v-697h-72v697h72zM624 0h-97q-116 160 -213.5 257t-139.5 111q45 26 136.5 115t192.5 214h95q-105 -123 -192 -208.5t-126 -111.5q40 -23 136 -123t208 -254z" />
    <glyph glyph-name="L" unicode="L" horiz-adv-x="546" 
d="M101 697h72v-634h360v-63h-432v697z" />
    <glyph glyph-name="M" unicode="M" horiz-adv-x="869" 
d="M437 174q92 239 231 523h101v-697h-72v617l-238 -541h-53l-235 541v-617h-70v697h108q131 -274 228 -523z" />
    <glyph glyph-name="N" unicode="N" horiz-adv-x="730" 
d="M173 624v-624h-72v697h98q172 -255 357 -590v590h73v-697h-86q-169 314 -370 624z" />
    <glyph glyph-name="O" unicode="O" horiz-adv-x="759" 
d="M379 -14q-113 0 -179.5 31t-101.5 112t-35 223q0 140 35 220t101.5 111t179.5 31t180 -31t102 -111t35 -220q0 -142 -35 -223t-101.5 -112t-180.5 -31zM379 653q-71 0 -113 -11t-72 -44.5t-41.5 -92t-11.5 -155.5q0 -122 23.5 -186.5t73 -89.5t141.5 -25q70 0 113.5 12.5
t73.5 47t42 92t12 149.5q0 97 -12 155.5t-42.5 92t-73 44.5t-113.5 11z" />
    <glyph glyph-name="P" unicode="P" horiz-adv-x="650" 
d="M173 320h238q59 0 89 41t30 111q0 78 -29 121.5t-85 43.5h-243v-317zM173 0h-72v697h311q198 0 198 -226q0 -92 -46.5 -153.5t-146.5 -61.5h-244v-256z" />
    <glyph glyph-name="Q" unicode="Q" horiz-adv-x="785" 
d="M696 -192h-92q-59 83 -118 128.5t-99 49.5q-111 1 -176.5 32.5t-100 112t-34.5 221.5q0 140 35 220t101.5 111t179.5 31t180 -31t102 -111t35 -220q0 -179 -53.5 -260.5t-171.5 -99.5q78 -13 212 -184zM392 653q-71 0 -113 -11t-72 -44.5t-41.5 -92t-11.5 -155.5
q0 -122 23.5 -186.5t73 -89.5t141.5 -25q70 0 113.5 12.5t73.5 47t42 92t12 149.5q0 97 -12 155.5t-42.5 92t-73 44.5t-113.5 11z" />
    <glyph glyph-name="R" unicode="R" horiz-adv-x="675" 
d="M101 697h311q198 0 198 -202q0 -82 -47 -133t-154 -51q71 -24 244 -311h-90q-83 145 -149.5 223.5t-105.5 78.5h-135v-302h-72v697zM412 637h-239v-272h234q60 0 91.5 35t31.5 96q0 68 -30.5 104.5t-87.5 36.5z" />
    <glyph glyph-name="S" unicode="S" horiz-adv-x="624" 
d="M515 622q-23 12 -74.5 19.5t-96.5 7.5q-100 0 -151.5 -30t-51.5 -107q0 -55 39 -84t138 -36q126 -10 183.5 -58t57.5 -144q0 -204 -283 -204q-109 0 -198 28l20 64q70 -26 177 -26q101 0 154.5 30.5t53.5 106.5q0 57 -39.5 92.5t-136.5 42.5q-129 9 -186 50.5t-57 135.5
q0 204 279 204q101 0 192 -27z" />
    <glyph glyph-name="T" unicode="T" horiz-adv-x="568" 
d="M321 637v-637h-73v637h-242v60h556v-60h-241z" />
    <glyph glyph-name="U" unicode="U" horiz-adv-x="738" 
d="M650 697v-455q0 -78 -17.5 -129t-55.5 -78.5t-86.5 -38t-121.5 -10.5q-72 0 -120.5 10.5t-86.5 38t-56 78.5t-18 129v455h73v-456q0 -115 48.5 -153.5t160.5 -38.5q111 0 159.5 39.5t48.5 152.5v456h72z" />
    <glyph glyph-name="V" unicode="V" horiz-adv-x="639" 
d="M319 55q123 289 235 642h72q-126 -380 -263 -697h-95q-126 399 -262 697h82q135 -323 231 -642z" />
    <glyph glyph-name="W" unicode="W" horiz-adv-x="905" 
d="M648 74q107 326 179 623h71q-94 -370 -206 -697h-93q-44 235 -137 594q-36 -195 -158 -594h-91q-124 469 -207 697h81q95 -287 176 -623q116 388 162 623h74q4 -14 29 -109.5l35.5 -138l30 -121.5t32.5 -140t22 -114z" />
    <glyph glyph-name="X" unicode="X" horiz-adv-x="648" 
d="M541 697h84l-252 -340l262 -357h-87l-219 299l-232 -299h-84l274 353l-266 344h87l222 -285z" />
    <glyph glyph-name="Y" unicode="Y" horiz-adv-x="607" 
d="M340 335v-335h-73v335q-119 175 -272 362h91q115 -142 223 -305q114 144 220 305h83q-146 -208 -272 -362z" />
    <glyph glyph-name="Z" unicode="Z" horiz-adv-x="609" 
d="M21 0v29q256 318 459 608h-432v60h536v-26q-217 -320 -458 -611h440v-60h-545z" />
    <glyph glyph-name="bracketleft" unicode="[" horiz-adv-x="266" 
d="M86 755h200v-58h-131v-900h131v-57h-200v1015z" />
    <glyph glyph-name="backslash" unicode="\" horiz-adv-x="427" 
d="M-48 697h76l355 -697h-74z" />
    <glyph glyph-name="bracketright" unicode="]" horiz-adv-x="266" 
d="M-20 755h200v-1015h-200v57h131v900h-131v58z" />
    <glyph glyph-name="asciicircum" unicode="^" horiz-adv-x="471" 
d="M392 296l-159 338l-159 -338h-64l190 401h69l192 -401h-69z" />
    <glyph glyph-name="underscore" unicode="_" horiz-adv-x="398" 
d="M33 -128v60h332v-60h-332z" />
    <glyph glyph-name="grave" unicode="`" horiz-adv-x="494" 
d="M304 568h-69l-133 129h83z" />
    <glyph glyph-name="a" unicode="a" horiz-adv-x="542" 
d="M466 323v-297q-88 -40 -204 -40q-111 0 -158 37t-47 133q0 99 51 133t149 34q68 0 144 -16q0 92 -30 121t-119 29t-145 -24l-19 61q89 25 168 25q114 0 162 -42t48 -154zM401 68v184q-53 13 -136 13q-80 0 -107.5 -18.5t-27.5 -85.5q0 -74 26.5 -95t108.5 -21
q72 0 136 23z" />
    <glyph glyph-name="b" unicode="b" horiz-adv-x="572" 
d="M280 519q122 0 175.5 -59t53.5 -209t-53.5 -207.5t-175.5 -57.5q-48 0 -106 11t-98 29v696h65v-244q51 41 139 41zM280 48q62 0 94 15.5t47.5 59t15.5 129.5q0 121 -33.5 163t-123.5 42q-59 0 -99 -19t-40 -52v-317q59 -21 139 -21z" />
    <glyph glyph-name="c" unicode="c" horiz-adv-x="466" 
d="M430 74l21 -60q-63 -28 -144 -28q-124 0 -184 60t-60 209q0 148 60 206t184 58q80 0 144 -25l-21 -61q-51 24 -123 24q-47 0 -77 -8t-52.5 -29.5t-32.5 -62t-10 -104.5q0 -119 39.5 -162t132.5 -43q65 0 123 26z" />
    <glyph glyph-name="d" unicode="d" horiz-adv-x="572" 
d="M292 519q88 0 139 -41v244h65v-696q-40 -18 -98 -29t-106 -11q-122 0 -175.5 57.5t-53.5 207.5t53.5 209t175.5 59zM292 48q80 0 139 21v317q0 33 -40 52t-99 19q-90 0 -123.5 -42t-33.5 -163q0 -86 15.5 -129.5t47.5 -59t94 -15.5z" />
    <glyph glyph-name="e" unicode="e" horiz-adv-x="546" 
d="M290 519q111 0 158.5 -58.5t47.5 -214.5h-361q1 -118 39.5 -158.5t130.5 -40.5q72 0 145 27l15 -60q-91 -28 -166 -28q-121 0 -178.5 60t-57.5 209q0 144 55 204t172 60zM290 458q-81 0 -114.5 -32.5t-39.5 -120.5h286q-4 92 -32 122.5t-100 30.5z" />
    <glyph glyph-name="f" unicode="f" horiz-adv-x="355" 
d="M167 552v-47h180v-60h-180v-445h-65v445h-89v60h89v47q0 53 13 88t38.5 51t51 22t61.5 6q61 0 114 -16l-17 -57q-41 13 -97 13q-21 0 -36 -3t-31 -13t-24 -33t-8 -58z" />
    <glyph glyph-name="g" unicode="g" horiz-adv-x="572" 
d="M496 479v-442q0 -134 -62.5 -187t-187.5 -53q-34 0 -85 8.5t-78 20.5l19 62q25 -12 69.5 -20.5t74.5 -8.5q95 0 140 36.5t45 132.5q-52 -42 -139 -42q-122 0 -175.5 59t-53.5 210q0 150 53.5 207t175.5 57q48 0 106 -11t98 -29zM292 457q-92 0 -124.5 -39.5t-32.5 -164.5
q0 -121 33.5 -163t123.5 -42q59 0 99 19t40 53v316q-59 21 -139 21z" />
    <glyph glyph-name="h" unicode="h" horiz-adv-x="554" 
d="M288 519q105 0 148 -49.5t43 -184.5v-285h-65v272q0 113 -27.5 149t-105.5 36q-57 0 -98.5 -19t-41.5 -52v-386h-65v722h65v-244q20 16 61 28.5t86 12.5z" />
    <glyph glyph-name="i" unicode="i" horiz-adv-x="217" 
d="M141 0v505h-65v-505h65zM110 697q24 0 32.5 -7t8.5 -32q0 -27 -8.5 -35t-32.5 -8q-25 0 -33.5 8t-8.5 35q0 25 8.5 32t33.5 7z" />
    <glyph glyph-name="j" unicode="j" horiz-adv-x="217" 
d="M-24 -203v60q54 0 77 22t23 93v533h65v-533q0 -103 -42.5 -139t-122.5 -36zM110 697q24 0 32.5 -7t8.5 -32q0 -27 -8.5 -35t-32.5 -8q-25 0 -33.5 8t-8.5 35q0 25 8.5 32t33.5 7z" />
    <glyph glyph-name="k" unicode="k" horiz-adv-x="478" 
d="M141 722v-722h-65v722h65zM396 0h84q-200 251 -249 276q60 40 231 229h-84q-179 -199 -237 -238q52 -18 255 -267z" />
    <glyph glyph-name="l" unicode="l" horiz-adv-x="222" 
d="M141 722v-592q0 -36 10 -58.5t38 -50.5l-50 -42q-34 32 -48.5 63.5t-14.5 83.5v596h65z" />
    <glyph glyph-name="m" unicode="m" horiz-adv-x="860" 
d="M141 440v-440h-65v479q88 40 196 40q94 0 136 -35q93 35 186 35q110 0 150.5 -48.5t40.5 -185.5v-285h-65v272q0 113 -28.5 149t-109.5 36q-77 0 -140 -22q21 -58 21 -150v-285h-65v272q0 113 -28 149t-109 36q-67 0 -120 -17z" />
    <glyph glyph-name="n" unicode="n" horiz-adv-x="554" 
d="M141 440v-440h-65v479q40 18 98 29t106 11q112 0 155.5 -49t43.5 -185v-285h-65v272q0 114 -29.5 149.5t-116.5 35.5q-72 0 -127 -17z" />
    <glyph glyph-name="o" unicode="o" horiz-adv-x="585" 
d="M292 -14q-122 0 -175.5 59t-53.5 210q0 150 53.5 207t175.5 57t176 -57t54 -207q0 -151 -54 -210t-176 -59zM292 459q-91 0 -124 -40t-33 -166q0 -121 33.5 -164t123.5 -43q91 0 124.5 43t33.5 164q0 126 -33 166t-125 40z" />
    <glyph glyph-name="p" unicode="p" horiz-adv-x="572" 
d="M280 -14q-86 0 -139 42v-220h-65v671q40 18 98 29t106 11q122 0 175.5 -57t53.5 -207q0 -151 -53.5 -210t-175.5 -59zM280 457q-80 0 -139 -21v-316q0 -34 40 -53t99 -19q90 0 123.5 42t33.5 163q0 125 -32.5 164.5t-124.5 39.5z" />
    <glyph glyph-name="q" unicode="q" horiz-adv-x="572" 
d="M292 -14q-122 0 -175.5 59t-53.5 210q0 150 53.5 207t175.5 57q48 0 106 -11t98 -29v-671h-65v220q-52 -42 -139 -42zM292 457q-92 0 -124.5 -39.5t-32.5 -164.5q0 -121 33.5 -163t123.5 -42q59 0 99 19t40 53v316q-59 21 -139 21z" />
    <glyph glyph-name="r" unicode="r" horiz-adv-x="343" 
d="M283 519q28 0 52 -3v-67q-30 4 -52 4q-61 0 -101.5 -17t-40.5 -50v-386h-65v505h65v-36q16 20 54 35t88 15z" />
    <glyph glyph-name="s" unicode="s" horiz-adv-x="504" 
d="M404 431q-72 28 -144 28q-70 0 -99.5 -17.5t-29.5 -73.5q0 -38 29 -56t97 -22q99 -7 143 -41t44 -104q0 -88 -46 -123.5t-149 -35.5t-182 27l20 61q26 -12 74.5 -20.5t87.5 -8.5q67 0 95.5 18.5t28.5 75.5q0 42 -26.5 62t-97.5 26q-97 7 -143 37t-46 98q0 86 49 121.5
t151 35.5q73 0 166 -26z" />
    <glyph glyph-name="t" unicode="t" horiz-adv-x="393" 
d="M167 445v-275q0 -66 21 -94t73 -28q55 0 96 15l15 -58q-55 -19 -111 -19q-89 0 -124 37.5t-35 145.5v276h-89v60h89v106l65 27v-133h187v-60h-187z" />
    <glyph glyph-name="u" unicode="u" horiz-adv-x="554" 
d="M414 66v439h65v-479q-90 -40 -204 -40q-111 0 -155 49.5t-44 184.5v285h65v-272q0 -113 29.5 -149t115.5 -36q74 0 128 18z" />
    <glyph glyph-name="v" unicode="v" horiz-adv-x="509" 
d="M253 62q111 268 160 443h71q-62 -204 -188 -505h-92q-100 340 -179 505h73q85 -197 155 -443z" />
    <glyph glyph-name="w" unicode="w" horiz-adv-x="813" 
d="M787 505q-70 -265 -172 -505h-92q-54 261 -112 430q-54 -218 -130 -430h-92q-80 296 -164 505h77q74 -193 136 -443q33 92 74 230.5t57 212.5h83q57 -165 120 -443q97 256 142 443h73z" />
    <glyph glyph-name="x" unicode="x" horiz-adv-x="522" 
d="M489 0h-81q-63 101 -137 203l-160 -203h-80q99 114 203 253q-91 124 -203 252h90q96 -120 152 -198q58 79 136 198h79q-84 -125 -177 -249q76 -103 178 -256z" />
    <glyph glyph-name="y" unicode="y" horiz-adv-x="509" 
d="M211 -24q-99 350 -186 529h73q79 -179 156 -447q106 257 159 447h71q-63 -210 -188 -505q-41 -98 -91 -192h-76q35 65 82 168z" />
    <glyph glyph-name="z" unicode="z" horiz-adv-x="495" 
d="M36 0v27q207 250 315 418h-299v60h401v-25q-68 -103 -162 -231t-147 -189h310v-60h-418z" />
    <glyph glyph-name="braceleft" unicode="{" horiz-adv-x="259" 
d="M15 223v-1v53q108 0 108 201q0 120 40.5 188.5t108.5 91.5l32 -53q-56 -15 -84.5 -65t-28.5 -162t-27 -164.5t-61 -62.5q34 -10 61 -62.5t27 -164.5t28.5 -162t84.5 -65l-32 -53q-68 23 -108.5 91.5t-40.5 188.5q0 201 -108 201z" />
    <glyph glyph-name="bar" unicode="|" horiz-adv-x="311" 
d="M120 755h71v-1011h-71v1011z" />
    <glyph glyph-name="braceright" unicode="}" horiz-adv-x="259" 
d="M244 222v1q-108 0 -108 -201q0 -120 -40.5 -188.5t-108.5 -91.5l-32 53q56 15 84.5 65t28.5 162t27 164.5t61 62.5q-34 10 -61 62.5t-27 164.5t-28.5 162t-84.5 65l32 53q68 -23 108.5 -91.5t40.5 -188.5q0 -201 108 -201v-53z" />
    <glyph glyph-name="asciitilde" unicode="~" 
d="M507 425l47 -35q-38 -101 -130 -101q-32 0 -125 44.5t-120 44.5q-41 0 -68 -65l-42 37q27 46 54 67t65 21q34 0 126 -43t118 -43q48 0 75 73z" />
    <glyph glyph-name="nbspace" unicode="&#xa0;" horiz-adv-x="286" 
 />
    <glyph glyph-name="exclamdown" unicode="&#xa1;" horiz-adv-x="331" 
d="M214 -178h-94l22 499h50zM167 416q-31 0 -42 9t-11 40q0 33 11 43.5t42 10.5q30 0 41 -10.5t11 -43.5q0 -31 -11 -40t-41 -9z" />
    <glyph glyph-name="cent" unicode="&#xa2;" horiz-adv-x="466" 
d="M259 757h61v-101q72 -4 131 -25l-21 -61q-45 21 -110 24v-409q60 3 110 26l21 -60q-53 -24 -131 -28v-123h-61v125q-99 10 -147.5 71.5t-48.5 195.5q0 133 48.5 192.5t147.5 68.5v104zM135 390q0 -102 29 -147.5t95 -54.5v403q-66 -8 -95 -51t-29 -150z" />
    <glyph glyph-name="sterling" unicode="&#xa3;" horiz-adv-x="599" 
d="M47 320v60h68v111q0 222 254 222q101 0 192 -27l-20 -65q-23 12 -74.5 19.5t-96.5 7.5q-93 0 -138 -38t-45 -119v-111h192v-60h-192v-260h360v-60h-432v320h-68z" />
    <glyph glyph-name="currency" unicode="&#xa4;" horiz-adv-x="648" 
d="M330 84q-92 0 -141 30l-92 -114l-47 47l92 113q-41 62 -41 193q0 125 39 187l-88 117l56 40l82 -109q50 29 140 29q88 0 136 -26l75 106l55 -39l-79 -113q43 -61 43 -192q0 -133 -43 -195l84 -111l-53 -47l-83 110q-51 -26 -135 -26zM330 555q-92 0 -124.5 -39.5
t-32.5 -164.5q0 -121 33.5 -163t123.5 -42q91 0 124.5 42t33.5 163q0 86 -15.5 130t-47.5 59t-95 15z" />
    <glyph glyph-name="yen" unicode="&#xa5;" horiz-adv-x="607" 
d="M64 313v60h177q-111 158 -246 324h91q115 -142 223 -305q114 144 220 305h83q-130 -184 -241 -324h172v-60h-203v-96h203v-60h-203v-157h-73v157h-203v60h203v96h-203z" />
    <glyph glyph-name="brokenbar" unicode="&#xa6;" horiz-adv-x="311" 
d="M120 755h71v-367h-71v367zM120 111h71v-367h-71v367z" />
    <glyph glyph-name="section" unicode="&#xa7;" horiz-adv-x="624" 
d="M535 687l-20 -65q-23 12 -74.5 19.5t-96.5 7.5q-203 0 -203 -133q0 -50 39 -76.5t138 -32.5q128 -9 189.5 -51t61.5 -129q0 -63 -40 -119q41 -38 41 -111q0 -99 -74 -149.5t-205 -50.5q-101 0 -192 27l20 65q23 -12 74.5 -19.5t96.5 -7.5q203 0 203 133q0 50 -39 76.5
t-138 32.5q-128 9 -189.5 51t-61.5 129q0 61 39 118q-40 40 -40 112q0 99 74 149.5t205 50.5q101 0 192 -27zM156 369q-15 -35 -15 -84q0 -54 42 -80.5t144 -33.5q94 -6 151 -30q15 39 15 85q0 54 -42 80.5t-144 33.5q-97 6 -151 29z" />
    <glyph glyph-name="dieresis" unicode="&#xa8;" horiz-adv-x="408" 
d="M110 657q24 0 32.5 -7t8.5 -32q0 -27 -8.5 -35t-32.5 -8q-25 0 -33.5 8t-8.5 35q0 25 8.5 32t33.5 7zM299 657q24 0 32.5 -7t8.5 -32q0 -27 -8.5 -35t-32.5 -8q-25 0 -33.5 8t-8.5 35q0 25 8.5 32t33.5 7z" />
    <glyph glyph-name="copyright" unicode="&#xa9;" horiz-adv-x="873" 
d="M436 -14q-97 0 -161.5 17t-111 58t-67 112t-20.5 179q0 106 21 176.5t67 111.5t111 57.5t161 16.5q97 0 162 -16.5t111 -57.5t67 -111.5t21 -176.5q0 -108 -21 -179t-67 -112t-111 -58t-162 -17zM435 657q-82 0 -133 -12t-87.5 -45.5t-51.5 -93.5t-15 -156
q0 -121 29.5 -187t89.5 -91.5t168 -25.5q82 0 134.5 13.5t89 47.5t52 92.5t15.5 150.5q0 96 -15 156t-52.5 93.5t-89 45.5t-134.5 12zM565 205l18 -61q-65 -24 -137 -24q-112 0 -164 52t-52 182q0 131 51.5 181.5t164.5 50.5q74 0 137 -21l-18 -63q-44 20 -119 20
q-55 0 -82.5 -12t-41.5 -48.5t-14 -108.5q0 -101 29.5 -136t108.5 -35q64 0 119 23z" />
    <glyph glyph-name="ordfeminine" unicode="&#xaa;" horiz-adv-x="407" 
d="M347 577v-208q-64 -28 -143 -28t-111.5 25t-32.5 94q0 70 36 93.5t104 23.5q52 0 101 -11q0 64 -22 84.5t-82 20.5q-62 0 -102 -17l-13 43q66 17 118 17q80 0 113.5 -28.5t33.5 -108.5zM301 398v129q-33 9 -95 9q-49 0 -71.5 -13.5t-22.5 -58.5t20 -63.5t74 -18.5
q47 0 95 16z" />
    <glyph glyph-name="guillemotleft" unicode="&#xab;" horiz-adv-x="595" 
d="M341 524l-217 -222l217 -228l-37 -44l-270 269l268 268zM561 524l-217 -222l217 -228l-37 -44l-270 269l268 268z" />
    <glyph glyph-name="logicalnot" unicode="&#xac;" horiz-adv-x="495" 
d="M455 0h-73v344h-349v59h422v-403z" />
    <glyph glyph-name="registered" unicode="&#xae;" horiz-adv-x="566" 
d="M397 525q0 -83 -65 -83q29 -13 69 -90h-69q-14 30 -33.5 59t-31.5 29h-30v-88h-57v259h149q34 0 51 -24t17 -62zM339 524q0 38 -29 38h-73v-79h73q29 0 29 41zM503 481q0 -131 -52 -182.5t-169 -51.5q-116 0 -167.5 51.5t-51.5 182.5q0 132 51.5 182t167.5 50
q117 0 169 -50t52 -182zM445 481q0 77 -17 116t-50 52.5t-96 13.5q-91 0 -125.5 -35.5t-34.5 -146.5q0 -107 35.5 -144.5t124.5 -37.5q92 0 127.5 37.5t35.5 144.5z" />
    <glyph glyph-name="macron" unicode="&#xaf;" horiz-adv-x="533" 
d="M136 586v58h251v-58h-251z" />
    <glyph glyph-name="macron" unicode="&#x2c9;" horiz-adv-x="533" 
d="M136 586v58h251v-58h-251z" />
    <glyph glyph-name="degree" unicode="&#xb0;" horiz-adv-x="408" 
d="M204 277q-79 0 -116.5 49t-37.5 173q0 122 37 168.5t117 46.5t117 -46t37 -169q0 -124 -37.5 -173t-116.5 -49zM204 661q-51 0 -72 -33t-21 -131q0 -94 21.5 -131t71.5 -37q52 0 72.5 36.5t20.5 131.5q0 99 -20 131.5t-73 32.5z" />
    <glyph glyph-name="plusminus" unicode="&#xb1;" 
d="M71 398v60h208v210h62v-210h209v-60h-209v-209h-62v209h-208zM71 40v60h479v-60h-479z" />
    <glyph glyph-name="twosuperior" unicode="&#xb2;" horiz-adv-x="380" 
d="M108 341h232v-55h-305q7 69 28.5 112t51.5 63.5t81 38.5q44 15 60.5 38t16.5 56t-24.5 47t-80.5 14q-74 0 -104 -16l-11 59q64 16 116 16q92 0 131 -28t39 -92q0 -51 -26.5 -85.5t-86.5 -57.5q-59 -23 -85.5 -44.5t-32.5 -65.5z" />
    <glyph glyph-name="threesuperior" unicode="&#xb3;" horiz-adv-x="375" 
d="M233 509q56 -3 77.5 -30t21.5 -78q0 -68 -39.5 -95.5t-126.5 -27.5q-66 0 -128 19l10 51q56 -18 119 -18q56 0 77.5 16t21.5 62q0 43 -23 57t-90 14h-28v54h28q60 0 81.5 14t21.5 54q0 37 -19 49t-72 12q-61 0 -112 -17l-11 51q61 18 124 18q83 0 118.5 -25t35.5 -77
q0 -48 -17.5 -73t-69.5 -30z" />
    <glyph glyph-name="acute" unicode="&#xb4;" horiz-adv-x="494" 
d="M171 568h-69l119 129h83z" />
    <glyph glyph-name="mu" unicode="&#xb5;" horiz-adv-x="554" 
d="M143 -192h-67v697h65v-272q0 -113 29.5 -149t115.5 -36q73 0 127 18v439h66v-479q-90 -40 -204 -40q-89 0 -132 29v-207z" />
    <glyph glyph-name="mu" unicode="&#x3bc;" horiz-adv-x="554" 
d="M143 -192h-67v697h65v-272q0 -113 29.5 -149t115.5 -36q73 0 127 18v439h66v-479q-90 -40 -204 -40q-89 0 -132 29v-207z" />
    <glyph glyph-name="paragraph" unicode="&#xb6;" horiz-adv-x="650" 
d="M549 0h-72v256h-97v-256h-72v256h-75q-100 0 -146.5 61.5t-46.5 153.5q0 226 198 226h311v-697z" />
    <glyph glyph-name="periodcentered" unicode="&#xb7;" horiz-adv-x="264" 
d="M131 354q34 0 45.5 -10t11.5 -43q0 -36 -11.5 -47t-45.5 -11q-32 0 -43.5 11t-11.5 47q0 33 11.5 43t43.5 10z" />
    <glyph glyph-name="periodcentered" unicode="&#x2219;" horiz-adv-x="264" 
d="M131 354q34 0 45.5 -10t11.5 -43q0 -36 -11.5 -47t-45.5 -11q-32 0 -43.5 11t-11.5 47q0 33 11.5 43t43.5 10z" />
    <glyph glyph-name="cedilla" unicode="&#xb8;" horiz-adv-x="654" 
d="M328 0h34v-47q70 0 94.5 -15t24.5 -60q0 -46 -28 -63.5t-97 -17.5q-70 0 -106 21l18 42q34 -17 88 -17q33 0 45 6.5t12 27.5q0 22 -24.5 28.5t-96.5 2.5z" />
    <glyph glyph-name="onesuperior" unicode="&#xb9;" horiz-adv-x="336" 
d="M220 294h-64v349l-93 -45l-15 56l172 74v-434z" />
    <glyph glyph-name="ordmasculine" unicode="&#xba;" horiz-adv-x="441" 
d="M220 341q-85 0 -122.5 41t-37.5 147q0 105 37.5 145t122.5 40q86 0 123.5 -40t37.5 -145q0 -106 -37.5 -147t-123.5 -41zM220 661q-61 0 -80.5 -25t-19.5 -108q0 -79 20.5 -106.5t79.5 -27.5t80 27.5t21 106.5q0 83 -20 108t-81 25z" />
    <glyph glyph-name="guillemotright" unicode="&#xbb;" horiz-adv-x="595" 
d="M255 74l217 222l-217 228l37 44l270 -269l-268 -268zM35 74l217 222l-217 228l37 44l270 -269l-268 -268z" />
    <glyph glyph-name="onequarter" unicode="&#xbc;" horiz-adv-x="779" 
d="M512 697h71l-394 -697h-71zM220 294h-64v349l-93 -45l-15 56l172 74v-434zM604 167v204q-89 -109 -144 -204h144zM666 418v-251h60v-55h-60v-112h-62v112h-227v19q82 138 200 287h89z" />
    <glyph glyph-name="onehalf" unicode="&#xbd;" horiz-adv-x="779" 
d="M504 697h71l-394 -697h-71zM212 294h-64v349l-93 -45l-15 56l172 74v-434zM739 55h-232q6 44 32.5 65.5t85.5 44.5q60 23 86.5 57.5t26.5 85.5q0 64 -39 92t-131 28q-52 0 -116 -16l11 -59q30 16 104 16q56 0 80.5 -14t24.5 -47t-16.5 -56t-60.5 -38q-51 -18 -81 -38.5
t-51.5 -63.5t-28.5 -112h305v55z" />
    <glyph glyph-name="threequarters" unicode="&#xbe;" horiz-adv-x="779" 
d="M570 697h71l-394 -697h-71zM604 167v204q-89 -109 -144 -204h144zM666 418v-251h60v-55h-60v-112h-62v112h-227v19q82 138 200 287h89zM236 509q56 -3 77.5 -30t21.5 -78q0 -68 -39.5 -95.5t-126.5 -27.5q-66 0 -128 19l10 51q56 -18 119 -18q56 0 77.5 16t21.5 62
q0 43 -23 57t-90 14h-28v54h28q60 0 81.5 14t21.5 54q0 37 -19 49t-72 12q-61 0 -112 -17l-11 51q61 18 124 18q83 0 118.5 -25t35.5 -77q0 -48 -17.5 -73t-69.5 -30z" />
    <glyph glyph-name="questiondown" unicode="&#xbf;" horiz-adv-x="466" 
d="M258 416q-32 0 -42.5 9t-10.5 40q0 34 10.5 44t42.5 10q30 0 40.5 -10.5t10.5 -43.5q0 -31 -10.5 -40t-40.5 -9zM215 321h81q-90 -85 -131.5 -162.5t-41.5 -163.5q0 -63 31 -94t115 -31q85 0 137 24l20 -64q-27 -10 -75.5 -17.5t-81.5 -7.5q-222 0 -222 184
q0 90 38 166.5t130 165.5z" />
    <glyph glyph-name="Agrave" unicode="&#xc0;" horiz-adv-x="668" 
d="M580 0h81q-122 280 -262 697h-123q-135 -325 -263 -697h71l72 215h340q28 -76 84 -215zM320 641h29q60 -187 125 -366h-296q51 141 142 366zM409 747h-79l-160 129h93z" />
    <glyph glyph-name="Aacute" unicode="&#xc1;" horiz-adv-x="668" 
d="M580 0h81q-122 280 -262 697h-123q-135 -325 -263 -697h71l72 215h340q28 -76 84 -215zM320 641h29q60 -187 125 -366h-296q51 141 142 366zM272 747l134 129h92l-159 -129h-67z" />
    <glyph glyph-name="Acircumflex" unicode="&#xc2;" horiz-adv-x="668" 
d="M580 0h81q-122 280 -262 697h-123q-135 -325 -263 -697h71l72 215h340q28 -76 84 -215zM320 641h29q60 -187 125 -366h-296q51 141 142 366zM332 837l-81 -90h-76l122 129h72l126 -129h-79z" />
    <glyph glyph-name="Atilde" unicode="&#xc3;" horiz-adv-x="668" 
d="M580 0h81q-122 280 -262 697h-123q-135 -325 -263 -697h71l72 215h340q28 -76 84 -215zM320 641h29q60 -187 125 -366h-296q51 141 142 366zM469 867l40 -32q-32 -91 -110 -91q-26 0 -74 33.5t-70 33.5q-35 0 -58 -59l-35 34q23 41 45.5 60t54.5 19q29 0 76 -32t69 -32
q40 0 62 66z" />
    <glyph glyph-name="Adieresis" unicode="&#xc4;" horiz-adv-x="668" 
d="M580 0h81q-122 280 -262 697h-123q-135 -325 -263 -697h71l72 215h340q28 -76 84 -215zM320 641h29q60 -187 125 -366h-296q51 141 142 366zM237 847q24 0 32.5 -7t8.5 -32q0 -27 -8.5 -35t-32.5 -8q-25 0 -33.5 8t-8.5 35q0 25 8.5 32t33.5 7zM426 847q24 0 32.5 -7
t8.5 -32q0 -27 -8.5 -35t-32.5 -8q-25 0 -33.5 8t-8.5 35q0 25 8.5 32t33.5 7z" />
    <glyph glyph-name="Aring" unicode="&#xc5;" horiz-adv-x="668" 
d="M580 0q-56 139 -84 215h-340l-72 -215h-71q128 372 263 697h123q140 -417 262 -697h-81zM349 641h-29q-91 -225 -142 -366h296q-65 179 -125 366zM336 873q110 0 110 -94t-110 -94q-109 0 -109 94q0 48 25 71t84 23zM336 828q-32 0 -44.5 -12.5t-12.5 -38.5q0 -52 57 -52
q59 0 59 52q0 26 -13 38.5t-46 12.5z" />
    <glyph glyph-name="AE" unicode="&#xc6;" horiz-adv-x="962" 
d="M380 697h550v-60h-405v-234h247v-59h-247v-284h405v-60h-477v215h-343q-86 -125 -143 -215h-85q250 369 498 697zM453 641h-34l-266 -366h300v366z" />
    <glyph glyph-name="Ccedilla" unicode="&#xc7;" horiz-adv-x="602" 
d="M63 355q0 106 19 176t60.5 110.5t98 56.5t141.5 16q104 0 195 -27l-23 -65q-67 27 -171 27q-71 0 -113 -10t-73.5 -41t-43.5 -89t-12 -154q0 -127 25 -192.5t74 -88t143 -22.5q103 0 171 26l23 -64q-89 -28 -195 -28q-168 0 -243.5 81t-75.5 288zM342 0h34v-47
q70 0 94.5 -15t24.5 -60q0 -46 -28 -63.5t-97 -17.5q-70 0 -106 21l18 42q34 -17 88 -17q33 0 45 6.5t12 27.5q0 22 -24.5 28.5t-96.5 2.5z" />
    <glyph glyph-name="Egrave" unicode="&#xc8;" horiz-adv-x="610" 
d="M578 697h-477v-697h477v60h-405v283h287v60h-287v234h405v60zM455 747h-79l-160 129h93z" />
    <glyph glyph-name="Eacute" unicode="&#xc9;" horiz-adv-x="610" 
d="M578 697h-477v-697h477v60h-405v283h287v60h-287v234h405v60zM264 747l134 129h92l-159 -129h-67z" />
    <glyph glyph-name="Ecircumflex" unicode="&#xca;" horiz-adv-x="610" 
d="M578 697h-477v-697h477v60h-405v283h287v60h-287v234h405v60zM346 837l-81 -90h-76l122 129h72l126 -129h-79z" />
    <glyph glyph-name="Edieresis" unicode="&#xcb;" horiz-adv-x="610" 
d="M578 697h-477v-697h477v60h-405v283h287v60h-287v234h405v60zM256 847q24 0 32.5 -7t8.5 -32q0 -27 -8.5 -35t-32.5 -8q-25 0 -33.5 8t-8.5 35q0 25 8.5 32t33.5 7zM445 847q24 0 32.5 -7t8.5 -32q0 -27 -8.5 -35t-32.5 -8q-25 0 -33.5 8t-8.5 35q0 25 8.5 32t33.5 7z
" />
    <glyph glyph-name="Igrave" unicode="&#xcc;" horiz-adv-x="273" 
d="M173 697h-72v-697h72v697zM205 747h-79l-160 129h93z" />
    <glyph glyph-name="Iacute" unicode="&#xcd;" horiz-adv-x="273" 
d="M173 697h-72v-697h72v697zM72 747l134 129h92l-159 -129h-67z" />
    <glyph glyph-name="Icircumflex" unicode="&#xce;" horiz-adv-x="273" 
d="M173 697h-72v-697h72v697zM135 837l-81 -90h-76l122 129h72l126 -129h-79z" />
    <glyph glyph-name="Idieresis" unicode="&#xcf;" horiz-adv-x="273" 
d="M173 697h-72v-697h72v697zM45 847q24 0 32.5 -7t8.5 -32q0 -27 -8.5 -35t-32.5 -8q-25 0 -33.5 8t-8.5 35q0 25 8.5 32t33.5 7zM234 847q24 0 32.5 -7t8.5 -32q0 -27 -8.5 -35t-32.5 -8q-25 0 -33.5 8t-8.5 35q0 25 8.5 32t33.5 7z" />
    <glyph glyph-name="Eth" unicode="&#xd0;" horiz-adv-x="703" 
d="M47 334v55h54v308h215q85 0 143 -16.5t100 -55.5t61.5 -107t19.5 -168q0 -195 -77 -272.5t-247 -77.5h-215v334h-54zM563 350q0 91 -12.5 147t-44.5 86.5t-75 41t-115 10.5h-143v-246h162v-55h-162v-274h143q138 0 192.5 61t54.5 229z" />
    <glyph glyph-name="Ntilde" unicode="&#xd1;" horiz-adv-x="730" 
d="M173 624v-624h-72v697h98q172 -255 357 -590v590h73v-697h-86q-169 314 -370 624zM511 867l40 -32q-32 -91 -110 -91q-26 0 -74 33.5t-70 33.5q-35 0 -58 -59l-35 34q23 41 45.5 60t54.5 19q29 0 76 -32t69 -32q40 0 62 66z" />
    <glyph glyph-name="Ograve" unicode="&#xd2;" horiz-adv-x="759" 
d="M379 -14q114 0 180.5 31t101.5 112t35 223q0 140 -35 220t-102 111t-180 31t-179.5 -31t-101.5 -111t-35 -220q0 -142 35 -223t101.5 -112t179.5 -31zM379 653q71 0 113.5 -11t73 -44.5t42.5 -92t12 -155.5q0 -92 -12 -149.5t-42 -92t-73.5 -47t-113.5 -12.5
q-92 0 -141.5 25t-73 89.5t-23.5 186.5q0 97 11.5 155.5t41.5 92t72 44.5t113 11zM464 747h-79l-160 129h93z" />
    <glyph glyph-name="Oacute" unicode="&#xd3;" horiz-adv-x="759" 
d="M379 -14q114 0 180.5 31t101.5 112t35 223q0 140 -35 220t-102 111t-180 31t-179.5 -31t-101.5 -111t-35 -220q0 -142 35 -223t101.5 -112t179.5 -31zM379 653q71 0 113.5 -11t73 -44.5t42.5 -92t12 -155.5q0 -92 -12 -149.5t-42 -92t-73.5 -47t-113.5 -12.5
q-92 0 -141.5 25t-73 89.5t-23.5 186.5q0 97 11.5 155.5t41.5 92t72 44.5t113 11zM264 747l134 129h92l-159 -129h-67z" />
    <glyph glyph-name="Ocircumflex" unicode="&#xd4;" horiz-adv-x="759" 
d="M379 -14q114 0 180.5 31t101.5 112t35 223q0 140 -35 220t-102 111t-180 31t-179.5 -31t-101.5 -111t-35 -220q0 -142 35 -223t101.5 -112t179.5 -31zM379 653q71 0 113.5 -11t73 -44.5t42.5 -92t12 -155.5q0 -92 -12 -149.5t-42 -92t-73.5 -47t-113.5 -12.5
q-92 0 -141.5 25t-73 89.5t-23.5 186.5q0 97 11.5 155.5t41.5 92t72 44.5t113 11zM375 837l-81 -90h-76l122 129h72l126 -129h-79z" />
    <glyph glyph-name="Otilde" unicode="&#xd5;" horiz-adv-x="759" 
d="M379 -14q114 0 180.5 31t101.5 112t35 223q0 140 -35 220t-102 111t-180 31t-179.5 -31t-101.5 -111t-35 -220q0 -142 35 -223t101.5 -112t179.5 -31zM379 653q71 0 113.5 -11t73 -44.5t42.5 -92t12 -155.5q0 -92 -12 -149.5t-42 -92t-73.5 -47t-113.5 -12.5
q-92 0 -141.5 25t-73 89.5t-23.5 186.5q0 97 11.5 155.5t41.5 92t72 44.5t113 11zM509 867l40 -32q-32 -91 -110 -91q-26 0 -74 33.5t-70 33.5q-35 0 -58 -59l-35 34q23 41 45.5 60t54.5 19q29 0 76 -32t69 -32q40 0 62 66z" />
    <glyph glyph-name="Odieresis" unicode="&#xd6;" horiz-adv-x="759" 
d="M379 -14q114 0 180.5 31t101.5 112t35 223q0 140 -35 220t-102 111t-180 31t-179.5 -31t-101.5 -111t-35 -220q0 -142 35 -223t101.5 -112t179.5 -31zM379 653q71 0 113.5 -11t73 -44.5t42.5 -92t12 -155.5q0 -92 -12 -149.5t-42 -92t-73.5 -47t-113.5 -12.5
q-92 0 -141.5 25t-73 89.5t-23.5 186.5q0 97 11.5 155.5t41.5 92t72 44.5t113 11zM286 847q24 0 32.5 -7t8.5 -32q0 -27 -8.5 -35t-32.5 -8q-25 0 -33.5 8t-8.5 35q0 25 8.5 32t33.5 7zM475 847q24 0 32.5 -7t8.5 -32q0 -27 -8.5 -35t-32.5 -8q-25 0 -33.5 8t-8.5 35
q0 25 8.5 32t33.5 7z" />
    <glyph glyph-name="multiply" unicode="&#xd7;" 
d="M119 507l43 42l147 -147l148 149l44 -44l-148 -149l148 -147l-43 -43l-148 148l-147 -148l-44 44l147 148z" />
    <glyph glyph-name="Oslash" unicode="&#xd8;" horiz-adv-x="759" 
d="M637 697h76l-72 -85q55 -83 55 -260q0 -142 -35 -223t-101.5 -112t-180.5 -31q-152 0 -222 58l-37 -44h-74l73 86q-56 84 -56 266q0 140 35 220t101.5 111t179.5 31q152 0 223 -59zM379 653q-71 0 -113 -11t-72 -44.5t-41.5 -92t-11.5 -155.5q0 -137 29 -204l389 459
q-48 48 -180 48zM379 49q70 0 113.5 12.5t73.5 47t42 92t12 149.5q0 141 -28 205l-389 -457q50 -49 176 -49z" />
    <glyph glyph-name="Ugrave" unicode="&#xd9;" horiz-adv-x="738" 
d="M650 242v455h-72v-456q0 -113 -48.5 -152.5t-159.5 -39.5q-112 0 -160.5 38.5t-48.5 153.5v456h-73v-455q0 -78 18 -129t56 -78.5t86.5 -38t120.5 -10.5q73 0 121.5 10.5t86.5 38t55.5 78.5t17.5 129zM475 747h-79l-160 129h93z" />
    <glyph glyph-name="Uacute" unicode="&#xda;" horiz-adv-x="738" 
d="M650 242v455h-72v-456q0 -113 -48.5 -152.5t-159.5 -39.5q-112 0 -160.5 38.5t-48.5 153.5v456h-73v-455q0 -78 18 -129t56 -78.5t86.5 -38t120.5 -10.5q73 0 121.5 10.5t86.5 38t55.5 78.5t17.5 129zM281 747l134 129h92l-159 -129h-67z" />
    <glyph glyph-name="Ucircumflex" unicode="&#xdb;" horiz-adv-x="738" 
d="M650 242v455h-72v-456q0 -113 -48.5 -152.5t-159.5 -39.5q-112 0 -160.5 38.5t-48.5 153.5v456h-73v-455q0 -78 18 -129t56 -78.5t86.5 -38t120.5 -10.5q73 0 121.5 10.5t86.5 38t55.5 78.5t17.5 129zM366 837l-81 -90h-76l122 129h72l126 -129h-79z" />
    <glyph glyph-name="Udieresis" unicode="&#xdc;" horiz-adv-x="738" 
d="M650 242v455h-72v-456q0 -113 -48.5 -152.5t-159.5 -39.5q-112 0 -160.5 38.5t-48.5 153.5v456h-73v-455q0 -78 18 -129t56 -78.5t86.5 -38t120.5 -10.5q73 0 121.5 10.5t86.5 38t55.5 78.5t17.5 129zM273 847q24 0 32.5 -7t8.5 -32q0 -27 -8.5 -35t-32.5 -8
q-25 0 -33.5 8t-8.5 35q0 25 8.5 32t33.5 7zM462 847q24 0 32.5 -7t8.5 -32q0 -27 -8.5 -35t-32.5 -8q-25 0 -33.5 8t-8.5 35q0 25 8.5 32t33.5 7z" />
    <glyph glyph-name="Yacute" unicode="&#xdd;" horiz-adv-x="607" 
d="M340 335v-335h-73v335q-119 175 -272 362h91q115 -142 223 -305q114 144 220 305h83q-146 -208 -272 -362zM241 747l134 129h92l-159 -129h-67z" />
    <glyph glyph-name="Thorn" unicode="&#xde;" horiz-adv-x="650" 
d="M101 697h72v-117h239q198 0 198 -226q0 -92 -46.5 -153.5t-146.5 -61.5h-244v-139h-72v697zM173 203h238q59 0 89 41t30 111q0 78 -29 120.5t-85 42.5h-243v-315z" />
    <glyph glyph-name="germandbls" unicode="&#xdf;" horiz-adv-x="616" 
d="M232 -11l6 60q33 -3 45 -3q114 0 155 33t41 115q0 83 -39 116.5t-140 33.5h-22v59h22q90 0 126.5 30.5t36.5 101.5q0 63 -36 90.5t-120 27.5q-80 0 -122.5 -29.5t-42.5 -86.5v-537h-66v537q0 86 64.5 131.5t166.5 45.5q110 0 170 -43.5t60 -126.5q0 -74 -29 -117.5
t-114 -51.5q91 -4 126.5 -53t35.5 -130q0 -114 -64.5 -160t-208.5 -46q-31 0 -51 3z" />
    <glyph glyph-name="agrave" unicode="&#xe0;" horiz-adv-x="542" 
d="M466 323v-297q-88 -40 -204 -40q-111 0 -158 37t-47 133q0 99 51 133t149 34q68 0 144 -16q0 92 -30 121t-119 29t-145 -24l-19 61q89 25 168 25q114 0 162 -42t48 -154zM401 68v184q-53 13 -136 13q-80 0 -107.5 -18.5t-27.5 -85.5q0 -74 26.5 -95t108.5 -21
q72 0 136 23zM348 568h-69l-133 129h83z" />
    <glyph glyph-name="aacute" unicode="&#xe1;" horiz-adv-x="542" 
d="M466 26v297q0 112 -48 154t-162 42q-79 0 -168 -25l19 -61q56 24 145 24t119 -29t30 -121q-76 16 -144 16q-98 0 -149 -34t-51 -133q0 -96 47 -133t158 -37q116 0 204 40zM401 68q-64 -23 -136 -23q-82 0 -108.5 21t-26.5 95q0 67 27.5 85.5t107.5 18.5q83 0 136 -13
v-184zM268 568h-69l119 129h83z" />
    <glyph glyph-name="acircumflex" unicode="&#xe2;" horiz-adv-x="542" 
d="M466 26v297q0 112 -48 154t-162 42q-79 0 -168 -25l19 -61q56 24 145 24t119 -29t30 -121q-76 16 -144 16q-98 0 -149 -34t-51 -133q0 -96 47 -133t158 -37q116 0 204 40zM401 68q-64 -23 -136 -23q-82 0 -108.5 21t-26.5 95q0 67 27.5 85.5t107.5 18.5q83 0 136 -13
v-184zM354 568l-81 86l-79 -86h-78l122 129h72l126 -129h-82z" />
    <glyph glyph-name="atilde" unicode="&#xe3;" horiz-adv-x="542" 
d="M466 26v297q0 112 -48 154t-162 42q-79 0 -168 -25l19 -61q56 24 145 24t119 -29t30 -121q-76 16 -144 16q-98 0 -149 -34t-51 -133q0 -96 47 -133t158 -37q116 0 204 40zM401 68q-64 -23 -136 -23q-82 0 -108.5 21t-26.5 95q0 67 27.5 85.5t107.5 18.5q83 0 136 -13
v-184zM398 689l41 -33q-32 -91 -105 -91q-27 0 -71 33t-67 33q-36 0 -60 -61l-36 35q24 43 47.5 62.5t55.5 19.5q30 0 70.5 -33t63.5 -33q20 0 34 15t27 53z" />
    <glyph glyph-name="adieresis" unicode="&#xe4;" horiz-adv-x="542" 
d="M466 26v297q0 112 -48 154t-162 42q-79 0 -168 -25l19 -61q56 24 145 24t119 -29t30 -121q-76 16 -144 16q-98 0 -149 -34t-51 -133q0 -96 47 -133t158 -37q116 0 204 40zM401 68q-64 -23 -136 -23q-82 0 -108.5 21t-26.5 95q0 67 27.5 85.5t107.5 18.5q83 0 136 -13
v-184zM172 657q24 0 32.5 -7t8.5 -32q0 -27 -8.5 -35t-32.5 -8q-25 0 -33.5 8t-8.5 35q0 25 8.5 32t33.5 7zM361 657q24 0 32.5 -7t8.5 -32q0 -27 -8.5 -35t-32.5 -8q-25 0 -33.5 8t-8.5 35q0 25 8.5 32t33.5 7z" />
    <glyph glyph-name="aring" unicode="&#xe5;" horiz-adv-x="542" 
d="M466 323v-297q-88 -40 -204 -40q-111 0 -158 37t-47 133q0 99 51 133t149 34q68 0 144 -16q0 92 -30 121t-119 29t-145 -24l-19 61q89 25 168 25q114 0 162 -42t48 -154zM401 68v184q-53 13 -136 13q-80 0 -107.5 -18.5t-27.5 -85.5q0 -74 26.5 -95t108.5 -21
q72 0 136 23zM278 738q110 0 110 -94t-110 -94q-109 0 -109 94q0 48 25 71t84 23zM278 693q-32 0 -44.5 -12.5t-12.5 -38.5q0 -52 57 -52q59 0 59 52q0 26 -13 38.5t-46 12.5z" />
    <glyph glyph-name="ae" unicode="&#xe6;" horiz-adv-x="879" 
d="M623 519q111 0 158.5 -58.5t47.5 -214.5h-361q1 -118 39.5 -158.5t130.5 -40.5q72 0 145 27l15 -60q-91 -28 -166 -28q-114 0 -167 47q-25 -23 -86 -35t-117 -12q-111 0 -158 37t-47 133q0 99 51.5 133t148.5 34q68 0 144 -16q0 93 -28.5 121.5t-120.5 28.5
q-89 0 -145 -24l-19 61q89 25 168 25q82 0 125 -19.5t60 -68.5q21 48 64.5 68t117.5 20zM428 79q-28 64 -28 173q-53 13 -135 13q-81 0 -108 -18.5t-27 -85.5q0 -70 25 -93t110 -23q102 0 163 34zM623 458q-80 0 -114 -31t-40 -122h286q-4 92 -32 122.5t-100 30.5z" />
    <glyph glyph-name="ccedilla" unicode="&#xe7;" horiz-adv-x="466" 
d="M430 74l21 -60q-63 -28 -144 -28q-124 0 -184 60t-60 209q0 148 60 206t184 58q80 0 144 -25l-21 -61q-51 24 -123 24q-47 0 -77 -8t-52.5 -29.5t-32.5 -62t-10 -104.5q0 -119 39.5 -162t132.5 -43q65 0 123 26zM256 0h34v-47q70 0 94.5 -15t24.5 -60q0 -46 -28 -63.5
t-97 -17.5q-70 0 -106 21l18 42q34 -17 88 -17q33 0 45 6.5t12 27.5q0 22 -24.5 28.5t-96.5 2.5z" />
    <glyph glyph-name="egrave" unicode="&#xe8;" horiz-adv-x="546" 
d="M290 519q111 0 158.5 -58.5t47.5 -214.5h-361q1 -118 39.5 -158.5t130.5 -40.5q72 0 145 27l15 -60q-91 -28 -166 -28q-121 0 -178.5 60t-57.5 209q0 144 55 204t172 60zM290 458q-81 0 -114.5 -32.5t-39.5 -120.5h286q-4 92 -32 122.5t-100 30.5zM377 568h-69l-133 129
h83z" />
    <glyph glyph-name="eacute" unicode="&#xe9;" horiz-adv-x="546" 
d="M290 519q111 0 158.5 -58.5t47.5 -214.5h-361q1 -118 39.5 -158.5t130.5 -40.5q72 0 145 27l15 -60q-91 -28 -166 -28q-121 0 -178.5 60t-57.5 209q0 144 55 204t172 60zM290 458q-81 0 -114.5 -32.5t-39.5 -120.5h286q-4 92 -32 122.5t-100 30.5zM279 568h-69l119 129
h83z" />
    <glyph glyph-name="ecircumflex" unicode="&#xea;" horiz-adv-x="546" 
d="M290 519q111 0 158.5 -58.5t47.5 -214.5h-361q1 -118 39.5 -158.5t130.5 -40.5q72 0 145 27l15 -60q-91 -28 -166 -28q-121 0 -178.5 60t-57.5 209q0 144 55 204t172 60zM290 458q-81 0 -114.5 -32.5t-39.5 -120.5h286q-4 92 -32 122.5t-100 30.5zM371 568l-81 86
l-79 -86h-78l122 129h72l126 -129h-82z" />
    <glyph glyph-name="edieresis" unicode="&#xeb;" horiz-adv-x="546" 
d="M290 519q111 0 158.5 -58.5t47.5 -214.5h-361q1 -118 39.5 -158.5t130.5 -40.5q72 0 145 27l15 -60q-91 -28 -166 -28q-121 0 -178.5 60t-57.5 209q0 144 55 204t172 60zM290 458q-81 0 -114.5 -32.5t-39.5 -120.5h286q-4 92 -32 122.5t-100 30.5zM195 657q24 0 32.5 -7
t8.5 -32q0 -27 -8.5 -35t-32.5 -8q-25 0 -33.5 8t-8.5 35q0 25 8.5 32t33.5 7zM384 657q24 0 32.5 -7t8.5 -32q0 -27 -8.5 -35t-32.5 -8q-25 0 -33.5 8t-8.5 35q0 25 8.5 32t33.5 7z" />
    <glyph glyph-name="igrave" unicode="&#xec;" horiz-adv-x="217" 
d="M141 505v-505h-65v505h65zM161 568h-69l-133 129h83z" />
    <glyph glyph-name="iacute" unicode="&#xed;" horiz-adv-x="217" 
d="M141 505v-505h-65v505h65zM120 568h-69l119 129h83z" />
    <glyph glyph-name="icircumflex" unicode="&#xee;" horiz-adv-x="217" 
d="M141 505v-505h-65v505h65zM187 568l-81 86l-79 -86h-78l122 129h72l126 -129h-82z" />
    <glyph glyph-name="idieresis" unicode="&#xef;" horiz-adv-x="217" 
d="M141 505v-505h-65v505h65zM13 657q24 0 32.5 -7t8.5 -32q0 -27 -8.5 -35t-32.5 -8q-25 0 -33.5 8t-8.5 35q0 25 8.5 32t33.5 7zM202 657q24 0 32.5 -7t8.5 -32q0 -27 -8.5 -35t-32.5 -8q-25 0 -33.5 8t-8.5 35q0 25 8.5 32t33.5 7z" />
    <glyph glyph-name="eth" unicode="&#xf0;" 
d="M269 490l-33 49l74 49q-49 49 -121 109h100q42 -37 77 -72l75 50l32 -49l-66 -44q156 -172 156 -356q0 -144 -54 -193.5t-200 -49.5q-132 0 -191 54t-59 177q0 113 56 157t199 44q55 0 135 -10q-32 66 -98 140zM489 238q0 54 -15 102q-68 13 -160 13q-107 0 -142.5 -29
t-35.5 -118q0 -86 35.5 -124.5t137.5 -38.5q42 0 67.5 3t49.5 14t36.5 32t19.5 57t7 89z" />
    <glyph glyph-name="ntilde" unicode="&#xf1;" horiz-adv-x="554" 
d="M141 440v-440h-65v479q40 18 98 29t106 11q112 0 155.5 -49t43.5 -185v-285h-65v272q0 114 -29.5 149.5t-116.5 35.5q-72 0 -127 -17zM402 689l41 -33q-32 -91 -105 -91q-27 0 -71 33t-67 33q-36 0 -60 -61l-36 35q24 43 47.5 62.5t55.5 19.5q30 0 70.5 -33t63.5 -33
q20 0 34 15t27 53z" />
    <glyph glyph-name="ograve" unicode="&#xf2;" horiz-adv-x="585" 
d="M292 -14q-122 0 -175.5 59t-53.5 210q0 150 53.5 207t175.5 57t176 -57t54 -207q0 -151 -54 -210t-176 -59zM292 459q-91 0 -124 -40t-33 -166q0 -121 33.5 -164t123.5 -43q91 0 124.5 43t33.5 164q0 126 -33 166t-125 40zM385 568h-69l-133 129h83z" />
    <glyph glyph-name="oacute" unicode="&#xf3;" horiz-adv-x="585" 
d="M292 -14q-122 0 -175.5 59t-53.5 210q0 150 53.5 207t175.5 57t176 -57t54 -207q0 -151 -54 -210t-176 -59zM292 459q-91 0 -124 -40t-33 -166q0 -121 33.5 -164t123.5 -43q91 0 124.5 43t33.5 164q0 126 -33 166t-125 40zM287 568h-69l119 129h83z" />
    <glyph glyph-name="ocircumflex" unicode="&#xf4;" horiz-adv-x="585" 
d="M292 -14q-122 0 -175.5 59t-53.5 210q0 150 53.5 207t175.5 57t176 -57t54 -207q0 -151 -54 -210t-176 -59zM292 459q-91 0 -124 -40t-33 -166q0 -121 33.5 -164t123.5 -43q91 0 124.5 43t33.5 164q0 126 -33 166t-125 40zM369 568l-81 86l-79 -86h-78l122 129h72
l126 -129h-82z" />
    <glyph glyph-name="otilde" unicode="&#xf5;" horiz-adv-x="585" 
d="M292 -14q-122 0 -175.5 59t-53.5 210q0 150 53.5 207t175.5 57t176 -57t54 -207q0 -151 -54 -210t-176 -59zM292 459q-91 0 -124 -40t-33 -166q0 -121 33.5 -164t123.5 -43q91 0 124.5 43t33.5 164q0 126 -33 166t-125 40zM419 689l41 -33q-32 -91 -105 -91q-27 0 -71 33
t-67 33q-36 0 -60 -61l-36 35q24 43 47.5 62.5t55.5 19.5q30 0 70.5 -33t63.5 -33q20 0 34 15t27 53z" />
    <glyph glyph-name="odieresis" unicode="&#xf6;" horiz-adv-x="585" 
d="M292 -14q-122 0 -175.5 59t-53.5 210q0 150 53.5 207t175.5 57t176 -57t54 -207q0 -151 -54 -210t-176 -59zM292 459q-91 0 -124 -40t-33 -166q0 -121 33.5 -164t123.5 -43q91 0 124.5 43t33.5 164q0 126 -33 166t-125 40zM197 657q24 0 32.5 -7t8.5 -32q0 -27 -8.5 -35
t-32.5 -8q-25 0 -33.5 8t-8.5 35q0 25 8.5 32t33.5 7zM386 657q24 0 32.5 -7t8.5 -32q0 -27 -8.5 -35t-32.5 -8q-25 0 -33.5 8t-8.5 35q0 25 8.5 32t33.5 7z" />
    <glyph glyph-name="divide" unicode="&#xf7;" 
d="M71 328v60h479v-60h-479zM313 207q32 0 42.5 -9t10.5 -40q0 -34 -10.5 -44t-42.5 -10q-30 0 -40.5 10.5t-10.5 43.5q0 31 10.5 40t40.5 9zM313 609q32 0 42.5 -9t10.5 -40q0 -34 -10.5 -44t-42.5 -10q-30 0 -40.5 10t-10.5 44q0 31 10.5 40t40.5 9z" />
    <glyph glyph-name="oslash" unicode="&#xf8;" horiz-adv-x="585" 
d="M465 505h76l-56 -67q37 -61 37 -183q0 -151 -54 -210t-176 -59q-102 0 -154 38l-20 -24h-74l56 67q-37 62 -37 188q0 150 53.5 207t175.5 57q102 0 153 -37zM292 457q-92 0 -124.5 -39.5t-32.5 -164.5q0 -84 14 -127l254 305q-32 26 -111 26zM292 48q91 0 124.5 42
t33.5 163q0 85 -14 127l-254 -304q32 -28 110 -28z" />
    <glyph glyph-name="ugrave" unicode="&#xf9;" horiz-adv-x="554" 
d="M414 66v439h65v-479q-90 -40 -204 -40q-111 0 -155 49.5t-44 184.5v285h65v-272q0 -113 29.5 -149t115.5 -36q74 0 128 18zM367 568h-69l-133 129h83z" />
    <glyph glyph-name="uacute" unicode="&#xfa;" horiz-adv-x="554" 
d="M414 505v-439q-54 -18 -128 -18q-86 0 -115.5 36t-29.5 149v272h-65v-285q0 -135 44 -184.5t155 -49.5q114 0 204 40v479h-65zM277 568h-69l119 129h83z" />
    <glyph glyph-name="ucircumflex" unicode="&#xfb;" horiz-adv-x="554" 
d="M414 505v-439q-54 -18 -128 -18q-86 0 -115.5 36t-29.5 149v272h-65v-285q0 -135 44 -184.5t155 -49.5q114 0 204 40v479h-65zM367 568l-81 86l-79 -86h-78l122 129h72l126 -129h-82z" />
    <glyph glyph-name="udieresis" unicode="&#xfc;" horiz-adv-x="554" 
d="M414 505v-439q-54 -18 -128 -18q-86 0 -115.5 36t-29.5 149v272h-65v-285q0 -135 44 -184.5t155 -49.5q114 0 204 40v479h-65zM194 657q24 0 32.5 -7t8.5 -32q0 -27 -8.5 -35t-32.5 -8q-25 0 -33.5 8t-8.5 35q0 25 8.5 32t33.5 7zM383 657q24 0 32.5 -7t8.5 -32
q0 -27 -8.5 -35t-32.5 -8q-25 0 -33.5 8t-8.5 35q0 25 8.5 32t33.5 7z" />
    <glyph glyph-name="yacute" unicode="&#xfd;" horiz-adv-x="509" 
d="M211 -24q-47 -103 -82 -168h76q50 94 91 192q125 295 188 505h-71q-53 -190 -159 -447q-77 268 -156 447h-73q87 -179 186 -529zM266 568h-69l119 129h83z" />
    <glyph glyph-name="thorn" unicode="&#xfe;" horiz-adv-x="572" 
d="M280 -14q-86 0 -139 42v-220h-65v914h65v-221q75 18 139 18q122 0 175.5 -57t53.5 -207q0 -151 -53.5 -210t-175.5 -59zM280 457q-80 0 -139 -21v-316q0 -34 40 -53t99 -19q90 0 123.5 42t33.5 163q0 125 -32.5 164.5t-124.5 39.5z" />
    <glyph glyph-name="ydieresis" unicode="&#xff;" horiz-adv-x="509" 
d="M211 -24q-47 -103 -82 -168h76q50 94 91 192q125 295 188 505h-71q-53 -190 -159 -447q-77 268 -156 447h-73q87 -179 186 -529zM161 657q24 0 32.5 -7t8.5 -32q0 -27 -8.5 -35t-32.5 -8q-25 0 -33.5 8t-8.5 35q0 25 8.5 32t33.5 7zM350 657q24 0 32.5 -7t8.5 -32
q0 -27 -8.5 -35t-32.5 -8q-25 0 -33.5 8t-8.5 35q0 25 8.5 32t33.5 7z" />
    <glyph glyph-name="Amacron" unicode="&#x100;" horiz-adv-x="668" 
d="M580 0h81q-122 280 -262 697h-123q-135 -325 -263 -697h71l72 215h340q28 -76 84 -215zM320 641h29q60 -187 125 -366h-296q51 141 142 366zM207 770v62h251v-62h-251z" />
    <glyph glyph-name="amacron" unicode="&#x101;" horiz-adv-x="542" 
d="M466 26v297q0 112 -48 154t-162 42q-79 0 -168 -25l19 -61q56 24 145 24t119 -29t30 -121q-76 16 -144 16q-98 0 -149 -34t-51 -133q0 -96 47 -133t158 -37q116 0 204 40zM401 68q-64 -23 -136 -23q-82 0 -108.5 21t-26.5 95q0 67 27.5 85.5t107.5 18.5q83 0 136 -13
v-184zM143 586v58h251v-58h-251z" />
    <glyph glyph-name="Abreve" unicode="&#x102;" horiz-adv-x="668" 
d="M580 0h81q-122 280 -262 697h-123q-135 -325 -263 -697h71l72 215h340q28 -76 84 -215zM320 641h29q60 -187 125 -366h-296q51 141 142 366zM200 871h54q0 -40 18.5 -54.5t60.5 -14.5t61 14.5t19 54.5h52q0 -126 -133 -126q-132 0 -132 126z" />
    <glyph glyph-name="abreve" unicode="&#x103;" horiz-adv-x="542" 
d="M466 26v297q0 112 -48 154t-162 42q-79 0 -168 -25l19 -61q56 24 145 24t119 -29t30 -121q-76 16 -144 16q-98 0 -149 -34t-51 -133q0 -96 47 -133t158 -37q116 0 204 40zM401 68q-64 -23 -136 -23q-82 0 -108.5 21t-26.5 95q0 67 27.5 85.5t107.5 18.5q83 0 136 -13
v-184zM135 697h54q0 -40 18.5 -54.5t60.5 -14.5t61 14.5t19 54.5h52q0 -126 -133 -126q-132 0 -132 126z" />
    <glyph glyph-name="Aogonek" unicode="&#x104;" horiz-adv-x="668" 
d="M580 0q-56 139 -84 215h-340l-72 -215h-71q128 372 263 697h123q140 -417 262 -697h-81zM349 641h-29q-91 -225 -142 -366h296q-65 179 -125 366zM621 12h34q-57 -34 -76 -58.5t-19 -57.5q0 -24 14 -34.5t54 -10.5q55 0 92 30l29 -49q-45 -35 -126 -35q-71 0 -99 21.5
t-28 67.5q0 41 31.5 75t93.5 51z" />
    <glyph glyph-name="aogonek" unicode="&#x105;" horiz-adv-x="542" 
d="M466 323v-297q-88 -40 -204 -40q-111 0 -158 37t-47 133q0 99 51 133t149 34q68 0 144 -16q0 92 -30 121t-119 29t-145 -24l-19 61q89 25 168 25q114 0 162 -42t48 -154zM401 68v184q-53 13 -136 13q-80 0 -107.5 -18.5t-27.5 -85.5q0 -74 26.5 -95t108.5 -21
q72 0 136 23zM396 12h34q-57 -34 -76 -58.5t-19 -57.5q0 -24 14 -34.5t54 -10.5q55 0 92 30l29 -49q-45 -35 -126 -35q-71 0 -99 21.5t-28 67.5q0 41 31.5 75t93.5 51z" />
    <glyph glyph-name="Cacute" unicode="&#x106;" horiz-adv-x="602" 
d="M63 355q0 106 19 176t60.5 110.5t98 56.5t141.5 16q104 0 195 -27l-23 -65q-67 27 -171 27q-71 0 -113 -10t-73.5 -41t-43.5 -89t-12 -154q0 -127 25 -192.5t74 -88t143 -22.5q103 0 171 26l23 -64q-89 -28 -195 -28q-168 0 -243.5 81t-75.5 288zM260 747l134 129h92
l-159 -129h-67z" />
    <glyph glyph-name="cacute" unicode="&#x107;" horiz-adv-x="466" 
d="M430 74l21 -60q-63 -28 -144 -28q-124 0 -184 60t-60 209q0 148 60 206t184 58q80 0 144 -25l-21 -61q-51 24 -123 24q-47 0 -77 -8t-52.5 -29.5t-32.5 -62t-10 -104.5q0 -119 39.5 -162t132.5 -43q65 0 123 26zM279 568h-69l119 129h83z" />
    <glyph glyph-name="Ccircumflex" unicode="&#x108;" horiz-adv-x="602" 
d="M63 355q0 106 19 176t60.5 110.5t98 56.5t141.5 16q104 0 195 -27l-23 -65q-67 27 -171 27q-71 0 -113 -10t-73.5 -41t-43.5 -89t-12 -154q0 -127 25 -192.5t74 -88t143 -22.5q103 0 171 26l23 -64q-89 -28 -195 -28q-168 0 -243.5 81t-75.5 288zM373 837l-81 -90h-76
l122 129h72l126 -129h-79z" />
    <glyph glyph-name="ccircumflex" unicode="&#x109;" horiz-adv-x="466" 
d="M430 74l21 -60q-63 -28 -144 -28q-124 0 -184 60t-60 209q0 148 60 206t184 58q80 0 144 -25l-21 -61q-51 24 -123 24q-47 0 -77 -8t-52.5 -29.5t-32.5 -62t-10 -104.5q0 -119 39.5 -162t132.5 -43q65 0 123 26zM368 568l-81 86l-79 -86h-78l122 129h72l126 -129h-82z
" />
    <glyph glyph-name="Cdotaccent" unicode="&#x10a;" horiz-adv-x="602" 
d="M63 355q0 106 19 176t60.5 110.5t98 56.5t141.5 16q104 0 195 -27l-23 -65q-67 27 -171 27q-71 0 -113 -10t-73.5 -41t-43.5 -89t-12 -154q0 -127 25 -192.5t74 -88t143 -22.5q103 0 171 26l23 -64q-89 -28 -195 -28q-168 0 -243.5 81t-75.5 288zM366 847q24 0 32.5 -7
t8.5 -32q0 -27 -8.5 -35t-32.5 -8q-25 0 -33.5 8t-8.5 35q0 25 8.5 32t33.5 7z" />
    <glyph glyph-name="cdotaccent" unicode="&#x10b;" horiz-adv-x="466" 
d="M430 74l21 -60q-63 -28 -144 -28q-124 0 -184 60t-60 209q0 148 60 206t184 58q80 0 144 -25l-21 -61q-51 24 -123 24q-47 0 -77 -8t-52.5 -29.5t-32.5 -62t-10 -104.5q0 -119 39.5 -162t132.5 -43q65 0 123 26zM301 657q24 0 32.5 -7t8.5 -32q0 -27 -8.5 -35t-32.5 -8
q-25 0 -33.5 8t-8.5 35q0 25 8.5 32t33.5 7z" />
    <glyph glyph-name="Ccaron" unicode="&#x10c;" horiz-adv-x="602" 
d="M63 355q0 106 19 176t60.5 110.5t98 56.5t141.5 16q104 0 195 -27l-23 -65q-67 27 -171 27q-71 0 -113 -10t-73.5 -41t-43.5 -89t-12 -154q0 -127 25 -192.5t74 -88t143 -22.5q103 0 171 26l23 -64q-89 -28 -195 -28q-168 0 -243.5 81t-75.5 288zM363 786l81 90h76
l-122 -129h-72l-126 129h79z" />
    <glyph glyph-name="ccaron" unicode="&#x10d;" horiz-adv-x="466" 
d="M430 74l21 -60q-63 -28 -144 -28q-124 0 -184 60t-60 209q0 148 60 206t184 58q80 0 144 -25l-21 -61q-51 24 -123 24q-47 0 -77 -8t-52.5 -29.5t-32.5 -62t-10 -104.5q0 -119 39.5 -162t132.5 -43q65 0 123 26zM216 697l81 -86l79 86h78l-122 -129h-72l-126 129h82z" />
    <glyph glyph-name="Dcaron" unicode="&#x10e;" horiz-adv-x="703" 
d="M101 697h215q85 0 143 -16.5t100 -55.5t61.5 -107t19.5 -168q0 -195 -77 -272.5t-247 -77.5h-215v697zM563 350q0 91 -12.5 147t-44.5 87.5t-75 42t-115 10.5h-143v-577h143q138 0 192.5 61t54.5 229zM326 786l81 90h76l-122 -129h-72l-126 129h79z" />
    <glyph glyph-name="dcaron" unicode="&#x10f;" horiz-adv-x="572" 
d="M292 519q88 0 139 -41v244h65v-696q-40 -18 -98 -29t-106 -11q-122 0 -175.5 57.5t-53.5 207.5t53.5 209t175.5 59zM292 48q80 0 139 21v317q0 33 -40 52t-99 19q-90 0 -123.5 -42t-33.5 -163q0 -86 15.5 -129.5t47.5 -59t94 -15.5zM549 722h73l-56 -192h-39z" />
    <glyph glyph-name="Dcroat" unicode="&#x110;" horiz-adv-x="703" 
d="M47 334v55h54v308h215q85 0 143 -16.5t100 -55.5t61.5 -107t19.5 -168q0 -195 -77 -272.5t-247 -77.5h-215v334h-54zM563 350q0 91 -12.5 147t-44.5 86.5t-75 41t-115 10.5h-143v-246h162v-55h-162v-274h143q138 0 192.5 61t54.5 229z" />
    <glyph glyph-name="dcroat" unicode="&#x111;" horiz-adv-x="572" 
d="M323 588v55h108v79h65v-79h45v-55h-45v-562q-40 -18 -98 -29t-106 -11q-122 0 -175.5 57.5t-53.5 207.5t53.5 209t175.5 59q88 0 139 -41v110h-108zM292 48q80 0 139 21v317q0 33 -40 52t-99 19q-90 0 -123.5 -42t-33.5 -163q0 -86 15.5 -129.5t47.5 -59t94 -15.5z" />
    <glyph glyph-name="Emacron" unicode="&#x112;" horiz-adv-x="610" 
d="M578 697h-477v-697h477v60h-405v283h287v60h-287v234h405v60zM215 770v62h251v-62h-251z" />
    <glyph glyph-name="emacron" unicode="&#x113;" horiz-adv-x="546" 
d="M290 519q111 0 158.5 -58.5t47.5 -214.5h-361q1 -118 39.5 -158.5t130.5 -40.5q72 0 145 27l15 -60q-91 -28 -166 -28q-121 0 -178.5 60t-57.5 209q0 144 55 204t172 60zM290 458q-81 0 -114.5 -32.5t-39.5 -120.5h286q-4 92 -32 122.5t-100 30.5zM163 586v58h251v-58
h-251z" />
    <glyph glyph-name="Ebreve" unicode="&#x114;" horiz-adv-x="610" 
d="M578 697h-477v-697h477v60h-405v283h287v60h-287v234h405v60zM209 871h54q0 -40 18.5 -54.5t60.5 -14.5t61 14.5t19 54.5h52q0 -126 -133 -126q-132 0 -132 126z" />
    <glyph glyph-name="ebreve" unicode="&#x115;" horiz-adv-x="546" 
d="M290 519q111 0 158.5 -58.5t47.5 -214.5h-361q1 -118 39.5 -158.5t130.5 -40.5q72 0 145 27l15 -60q-91 -28 -166 -28q-121 0 -178.5 60t-57.5 209q0 144 55 204t172 60zM290 458q-81 0 -114.5 -32.5t-39.5 -120.5h286q-4 92 -32 122.5t-100 30.5zM152 697h54
q0 -40 18.5 -54.5t60.5 -14.5t61 14.5t19 54.5h52q0 -126 -133 -126q-132 0 -132 126z" />
    <glyph glyph-name="Edotaccent" unicode="&#x116;" horiz-adv-x="610" 
d="M578 697h-477v-697h477v60h-405v283h287v60h-287v234h405v60zM363 847q24 0 32.5 -7t8.5 -32q0 -27 -8.5 -35t-32.5 -8q-25 0 -33.5 8t-8.5 35q0 25 8.5 32t33.5 7z" />
    <glyph glyph-name="edotaccent" unicode="&#x117;" horiz-adv-x="546" 
d="M290 519q111 0 158.5 -58.5t47.5 -214.5h-361q1 -118 39.5 -158.5t130.5 -40.5q72 0 145 27l15 -60q-91 -28 -166 -28q-121 0 -178.5 60t-57.5 209q0 144 55 204t172 60zM290 458q-81 0 -114.5 -32.5t-39.5 -120.5h286q-4 92 -32 122.5t-100 30.5zM285 657q24 0 32.5 -7
t8.5 -32q0 -27 -8.5 -35t-32.5 -8q-25 0 -33.5 8t-8.5 35q0 25 8.5 32t33.5 7z" />
    <glyph glyph-name="Eogonek" unicode="&#x118;" horiz-adv-x="610" 
d="M101 697h477v-60h-405v-234h287v-60h-287v-283h405v-60h-477v697zM534 12h34q-57 -34 -76 -58.5t-19 -57.5q0 -24 14 -34.5t54 -10.5q55 0 92 30l29 -49q-45 -35 -126 -35q-71 0 -99 21.5t-28 67.5q0 41 31.5 75t93.5 51z" />
    <glyph glyph-name="eogonek" unicode="&#x119;" horiz-adv-x="546" 
d="M290 519q111 0 158.5 -58.5t47.5 -214.5h-361q1 -118 39.5 -158.5t130.5 -40.5q72 0 145 27l15 -60q-91 -28 -166 -28q-121 0 -178.5 60t-57.5 209q0 144 55 204t172 60zM290 458q-81 0 -114.5 -32.5t-39.5 -120.5h286q-4 92 -32 122.5t-100 30.5zM406 12h34
q-57 -34 -76 -58.5t-19 -57.5q0 -24 14 -34.5t54 -10.5q55 0 92 30l29 -49q-45 -35 -126 -35q-71 0 -99 21.5t-28 67.5q0 41 31.5 75t93.5 51z" />
    <glyph glyph-name="Ecaron" unicode="&#x11a;" horiz-adv-x="610" 
d="M578 697h-477v-697h477v60h-405v283h287v60h-287v234h405v60zM352 786l81 90h76l-122 -129h-72l-126 129h79z" />
    <glyph glyph-name="ecaron" unicode="&#x11b;" horiz-adv-x="546" 
d="M290 519q111 0 158.5 -58.5t47.5 -214.5h-361q1 -118 39.5 -158.5t130.5 -40.5q72 0 145 27l15 -60q-91 -28 -166 -28q-121 0 -178.5 60t-57.5 209q0 144 55 204t172 60zM290 458q-81 0 -114.5 -32.5t-39.5 -120.5h286q-4 92 -32 122.5t-100 30.5zM208 697l81 -86l79 86
h78l-122 -129h-72l-126 129h82z" />
    <glyph glyph-name="Gcircumflex" unicode="&#x11c;" horiz-adv-x="677" 
d="M523 67v249h-182v58h254v-365q-73 -23 -213 -23q-168 0 -243.5 81t-75.5 288q0 106 19 176t60.5 110.5t98 56.5t141.5 16q104 0 195 -27l-23 -63q-68 26 -171 26q-71 0 -113 -10t-73.5 -41.5t-43.5 -89.5t-12 -154q0 -127 25 -193t74.5 -89t142.5 -23q76 0 140 17z
M368 837l-81 -90h-76l122 129h72l126 -129h-79z" />
    <glyph glyph-name="gcircumflex" unicode="&#x11d;" horiz-adv-x="572" 
d="M496 479v-442q0 -134 -62.5 -187t-187.5 -53q-34 0 -85 8.5t-78 20.5l19 62q25 -12 69.5 -20.5t74.5 -8.5q95 0 140 36.5t45 132.5q-52 -42 -139 -42q-122 0 -175.5 59t-53.5 210q0 150 53.5 207t175.5 57q48 0 106 -11t98 -29zM292 457q-92 0 -124.5 -39.5t-32.5 -164.5
q0 -121 33.5 -163t123.5 -42q59 0 99 19t40 53v316q-59 21 -139 21zM377 568l-81 86l-79 -86h-78l122 129h72l126 -129h-82z" />
    <glyph glyph-name="Gbreve" unicode="&#x11e;" horiz-adv-x="677" 
d="M523 67v249h-182v58h254v-365q-73 -23 -213 -23q-168 0 -243.5 81t-75.5 288q0 106 19 176t60.5 110.5t98 56.5t141.5 16q104 0 195 -27l-23 -63q-68 26 -171 26q-71 0 -113 -10t-73.5 -41.5t-43.5 -89.5t-12 -154q0 -127 25 -193t74.5 -89t142.5 -23q76 0 140 17z
M239 871h54q0 -40 18.5 -54.5t60.5 -14.5t61 14.5t19 54.5h52q0 -126 -133 -126q-132 0 -132 126z" />
    <glyph glyph-name="gbreve" unicode="&#x11f;" horiz-adv-x="572" 
d="M496 479v-442q0 -134 -62.5 -187t-187.5 -53q-34 0 -85 8.5t-78 20.5l19 62q25 -12 69.5 -20.5t74.5 -8.5q95 0 140 36.5t45 132.5q-52 -42 -139 -42q-122 0 -175.5 59t-53.5 210q0 150 53.5 207t175.5 57q48 0 106 -11t98 -29zM292 457q-92 0 -124.5 -39.5t-32.5 -164.5
q0 -121 33.5 -163t123.5 -42q59 0 99 19t40 53v316q-59 21 -139 21zM165 697h54q0 -40 18.5 -54.5t60.5 -14.5t61 14.5t19 54.5h52q0 -126 -133 -126q-132 0 -132 126z" />
    <glyph glyph-name="Gdotaccent" unicode="&#x120;" horiz-adv-x="677" 
d="M523 67v249h-182v58h254v-365q-73 -23 -213 -23q-168 0 -243.5 81t-75.5 288q0 106 19 176t60.5 110.5t98 56.5t141.5 16q104 0 195 -27l-23 -63q-68 26 -171 26q-71 0 -113 -10t-73.5 -41.5t-43.5 -89.5t-12 -154q0 -127 25 -193t74.5 -89t142.5 -23q76 0 140 17z
M373 847q24 0 32.5 -7t8.5 -32q0 -27 -8.5 -35t-32.5 -8q-25 0 -33.5 8t-8.5 35q0 25 8.5 32t33.5 7z" />
    <glyph glyph-name="gdotaccent" unicode="&#x121;" horiz-adv-x="572" 
d="M496 479v-442q0 -134 -62.5 -187t-187.5 -53q-34 0 -85 8.5t-78 20.5l19 62q25 -12 69.5 -20.5t74.5 -8.5q95 0 140 36.5t45 132.5q-52 -42 -139 -42q-122 0 -175.5 59t-53.5 210q0 150 53.5 207t175.5 57q48 0 106 -11t98 -29zM292 457q-92 0 -124.5 -39.5t-32.5 -164.5
q0 -121 33.5 -163t123.5 -42q59 0 99 19t40 53v316q-59 21 -139 21zM293 657q24 0 32.5 -7t8.5 -32q0 -27 -8.5 -35t-32.5 -8q-25 0 -33.5 8t-8.5 35q0 25 8.5 32t33.5 7z" />
    <glyph glyph-name="Gcommaaccent" unicode="&#x122;" horiz-adv-x="677" 
d="M523 67v249h-182v58h254v-365q-73 -23 -213 -23q-168 0 -243.5 81t-75.5 288q0 106 19 176t60.5 110.5t98 56.5t141.5 16q104 0 195 -27l-23 -63q-68 26 -171 26q-71 0 -113 -10t-73.5 -41.5t-43.5 -89.5t-12 -154q0 -127 25 -193t74.5 -89t142.5 -23q76 0 140 17z
M442 -51l-101 -167h-53l70 167h84z" />
    <glyph glyph-name="gcommaaccent" unicode="&#x123;" horiz-adv-x="572" 
d="M496 479v-442q0 -134 -62.5 -187t-187.5 -53q-34 0 -85 8.5t-78 20.5l19 62q25 -12 69.5 -20.5t74.5 -8.5q95 0 140 36.5t45 132.5q-52 -42 -139 -42q-122 0 -175.5 59t-53.5 210q0 150 53.5 207t175.5 57q48 0 106 -11t98 -29zM292 457q-92 0 -124.5 -39.5t-32.5 -164.5
q0 -121 33.5 -163t123.5 -42q59 0 99 19t40 53v316q-59 21 -139 21zM389 744l-101 -167h-53l70 167h84z" />
    <glyph glyph-name="Hcircumflex" unicode="&#x124;" horiz-adv-x="714" 
d="M173 341v-341h-72v697h72v-291h370v291h71v-697h-71v341h-370zM350 837l-81 -90h-76l122 129h72l126 -129h-79z" />
    <glyph glyph-name="hcircumflex" unicode="&#x125;" horiz-adv-x="554" 
d="M288 519q105 0 148 -49.5t43 -184.5v-285h-65v272q0 113 -27.5 149t-105.5 36q-57 0 -98.5 -19t-41.5 -52v-386h-65v722h65v-244q20 16 61 28.5t86 12.5zM169 837l-81 -90h-76l122 129h72l126 -129h-79z" />
    <glyph glyph-name="Hbar" unicode="&#x126;" horiz-adv-x="714" 
d="M33 539v58h68v100h72v-100h370v100h71v-100h69v-58h-69v-539h-71v341h-370v-341h-72v539h-68zM173 406h370v133h-370v-133z" />
    <glyph glyph-name="hbar" unicode="&#x127;" horiz-adv-x="554" 
d="M141 386v-386h-65v595h-64v52h64v75h65v-75h122v-52h-122v-117q20 16 61 28.5t86 12.5q105 0 148 -49.5t43 -184.5v-285h-65v272q0 113 -27.5 149t-105.5 36q-57 0 -98.5 -19t-41.5 -52z" />
    <glyph glyph-name="Itilde" unicode="&#x128;" horiz-adv-x="273" 
d="M173 697h-72v-697h72v697zM271 867l40 -32q-32 -91 -110 -91q-26 0 -74 33.5t-70 33.5q-35 0 -58 -59l-35 34q23 41 45.5 60t54.5 19q29 0 76 -32t69 -32q40 0 62 66z" />
    <glyph glyph-name="itilde" unicode="&#x129;" horiz-adv-x="217" 
d="M141 505v-505h-65v505h65zM237 689l41 -33q-32 -91 -105 -91q-27 0 -71 33t-67 33q-36 0 -60 -61l-36 35q24 43 47.5 62.5t55.5 19.5q30 0 70.5 -33t63.5 -33q20 0 34 15t27 53z" />
    <glyph glyph-name="Imacron" unicode="&#x12a;" horiz-adv-x="273" 
d="M173 697h-72v-697h72v697zM13 770v62h251v-62h-251z" />
    <glyph glyph-name="imacron" unicode="&#x12b;" horiz-adv-x="217" 
d="M141 505v-505h-65v505h65zM-16 586v58h251v-58h-251z" />
    <glyph glyph-name="Ibreve" unicode="&#x12c;" horiz-adv-x="273" 
d="M173 697h-72v-697h72v697zM7 871h54q0 -40 18.5 -54.5t60.5 -14.5t61 14.5t19 54.5h52q0 -126 -133 -126q-132 0 -132 126z" />
    <glyph glyph-name="ibreve" unicode="&#x12d;" horiz-adv-x="217" 
d="M141 505v-505h-65v505h65zM-23 697h54q0 -40 18.5 -54.5t60.5 -14.5t61 14.5t19 54.5h52q0 -126 -133 -126q-132 0 -132 126z" />
    <glyph glyph-name="Iogonek" unicode="&#x12e;" horiz-adv-x="273" 
d="M101 697h72v-697h-72v697zM132 12h34q-57 -34 -76 -58.5t-19 -57.5q0 -24 14 -34.5t54 -10.5q55 0 92 30l29 -49q-45 -35 -126 -35q-71 0 -99 21.5t-28 67.5q0 41 31.5 75t93.5 51z" />
    <glyph glyph-name="iogonek" unicode="&#x12f;" horiz-adv-x="217" 
d="M141 0v505h-65v-505h65zM110 697q24 0 32.5 -7t8.5 -32q0 -27 -8.5 -35t-32.5 -8q-25 0 -33.5 8t-8.5 35q0 25 8.5 32t33.5 7zM107 12h34q-57 -34 -76 -58.5t-19 -57.5q0 -24 14 -34.5t54 -10.5q55 0 92 30l29 -49q-45 -35 -126 -35q-71 0 -99 21.5t-28 67.5
q0 41 31.5 75t93.5 51z" />
    <glyph glyph-name="Idotaccent" unicode="&#x130;" horiz-adv-x="273" 
d="M173 697h-72v-697h72v697zM138 847q24 0 32.5 -7t8.5 -32q0 -27 -8.5 -35t-32.5 -8q-25 0 -33.5 8t-8.5 35q0 25 8.5 32t33.5 7z" />
    <glyph glyph-name="dotlessi" unicode="&#x131;" horiz-adv-x="217" 
d="M141 505v-505h-65v505h65z" />
    <glyph glyph-name="IJ" unicode="&#x132;" horiz-adv-x="712" 
d="M101 697h72v-697h-72v697zM611 697v-505q0 -62 -15.5 -104.5t-44 -63.5t-59.5 -29.5t-71 -8.5q-67 0 -136 30l24 67q50 -26 112 -26q116 0 116 135v505h74z" />
    <glyph glyph-name="ij" unicode="&#x133;" horiz-adv-x="432" 
d="M141 0v505h-65v-505h65zM110 697q24 0 32.5 -7t8.5 -32q0 -27 -8.5 -35t-32.5 -8q-25 0 -33.5 8t-8.5 35q0 25 8.5 32t33.5 7zM323 697q24 0 32.5 -7t8.5 -32q0 -27 -8.5 -35t-32.5 -8q-25 0 -33.5 8t-8.5 35q0 25 8.5 32t33.5 7zM189 -203v60q54 0 77 22t23 93v533h65
v-533q0 -103 -42.5 -139t-122.5 -36z" />
    <glyph glyph-name="Jcircumflex" unicode="&#x134;" horiz-adv-x="440" 
d="M339 697v-505q0 -62 -15.5 -104.5t-44 -63.5t-59.5 -29.5t-71 -8.5q-67 0 -136 30l24 67q50 -26 112 -26q116 0 116 135v505h74zM297 837l-81 -90h-76l122 129h72l126 -129h-79z" />
    <glyph glyph-name="jcircumflex" unicode="&#x135;" horiz-adv-x="217" 
d="M192 568l-81 86l-79 -86h-78l122 129h72l126 -129h-82zM-24 -203v60q54 0 77 22t23 93v533h65v-533q0 -103 -42.5 -139t-122.5 -36z" />
    <glyph glyph-name="Kcommaaccent" unicode="&#x136;" horiz-adv-x="617" 
d="M173 697v-697h-72v697h72zM624 0h-97q-116 160 -213.5 257t-139.5 111q45 26 136.5 115t192.5 214h95q-105 -123 -192 -208.5t-126 -111.5q40 -23 136 -123t208 -254zM377 -51l-101 -167h-53l70 167h84z" />
    <glyph glyph-name="kcommaaccent" unicode="&#x137;" horiz-adv-x="478" 
d="M141 722v-722h-65v722h65zM396 0h84q-200 251 -249 276q60 40 231 229h-84q-179 -199 -237 -238q52 -18 255 -267zM313 -51l-101 -167h-53l70 167h84z" />
    <glyph glyph-name="Lacute" unicode="&#x139;" horiz-adv-x="546" 
d="M101 697h72v-634h360v-63h-432v697zM94 747l134 129h92l-159 -129h-67z" />
    <glyph glyph-name="lacute" unicode="&#x13a;" horiz-adv-x="222" 
d="M141 722v-592q0 -36 10 -58.5t38 -50.5l-50 -42q-34 32 -48.5 63.5t-14.5 83.5v596h65zM57 747l134 129h92l-159 -129h-67z" />
    <glyph glyph-name="Lcommaaccent" unicode="&#x13b;" horiz-adv-x="546" 
d="M101 697h72v-634h360v-63h-432v697zM369 -51l-101 -167h-53l70 167h84z" />
    <glyph glyph-name="lcommaaccent" unicode="&#x13c;" horiz-adv-x="222" 
d="M141 722v-592q0 -36 10 -58.5t38 -50.5l-50 -42q-34 32 -48.5 63.5t-14.5 83.5v596h65zM194 -51l-101 -167h-53l70 167h84z" />
    <glyph glyph-name="Lcaron" unicode="&#x13d;" horiz-adv-x="546" 
d="M101 697h72v-634h360v-63h-432v697zM276 722h73l-56 -192h-39z" />
    <glyph glyph-name="lcaron" unicode="&#x13e;" horiz-adv-x="222" 
d="M141 722v-592q0 -36 10 -58.5t38 -50.5l-50 -42q-34 32 -48.5 63.5t-14.5 83.5v596h65zM195 722h73l-56 -192h-39z" />
    <glyph glyph-name="Ldot" unicode="&#x13f;" horiz-adv-x="546" 
d="M101 697h72v-634h360v-63h-432v697zM314 421q24 0 32.5 -7t8.5 -32q0 -27 -8.5 -35t-32.5 -8q-25 0 -33.5 8t-8.5 35q0 25 8.5 32t33.5 7z" />
    <glyph glyph-name="ldot" unicode="&#x140;" horiz-adv-x="222" 
d="M141 722v-592q0 -36 10 -58.5t38 -50.5l-50 -42q-34 32 -48.5 63.5t-14.5 83.5v596h65zM222 434q24 0 32.5 -7t8.5 -32q0 -27 -8.5 -35t-32.5 -8q-25 0 -33.5 8t-8.5 35q0 25 8.5 32t33.5 7z" />
    <glyph glyph-name="Lslash" unicode="&#x141;" horiz-adv-x="546" 
d="M339 525v-76l-166 -154v-232h360v-63h-432v228l-74 -68v74l74 69v394h72v-327z" />
    <glyph glyph-name="lslash" unicode="&#x142;" horiz-adv-x="222" 
d="M141 722v-261l78 87v-76l-78 -86v-256q0 -36 10 -58.5t38 -50.5l-50 -42q-34 32 -48.5 63.5t-14.5 83.5v188l-73 -81v74l73 81v334h65z" />
    <glyph glyph-name="Nacute" unicode="&#x143;" horiz-adv-x="730" 
d="M173 624v-624h-72v697h98q172 -255 357 -590v590h73v-697h-86q-169 314 -370 624zM304 747l134 129h92l-159 -129h-67z" />
    <glyph glyph-name="nacute" unicode="&#x144;" horiz-adv-x="554" 
d="M141 440v-440h-65v479q40 18 98 29t106 11q112 0 155.5 -49t43.5 -185v-285h-65v272q0 114 -29.5 149.5t-116.5 35.5q-72 0 -127 -17zM244 568h-69l119 129h83z" />
    <glyph glyph-name="Ncommaaccent" unicode="&#x145;" horiz-adv-x="730" 
d="M173 624v-624h-72v697h98q172 -255 357 -590v590h73v-697h-86q-169 314 -370 624zM416 -51l-101 -167h-53l70 167h84z" />
    <glyph glyph-name="ncommaaccent" unicode="&#x146;" horiz-adv-x="554" 
d="M141 440v-440h-65v479q40 18 98 29t106 11q112 0 155.5 -49t43.5 -185v-285h-65v272q0 114 -29.5 149.5t-116.5 35.5q-72 0 -127 -17zM326 -51l-101 -167h-53l70 167h84z" />
    <glyph glyph-name="Ncaron" unicode="&#x147;" horiz-adv-x="730" 
d="M173 624v-624h-72v697h98q172 -255 357 -590v590h73v-697h-86q-169 314 -370 624zM374 786l81 90h76l-122 -129h-72l-126 129h79z" />
    <glyph glyph-name="ncaron" unicode="&#x148;" horiz-adv-x="554" 
d="M141 440v-440h-65v479q40 18 98 29t106 11q112 0 155.5 -49t43.5 -185v-285h-65v272q0 114 -29.5 149.5t-116.5 35.5q-72 0 -127 -17zM196 697l81 -86l79 86h78l-122 -129h-72l-126 129h82z" />
    <glyph glyph-name="Omacron" unicode="&#x14c;" horiz-adv-x="759" 
d="M379 -14q114 0 180.5 31t101.5 112t35 223q0 140 -35 220t-102 111t-180 31t-179.5 -31t-101.5 -111t-35 -220q0 -142 35 -223t101.5 -112t179.5 -31zM379 653q71 0 113.5 -11t73 -44.5t42.5 -92t12 -155.5q0 -92 -12 -149.5t-42 -92t-73.5 -47t-113.5 -12.5
q-92 0 -141.5 25t-73 89.5t-23.5 186.5q0 97 11.5 155.5t41.5 92t72 44.5t113 11zM254 770v62h251v-62h-251z" />
    <glyph glyph-name="omacron" unicode="&#x14d;" horiz-adv-x="585" 
d="M292 -14q-122 0 -175.5 59t-53.5 210q0 150 53.5 207t175.5 57t176 -57t54 -207q0 -151 -54 -210t-176 -59zM292 459q-91 0 -124 -40t-33 -166q0 -121 33.5 -164t123.5 -43q91 0 124.5 43t33.5 164q0 126 -33 166t-125 40zM165 586v58h251v-58h-251z" />
    <glyph glyph-name="Obreve" unicode="&#x14e;" horiz-adv-x="759" 
d="M379 -14q114 0 180.5 31t101.5 112t35 223q0 140 -35 220t-102 111t-180 31t-179.5 -31t-101.5 -111t-35 -220q0 -142 35 -223t101.5 -112t179.5 -31zM379 653q71 0 113.5 -11t73 -44.5t42.5 -92t12 -155.5q0 -92 -12 -149.5t-42 -92t-73.5 -47t-113.5 -12.5
q-92 0 -141.5 25t-73 89.5t-23.5 186.5q0 97 11.5 155.5t41.5 92t72 44.5t113 11zM246 871h54q0 -40 18.5 -54.5t60.5 -14.5t61 14.5t19 54.5h52q0 -126 -133 -126q-132 0 -132 126z" />
    <glyph glyph-name="obreve" unicode="&#x14f;" horiz-adv-x="585" 
d="M292 -14q-122 0 -175.5 59t-53.5 210q0 150 53.5 207t175.5 57t176 -57t54 -207q0 -151 -54 -210t-176 -59zM292 459q-91 0 -124 -40t-33 -166q0 -121 33.5 -164t123.5 -43q91 0 124.5 43t33.5 164q0 126 -33 166t-125 40zM159 697h54q0 -40 18.5 -54.5t60.5 -14.5
t61 14.5t19 54.5h52q0 -126 -133 -126q-132 0 -132 126z" />
    <glyph glyph-name="Ohungarumlaut" unicode="&#x150;" horiz-adv-x="759" 
d="M379 -14q114 0 180.5 31t101.5 112t35 223q0 140 -35 220t-102 111t-180 31t-179.5 -31t-101.5 -111t-35 -220q0 -142 35 -223t101.5 -112t179.5 -31zM379 653q71 0 113.5 -11t73 -44.5t42.5 -92t12 -155.5q0 -92 -12 -149.5t-42 -92t-73.5 -47t-113.5 -12.5
q-92 0 -141.5 25t-73 89.5t-23.5 186.5q0 97 11.5 155.5t41.5 92t72 44.5t113 11zM336 876h75l-107 -129h-53zM474 876h76l-106 -129h-54z" />
    <glyph glyph-name="ohungarumlaut" unicode="&#x151;" horiz-adv-x="585" 
d="M292 -14q-122 0 -175.5 59t-53.5 210q0 150 53.5 207t175.5 57t176 -57t54 -207q0 -151 -54 -210t-176 -59zM292 459q-91 0 -124 -40t-33 -166q0 -121 33.5 -164t123.5 -43q91 0 124.5 43t33.5 164q0 126 -33 166t-125 40zM251 697h75l-107 -129h-53zM389 697h76
l-106 -129h-54z" />
    <glyph glyph-name="OE" unicode="&#x152;" horiz-adv-x="1110" 
d="M521 697h557v-60h-455q63 -70 72 -234h225v-59h-224q-1 -205 -78 -284h460v-60h-568q-52 -14 -131 -14q-113 0 -179.5 31t-101.5 112t-35 223q0 140 35 220t101.5 111t179.5 31q85 0 142 -17zM379 653q-71 0 -113 -11t-72 -44.5t-41.5 -92t-11.5 -155.5
q0 -122 23.5 -186.5t73 -89.5t141.5 -25q70 0 113.5 12.5t73.5 47t42 92t12 149.5q0 97 -12 155.5t-42.5 92t-73 44.5t-113.5 11z" />
    <glyph glyph-name="oe" unicode="&#x153;" horiz-adv-x="931" 
d="M675 519q111 0 158.5 -58.5t47.5 -214.5h-361q1 -118 39.5 -158.5t130.5 -40.5q72 0 145 27l15 -60q-91 -28 -166 -28q-78 0 -126 21t-73 72q-23 -50 -69.5 -71.5t-123.5 -21.5q-122 0 -175.5 59t-53.5 210q0 150 53.5 207t175.5 57q75 0 121.5 -20.5t70.5 -68.5
q50 89 191 89zM292 459q-91 0 -124 -40t-33 -166q0 -121 33.5 -164t123.5 -43q91 0 124.5 43t33.5 164q0 126 -33 166t-125 40zM675 458q-78 0 -113 -31t-41 -122h286q-4 92 -32 122.5t-100 30.5z" />
    <glyph glyph-name="Racute" unicode="&#x154;" horiz-adv-x="675" 
d="M101 697h311q198 0 198 -202q0 -82 -47 -133t-154 -51q71 -24 244 -311h-90q-83 145 -149.5 223.5t-105.5 78.5h-135v-302h-72v697zM412 637h-239v-272h234q60 0 91.5 35t31.5 96q0 68 -30.5 104.5t-87.5 36.5zM242 747l134 129h92l-159 -129h-67z" />
    <glyph glyph-name="racute" unicode="&#x155;" horiz-adv-x="343" 
d="M283 519q28 0 52 -3v-67q-30 4 -52 4q-61 0 -101.5 -17t-40.5 -50v-386h-65v505h65v-36q16 20 54 35t88 15zM208 568h-69l119 129h83z" />
    <glyph glyph-name="Rcommaaccent" unicode="&#x156;" horiz-adv-x="675" 
d="M101 697h311q198 0 198 -202q0 -82 -47 -133t-154 -51q71 -24 244 -311h-90q-83 145 -149.5 223.5t-105.5 78.5h-135v-302h-72v697zM412 637h-239v-272h234q60 0 91.5 35t31.5 96q0 68 -30.5 104.5t-87.5 36.5zM396 -51l-101 -167h-53l70 167h84z" />
    <glyph glyph-name="rcommaaccent" unicode="&#x157;" horiz-adv-x="343" 
d="M283 519q28 0 52 -3v-67q-30 4 -52 4q-61 0 -101.5 -17t-40.5 -50v-386h-65v505h65v-36q16 20 54 35t88 15zM167 -51l-101 -167h-53l70 167h84z" />
    <glyph glyph-name="Rcaron" unicode="&#x158;" horiz-adv-x="675" 
d="M101 697h311q198 0 198 -202q0 -82 -47 -133t-154 -51q71 -24 244 -311h-90q-83 145 -149.5 223.5t-105.5 78.5h-135v-302h-72v697zM412 637h-239v-272h234q60 0 91.5 35t31.5 96q0 68 -30.5 104.5t-87.5 36.5zM342 786l81 90h76l-122 -129h-72l-126 129h79z" />
    <glyph glyph-name="rcaron" unicode="&#x159;" horiz-adv-x="343" 
d="M283 519q28 0 52 -3v-67q-30 4 -52 4q-61 0 -101.5 -17t-40.5 -50v-386h-65v505h65v-36q16 20 54 35t88 15zM132 697l81 -86l79 86h78l-122 -129h-72l-126 129h82z" />
    <glyph glyph-name="Sacute" unicode="&#x15a;" horiz-adv-x="624" 
d="M515 622q-23 12 -74.5 19.5t-96.5 7.5q-100 0 -151.5 -30t-51.5 -107q0 -55 39 -84t138 -36q126 -10 183.5 -58t57.5 -144q0 -204 -283 -204q-109 0 -198 28l20 64q70 -26 177 -26q101 0 154.5 30.5t53.5 106.5q0 57 -39.5 92.5t-136.5 42.5q-129 9 -186 50.5t-57 135.5
q0 204 279 204q101 0 192 -27zM231 747l134 129h92l-159 -129h-67z" />
    <glyph glyph-name="sacute" unicode="&#x15b;" horiz-adv-x="504" 
d="M404 431q-72 28 -144 28q-70 0 -99.5 -17.5t-29.5 -73.5q0 -38 29 -56t97 -22q99 -7 143 -41t44 -104q0 -88 -46 -123.5t-149 -35.5t-182 27l20 61q26 -12 74.5 -20.5t87.5 -8.5q67 0 95.5 18.5t28.5 75.5q0 42 -26.5 62t-97.5 26q-97 7 -143 37t-46 98q0 86 49 121.5
t151 35.5q73 0 166 -26zM239 568h-69l119 129h83z" />
    <glyph glyph-name="Scircumflex" unicode="&#x15c;" horiz-adv-x="624" 
d="M515 622q-23 12 -74.5 19.5t-96.5 7.5q-100 0 -151.5 -30t-51.5 -107q0 -55 39 -84t138 -36q126 -10 183.5 -58t57.5 -144q0 -204 -283 -204q-109 0 -198 28l20 64q70 -26 177 -26q101 0 154.5 30.5t53.5 106.5q0 57 -39.5 92.5t-136.5 42.5q-129 9 -186 50.5t-57 135.5
q0 204 279 204q101 0 192 -27zM327 837l-81 -90h-76l122 129h72l126 -129h-79z" />
    <glyph glyph-name="scircumflex" unicode="&#x15d;" horiz-adv-x="504" 
d="M404 431q-72 28 -144 28q-70 0 -99.5 -17.5t-29.5 -73.5q0 -38 29 -56t97 -22q99 -7 143 -41t44 -104q0 -88 -46 -123.5t-149 -35.5t-182 27l20 61q26 -12 74.5 -20.5t87.5 -8.5q67 0 95.5 18.5t28.5 75.5q0 42 -26.5 62t-97.5 26q-97 7 -143 37t-46 98q0 86 49 121.5
t151 35.5q73 0 166 -26zM336 568l-81 86l-79 -86h-78l122 129h72l126 -129h-82z" />
    <glyph glyph-name="Scedilla" unicode="&#x15e;" horiz-adv-x="624" 
d="M515 622q-23 12 -74.5 19.5t-96.5 7.5q-100 0 -151.5 -30t-51.5 -107q0 -55 39 -84t138 -36q126 -10 183.5 -58t57.5 -144q0 -204 -283 -204q-109 0 -198 28l20 64q70 -26 177 -26q101 0 154.5 30.5t53.5 106.5q0 57 -39.5 92.5t-136.5 42.5q-129 9 -186 50.5t-57 135.5
q0 204 279 204q101 0 192 -27zM288 0h34v-47q70 0 94.5 -15t24.5 -60q0 -46 -28 -63.5t-97 -17.5q-70 0 -106 21l18 42q34 -17 88 -17q33 0 45 6.5t12 27.5q0 22 -24.5 28.5t-96.5 2.5z" />
    <glyph glyph-name="Scedilla" unicode="&#xf6c1;" horiz-adv-x="624" 
d="M515 622q-23 12 -74.5 19.5t-96.5 7.5q-100 0 -151.5 -30t-51.5 -107q0 -55 39 -84t138 -36q126 -10 183.5 -58t57.5 -144q0 -204 -283 -204q-109 0 -198 28l20 64q70 -26 177 -26q101 0 154.5 30.5t53.5 106.5q0 57 -39.5 92.5t-136.5 42.5q-129 9 -186 50.5t-57 135.5
q0 204 279 204q101 0 192 -27zM288 0h34v-47q70 0 94.5 -15t24.5 -60q0 -46 -28 -63.5t-97 -17.5q-70 0 -106 21l18 42q34 -17 88 -17q33 0 45 6.5t12 27.5q0 22 -24.5 28.5t-96.5 2.5z" />
    <glyph glyph-name="scedilla" unicode="&#x15f;" horiz-adv-x="504" 
d="M404 431q-72 28 -144 28q-70 0 -99.5 -17.5t-29.5 -73.5q0 -38 29 -56t97 -22q99 -7 143 -41t44 -104q0 -88 -46 -123.5t-149 -35.5t-182 27l20 61q26 -12 74.5 -20.5t87.5 -8.5q67 0 95.5 18.5t28.5 75.5q0 42 -26.5 62t-97.5 26q-97 7 -143 37t-46 98q0 86 49 121.5
t151 35.5q73 0 166 -26zM218 0h34v-47q70 0 94.5 -15t24.5 -60q0 -46 -28 -63.5t-97 -17.5q-70 0 -106 21l18 42q34 -17 88 -17q33 0 45 6.5t12 27.5q0 22 -24.5 28.5t-96.5 2.5z" />
    <glyph glyph-name="scedilla" unicode="&#xf6c2;" horiz-adv-x="504" 
d="M404 431q-72 28 -144 28q-70 0 -99.5 -17.5t-29.5 -73.5q0 -38 29 -56t97 -22q99 -7 143 -41t44 -104q0 -88 -46 -123.5t-149 -35.5t-182 27l20 61q26 -12 74.5 -20.5t87.5 -8.5q67 0 95.5 18.5t28.5 75.5q0 42 -26.5 62t-97.5 26q-97 7 -143 37t-46 98q0 86 49 121.5
t151 35.5q73 0 166 -26zM218 0h34v-47q70 0 94.5 -15t24.5 -60q0 -46 -28 -63.5t-97 -17.5q-70 0 -106 21l18 42q34 -17 88 -17q33 0 45 6.5t12 27.5q0 22 -24.5 28.5t-96.5 2.5z" />
    <glyph glyph-name="Scaron" unicode="&#x160;" horiz-adv-x="624" 
d="M515 622q-23 12 -74.5 19.5t-96.5 7.5q-100 0 -151.5 -30t-51.5 -107q0 -55 39 -84t138 -36q126 -10 183.5 -58t57.5 -144q0 -204 -283 -204q-109 0 -198 28l20 64q70 -26 177 -26q101 0 154.5 30.5t53.5 106.5q0 57 -39.5 92.5t-136.5 42.5q-129 9 -186 50.5t-57 135.5
q0 204 279 204q101 0 192 -27zM325 786l81 90h76l-122 -129h-72l-126 129h79z" />
    <glyph glyph-name="scaron" unicode="&#x161;" horiz-adv-x="504" 
d="M404 431q-72 28 -144 28q-70 0 -99.5 -17.5t-29.5 -73.5q0 -38 29 -56t97 -22q99 -7 143 -41t44 -104q0 -88 -46 -123.5t-149 -35.5t-182 27l20 61q26 -12 74.5 -20.5t87.5 -8.5q67 0 95.5 18.5t28.5 75.5q0 42 -26.5 62t-97.5 26q-97 7 -143 37t-46 98q0 86 49 121.5
t151 35.5q73 0 166 -26zM175 697l81 -86l79 86h78l-122 -129h-72l-126 129h82z" />
    <glyph glyph-name="Tcommaaccent" unicode="&#x162;" horiz-adv-x="568" 
d="M321 637v-637h-73v637h-242v60h556v-60h-241zM350 -51l-101 -167h-53l70 167h84z" />
    <glyph glyph-name="Tcommaaccent" unicode="&#x21a;" horiz-adv-x="568" 
d="M321 637v-637h-73v637h-242v60h556v-60h-241zM350 -51l-101 -167h-53l70 167h84z" />
    <glyph glyph-name="tcommaaccent" unicode="&#x163;" horiz-adv-x="393" 
d="M167 445v-275q0 -66 21 -94t73 -28q55 0 96 15l15 -58q-55 -19 -111 -19q-89 0 -124 37.5t-35 145.5v276h-89v60h89v106l65 27v-133h187v-60h-187zM260 -51l-101 -167h-53l70 167h84z" />
    <glyph glyph-name="tcommaaccent" unicode="&#x21b;" horiz-adv-x="393" 
d="M167 445v-275q0 -66 21 -94t73 -28q55 0 96 15l15 -58q-55 -19 -111 -19q-89 0 -124 37.5t-35 145.5v276h-89v60h89v106l65 27v-133h187v-60h-187zM260 -51l-101 -167h-53l70 167h84z" />
    <glyph glyph-name="Tcaron" unicode="&#x164;" horiz-adv-x="568" 
d="M321 637v-637h-73v637h-242v60h556v-60h-241zM289 786l81 90h76l-122 -129h-72l-126 129h79z" />
    <glyph glyph-name="tcaron" unicode="&#x165;" horiz-adv-x="393" 
d="M167 170v275h187v60h-187v133l-65 -27v-106h-89v-60h89v-276q0 -108 35 -145.5t124 -37.5q56 0 111 19l-15 58q-41 -15 -96 -15q-52 0 -73 28t-21 94zM269 767h73l-56 -192h-39z" />
    <glyph glyph-name="Tbar" unicode="&#x166;" horiz-adv-x="568" 
d="M154 251v62h94v320h-242v64h556v-64h-241v-320h84v-62h-84v-251h-73v251h-94z" />
    <glyph glyph-name="tbar" unicode="&#x167;" horiz-adv-x="393" 
d="M35 228v62h67v156h-89v59h89v106l65 27v-133h187v-59h-187v-156h119v-62h-119v-58q0 -66 21 -94t73 -28q55 0 96 15l15 -58q-55 -19 -111 -19q-89 0 -124 37.5t-35 145.5v59h-67z" />
    <glyph glyph-name="Utilde" unicode="&#x168;" horiz-adv-x="738" 
d="M650 242v455h-72v-456q0 -113 -48.5 -152.5t-159.5 -39.5q-112 0 -160.5 38.5t-48.5 153.5v456h-73v-455q0 -78 18 -129t56 -78.5t86.5 -38t120.5 -10.5q73 0 121.5 10.5t86.5 38t55.5 78.5t17.5 129zM504 867l40 -32q-32 -91 -110 -91q-26 0 -74 33.5t-70 33.5
q-35 0 -58 -59l-35 34q23 41 45.5 60t54.5 19q29 0 76 -32t69 -32q40 0 62 66z" />
    <glyph glyph-name="utilde" unicode="&#x169;" horiz-adv-x="554" 
d="M414 505v-439q-54 -18 -128 -18q-86 0 -115.5 36t-29.5 149v272h-65v-285q0 -135 44 -184.5t155 -49.5q114 0 204 40v479h-65zM408 689l41 -33q-32 -91 -105 -91q-27 0 -71 33t-67 33q-36 0 -60 -61l-36 35q24 43 47.5 62.5t55.5 19.5q30 0 70.5 -33t63.5 -33q20 0 34 15
t27 53z" />
    <glyph glyph-name="Umacron" unicode="&#x16a;" horiz-adv-x="738" 
d="M650 242v455h-72v-456q0 -113 -48.5 -152.5t-159.5 -39.5q-112 0 -160.5 38.5t-48.5 153.5v456h-73v-455q0 -78 18 -129t56 -78.5t86.5 -38t120.5 -10.5q73 0 121.5 10.5t86.5 38t55.5 78.5t17.5 129zM241 770v62h251v-62h-251z" />
    <glyph glyph-name="umacron" unicode="&#x16b;" horiz-adv-x="554" 
d="M414 505v-439q-54 -18 -128 -18q-86 0 -115.5 36t-29.5 149v272h-65v-285q0 -135 44 -184.5t155 -49.5q114 0 204 40v479h-65zM150 586v58h251v-58h-251z" />
    <glyph glyph-name="Ubreve" unicode="&#x16c;" horiz-adv-x="738" 
d="M650 242v455h-72v-456q0 -113 -48.5 -152.5t-159.5 -39.5q-112 0 -160.5 38.5t-48.5 153.5v456h-73v-455q0 -78 18 -129t56 -78.5t86.5 -38t120.5 -10.5q73 0 121.5 10.5t86.5 38t55.5 78.5t17.5 129zM238 871h54q0 -40 18.5 -54.5t60.5 -14.5t61 14.5t19 54.5h52
q0 -126 -133 -126q-132 0 -132 126z" />
    <glyph glyph-name="ubreve" unicode="&#x16d;" horiz-adv-x="554" 
d="M414 505v-439q-54 -18 -128 -18q-86 0 -115.5 36t-29.5 149v272h-65v-285q0 -135 44 -184.5t155 -49.5q114 0 204 40v479h-65zM145 697h54q0 -40 18.5 -54.5t60.5 -14.5t61 14.5t19 54.5h52q0 -126 -133 -126q-132 0 -132 126z" />
    <glyph glyph-name="Uring" unicode="&#x16e;" horiz-adv-x="738" 
d="M650 697v-455q0 -78 -17.5 -129t-55.5 -78.5t-86.5 -38t-121.5 -10.5q-72 0 -120.5 10.5t-86.5 38t-56 78.5t-18 129v455h73v-456q0 -115 48.5 -153.5t160.5 -38.5q111 0 159.5 39.5t48.5 152.5v456h72zM367 873q110 0 110 -94t-110 -94q-109 0 -109 94q0 48 25 71t84 23
zM367 828q-32 0 -44.5 -12.5t-12.5 -38.5q0 -52 57 -52q59 0 59 52q0 26 -13 38.5t-46 12.5z" />
    <glyph glyph-name="uring" unicode="&#x16f;" horiz-adv-x="554" 
d="M414 66v439h65v-479q-90 -40 -204 -40q-111 0 -155 49.5t-44 184.5v285h65v-272q0 -113 29.5 -149t115.5 -36q74 0 128 18zM284 738q110 0 110 -94t-110 -94q-109 0 -109 94q0 48 25 71t84 23zM284 693q-32 0 -44.5 -12.5t-12.5 -38.5q0 -52 57 -52q59 0 59 52
q0 26 -13 38.5t-46 12.5z" />
    <glyph glyph-name="Uhungarumlaut" unicode="&#x170;" horiz-adv-x="738" 
d="M650 242v455h-72v-456q0 -113 -48.5 -152.5t-159.5 -39.5q-112 0 -160.5 38.5t-48.5 153.5v456h-73v-455q0 -78 18 -129t56 -78.5t86.5 -38t120.5 -10.5q73 0 121.5 10.5t86.5 38t55.5 78.5t17.5 129zM313 876h75l-107 -129h-53zM451 876h76l-106 -129h-54z" />
    <glyph glyph-name="uhungarumlaut" unicode="&#x171;" horiz-adv-x="554" 
d="M414 505v-439q-54 -18 -128 -18q-86 0 -115.5 36t-29.5 149v272h-65v-285q0 -135 44 -184.5t155 -49.5q114 0 204 40v479h-65zM233 697h75l-107 -129h-53zM371 697h76l-106 -129h-54z" />
    <glyph glyph-name="Uogonek" unicode="&#x172;" horiz-adv-x="738" 
d="M650 697v-455q0 -78 -17.5 -129t-55.5 -78.5t-86.5 -38t-121.5 -10.5q-72 0 -120.5 10.5t-86.5 38t-56 78.5t-18 129v455h73v-456q0 -115 48.5 -153.5t160.5 -38.5q111 0 159.5 39.5t48.5 152.5v456h72zM444 12h34q-57 -34 -76 -58.5t-19 -57.5q0 -24 14 -34.5t54 -10.5
q55 0 92 30l29 -49q-45 -35 -126 -35q-71 0 -99 21.5t-28 67.5q0 41 31.5 75t93.5 51z" />
    <glyph glyph-name="uogonek" unicode="&#x173;" horiz-adv-x="554" 
d="M414 66v439h65v-479q-90 -40 -204 -40q-111 0 -155 49.5t-44 184.5v285h65v-272q0 -113 29.5 -149t115.5 -36q74 0 128 18zM400 12h34q-57 -34 -76 -58.5t-19 -57.5q0 -24 14 -34.5t54 -10.5q55 0 92 30l29 -49q-45 -35 -126 -35q-71 0 -99 21.5t-28 67.5q0 41 31.5 75
t93.5 51z" />
    <glyph glyph-name="Wcircumflex" unicode="&#x174;" horiz-adv-x="905" 
d="M648 74q107 326 179 623h71q-94 -370 -206 -697h-93q-44 235 -137 594q-36 -195 -158 -594h-91q-124 469 -207 697h81q95 -287 176 -623q116 388 162 623h74q4 -14 29 -109.5l35.5 -138l30 -121.5t32.5 -140t22 -114zM458 837l-81 -90h-76l122 129h72l126 -129h-79z" />
    <glyph glyph-name="wcircumflex" unicode="&#x175;" horiz-adv-x="813" 
d="M787 505q-70 -265 -172 -505h-92q-54 261 -112 430q-54 -218 -130 -430h-92q-80 296 -164 505h77q74 -193 136 -443q33 92 74 230.5t57 212.5h83q57 -165 120 -443q97 256 142 443h73zM489 568l-81 86l-79 -86h-78l122 129h72l126 -129h-82z" />
    <glyph glyph-name="Ycircumflex" unicode="&#x176;" horiz-adv-x="607" 
d="M340 335v-335h-73v335q-119 175 -272 362h91q115 -142 223 -305q114 144 220 305h83q-146 -208 -272 -362zM303 837l-81 -90h-76l122 129h72l126 -129h-79z" />
    <glyph glyph-name="ycircumflex" unicode="&#x177;" horiz-adv-x="509" 
d="M211 -24q-47 -103 -82 -168h76q50 94 91 192q125 295 188 505h-71q-53 -190 -159 -447q-77 268 -156 447h-73q87 -179 186 -529zM334 568l-81 86l-79 -86h-78l122 129h72l126 -129h-82z" />
    <glyph glyph-name="Ydieresis" unicode="&#x178;" horiz-adv-x="607" 
d="M340 335v-335h-73v335q-119 175 -272 362h91q115 -142 223 -305q114 144 220 305h83q-146 -208 -272 -362zM215 847q24 0 32.5 -7t8.5 -32q0 -27 -8.5 -35t-32.5 -8q-25 0 -33.5 8t-8.5 35q0 25 8.5 32t33.5 7zM404 847q24 0 32.5 -7t8.5 -32q0 -27 -8.5 -35t-32.5 -8
q-25 0 -33.5 8t-8.5 35q0 25 8.5 32t33.5 7z" />
    <glyph glyph-name="Zacute" unicode="&#x179;" horiz-adv-x="609" 
d="M21 0v29q256 318 459 608h-432v60h536v-26q-217 -320 -458 -611h440v-60h-545zM228 747l134 129h92l-159 -129h-67z" />
    <glyph glyph-name="zacute" unicode="&#x17a;" horiz-adv-x="495" 
d="M36 0v27q207 250 315 418h-299v60h401v-25q-68 -103 -162 -231t-147 -189h310v-60h-418zM269 568h-69l119 129h83z" />
    <glyph glyph-name="Zdotaccent" unicode="&#x17b;" horiz-adv-x="609" 
d="M21 0v29q256 318 459 608h-432v60h536v-26q-217 -320 -458 -611h440v-60h-545zM309 847q24 0 32.5 -7t8.5 -32q0 -27 -8.5 -35t-32.5 -8q-25 0 -33.5 8t-8.5 35q0 25 8.5 32t33.5 7z" />
    <glyph glyph-name="zdotaccent" unicode="&#x17c;" horiz-adv-x="495" 
d="M36 0v27q207 250 315 418h-299v60h401v-25q-68 -103 -162 -231t-147 -189h310v-60h-418zM254 657q24 0 32.5 -7t8.5 -32q0 -27 -8.5 -35t-32.5 -8q-25 0 -33.5 8t-8.5 35q0 25 8.5 32t33.5 7z" />
    <glyph glyph-name="Zcaron" unicode="&#x17d;" horiz-adv-x="609" 
d="M21 0v29q256 318 459 608h-432v60h536v-26q-217 -320 -458 -611h440v-60h-545zM322 786l81 90h76l-122 -129h-72l-126 129h79z" />
    <glyph glyph-name="zcaron" unicode="&#x17e;" horiz-adv-x="495" 
d="M36 0v27q207 250 315 418h-299v60h401v-25q-68 -103 -162 -231t-147 -189h310v-60h-418zM173 697l81 -86l79 86h78l-122 -129h-72l-126 129h82z" />
    <glyph glyph-name="florin" unicode="&#x192;" horiz-adv-x="355" 
d="M229 552l-10 -47h180l-13 -59h-180l-100 -474q-22 -101 -74.5 -138t-126.5 -37q-66 0 -113 22l33 61q39 -23 92 -23q99 0 124 115l100 474h-89l13 59h89l10 47q11 53 31.5 88t49 51t55.5 22t63 6q61 0 111 -16l-29 -57q-37 13 -94 13q-21 0 -36.5 -3t-33.5 -13t-31.5 -33
t-20.5 -58z" />
    <glyph glyph-name="Scommaaccent" unicode="&#x218;" horiz-adv-x="624" 
d="M515 622q-23 12 -74.5 19.5t-96.5 7.5q-100 0 -151.5 -30t-51.5 -107q0 -55 39 -84t138 -36q126 -10 183.5 -58t57.5 -144q0 -204 -283 -204q-109 0 -198 28l20 64q70 -26 177 -26q101 0 154.5 30.5t53.5 106.5q0 57 -39.5 92.5t-136.5 42.5q-129 9 -186 50.5t-57 135.5
q0 204 279 204q101 0 192 -27zM371 -51l-101 -167h-53l70 167h84z" />
    <glyph glyph-name="scommaaccent" unicode="&#x219;" horiz-adv-x="504" 
d="M404 431q-72 28 -144 28q-70 0 -99.5 -17.5t-29.5 -73.5q0 -38 29 -56t97 -22q99 -7 143 -41t44 -104q0 -88 -46 -123.5t-149 -35.5t-182 27l20 61q26 -12 74.5 -20.5t87.5 -8.5q67 0 95.5 18.5t28.5 75.5q0 42 -26.5 62t-97.5 26q-97 7 -143 37t-46 98q0 86 49 121.5
t151 35.5q73 0 166 -26zM307 -51l-101 -167h-53l70 167h84z" />
    <glyph glyph-name="circumflex" unicode="&#x2c6;" horiz-adv-x="680" 
d="M427 568l-81 86l-79 -86h-78l122 129h72l126 -129h-82z" />
    <glyph glyph-name="caron" unicode="&#x2c7;" horiz-adv-x="667" 
d="M271 697l81 -86l79 86h78l-122 -129h-72l-126 129h82z" />
    <glyph glyph-name="breve" unicode="&#x2d8;" horiz-adv-x="537" 
d="M99 697h54q0 -40 18.5 -54.5t60.5 -14.5t61 14.5t19 54.5h52q0 -126 -133 -126q-132 0 -132 126z" />
    <glyph glyph-name="dotaccent" unicode="&#x2d9;" horiz-adv-x="408" 
d="M110 657q24 0 32.5 -7t8.5 -32q0 -27 -8.5 -35t-32.5 -8q-25 0 -33.5 8t-8.5 35q0 25 8.5 32t33.5 7z" />
    <glyph glyph-name="ring" unicode="&#x2da;" horiz-adv-x="727" 
d="M360 738q110 0 110 -94t-110 -94q-109 0 -109 94q0 48 25 71t84 23zM360 693q-32 0 -44.5 -12.5t-12.5 -38.5q0 -52 57 -52q59 0 59 52q0 26 -13 38.5t-46 12.5z" />
    <glyph glyph-name="ogonek" unicode="&#x2db;" horiz-adv-x="654" 
d="M438 12h34q-57 -34 -76 -58.5t-19 -57.5q0 -24 14 -34.5t54 -10.5q55 0 92 30l29 -49q-45 -35 -126 -35q-71 0 -99 21.5t-28 67.5q0 41 31.5 75t93.5 51z" />
    <glyph glyph-name="tilde" unicode="&#x2dc;" horiz-adv-x="728" 
d="M442 689l41 -33q-32 -91 -105 -91q-27 0 -71 33t-67 33q-36 0 -60 -61l-36 35q24 43 47.5 62.5t55.5 19.5q30 0 70.5 -33t63.5 -33q20 0 34 15t27 53z" />
    <glyph glyph-name="hungarumlaut" unicode="&#x2dd;" horiz-adv-x="631" 
d="M261 697h75l-107 -129h-53zM399 697h76l-106 -129h-54z" />
    <glyph glyph-name="Delta" unicode="&#x394;" horiz-adv-x="639" 
d="M627 0h-620q126 380 263 697h95q126 -399 262 -697zM314 642q-115 -268 -216 -582h422q-119 293 -206 582z" />
    <glyph glyph-name="Delta" unicode="&#x2206;" horiz-adv-x="639" 
d="M627 0h-620q126 380 263 697h95q126 -399 262 -697zM314 642q-115 -268 -216 -582h422q-119 293 -206 582z" />
    <glyph glyph-name="Omega" unicode="&#x3a9;" horiz-adv-x="776" 
d="M746 60v-60h-284v60q149 48 149 330q0 150 -50.5 206.5t-172.5 56.5q-121 0 -171.5 -56.5t-50.5 -206.5q0 -282 148 -330v-60h-284v60h184q-122 80 -122 332q0 180 71 251t225 71t225.5 -71t71.5 -251q0 -251 -123 -332h184z" />
    <glyph glyph-name="Omega" unicode="&#x2126;" horiz-adv-x="776" 
d="M746 60v-60h-284v60q149 48 149 330q0 150 -50.5 206.5t-172.5 56.5q-121 0 -171.5 -56.5t-50.5 -206.5q0 -282 148 -330v-60h-284v60h184q-122 80 -122 332q0 180 71 251t225 71t225.5 -71t71.5 -251q0 -251 -123 -332h184z" />
    <glyph glyph-name="pi" unicode="&#x3c0;" horiz-adv-x="598" 
d="M30 445v60h538v-60h-85v-445h-65v445h-240v-297q0 -135 -93 -165l-28 57q56 20 56 108v297h-83z" />
    <glyph glyph-name="afii10023" unicode="&#x401;" horiz-adv-x="610" 
d="M578 697h-477v-697h477v60h-405v283h287v60h-287v234h405v60zM240 847q24 0 32.5 -7t8.5 -32q0 -27 -8.5 -35t-32.5 -8q-25 0 -33.5 8t-8.5 35q0 25 8.5 32t33.5 7zM429 847q24 0 32.5 -7t8.5 -32q0 -27 -8.5 -35t-32.5 -8q-25 0 -33.5 8t-8.5 35q0 25 8.5 32t33.5 7z
" />
    <glyph glyph-name="afii10051" unicode="&#x402;" horiz-adv-x="727" 
d="M482 -170l-33 52q25 10 41 20t38 34.5t34.5 58.5t22 93.5t9.5 138.5q0 100 -13 149t-39.5 65t-80.5 16q-56 0 -97 -18t-43 -50v-389h-73v637h-242v60h556v-60h-241v-159q20 16 61 28.5t86 12.5q73 0 113 -22t61.5 -86.5t21.5 -183.5q0 -317 -182 -397z" />
    <glyph glyph-name="afii10052" unicode="&#x403;" horiz-adv-x="546" 
d="M101 0h72v637h360v60h-432v-697zM239 747l134 129h92l-159 -129h-67z" />
    <glyph glyph-name="afii10053" unicode="&#x404;" horiz-adv-x="609" 
d="M487 344h-346q1 -122 26.5 -185.5t74.5 -85t141 -21.5q103 0 171 26l23 -64q-89 -28 -195 -28q-168 0 -243.5 81t-75.5 288q0 106 19 176t60.5 110.5t98 56.5t141.5 16q104 0 195 -27l-23 -65q-67 27 -171 27q-67 0 -106.5 -8.5t-71 -34.5t-46 -74.5t-17.5 -128.5h345
v-59z" />
    <glyph glyph-name="afii10054" unicode="&#x405;" horiz-adv-x="624" 
d="M515 622q-23 12 -74.5 19.5t-96.5 7.5q-100 0 -151.5 -30t-51.5 -107q0 -55 39 -84t138 -36q126 -10 183.5 -58t57.5 -144q0 -204 -283 -204q-109 0 -198 28l20 64q70 -26 177 -26q101 0 154.5 30.5t53.5 106.5q0 57 -39.5 92.5t-136.5 42.5q-129 9 -186 50.5t-57 135.5
q0 204 279 204q101 0 192 -27z" />
    <glyph glyph-name="afii10055" unicode="&#x406;" horiz-adv-x="273" 
d="M101 697h72v-697h-72v697z" />
    <glyph glyph-name="afii10056" unicode="&#x407;" horiz-adv-x="273" 
d="M173 697h-72v-697h72v697zM42 847q24 0 32.5 -7t8.5 -32q0 -27 -8.5 -35t-32.5 -8q-25 0 -33.5 8t-8.5 35q0 25 8.5 32t33.5 7zM231 847q24 0 32.5 -7t8.5 -32q0 -27 -8.5 -35t-32.5 -8q-25 0 -33.5 8t-8.5 35q0 25 8.5 32t33.5 7z" />
    <glyph glyph-name="afii10057" unicode="&#x408;" horiz-adv-x="440" 
d="M339 697v-505q0 -62 -15.5 -104.5t-44 -63.5t-59.5 -29.5t-71 -8.5q-67 0 -136 30l24 67q50 -26 112 -26q116 0 116 135v505h74z" />
    <glyph glyph-name="afii10058" unicode="&#x409;" horiz-adv-x="1022" 
d="M183 697h391v-294h223q104 0 144.5 -53t40.5 -153q0 -97 -44.5 -147t-129.5 -50h-306v637h-253q-8 -145 -43.5 -318.5t-86.5 -318.5h-77q128 389 141 697zM574 60h233q98 0 98 138q0 67 -25 106.5t-77 39.5h-229v-284z" />
    <glyph glyph-name="afii10059" unicode="&#x40a;" horiz-adv-x="1022" 
d="M503 697h71v-294h223q104 0 144.5 -53t40.5 -153q0 -97 -44.5 -147t-129.5 -50h-305v344h-330v-344h-72v697h72v-294h330v294zM574 60h233q98 0 98 138q0 67 -25 106.5t-77 39.5h-229v-284z" />
    <glyph glyph-name="afii10060" unicode="&#x40b;" horiz-adv-x="734" 
d="M468 519q105 0 148 -49.5t43 -184.5v-285h-65v272q0 113 -27.5 149t-105.5 36q-56 0 -97 -18t-43 -50v-389h-73v637h-242v60h556v-60h-241v-159q20 16 61 28.5t86 12.5z" />
    <glyph glyph-name="afii10061" unicode="&#x40c;" horiz-adv-x="617" 
d="M525 0h86q-55 119 -99 193.5t-83.5 112t-67 51.5t-72.5 26q37 25 120 107.5t189 206.5h-95q-91 -112 -183.5 -205.5t-146.5 -133.5v339h-72v-697h72v343q62 -4 102.5 -17.5t83 -50t81 -102t85.5 -173.5zM270 747l134 129h92l-159 -129h-67z" />
    <glyph glyph-name="afii10062" unicode="&#x40e;" horiz-adv-x="500" 
d="M239 170v-2q-54 -92 -112 -170l87 2q87 136 183.5 329.5t164.5 367.5h-75q-53 -154 -202 -451q-75 213 -208 451h-82q62 -102 137.5 -265t106.5 -262zM163 871h54q0 -40 18.5 -54.5t60.5 -14.5t61 14.5t19 54.5h52q0 -126 -133 -126q-132 0 -132 126z" />
    <glyph glyph-name="afii10145" unicode="&#x40f;" horiz-adv-x="714" 
d="M175 697v-637h370v637h71v-697h-207l-21 -184h-53l-21 184h-211v697h72z" />
    <glyph glyph-name="afii10017" unicode="&#x410;" horiz-adv-x="668" 
d="M580 0q-56 139 -84 215h-340l-72 -215h-71q128 372 263 697h123q140 -417 262 -697h-81zM349 641h-29q-91 -225 -142 -366h296q-65 179 -125 366z" />
    <glyph glyph-name="afii10018" unicode="&#x411;" horiz-adv-x="689" 
d="M446 60q98 0 98 138q0 67 -25 106.5t-77 39.5h-269v-284h273zM546 697v-60h-373v-234h263q104 0 144.5 -53t40.5 -153q0 -97 -44.5 -147t-129.5 -50h-346v697h445z" />
    <glyph glyph-name="afii10019" unicode="&#x412;" horiz-adv-x="689" 
d="M446 60q98 0 98 138q0 67 -25 106.5t-77 39.5h-269v-284h273zM436 403q92 0 92 120q0 57 -20 85.5t-72 28.5h-263v-234h263zM464 375q91 -4 124 -50t33 -128q0 -97 -44.5 -147t-129.5 -50h-346v697h335q50 0 84 -13t51.5 -37.5t24 -51.5t6.5 -63q0 -73 -26.5 -111
t-111.5 -46z" />
    <glyph glyph-name="afii10020" unicode="&#x413;" horiz-adv-x="533" 
d="M173 0h-72v697h432v-60h-360v-637z" />
    <glyph glyph-name="afii10021" unicode="&#x414;" horiz-adv-x="763" 
d="M564 60v577h-276q-20 -348 -101 -577h377zM635 60h128l-20 -214h-61v154h-600v-154h-62l-20 214h103q102 240 119 637h413v-637z" />
    <glyph glyph-name="afii10022" unicode="&#x415;" horiz-adv-x="610" 
d="M101 697h477v-60h-405v-234h287v-60h-287v-283h405v-60h-477v697z" />
    <glyph glyph-name="afii10024" unicode="&#x416;" horiz-adv-x="851" 
d="M84 0h-78q39 96 73 163t59 105.5t53.5 62.5t48 33.5t50.5 18.5q-33 25 -106 107.5t-167 206.5h86q78 -109 157 -199t129 -133v332h72v-332q49 42 129 132.5t158 199.5h86q-94 -124 -167 -206.5t-106 -107.5q31 -9 50.5 -18.5t48 -33.5t53.5 -62.5t59 -105.5t73 -163h-78
q-54 141 -99.5 214t-90.5 99.5t-116 31.5v-345h-72v345q-53 -4 -89 -18.5t-72.5 -52t-70 -102.5t-73.5 -172z" />
    <glyph glyph-name="afii10025" unicode="&#x417;" horiz-adv-x="636" 
d="M406 375q91 -4 126.5 -53t35.5 -130q0 -113 -69 -159.5t-214 -46.5q-107 0 -223 29l17 58q86 -26 206 -26q116 0 161 33t45 114q0 83 -41.5 116.5t-142.5 33.5h-100v59h100q95 0 131.5 30t36.5 102q0 66 -38.5 92t-151.5 26q-118 0 -198 -26l-18 60q126 27 216 27
q142 0 203 -41.5t61 -128.5q0 -74 -29 -117.5t-114 -51.5z" />
    <glyph glyph-name="afii10026" unicode="&#x418;" horiz-adv-x="730" 
d="M173 697v-621q210 325 370 621h86v-697h-71v593q-185 -335 -359 -593h-98v697h72z" />
    <glyph glyph-name="afii10027" unicode="&#x419;" horiz-adv-x="730" 
d="M173 76v621h-72v-697h98q174 258 359 593v-593h71v697h-86q-160 -296 -370 -621zM237 871h54q0 -40 18.5 -54.5t60.5 -14.5t61 14.5t19 54.5h52q0 -126 -133 -126q-132 0 -132 126z" />
    <glyph glyph-name="afii10028" unicode="&#x41a;" horiz-adv-x="617" 
d="M611 0h-86q-47 108 -85.5 173.5t-81 102t-83 50t-102.5 17.5v-343h-72v697h72v-339q54 40 146.5 133.5t183.5 205.5h95q-106 -124 -189 -206.5t-120 -107.5q45 -12 72.5 -26t67 -51.5t83.5 -112t99 -193.5z" />
    <glyph glyph-name="afii10029" unicode="&#x41b;" horiz-adv-x="714" 
d="M543 637h-294q-8 -145 -43.5 -318.5t-86.5 -318.5h-77q128 389 141 697h431v-697h-71v637z" />
    <glyph glyph-name="afii10030" unicode="&#x41c;" horiz-adv-x="869" 
d="M437 174q92 239 231 523h101v-697h-72v617l-238 -541h-53l-235 541v-617h-70v697h108q131 -274 228 -523z" />
    <glyph glyph-name="afii10031" unicode="&#x41d;" horiz-adv-x="714" 
d="M173 341v-341h-72v697h72v-291h370v291h71v-697h-71v341h-370z" />
    <glyph glyph-name="afii10032" unicode="&#x41e;" horiz-adv-x="759" 
d="M379 -14q-113 0 -179.5 31t-101.5 112t-35 223q0 140 35 220t101.5 111t179.5 31t180 -31t102 -111t35 -220q0 -142 -35 -223t-101.5 -112t-180.5 -31zM379 653q-71 0 -113 -11t-72 -44.5t-41.5 -92t-11.5 -155.5q0 -122 23.5 -186.5t73 -89.5t141.5 -25q70 0 113.5 12.5
t73.5 47t42 92t12 149.5q0 97 -12 155.5t-42.5 92t-73 44.5t-113.5 11z" />
    <glyph glyph-name="afii10033" unicode="&#x41f;" horiz-adv-x="714" 
d="M173 637v-637h-72v697h513v-697h-71v637h-370z" />
    <glyph glyph-name="afii10034" unicode="&#x420;" horiz-adv-x="650" 
d="M173 320h238q59 0 89 41t30 111q0 78 -29 121.5t-85 43.5h-243v-317zM173 0h-72v697h311q198 0 198 -226q0 -92 -46.5 -153.5t-146.5 -61.5h-244v-256z" />
    <glyph glyph-name="afii10035" unicode="&#x421;" horiz-adv-x="602" 
d="M63 355q0 106 19 176t60.5 110.5t98 56.5t141.5 16q104 0 195 -27l-23 -65q-67 27 -171 27q-71 0 -113 -10t-73.5 -41t-43.5 -89t-12 -154q0 -127 25 -192.5t74 -88t143 -22.5q103 0 171 26l23 -64q-89 -28 -195 -28q-168 0 -243.5 81t-75.5 288z" />
    <glyph glyph-name="afii10036" unicode="&#x422;" horiz-adv-x="568" 
d="M321 637v-637h-73v637h-242v60h556v-60h-241z" />
    <glyph glyph-name="afii10037" unicode="&#x423;" horiz-adv-x="557" 
d="M214 0h-86q66 88 112 170q-31 98 -106.5 261t-138.5 266h82q133 -238 208 -451q149 297 202 451h75q-68 -174 -164.5 -367.5t-183.5 -329.5z" />
    <glyph glyph-name="afii10038" unicode="&#x424;" horiz-adv-x="741" 
d="M324 697h72v-101q165 -5 227.5 -63t62.5 -183t-62.5 -183.5t-227.5 -63.5v-103h-72v103q-161 6 -222.5 64.5t-61.5 182.5t61 182t223 64v101zM616 349q0 69 -15 105t-63 57.5t-142 23.5v-371q93 3 141.5 24.5t63.5 57.5t15 103zM110 349q0 -66 14.5 -102t61.5 -58
t138 -25v371q-69 -3 -111.5 -14t-65 -35.5t-30 -55t-7.5 -81.5z" />
    <glyph glyph-name="afii10039" unicode="&#x425;" horiz-adv-x="648" 
d="M541 697h84l-252 -340l262 -357h-87l-219 299l-232 -299h-84l274 353l-266 344h87l222 -285z" />
    <glyph glyph-name="afii10040" unicode="&#x426;" horiz-adv-x="742" 
d="M173 697v-637h370v637h71v-637h128l-20 -214h-61v154h-560v697h72z" />
    <glyph glyph-name="afii10041" unicode="&#x427;" horiz-adv-x="601" 
d="M256 203q-66 0 -109 9t-78.5 33.5t-52 71.5t-16.5 120v260h72v-247q0 -110 41.5 -145t144.5 -35q70 0 120 19t50 52v356h72v-697h-72v244q-20 -16 -69 -28.5t-103 -12.5z" />
    <glyph glyph-name="afii10042" unicode="&#x428;" horiz-adv-x="905" 
d="M417 697h72v-637h244v637h71v-697h-703v697h72v-637h244v637z" />
    <glyph glyph-name="afii10043" unicode="&#x429;" horiz-adv-x="932" 
d="M417 697h72v-637h244v637h71v-637h128l-20 -214h-61v154h-750v697h72v-637h244v637z" />
    <glyph glyph-name="afii10044" unicode="&#x42a;" horiz-adv-x="679" 
d="M15 697h176v-294h263q104 0 144.5 -53t40.5 -153q0 -97 -44.5 -147t-129.5 -50h-346v637h-104v60zM191 60h273q98 0 98 138q0 67 -25 106.5t-77 39.5h-269v-284z" />
    <glyph glyph-name="afii10045" unicode="&#x42b;" horiz-adv-x="868" 
d="M173 60h273q98 0 98 138q0 67 -25 106.5t-77 39.5h-269v-284zM101 697h72v-294h263q104 0 144.5 -53t40.5 -153q0 -97 -44.5 -147t-129.5 -50h-346v697zM695 697h72v-697h-72v697z" />
    <glyph glyph-name="afii10046" unicode="&#x42c;" horiz-adv-x="661" 
d="M173 60h273q98 0 98 138q0 67 -25 106.5t-77 39.5h-269v-284zM101 697h72v-294h263q104 0 144.5 -53t40.5 -153q0 -97 -44.5 -147t-129.5 -50h-346v697z" />
    <glyph glyph-name="afii10047" unicode="&#x42d;" horiz-adv-x="609" 
d="M468 344h-346v59h345q-3 80 -17.5 128.5t-46 74.5t-71 34.5t-106.5 8.5q-104 0 -171 -27l-23 65q91 27 195 27q85 0 141.5 -16t98 -56.5t60.5 -110.5t19 -176q0 -207 -75.5 -288t-243.5 -81q-106 0 -195 28l23 64q68 -26 171 -26q92 0 141 21.5t74.5 85t26.5 185.5z" />
    <glyph glyph-name="afii10048" unicode="&#x42e;" horiz-adv-x="922" 
d="M173 341v-341h-72v697h72v-291h193q6 175 64.5 241.5t181.5 66.5q88 0 139.5 -29.5t79.5 -108.5t28 -218q0 -208 -58.5 -290t-188.5 -82q-127 0 -186 78.5t-61 276.5h-192zM611 656q-67 0 -101.5 -21t-53 -85.5t-18.5 -191.5q0 -121 18 -188.5t54.5 -94.5t100.5 -27
q97 0 136 65.5t39 244.5q0 96 -9 154.5t-31.5 90.5t-53 42.5t-81.5 10.5z" />
    <glyph glyph-name="afii10049" unicode="&#x42f;" horiz-adv-x="675" 
d="M263 697h311v-697h-72v302h-132q-38 0 -66 -10t-59.5 -40.5t-62 -92.5t-63.5 -159h-85q51 126 88.5 191.5t68 90t75.5 33.5q-107 0 -154 49.5t-47 130.5q0 202 198 202zM502 637h-239q-57 0 -87.5 -36.5t-30.5 -104.5q0 -61 31.5 -96t91.5 -35h234v272z" />
    <glyph glyph-name="afii10065" unicode="&#x430;" horiz-adv-x="542" 
d="M466 323v-297q-88 -40 -204 -40q-111 0 -158 37t-47 133q0 99 51 133t149 34q68 0 144 -16q0 92 -30 121t-119 29t-145 -24l-19 61q89 25 168 25q114 0 162 -42t48 -154zM401 68v184q-53 13 -136 13q-80 0 -107.5 -18.5t-27.5 -85.5q0 -74 26.5 -95t108.5 -21
q72 0 136 23z" />
    <glyph glyph-name="afii10066" unicode="&#x431;" horiz-adv-x="564" 
d="M470 718v-63q-57 -28 -178 -40q-90 -8 -119 -46.5t-42 -140.5q47 71 159 71q109 0 160 -58t51 -201t-54 -198.5t-175 -55.5q-108 0 -158.5 67t-50.5 227q0 97 9 164.5t25 111t45.5 69t63.5 36.5t86 16q115 11 178 41zM133 242q0 -194 139 -194q91 0 124 38t33 156
q0 113 -31.5 154t-109.5 41q-92 0 -123.5 -41t-31.5 -154z" />
    <glyph glyph-name="afii10067" unicode="&#x432;" horiz-adv-x="551" 
d="M341 60q43 0 60.5 20t17.5 65q0 98 -81 98h-197v-183h200zM333 300q74 0 74 76q0 39 -15.5 54t-58.5 15h-192v-145h192zM376 273q115 -4 115 -130q0 -71 -36 -107t-103 -36h-276v505h267q76 0 104.5 -32.5t28.5 -87.5q0 -52 -20 -79.5t-80 -32.5z" />
    <glyph glyph-name="afii10068" unicode="&#x433;" horiz-adv-x="400" 
d="M76 505h321v-60h-256v-445h-65v505z" />
    <glyph glyph-name="afii10069" unicode="&#x434;" horiz-adv-x="581" 
d="M8 60h83q70 223 81 445h307v-445h92l-17 -188h-49v128h-431v-128h-49zM414 445h-180q-16 -175 -75 -385h255v385z" />
    <glyph glyph-name="afii10070" unicode="&#x435;" horiz-adv-x="546" 
d="M290 519q111 0 158.5 -58.5t47.5 -214.5h-361q1 -118 39.5 -158.5t130.5 -40.5q72 0 145 27l15 -60q-91 -28 -166 -28q-121 0 -178.5 60t-57.5 209q0 144 55 204t172 60zM290 458q-81 0 -114.5 -32.5t-39.5 -120.5h286q-4 92 -32 122.5t-100 30.5z" />
    <glyph glyph-name="afii10072" unicode="&#x436;" horiz-adv-x="677" 
d="M76 0h-76q44 83 78 136.5t61.5 80.5t42.5 36t40 20q-43 31 -207 232h79q141 -173 212 -241v241h65v-241q78 76 212 241h79q-164 -201 -207 -232q25 -11 40 -20t42.5 -36t61.5 -80.5t78 -136.5h-76q-68 134 -122 185t-108 61v-246h-65v246q-55 -10 -108 -61t-122 -185z
" />
    <glyph glyph-name="afii10073" unicode="&#x437;" horiz-adv-x="500" 
d="M299 271q138 -6 138 -134q0 -83 -56.5 -117t-175.5 -34q-101 0 -165 21l19 59q56 -20 146 -20q94 0 128.5 22t34.5 80q0 53 -35.5 75.5t-118.5 22.5h-75v57h75q77 0 109 17t32 62q0 42 -32.5 59.5t-117.5 17.5q-87 0 -141 -20l-18 60q68 20 159 20q114 0 165.5 -30.5
t51.5 -93.5q0 -53 -26.5 -85.5t-96.5 -38.5z" />
    <glyph glyph-name="afii10074" unicode="&#x438;" horiz-adv-x="555" 
d="M414 0v397q-100 -174 -273 -397h-65v505h65v-411q126 165 273 411h65v-505h-65z" />
    <glyph glyph-name="afii10075" unicode="&#x439;" horiz-adv-x="555" 
d="M414 0v397q-100 -174 -273 -397h-65v505h65v-411q126 165 273 411h65v-505h-65zM148 697h54q0 -40 18.5 -54.5t60.5 -14.5t61 14.5t19 54.5h52q0 -126 -133 -126q-132 0 -132 126z" />
    <glyph glyph-name="afii10076" unicode="&#x43a;" horiz-adv-x="478" 
d="M478 0h-80q-76 136 -136 186.5t-121 60.5v-247h-65v505h65v-243q73 61 237 243h84q-181 -201 -225 -230q26 -10 43 -20t46 -37t66 -81t86 -137z" />
    <glyph glyph-name="afii10077" unicode="&#x43b;" horiz-adv-x="525" 
d="M384 445h-180q-20 -217 -93 -445h-71q90 255 102 505h307v-505h-65v445z" />
    <glyph glyph-name="afii10078" unicode="&#x43c;" horiz-adv-x="685" 
d="M346 130q65 174 158 375h105v-505h-65v447q-99 -213 -172 -411h-61q-100 256 -170 411v-447h-65v505h109q99 -219 161 -375z" />
    <glyph glyph-name="afii10079" unicode="&#x43d;" horiz-adv-x="555" 
d="M414 246h-273v-246h-65v505h65v-202h273v202h65v-505h-65v246z" />
    <glyph glyph-name="afii10080" unicode="&#x43e;" horiz-adv-x="585" 
d="M292 -14q-122 0 -175.5 59t-53.5 210q0 150 53.5 207t175.5 57t176 -57t54 -207q0 -151 -54 -210t-176 -59zM292 457q-92 0 -124.5 -39.5t-32.5 -164.5q0 -121 33.5 -163t123.5 -42q91 0 124.5 42t33.5 163q0 86 -15.5 130t-47.5 59t-95 15z" />
    <glyph glyph-name="afii10081" unicode="&#x43f;" horiz-adv-x="555" 
d="M414 445h-273v-445h-65v505h403v-505h-65v445z" />
    <glyph glyph-name="afii10082" unicode="&#x440;" horiz-adv-x="572" 
d="M280 -14q-86 0 -139 42v-220h-65v671q40 18 98 29t106 11q122 0 175.5 -57t53.5 -207q0 -151 -53.5 -210t-175.5 -59zM280 457q-80 0 -139 -21v-316q0 -34 40 -53t99 -19q90 0 123.5 42t33.5 163q0 125 -32.5 164.5t-124.5 39.5z" />
    <glyph glyph-name="afii10083" unicode="&#x441;" horiz-adv-x="466" 
d="M430 74l21 -60q-63 -28 -144 -28q-124 0 -184 60t-60 209q0 148 60 206t184 58q80 0 144 -25l-21 -61q-51 24 -123 24q-47 0 -77 -8t-52.5 -29.5t-32.5 -62t-10 -104.5q0 -119 39.5 -162t132.5 -43q65 0 123 26z" />
    <glyph glyph-name="afii10084" unicode="&#x442;" horiz-adv-x="481" 
d="M273 445v-445h-65v445h-198v60h461v-60h-198z" />
    <glyph glyph-name="afii10085" unicode="&#x443;" horiz-adv-x="509" 
d="M211 -24q-99 350 -186 529h73q79 -179 156 -447q106 257 159 447h71q-63 -210 -188 -505q-41 -98 -91 -192h-76q35 65 82 168z" />
    <glyph glyph-name="afii10086" unicode="&#x444;" horiz-adv-x="847" 
d="M391 -192v220q-52 -42 -119 -42q-108 0 -158.5 59.5t-50.5 209.5q0 148 50.5 206t158.5 58q42 0 119 -18v196h65v-196q75 18 119 18q108 0 158.5 -58t50.5 -206q0 -150 -50.5 -209.5t-158.5 -59.5q-66 0 -119 42v-220h-65zM575 457q-61 0 -119 -21v-320q2 -32 35.5 -50
t83.5 -18q76 0 106.5 42.5t30.5 162.5q0 85 -14.5 129.5t-42.5 59.5t-80 15zM272 457q-52 0 -80 -15t-42.5 -59.5t-14.5 -129.5q0 -120 30.5 -162.5t106.5 -42.5q51 0 85 19t34 53v316q-58 21 -119 21z" />
    <glyph glyph-name="afii10087" unicode="&#x445;" horiz-adv-x="522" 
d="M489 0h-81q-63 101 -137 203l-160 -203h-80q99 114 203 253q-91 124 -203 252h90q96 -120 152 -198q58 79 136 198h79q-84 -125 -177 -249q76 -103 178 -256z" />
    <glyph glyph-name="afii10088" unicode="&#x446;" horiz-adv-x="581" 
d="M479 505v-445h92l-17 -188h-49v128h-429v505h65v-445h273v445h65z" />
    <glyph glyph-name="afii10089" unicode="&#x447;" horiz-adv-x="526" 
d="M238 166q-105 0 -148 49.5t-43 184.5v105h65v-92q0 -113 27.5 -149t105.5 -36q57 0 98.5 19t41.5 52v206h65v-505h-65v207q-20 -16 -61 -28.5t-86 -12.5z" />
    <glyph glyph-name="afii10090" unicode="&#x448;" horiz-adv-x="787" 
d="M646 60v445h65v-505h-635v505h65v-445h220v445h65v-445h220z" />
    <glyph glyph-name="afii10091" unicode="&#x449;" horiz-adv-x="813" 
d="M737 -128v128h-661v505h65v-445h220v445h65v-445h220v445h65v-445h92l-17 -188h-49z" />
    <glyph glyph-name="afii10092" unicode="&#x44a;" horiz-adv-x="594" 
d="M0 505h189v-202h195q82 0 118.5 -35.5t36.5 -110.5q0 -82 -36.5 -119.5t-118.5 -37.5h-260v445h-124v60zM384 60q45 0 64 21.5t19 74.5q0 50 -19.5 70t-63.5 20h-195v-186h195z" />
    <glyph glyph-name="afii10093" unicode="&#x44b;" horiz-adv-x="701" 
d="M336 60q45 0 64 21.5t19 74.5q0 50 -19.5 70t-63.5 20h-195v-186h195zM141 303h195q82 0 118.5 -35.5t36.5 -110.5q0 -82 -36.5 -119.5t-118.5 -37.5h-260v505h65v-202zM625 505v-505h-65v505h65z" />
    <glyph glyph-name="afii10094" unicode="&#x44c;" horiz-adv-x="546" 
d="M336 60q45 0 64 21.5t19 74.5q0 50 -19.5 70t-63.5 20h-195v-186h195zM141 303h195q82 0 118.5 -35.5t36.5 -110.5q0 -82 -36.5 -119.5t-118.5 -37.5h-260v505h65v-202z" />
    <glyph glyph-name="afii10095" unicode="&#x44d;" horiz-adv-x="484" 
d="M33 14l21 60q58 -26 123 -26q91 0 131 41.5t41 155.5h-234v60h232q-7 90 -46.5 121t-123.5 31q-72 0 -123 -24l-21 61q64 25 144 25q124 0 184 -58t60 -206q0 -149 -60 -209t-184 -60q-81 0 -144 28z" />
    <glyph glyph-name="afii10096" unicode="&#x44e;" horiz-adv-x="808" 
d="M525 -14q-113 0 -165.5 57.5t-53.5 202.5h-165v-246h-65v505h65v-202h166q8 121 60.5 168.5t157.5 47.5q115 0 167.5 -57.5t52.5 -206.5q0 -150 -52.5 -209.5t-167.5 -59.5zM525 459q-85 0 -117 -40.5t-32 -165.5q0 -120 33 -163.5t116 -43.5q84 0 117 43.5t33 163.5
q0 125 -32.5 165.5t-117.5 40.5z" />
    <glyph glyph-name="afii10097" unicode="&#x44f;" horiz-adv-x="550" 
d="M225 505h249v-505h-65v213h-94q-32 0 -54 -7.5t-46.5 -30t-49 -64.5t-55.5 -111h-74q44 92 76 141.5t53 66t49 20.5q-77 0 -112 36t-35 94q0 147 158 147zM229 269h180v176h-184q-47 0 -67.5 -19t-20.5 -67q0 -46 22 -68t70 -22z" />
    <glyph glyph-name="afii10071" unicode="&#x451;" horiz-adv-x="546" 
d="M290 519q111 0 158.5 -58.5t47.5 -214.5h-361q1 -118 39.5 -158.5t130.5 -40.5q72 0 145 27l15 -60q-91 -28 -166 -28q-121 0 -178.5 60t-57.5 209q0 144 55 204t172 60zM290 458q-81 0 -114.5 -32.5t-39.5 -120.5h286q-4 92 -32 122.5t-100 30.5zM195 657q24 0 32.5 -7
t8.5 -32q0 -27 -8.5 -35t-32.5 -8q-25 0 -33.5 8t-8.5 35q0 25 8.5 32t33.5 7zM384 657q24 0 32.5 -7t8.5 -32q0 -27 -8.5 -35t-32.5 -8q-25 0 -33.5 8t-8.5 35q0 25 8.5 32t33.5 7z" />
    <glyph glyph-name="afii10099" unicode="&#x452;" horiz-adv-x="547" 
d="M141 595v-117q20 16 61 28.5t86 12.5q73 0 113 -22t61.5 -86.5t21.5 -183.5q0 -317 -182 -397l-33 52q25 10 41 20t38 34.5t34.5 58.5t22 93.5t9.5 138.5q0 100 -13 149t-39.5 65t-80.5 16q-56 0 -97 -18t-43 -50v-389h-65v595h-64v52h64v75h65v-75h122v-52h-122z" />
    <glyph glyph-name="afii10100" unicode="&#x453;" horiz-adv-x="400" 
d="M76 505h321v-59h-256v-446h-65v505zM249 568h-69l119 129h83z" />
    <glyph glyph-name="afii10101" unicode="&#x454;" horiz-adv-x="484" 
d="M430 74l21 -60q-63 -28 -144 -28q-124 0 -184 60t-60 209q0 148 60 206t184 58q80 0 144 -25l-21 -61q-51 24 -123 24q-84 0 -123.5 -31t-46.5 -121h232v-60h-234q1 -114 41 -155.5t131 -41.5q65 0 123 26z" />
    <glyph glyph-name="afii10102" unicode="&#x455;" horiz-adv-x="504" 
d="M404 431q-72 28 -144 28q-70 0 -99.5 -17.5t-29.5 -73.5q0 -38 29 -56t97 -22q99 -7 143 -41t44 -104q0 -88 -46 -123.5t-149 -35.5t-182 27l20 61q26 -12 74.5 -20.5t87.5 -8.5q67 0 95.5 18.5t28.5 75.5q0 42 -26.5 62t-97.5 26q-97 7 -143 37t-46 98q0 86 49 121.5
t151 35.5q73 0 166 -26z" />
    <glyph glyph-name="afii10103" unicode="&#x456;" horiz-adv-x="217" 
d="M141 0v505h-65v-505h65zM110 697q24 0 32.5 -7t8.5 -32q0 -27 -8.5 -35t-32.5 -8q-25 0 -33.5 8t-8.5 35q0 25 8.5 32t33.5 7z" />
    <glyph glyph-name="afii10104" unicode="&#x457;" horiz-adv-x="217" 
d="M141 505v-505h-65v505h65zM14 657q24 0 32.5 -7t8.5 -32q0 -27 -8.5 -35t-32.5 -8q-25 0 -33.5 8t-8.5 35q0 25 8.5 32t33.5 7zM203 657q24 0 32.5 -7t8.5 -32q0 -27 -8.5 -35t-32.5 -8q-25 0 -33.5 8t-8.5 35q0 25 8.5 32t33.5 7z" />
    <glyph glyph-name="afii10105" unicode="&#x458;" horiz-adv-x="217" 
d="M110 697q24 0 32.5 -7t8.5 -32q0 -27 -8.5 -35t-32.5 -8q-25 0 -33.5 8t-8.5 35q0 25 8.5 32t33.5 7zM-24 -203v60q54 0 77 22t23 93v533h65v-533q0 -103 -42.5 -139t-122.5 -36z" />
    <glyph glyph-name="afii10106" unicode="&#x459;" horiz-adv-x="854" 
d="M384 445h-180q-20 -217 -93 -445h-71q90 255 102 505h307v-202h195q82 0 118.5 -35.5t36.5 -110.5q0 -82 -36.5 -119.5t-118.5 -37.5h-260v445zM644 60q45 0 64 21.5t19 74.5q0 50 -19.5 70t-63.5 20h-195v-186h195z" />
    <glyph glyph-name="afii10107" unicode="&#x45a;" horiz-adv-x="884" 
d="M479 303h195q82 0 118.5 -35.5t36.5 -110.5q0 -82 -36.5 -119.5t-118.5 -37.5h-260v246h-273v-246h-65v505h65v-202h273v202h65v-202zM674 60q45 0 64 21.5t19 74.5q0 50 -19.5 70t-63.5 20h-195v-186h195z" />
    <glyph glyph-name="afii10108" unicode="&#x45b;" horiz-adv-x="554" 
d="M141 386v-386h-65v595h-64v52h64v75h65v-75h122v-52h-122v-117q20 16 61 28.5t86 12.5q105 0 148 -49.5t43 -184.5v-285h-65v272q0 113 -27.5 149t-105.5 36q-57 0 -98.5 -19t-41.5 -52z" />
    <glyph glyph-name="afii10109" unicode="&#x45c;" horiz-adv-x="478" 
d="M478 0h-80q-76 136 -136 186.5t-121 60.5v-247h-65v505h65v-243q73 61 237 243h84q-181 -201 -225 -230q26 -10 43 -20t46 -37t66 -81t86 -137zM273 568h-69l119 129h83z" />
    <glyph glyph-name="afii10110" unicode="&#x45e;" horiz-adv-x="509" 
d="M211 -24q-47 -103 -82 -168h76q50 94 91 192q125 295 188 505h-71q-53 -190 -159 -447q-77 268 -156 447h-73q87 -179 186 -529zM125 702h54q0 -40 18.5 -54.5t60.5 -14.5t61 14.5t19 54.5h52q0 -126 -133 -126q-132 0 -132 126z" />
    <glyph glyph-name="afii10193" unicode="&#x45f;" horiz-adv-x="555" 
d="M479 0h-150l-21 -164h-53l-21 164h-158v505h65v-445h273v445h65v-505z" />
    <glyph glyph-name="afii10050" unicode="&#x490;" horiz-adv-x="533" 
d="M101 697h356l23 164h53v-224h-360v-637h-72v697z" />
    <glyph glyph-name="afii10098" unicode="&#x491;" horiz-adv-x="400" 
d="M397 445h-256v-445h-65v505h250l18 144h53v-204z" />
    <glyph glyph-name="endash" unicode="&#x2013;" horiz-adv-x="544" 
d="M53 245v60h438v-60h-438z" />
    <glyph glyph-name="emdash" unicode="&#x2014;" horiz-adv-x="837" 
d="M53 245v60h731v-60h-731z" />
    <glyph glyph-name="quoteleft" unicode="&#x2018;" horiz-adv-x="216" 
d="M24 505l109 257h60l-78 -257h-91z" />
    <glyph glyph-name="quoteright" unicode="&#x2019;" horiz-adv-x="215" 
d="M192 762l-109 -257h-60l78 257h91z" />
    <glyph glyph-name="quotesinglbase" unicode="&#x201a;" horiz-adv-x="215" 
d="M192 98l-109 -257h-60l78 257h91z" />
    <glyph glyph-name="quotedblleft" unicode="&#x201c;" horiz-adv-x="377" 
d="M186 505l109 257h60l-78 -257h-91zM24 505l109 257h60l-78 -257h-91z" />
    <glyph glyph-name="quotedblright" unicode="&#x201d;" horiz-adv-x="377" 
d="M192 762l-109 -257h-60l78 257h91zM354 762l-109 -257h-60l78 257h91z" />
    <glyph glyph-name="quotedblbase" unicode="&#x201e;" horiz-adv-x="377" 
d="M192 98l-109 -257h-60l78 257h91zM354 98l-109 -257h-60l78 257h91z" />
    <glyph glyph-name="dagger" unicode="&#x2020;" horiz-adv-x="420" 
d="M30 518v54h150v153h60v-153h150v-54h-150v-253h-60v253h-150z" />
    <glyph glyph-name="daggerdbl" unicode="&#x2021;" horiz-adv-x="420" 
d="M30 518v54h150v153h60v-153h150v-54h-150v-130h150v-54h-150v-153h-60v153h-150v54h150v130h-150z" />
    <glyph glyph-name="bullet" unicode="&#x2022;" horiz-adv-x="585" 
d="M292 56q-122 0 -175.5 59t-53.5 210q0 150 53.5 207t175.5 57t176 -57t54 -207q0 -151 -54 -210t-176 -59z" />
    <glyph glyph-name="ellipsis" unicode="&#x2026;" horiz-adv-x="1211" 
d="M253 103q32 0 42.5 -9t10.5 -40q0 -34 -10.5 -44t-42.5 -10q-30 0 -40.5 10.5t-10.5 43.5q0 31 10.5 40t40.5 9zM605 103q31 0 42 -9t11 -40q0 -33 -11 -43.5t-42 -10.5q-30 0 -41 10.5t-11 43.5q0 31 11 40t41 9zM956 103q32 0 42.5 -9t10.5 -40q0 -34 -10.5 -44
t-42.5 -10q-29 0 -40 10.5t-11 43.5q0 31 11 40t40 9z" />
    <glyph glyph-name="perthousand" unicode="&#x2030;" horiz-adv-x="1209" 
d="M591 697h71l-394 -697h-71zM204 277q-79 0 -116.5 49t-37.5 173q0 122 37 168.5t117 46.5t117 -46t37 -169q0 -124 -37.5 -173t-116.5 -49zM204 661q-51 0 -72 -33t-21 -131q0 -94 21.5 -131t71.5 -37q52 0 72.5 36.5t20.5 131.5q0 99 -20 131.5t-73 32.5zM658 -14
q-79 0 -116.5 49t-37.5 173q0 122 37 168.5t117 46.5t117 -46t37 -169q0 -124 -37.5 -173t-116.5 -49zM658 370q-51 0 -72 -33t-21 -131q0 -94 21.5 -131t71.5 -37q52 0 72.5 36.5t20.5 131.5q0 99 -20 131.5t-73 32.5zM1005 -14q-79 0 -116.5 49t-37.5 173q0 122 37 168.5
t117 46.5t117 -46t37 -169q0 -124 -37.5 -173t-116.5 -49zM1005 370q-51 0 -72 -33t-21 -131q0 -94 21.5 -131t71.5 -37q52 0 72.5 36.5t20.5 131.5q0 99 -20 131.5t-73 32.5z" />
    <glyph glyph-name="guilsinglleft" unicode="&#x2039;" horiz-adv-x="374" 
d="M341 524l-217 -222l217 -228l-37 -44l-270 269l268 268z" />
    <glyph glyph-name="guilsinglright" unicode="&#x203a;" horiz-adv-x="374" 
d="M35 74l217 222l-217 228l37 44l270 -269l-268 -268z" />
    <glyph glyph-name="fraction" unicode="&#x2044;" horiz-adv-x="528" 
d="M425 697h71l-394 -697h-71z" />
    <glyph glyph-name="fraction" unicode="&#x2215;" horiz-adv-x="528" 
d="M425 697h71l-394 -697h-71z" />
    <glyph glyph-name="franc" unicode="&#x20a3;" horiz-adv-x="559" 
d="M52 160v55h49v482h470v-60h-398v-268h247v-59h-247v-95h97v-55h-97v-160h-72v160h-49z" />
    <glyph glyph-name="Euro" unicode="&#x20ac;" horiz-adv-x="602" 
d="M63 355q0 106 19 176t60.5 110.5t98 56.5t141.5 16q104 0 195 -27l-23 -65q-67 27 -171 27q-114 0 -166.5 -33.5t-67.5 -135.5h292v-60h-299q-1 -21 -1 -65q0 -45 1 -64h299v-59h-292q15 -107 67.5 -143.5t166.5 -36.5q103 0 171 26l23 -64q-89 -28 -195 -28
q-168 0 -243.5 81t-75.5 288z" />
    <glyph glyph-name="afii61352" unicode="&#x2116;" horiz-adv-x="1097" 
d="M173 624v-624h-72v697h98q172 -255 357 -590v590h73v-697h-86q-169 314 -370 624zM875 341q-85 0 -122.5 41t-37.5 147q0 105 37.5 145t122.5 40q86 0 123.5 -40t37.5 -145q0 -106 -37.5 -147t-123.5 -41zM875 661q-61 0 -80.5 -25t-19.5 -108q0 -79 20.5 -106.5
t79.5 -27.5t80 27.5t21 106.5q0 83 -20 108t-81 25zM742 186v60h271v-60h-271z" />
    <glyph glyph-name="trademark" unicode="&#x2122;" horiz-adv-x="728" 
d="M178 651v-302h-57v302h-106v46h268v-46h-105zM525 349h-61l-92 304v-304h-50v348h84l92 -293l90 293h80v-348h-51v304z" />
    <glyph glyph-name="estimated" unicode="&#x212e;" horiz-adv-x="690" 
d="M646 338h-505q1 -116 26 -178t75 -85t141 -23q103 0 171 26l23 -64q-89 -28 -195 -28q-168 0 -243.5 81t-75.5 285q0 105 19.5 176.5t59.5 111.5t92 57t125 17t124 -18t89 -60t56 -116t18 -182zM359 653q-55 0 -91 -10t-65 -37t-43.5 -78t-17.5 -130h427q-2 102 -27 159
t-67.5 76.5t-115.5 19.5z" />
    <glyph glyph-name="arrowleft" unicode="&#x2190;" horiz-adv-x="722" 
d="M408 622l-256 -216h550v-59h-550l256 -214l-41 -50l-347 295l346 292z" />
    <glyph glyph-name="arrowup" unicode="&#x2191;" horiz-adv-x="722" 
d="M606 329l-216 256v-550h-59v550l-214 -256l-50 41l295 347l292 -346z" />
    <glyph glyph-name="arrowright" unicode="&#x2192;" horiz-adv-x="722" 
d="M570 406l-256 216l42 48l346 -292l-347 -295l-41 50l256 214h-550v59h550z" />
    <glyph glyph-name="arrowdown" unicode="&#x2193;" horiz-adv-x="722" 
d="M115 423l216 -256v550h59v-550l214 256l50 -41l-295 -347l-292 346z" />
    <glyph glyph-name="partialdiff" unicode="&#x2202;" 
d="M314 415q55 0 135 -10q-63 128 -260 292h100q57 -50 98.5 -93.5t85 -103.5t67 -129.5t23.5 -144.5q0 -144 -54 -193.5t-200 -49.5q-132 0 -191 54t-59 177q0 113 56 157t199 44zM489 238q0 54 -15 102q-68 13 -160 13q-107 0 -142.5 -29t-35.5 -118q0 -86 35.5 -124.5
t137.5 -38.5q42 0 67.5 3t49.5 14t36.5 32t19.5 57t7 89z" />
    <glyph glyph-name="product" unicode="&#x220f;" horiz-adv-x="714" 
d="M173 637v-637h-72v697h513v-697h-71v637h-370z" />
    <glyph glyph-name="summation" unicode="&#x2211;" horiz-adv-x="609" 
d="M351 344q-125 -172 -219 -285h434v-59h-558l261 343l-245 354h548v-60h-427z" />
    <glyph glyph-name="minus" unicode="&#x2212;" 
d="M71 328v60h479v-60h-479z" />
    <glyph glyph-name="radical" unicode="&#x221a;" horiz-adv-x="542" 
d="M0 445v60h128q85 -197 155 -443q46 111 118 318.5t103 316.5h71q-39 -131 -118 -352t-131 -345h-92q-80 275 -152 445h-82z" />
    <glyph glyph-name="infinity" unicode="&#x221e;" horiz-adv-x="772" 
d="M357 350q0 73 -32.5 104.5t-106.5 31.5q-67 0 -95.5 -30t-28.5 -106t28.5 -106t95.5 -30q74 0 106.5 32t32.5 104zM415 351q0 -73 32.5 -104.5t106.5 -31.5q67 0 95.5 30t28.5 106t-28.5 106t-95.5 30q-74 0 -106.5 -32t-32.5 -104zM386 275q-8 -75 -53.5 -100.5
t-123.5 -25.5q-90 0 -134.5 47.5t-44.5 153.5t44.5 154t134.5 48q77 0 123 -25.5t54 -100.5q8 75 53.5 100.5t123.5 25.5q90 0 134.5 -47.5t44.5 -153.5t-44.5 -154t-134.5 -48q-77 0 -123 25.5t-54 100.5z" />
    <glyph glyph-name="integral" unicode="&#x222b;" horiz-adv-x="355" 
d="M338 646q-41 13 -97 13q-21 0 -36 -3t-31 -13t-24.5 -33t-8.5 -58v-580q0 -101 -45.5 -138t-119.5 -37q-65 0 -117 22l20 61q44 -23 97 -23q44 0 72 24t28 91v580q0 53 13.5 88t39 51t51 22t61.5 6q61 0 114 -16z" />
    <glyph glyph-name="approxequal" unicode="&#x2248;" 
d="M507 502l47 -35q-38 -101 -130 -101q-32 0 -125 44.5t-120 44.5q-41 0 -68 -65l-42 37q27 46 54 67t65 21q34 0 126 -43t118 -43q48 0 75 73zM507 316l47 -35q-38 -101 -130 -101q-32 0 -125 44.5t-120 44.5q-41 0 -68 -65l-42 37q27 46 54 67t65 21q34 0 126 -43
t118 -43q48 0 75 73z" />
    <glyph glyph-name="notequal" unicode="&#x2260;" 
d="M417 609h76l-70 -122h127v-60h-162l-84 -146h246v-60h-280l-69 -120h-74l68 120h-124v60h159l83 146h-242v60h276z" />
    <glyph glyph-name="lessequal" unicode="&#x2264;" 
d="M71 40v60h479v-60h-479zM501 637l-305 -226l305 -228l-32 -47l-358 259v30l356 258z" />
    <glyph glyph-name="greaterequal" unicode="&#x2265;" 
d="M551 100v-60h-479v60h479zM426 411l-305 226l34 46l356 -258v-30l-358 -259l-32 47z" />
    <glyph glyph-name="lozenge" unicode="&#x25ca;" horiz-adv-x="504" 
d="M474 279q-93 -238 -154 -423h-123q-106 255 -167 423q61 168 167 423h123q61 -185 154 -423zM395 280q-65 179 -125 366h-29q-91 -225 -142 -366q59 -161 142 -368h29q65 203 125 368z" />
    <glyph glyph-name="caron.alt" unicode="&#xe01e;" horiz-adv-x="340" 
d="M205 722h73l-56 -192h-39z" />
    <glyph glyph-name="commaaccent" unicode="&#xf6c3;" horiz-adv-x="280" 
d="M216 -51l-101 -167h-53l70 167h84z" />
    <glyph glyph-name="Acute" unicode="&#xf6c9;" horiz-adv-x="348" 
d="M94 747l134 129h92l-159 -129h-67z" />
    <glyph glyph-name="Caron" unicode="&#xf6ca;" horiz-adv-x="667" 
d="M352 786l81 90h76l-122 -129h-72l-126 129h79z" />
    <glyph glyph-name="Dieresis" unicode="&#xf6cb;" horiz-adv-x="336" 
d="M148 847q24 0 32.5 -7t8.5 -32q0 -27 -8.5 -35t-32.5 -8q-25 0 -33.5 8t-8.5 35q0 25 8.5 32t33.5 7zM337 847q24 0 32.5 -7t8.5 -32q0 -27 -8.5 -35t-32.5 -8q-25 0 -33.5 8t-8.5 35q0 25 8.5 32t33.5 7z" />
    <glyph glyph-name="Grave" unicode="&#xf6ce;" horiz-adv-x="348" 
d="M409 747h-79l-160 129h93z" />
    <glyph glyph-name="Hungarumlaut" unicode="&#xf6cf;" horiz-adv-x="631" 
d="M261 876h75l-107 -129h-53zM399 876h76l-106 -129h-54z" />
    <glyph glyph-name="Macron" unicode="&#xf6d0;" horiz-adv-x="339" 
d="M136 770v62h251v-62h-251z" />
    <glyph glyph-name="Lslashsmall" unicode="&#xf6f9;" horiz-adv-x="400" 
d="M397 0h-321v150l-49 -45v69l49 45v286h65v-226l103 96v-71l-103 -95v-149h256v-60z" />
    <glyph glyph-name="OEsmall" unicode="&#xf6fa;" horiz-adv-x="848" 
d="M802 0h-405q-45 -14 -105 -14q-122 0 -175.5 59t-53.5 210q0 150 53.5 207t175.5 57q65 0 107 -14h403v-60h-321q34 -53 40 -145h221v-57h-220q-1 -124 -43 -183h323v-60zM292 459q-91 0 -124 -40t-33 -166q0 -121 33.5 -164t123.5 -43q91 0 124.5 43t33.5 164
q0 126 -33 166t-125 40z" />
    <glyph glyph-name="Scaronsmall" unicode="&#xf6fd;" horiz-adv-x="504" 
d="M404 431q-72 28 -144 28q-70 0 -99.5 -17.5t-29.5 -73.5q0 -38 29 -56t97 -22q99 -7 143 -41t44 -104q0 -88 -46 -123.5t-149 -35.5t-182 27l20 61q26 -12 74.5 -20.5t87.5 -8.5q67 0 95.5 18.5t28.5 75.5q0 42 -26.5 62t-97.5 26q-97 7 -143 37t-46 98q0 86 49 121.5
t151 35.5q73 0 166 -26zM175 697l81 -86l79 86h78l-122 -129h-72l-126 129h82z" />
    <glyph glyph-name="Zcaronsmall" unicode="&#xf6ff;" horiz-adv-x="495" 
d="M36 0v27q207 250 315 418h-299v60h401v-25q-68 -103 -162 -231t-147 -189h310v-60h-418zM173 697l81 -86l79 86h78l-122 -129h-72l-126 129h82z" />
    <glyph glyph-name="exclamsmall" unicode="&#xf721;" horiz-adv-x="331" 
d="M120 505h89l-19 -333h-50zM165 103q31 0 42 -9t11 -40q0 -33 -11 -43.5t-42 -10.5q-30 0 -41 10.5t-11 43.5q0 31 11 40t41 9z" />
    <glyph glyph-name="ampersandsmall" unicode="&#xf726;" horiz-adv-x="649" 
d="M641 0h-74q-27 46 -60 92q-120 -106 -263 -106q-103 0 -156 34.5t-53 116.5q0 57 34.5 95t110.5 42q-36 3 -59.5 13t-34 28t-13.5 35.5t-3 44.5q0 63 49.5 93.5t162.5 30.5t161 -30.5t48 -93.5q0 -114 -128 -124q76 -10 153 -95q47 57 69 123h68q-34 -87 -102 -164
q45 -58 90 -135zM245 46q131 0 231 88q-49 60 -97 86t-105 26q-85 0 -127.5 -23t-42.5 -75q0 -57 31 -79.5t110 -22.5zM274 303q79 0 114.5 17t35.5 62q0 43 -29 60t-113 17t-114.5 -17t-30.5 -60q0 -46 30 -62.5t107 -16.5z" />
    <glyph glyph-name="zerooldstyle" unicode="&#xf730;" 
d="M316 -14q-116 0 -172.5 60t-56.5 209q0 148 56.5 206t172.5 58q115 0 167.5 -57.5t52.5 -206.5q0 -150 -52.5 -209.5t-167.5 -59.5zM316 459q-91 0 -124 -40t-33 -166q0 -121 33.5 -164t123.5 -43q89 0 118.5 41.5t29.5 165.5q0 128 -29 167t-119 39z" />
    <glyph glyph-name="oneoldstyle" unicode="&#xf731;" 
d="M410 0h-65v425l-156 -82l-24 54l245 122v-519z" />
    <glyph glyph-name="twooldstyle" unicode="&#xf732;" 
d="M203 60h322v-60h-424v55q145 80 218 131t99.5 88t26.5 82q0 53 -33 75.5t-124 22.5q-36 0 -87.5 -7t-69.5 -15l-16 67q84 20 174 20q129 0 180.5 -38t51.5 -123q0 -77 -73.5 -149t-244.5 -149z" />
    <glyph glyph-name="threeoldstyle" unicode="&#xf733;" 
d="M385 183q92 -4 127 -51.5t35 -128.5q0 -114 -64.5 -160t-208.5 -46q-97 0 -213 29l17 56q79 -24 196 -24q114 0 155 32.5t41 114.5t-41 114.5t-143 32.5h-80v59h80q92 0 132.5 30t40.5 99q0 65 -38 91.5t-142 26.5q-112 0 -192 -26l-18 60q126 27 210 27q138 0 196 -41.5
t58 -128.5q0 -72 -31 -115t-117 -51z" />
    <glyph glyph-name="fouroldstyle" unicode="&#xf734;" 
d="M394 59v401q-109 -134 -256 -401h256zM465 505v-446h99v-59h-99v-192h-71v192h-353v15q164 304 309 490h115z" />
    <glyph glyph-name="fiveoldstyle" unicode="&#xf735;" 
d="M180 445v-222q51 6 113 6q140 0 197 -49.5t57 -164.5q0 -122 -63 -170t-208 -48q-81 0 -199 29l18 56q78 -24 181 -24q114 0 154 33t40 115q0 92 -36.5 127t-140.5 35q-105 0 -183 -19v356h394v-60h-324z" />
    <glyph glyph-name="sixoldstyle" unicode="&#xf736;" 
d="M555 685l-23 -64q-69 28 -156 28q-63 0 -101.5 -9t-70 -35t-46 -75.5t-17.5 -128.5q85 17 181 17q140 0 197.5 -49.5t57.5 -164.5q0 -122 -58 -170t-192 -48q-98 0 -153 32.5t-81.5 112t-26.5 222.5q0 106 19 176.5t60 111t95.5 57t134.5 16.5q88 0 180 -29zM327 47
q103 0 138 32.5t35 115.5q0 92 -37 127t-141 35q-101 0 -181 -18q1 -90 12 -147.5t36 -89t57 -43.5t81 -12z" />
    <glyph glyph-name="sevenoldstyle" unicode="&#xf737;" 
d="M574 505v-26q-80 -129 -168 -320.5t-144 -350.5h-82q62 171 145 348.5t153 288.5h-397v60h493z" />
    <glyph glyph-name="eightoldstyle" unicode="&#xf738;" 
d="M311 47q97 0 134.5 33t37.5 114q0 82 -40 116t-132 34t-131.5 -34t-39.5 -116q0 -81 37 -114t134 -33zM311 403q82 0 118.5 31t36.5 101q0 64 -34.5 91t-120.5 27t-120.5 -27t-34.5 -91q0 -70 36.5 -101t118.5 -31zM311 -14q-126 0 -187 47t-61 159q0 81 35.5 130
t127.5 53q-85 8 -114.5 51.5t-29.5 117.5q0 86 54 128t175 42t175.5 -42t54.5 -128q0 -74 -29.5 -117.5t-114.5 -51.5q91 -4 126.5 -53t35.5 -130q0 -113 -60.5 -159.5t-187.5 -46.5z" />
    <glyph glyph-name="nineoldstyle" unicode="&#xf739;" 
d="M314 87q-143 0 -199 44t-56 157q0 123 59 177t191 54q146 0 200 -49.5t54 -193.5q0 -75 -23 -144t-66.5 -128.5t-84.5 -102.5t-98 -93h-100q94 78 158 146.5t100 142.5q-80 -10 -135 -10zM489 264q0 53 -7 89t-19.5 57t-36.5 32t-49.5 14t-67.5 3q-102 0 -137.5 -38.5
t-35.5 -124.5q0 -89 35.5 -118t142.5 -29q92 0 160 13q15 48 15 102z" />
    <glyph glyph-name="questionsmall" unicode="&#xf73f;" horiz-adv-x="466" 
d="M214 103q32 0 42.5 -9t10.5 -40q0 -34 -10.5 -44t-42.5 -10q-30 0 -40.5 10.5t-10.5 43.5q0 31 10.5 40t40.5 9zM243 172h-80q147 104 147 210q0 40 -23 59t-90 19q-71 0 -114 -15l-17 58q55 16 131 16q97 0 142 -31.5t45 -97.5q0 -116 -141 -218z" />
    <glyph glyph-name="Asmall" unicode="&#xf761;" horiz-adv-x="534" 
d="M436 0q-29 66 -60 152h-233q-28 -83 -47 -152h-71q62 204 188 505h117q100 -340 179 -505h-73zM281 445h-25q-55 -133 -94 -241h196q-44 125 -77 241z" />
    <glyph glyph-name="Bsmall" unicode="&#xf762;" horiz-adv-x="551" 
d="M341 60q43 0 60.5 20t17.5 65q0 98 -81 98h-197v-183h200zM333 300q74 0 74 76q0 39 -15.5 54t-58.5 15h-192v-145h192zM376 273q115 -4 115 -130q0 -71 -36 -107t-103 -36h-276v505h267q76 0 104.5 -32.5t28.5 -87.5q0 -52 -20 -79.5t-80 -32.5z" />
    <glyph glyph-name="Csmall" unicode="&#xf763;" horiz-adv-x="466" 
d="M430 74l21 -60q-63 -28 -144 -28q-124 0 -184 60t-60 209q0 148 60 206t184 58q80 0 144 -25l-21 -61q-51 24 -123 24q-47 0 -77 -8t-52.5 -29.5t-32.5 -62t-10 -104.5q0 -119 39.5 -162t132.5 -43q65 0 123 26z" />
    <glyph glyph-name="Dsmall" unicode="&#xf764;" horiz-adv-x="556" 
d="M76 0v505h173q124 0 184 -55t60 -195q0 -142 -60 -198.5t-184 -56.5h-173zM255 445h-114v-385h114q92 0 129 40t37 153q0 117 -36.5 154.5t-129.5 37.5z" />
    <glyph glyph-name="Esmall" unicode="&#xf765;" horiz-adv-x="491" 
d="M385 300v-57h-244v-183h304v-60h-369v505h369v-60h-304v-145h244z" />
    <glyph glyph-name="Fsmall" unicode="&#xf766;" horiz-adv-x="455" 
d="M76 0v505h369v-60h-304v-169h244v-57h-244v-219h-65z" />
    <glyph glyph-name="Gsmall" unicode="&#xf767;" horiz-adv-x="552" 
d="M418 62v160h-142v55h208v-256q-30 -13 -79.5 -24t-87.5 -11q-127 0 -190.5 60.5t-63.5 208.5q0 147 64 205.5t190 58.5q79 0 154 -25l-21 -61q-58 24 -133 24q-96 0 -139 -41t-43 -163q0 -118 43 -161.5t139 -43.5q57 0 101 14z" />
    <glyph glyph-name="Hsmall" unicode="&#xf768;" horiz-adv-x="555" 
d="M414 246h-273v-246h-65v505h65v-202h273v202h65v-505h-65v246z" />
    <glyph glyph-name="Ismall" unicode="&#xf769;" horiz-adv-x="217" 
d="M141 505v-505h-65v505h65z" />
    <glyph glyph-name="Jsmall" unicode="&#xf76a;" horiz-adv-x="358" 
d="M282 505v-344q0 -101 -45.5 -138t-119.5 -37q-65 0 -117 22l20 61q44 -23 97 -23q44 0 72 24t28 91v344h65z" />
    <glyph glyph-name="Ksmall" unicode="&#xf76b;" horiz-adv-x="478" 
d="M141 505v-505h-65v505h65zM396 0h84q-200 251 -249 276q60 40 231 229h-84q-179 -199 -237 -238q52 -18 255 -267z" />
    <glyph glyph-name="Lsmall" unicode="&#xf76c;" horiz-adv-x="400" 
d="M397 0h-321v505h65v-445h256v-60z" />
    <glyph glyph-name="Msmall" unicode="&#xf76d;" horiz-adv-x="685" 
d="M346 130q65 174 158 375h105v-505h-65v447q-99 -213 -172 -411h-61q-100 256 -170 411v-447h-65v505h109q99 -219 161 -375z" />
    <glyph glyph-name="Nsmall" unicode="&#xf76e;" horiz-adv-x="555" 
d="M414 108v397h65v-505h-65q-147 246 -273 411v-411h-65v505h65q173 -223 273 -397z" />
    <glyph glyph-name="Osmall" unicode="&#xf76f;" horiz-adv-x="585" 
d="M292 -14q-122 0 -175.5 59t-53.5 210q0 150 53.5 207t175.5 57t176 -57t54 -207q0 -151 -54 -210t-176 -59zM292 457q-92 0 -124.5 -39.5t-32.5 -164.5q0 -121 33.5 -163t123.5 -42q91 0 124.5 42t33.5 163q0 86 -15.5 130t-47.5 59t-95 15z" />
    <glyph glyph-name="Psmall" unicode="&#xf770;" horiz-adv-x="546" 
d="M336 445h-195v-186h195q44 0 63.5 20t19.5 70q0 53 -19 74.5t-64 21.5zM336 202h-195v-202h-65v505h260q82 0 118.5 -37.5t36.5 -119.5q0 -75 -36.5 -110.5t-118.5 -35.5z" />
    <glyph glyph-name="Qsmall" unicode="&#xf771;" horiz-adv-x="585" 
d="M292 -14q-122 0 -175.5 59t-53.5 210q0 150 53.5 207t175.5 57t176 -57t54 -207q0 -125 -31.5 -181.5t-107.5 -73.5q66 -10 200 -182h-86q-57 80 -112.5 124t-92.5 44zM292 459q-91 0 -124 -40t-33 -166q0 -121 33.5 -164t123.5 -43q91 0 124.5 43t33.5 164
q0 126 -33 166t-125 40z" />
    <glyph glyph-name="Rsmall" unicode="&#xf772;" horiz-adv-x="538" 
d="M325 505q158 0 158 -147q0 -58 -35 -94t-112 -36q37 -8 74 -50t119 -178h-80q-72 131 -116.5 172t-97.5 41h-94v-213h-65v505h249zM141 269h180q48 0 70 22t22 68q0 48 -20.5 67t-67.5 19h-184v-176z" />
    <glyph glyph-name="Ssmall" unicode="&#xf773;" horiz-adv-x="504" 
d="M404 431q-72 28 -144 28q-70 0 -99.5 -17.5t-29.5 -73.5q0 -38 29 -56t97 -22q99 -7 143 -41t44 -104q0 -88 -46 -123.5t-149 -35.5t-182 27l20 61q26 -12 74.5 -20.5t87.5 -8.5q67 0 95.5 18.5t28.5 75.5q0 42 -26.5 62t-97.5 26q-97 7 -143 37t-46 98q0 86 49 121.5
t151 35.5q73 0 166 -26z" />
    <glyph glyph-name="Tsmall" unicode="&#xf774;" horiz-adv-x="481" 
d="M273 445v-445h-65v445h-198v60h461v-60h-198z" />
    <glyph glyph-name="Usmall" unicode="&#xf775;" horiz-adv-x="550" 
d="M474 505v-323q0 -111 -44 -153.5t-155 -42.5t-155 42.5t-44 153.5v323h65v-330q0 -71 27.5 -99t106.5 -28t106.5 28t27.5 99v330h65z" />
    <glyph glyph-name="Vsmall" unicode="&#xf776;" horiz-adv-x="509" 
d="M253 62q111 268 160 443h71q-62 -204 -188 -505h-92q-100 340 -179 505h73q85 -197 155 -443z" />
    <glyph glyph-name="Wsmall" unicode="&#xf777;" horiz-adv-x="813" 
d="M787 505q-70 -265 -172 -505h-92q-54 261 -112 430q-54 -218 -130 -430h-92q-80 296 -164 505h77q74 -193 136 -443q33 92 74 230.5t57 212.5h83q57 -165 120 -443q97 256 142 443h73z" />
    <glyph glyph-name="Xsmall" unicode="&#xf778;" horiz-adv-x="522" 
d="M489 0h-81q-63 101 -137 203l-160 -203h-80q99 114 203 253q-91 124 -203 252h90q96 -120 152 -198q58 79 136 198h79q-84 -125 -177 -249q76 -103 178 -256z" />
    <glyph glyph-name="Ysmall" unicode="&#xf779;" horiz-adv-x="473" 
d="M269 235v-235h-65v235q-109 152 -211 270h83q73 -86 163 -215q73 84 161 215h80q-98 -136 -211 -270z" />
    <glyph glyph-name="Zsmall" unicode="&#xf77a;" horiz-adv-x="495" 
d="M36 0v27q207 250 315 418h-299v60h401v-25q-68 -103 -162 -231t-147 -189h310v-60h-418z" />
    <glyph glyph-name="exclamdownsmall" unicode="&#xf7a1;" horiz-adv-x="331" 
d="M210 0h-89l19 333h50zM165 402q-31 0 -42 9t-11 40q0 33 11 43.5t42 10.5q30 0 41 -10.5t11 -43.5q0 -31 -11 -40t-41 -9z" />
    <glyph glyph-name="questiondownsmall" unicode="&#xf7bf;" horiz-adv-x="466" 
d="M236 416q-32 0 -42.5 9t-10.5 40q0 34 10.5 44t42.5 10q30 0 40.5 -10.5t10.5 -43.5q0 -31 -10.5 -40t-40.5 -9zM207 347h80q-147 -104 -147 -210q0 -40 23 -59t90 -19q71 0 114 15l17 -58q-55 -16 -131 -16q-97 0 -142 31.5t-45 97.5q0 116 141 218z" />
    <glyph glyph-name="Agravesmall" unicode="&#xf7e0;" horiz-adv-x="534" 
d="M436 0q-29 66 -60 152h-233q-28 -83 -47 -152h-71q62 204 188 505h117q100 -340 179 -505h-73zM281 445h-25q-55 -133 -94 -241h196q-44 125 -77 241zM350 568h-69l-133 129h83z" />
    <glyph glyph-name="Aacutesmall" unicode="&#xf7e1;" horiz-adv-x="534" 
d="M436 0q-29 66 -60 152h-233q-28 -83 -47 -152h-71q62 204 188 505h117q100 -340 179 -505h-73zM281 445h-25q-55 -133 -94 -241h196q-44 125 -77 241zM275 568h-69l119 129h83z" />
    <glyph glyph-name="Acircumflexsmall" unicode="&#xf7e2;" horiz-adv-x="534" 
d="M436 0q-29 66 -60 152h-233q-28 -83 -47 -152h-71q62 204 188 505h117q100 -340 179 -505h-73zM281 445h-25q-55 -133 -94 -241h196q-44 125 -77 241zM350 568l-81 86l-79 -86h-78l122 129h72l126 -129h-82z" />
    <glyph glyph-name="Atildesmall" unicode="&#xf7e3;" horiz-adv-x="534" 
d="M436 0q-29 66 -60 152h-233q-28 -83 -47 -152h-71q62 204 188 505h117q100 -340 179 -505h-73zM281 445h-25q-55 -133 -94 -241h196q-44 125 -77 241zM397 689l41 -33q-32 -91 -105 -91q-27 0 -71 33t-67 33q-36 0 -60 -61l-36 35q24 43 47.5 62.5t55.5 19.5
q30 0 70.5 -33t63.5 -33q20 0 34 15t27 53z" />
    <glyph glyph-name="Adieresissmall" unicode="&#xf7e4;" horiz-adv-x="534" 
d="M436 0q-29 66 -60 152h-233q-28 -83 -47 -152h-71q62 204 188 505h117q100 -340 179 -505h-73zM281 445h-25q-55 -133 -94 -241h196q-44 125 -77 241zM174 657q24 0 32.5 -7t8.5 -32q0 -27 -8.5 -35t-32.5 -8q-25 0 -33.5 8t-8.5 35q0 25 8.5 32t33.5 7zM363 657
q24 0 32.5 -7t8.5 -32q0 -27 -8.5 -35t-32.5 -8q-25 0 -33.5 8t-8.5 35q0 25 8.5 32t33.5 7z" />
    <glyph glyph-name="Aringsmall" unicode="&#xf7e5;" horiz-adv-x="534" 
d="M436 0q-29 66 -60 152h-233q-28 -83 -47 -152h-71q62 204 188 505h117q100 -340 179 -505h-73zM281 445h-25q-55 -133 -94 -241h196q-44 125 -77 241zM267 738q110 0 110 -94t-110 -94q-109 0 -109 94q0 48 25 71t84 23zM267 693q-32 0 -44.5 -12.5t-12.5 -38.5
q0 -52 57 -52q59 0 59 52q0 26 -13 38.5t-46 12.5z" />
    <glyph glyph-name="AEsmall" unicode="&#xf7e6;" horiz-adv-x="760" 
d="M654 300v-57h-244v-183h304v-60h-369v152h-238q-70 -102 -101 -152h-80q137 211 367 505h421v-60h-304v-145h244zM324 445l-180 -241h201v241h-21z" />
    <glyph glyph-name="Ccedillasmall" unicode="&#xf7e7;" horiz-adv-x="466" 
d="M430 74l21 -60q-63 -28 -144 -28q-124 0 -184 60t-60 209q0 148 60 206t184 58q80 0 144 -25l-21 -61q-51 24 -123 24q-47 0 -77 -8t-52.5 -29.5t-32.5 -62t-10 -104.5q0 -119 39.5 -162t132.5 -43q65 0 123 26zM266 0h34v-47q70 0 94.5 -15t24.5 -60q0 -46 -28 -63.5
t-97 -17.5q-70 0 -106 21l18 42q34 -17 88 -17q33 0 45 6.5t12 27.5q0 22 -24.5 28.5t-96.5 2.5z" />
    <glyph glyph-name="Egravesmall" unicode="&#xf7e8;" horiz-adv-x="491" 
d="M385 300v-57h-244v-183h304v-60h-369v505h369v-60h-304v-145h244zM362 568h-69l-133 129h83z" />
    <glyph glyph-name="Eacutesmall" unicode="&#xf7e9;" horiz-adv-x="491" 
d="M385 300v-57h-244v-183h304v-60h-369v505h369v-60h-304v-145h244zM266 568h-69l119 129h83z" />
    <glyph glyph-name="Ecircumflexsmall" unicode="&#xf7ea;" horiz-adv-x="491" 
d="M385 300v-57h-244v-183h304v-60h-369v505h369v-60h-304v-145h244zM353 568l-81 86l-79 -86h-78l122 129h72l126 -129h-82z" />
    <glyph glyph-name="Edieresissmall" unicode="&#xf7eb;" horiz-adv-x="491" 
d="M385 300v-57h-244v-183h304v-60h-369v505h369v-60h-304v-145h244zM182 657q24 0 32.5 -7t8.5 -32q0 -27 -8.5 -35t-32.5 -8q-25 0 -33.5 8t-8.5 35q0 25 8.5 32t33.5 7zM371 657q24 0 32.5 -7t8.5 -32q0 -27 -8.5 -35t-32.5 -8q-25 0 -33.5 8t-8.5 35q0 25 8.5 32t33.5 7
z" />
    <glyph glyph-name="Igravesmall" unicode="&#xf7ec;" horiz-adv-x="217" 
d="M141 505v-505h-65v505h65zM161 568h-69l-133 129h83z" />
    <glyph glyph-name="Iacutesmall" unicode="&#xf7ed;" horiz-adv-x="217" 
d="M141 505v-505h-65v505h65zM120 568h-69l119 129h83z" />
    <glyph glyph-name="Icircumflexsmall" unicode="&#xf7ee;" horiz-adv-x="217" 
d="M141 505v-505h-65v505h65zM187 568l-81 86l-79 -86h-78l122 129h72l126 -129h-82z" />
    <glyph glyph-name="Idieresissmall" unicode="&#xf7ef;" horiz-adv-x="217" 
d="M141 505v-505h-65v505h65zM13 657q24 0 32.5 -7t8.5 -32q0 -27 -8.5 -35t-32.5 -8q-25 0 -33.5 8t-8.5 35q0 25 8.5 32t33.5 7zM202 657q24 0 32.5 -7t8.5 -32q0 -27 -8.5 -35t-32.5 -8q-25 0 -33.5 8t-8.5 35q0 25 8.5 32t33.5 7z" />
    <glyph glyph-name="Ethsmall" unicode="&#xf7f0;" horiz-adv-x="556" 
d="M18 240v59h58v206h173q124 0 184 -55t60 -195q0 -142 -60 -198.5t-184 -56.5h-173v240h-58zM255 445h-114v-146h128v-59h-128v-180h114q92 0 129 40t37 153q0 117 -36.5 154.5t-129.5 37.5z" />
    <glyph glyph-name="Ntildesmall" unicode="&#xf7f1;" horiz-adv-x="555" 
d="M414 505v-397q-100 174 -273 397h-65v-505h65v411q126 -165 273 -411h65v505h-65zM412 689l41 -33q-32 -91 -105 -91q-27 0 -71 33t-67 33q-36 0 -60 -61l-36 35q24 43 47.5 62.5t55.5 19.5q30 0 70.5 -33t63.5 -33q20 0 34 15t27 53z" />
    <glyph glyph-name="Ogravesmall" unicode="&#xf7f2;" horiz-adv-x="585" 
d="M292 -14q-122 0 -175.5 59t-53.5 210q0 150 53.5 207t175.5 57t176 -57t54 -207q0 -151 -54 -210t-176 -59zM292 459q-91 0 -124 -40t-33 -166q0 -121 33.5 -164t123.5 -43q91 0 124.5 43t33.5 164q0 126 -33 166t-125 40zM385 568h-69l-133 129h83z" />
    <glyph glyph-name="Oacutesmall" unicode="&#xf7f3;" horiz-adv-x="585" 
d="M292 -14q-122 0 -175.5 59t-53.5 210q0 150 53.5 207t175.5 57t176 -57t54 -207q0 -151 -54 -210t-176 -59zM292 459q-91 0 -124 -40t-33 -166q0 -121 33.5 -164t123.5 -43q91 0 124.5 43t33.5 164q0 126 -33 166t-125 40zM287 568h-69l119 129h83z" />
    <glyph glyph-name="Ocircumflexsmall" unicode="&#xf7f4;" horiz-adv-x="585" 
d="M292 -14q-122 0 -175.5 59t-53.5 210q0 150 53.5 207t175.5 57t176 -57t54 -207q0 -151 -54 -210t-176 -59zM292 459q-91 0 -124 -40t-33 -166q0 -121 33.5 -164t123.5 -43q91 0 124.5 43t33.5 164q0 126 -33 166t-125 40zM369 568l-81 86l-79 -86h-78l122 129h72
l126 -129h-82z" />
    <glyph glyph-name="Otildesmall" unicode="&#xf7f5;" horiz-adv-x="585" 
d="M292 -14q-122 0 -175.5 59t-53.5 210q0 150 53.5 207t175.5 57t176 -57t54 -207q0 -151 -54 -210t-176 -59zM292 459q-91 0 -124 -40t-33 -166q0 -121 33.5 -164t123.5 -43q91 0 124.5 43t33.5 164q0 126 -33 166t-125 40zM419 689l41 -33q-32 -91 -105 -91q-27 0 -71 33
t-67 33q-36 0 -60 -61l-36 35q24 43 47.5 62.5t55.5 19.5q30 0 70.5 -33t63.5 -33q20 0 34 15t27 53z" />
    <glyph glyph-name="Odieresissmall" unicode="&#xf7f6;" horiz-adv-x="585" 
d="M292 -14q-122 0 -175.5 59t-53.5 210q0 150 53.5 207t175.5 57t176 -57t54 -207q0 -151 -54 -210t-176 -59zM292 459q-91 0 -124 -40t-33 -166q0 -121 33.5 -164t123.5 -43q91 0 124.5 43t33.5 164q0 126 -33 166t-125 40zM197 657q24 0 32.5 -7t8.5 -32q0 -27 -8.5 -35
t-32.5 -8q-25 0 -33.5 8t-8.5 35q0 25 8.5 32t33.5 7zM386 657q24 0 32.5 -7t8.5 -32q0 -27 -8.5 -35t-32.5 -8q-25 0 -33.5 8t-8.5 35q0 25 8.5 32t33.5 7z" />
    <glyph glyph-name="Oslashsmall" unicode="&#xf7f8;" horiz-adv-x="585" 
d="M465 505h76l-56 -67q37 -61 37 -183q0 -151 -54 -210t-176 -59q-102 0 -154 38l-20 -24h-74l56 67q-37 62 -37 188q0 150 53.5 207t175.5 57q102 0 153 -37zM292 457q-92 0 -124.5 -39.5t-32.5 -164.5q0 -84 14 -127l254 305q-32 26 -111 26zM292 48q91 0 124.5 42
t33.5 163q0 85 -14 127l-254 -304q32 -28 110 -28z" />
    <glyph glyph-name="Ugravesmall" unicode="&#xf7f9;" horiz-adv-x="550" 
d="M474 505v-323q0 -111 -44 -153.5t-155 -42.5t-155 42.5t-44 153.5v323h65v-330q0 -71 27.5 -99t106.5 -28t106.5 28t27.5 99v330h65zM374 568h-69l-133 129h83z" />
    <glyph glyph-name="Uacutesmall" unicode="&#xf7fa;" horiz-adv-x="550" 
d="M474 505v-323q0 -111 -44 -153.5t-155 -42.5t-155 42.5t-44 153.5v323h65v-330q0 -71 27.5 -99t106.5 -28t106.5 28t27.5 99v330h65zM259 568h-69l119 129h83z" />
    <glyph glyph-name="Ucircumflexsmall" unicode="&#xf7fb;" horiz-adv-x="550" 
d="M474 505v-323q0 -111 -44 -153.5t-155 -42.5t-155 42.5t-44 153.5v323h65v-330q0 -71 27.5 -99t106.5 -28t106.5 28t27.5 99v330h65zM349 568l-81 86l-79 -86h-78l122 129h72l126 -129h-82z" />
    <glyph glyph-name="Udieresissmall" unicode="&#xf7fc;" horiz-adv-x="550" 
d="M474 505v-323q0 -111 -44 -153.5t-155 -42.5t-155 42.5t-44 153.5v323h65v-330q0 -71 27.5 -99t106.5 -28t106.5 28t27.5 99v330h65zM183 657q24 0 32.5 -7t8.5 -32q0 -27 -8.5 -35t-32.5 -8q-25 0 -33.5 8t-8.5 35q0 25 8.5 32t33.5 7zM372 657q24 0 32.5 -7t8.5 -32
q0 -27 -8.5 -35t-32.5 -8q-25 0 -33.5 8t-8.5 35q0 25 8.5 32t33.5 7z" />
    <glyph glyph-name="Yacutesmall" unicode="&#xf7fd;" horiz-adv-x="473" 
d="M269 235v-235h-65v235q-109 152 -211 270h83q73 -86 163 -215q73 84 161 215h80q-98 -136 -211 -270zM248 568h-69l119 129h83z" />
    <glyph glyph-name="Thornsmall" unicode="&#xf7fe;" horiz-adv-x="546" 
d="M141 106v-106h-65v505h65v-96h195q82 0 118.5 -37.5t36.5 -119.5q0 -75 -36.5 -110.5t-118.5 -35.5h-195zM336 349h-195v-186h195q44 0 63.5 20t19.5 70q0 53 -19 74.5t-64 21.5z" />
    <glyph glyph-name="Ydieresissmall" unicode="&#xf7ff;" horiz-adv-x="473" 
d="M269 235v-235h-65v235q-109 152 -211 270h83q73 -86 163 -215q73 84 161 215h80q-98 -136 -211 -270zM145 657q24 0 32.5 -7t8.5 -32q0 -27 -8.5 -35t-32.5 -8q-25 0 -33.5 8t-8.5 35q0 25 8.5 32t33.5 7zM334 657q24 0 32.5 -7t8.5 -32q0 -27 -8.5 -35t-32.5 -8
q-25 0 -33.5 8t-8.5 35q0 25 8.5 32t33.5 7z" />
    <glyph glyph-name="Gcedilla" horiz-adv-x="677" 
d="M523 67v249h-182v58h254v-365q-73 -23 -213 -23q-168 0 -243.5 81t-75.5 288q0 106 19 176t60.5 110.5t98 56.5t141.5 16q104 0 195 -27l-23 -63q-68 26 -171 26q-71 0 -113 -10t-73.5 -41.5t-43.5 -89.5t-12 -154q0 -127 25 -193t74.5 -89t142.5 -23q76 0 140 17zM353 0
h34v-47q70 0 94.5 -15t24.5 -60q0 -46 -28 -63.5t-97 -17.5q-70 0 -106 21l18 42q34 -17 88 -17q33 0 45 6.5t12 27.5q0 22 -24.5 28.5t-96.5 2.5z" />
    <glyph glyph-name="Idot" horiz-adv-x="273" 
d="M173 697h-72v-697h72v697zM140 847q24 0 32.5 -7t8.5 -32q0 -27 -8.5 -35t-32.5 -8q-25 0 -33.5 8t-8.5 35q0 25 8.5 32t33.5 7z" />
    <glyph glyph-name="Breve" horiz-adv-x="336" 
d="M122 871h54q0 -40 18.5 -54.5t60.5 -14.5t61 14.5t19 54.5h52q0 -126 -133 -126q-132 0 -132 126z" />
    <glyph glyph-name="Circumflex" horiz-adv-x="680" 
d="M346 837l-81 -90h-76l122 129h72l126 -129h-79z" />
    <glyph glyph-name="Dotaccent" horiz-adv-x="336" 
d="M148 847q24 0 32.5 -7t8.5 -32q0 -27 -8.5 -35t-32.5 -8q-25 0 -33.5 8t-8.5 35q0 25 8.5 32t33.5 7z" />
    <glyph glyph-name="gacute" horiz-adv-x="572" 
d="M496 479v-442q0 -134 -62.5 -187t-187.5 -53q-34 0 -85 8.5t-78 20.5l19 62q25 -12 69.5 -20.5t74.5 -8.5q95 0 140 36.5t45 132.5q-52 -42 -139 -42q-122 0 -175.5 59t-53.5 210q0 150 53.5 207t175.5 57q48 0 106 -11t98 -29zM292 457q-92 0 -124.5 -39.5t-32.5 -164.5
q0 -121 33.5 -163t123.5 -42q59 0 99 19t40 53v316q-59 21 -139 21zM280 568h-69l119 129h83z" />
    <glyph glyph-name="ldotaccent" horiz-adv-x="222" 
d="M141 722v-592q0 -36 10 -58.5t38 -50.5l-50 -42q-34 32 -48.5 63.5t-14.5 83.5v596h65zM236 414q24 0 32.5 -7t8.5 -32q0 -27 -8.5 -35t-32.5 -8q-25 0 -33.5 8t-8.5 35q0 25 8.5 32t33.5 7z" />
    <glyph glyph-name="Ring" horiz-adv-x="727" 
d="M360 873q110 0 110 -94t-110 -94q-109 0 -109 94q0 48 25 71t84 23zM360 828q-32 0 -44.5 -12.5t-12.5 -38.5q0 -52 57 -52q59 0 59 52q0 26 -13 38.5t-46 12.5z" />
    <glyph glyph-name="Tilde" horiz-adv-x="721" 
d="M531 867l40 -32q-32 -91 -110 -91q-26 0 -74 33.5t-70 33.5q-35 0 -58 -59l-35 34q23 41 45.5 60t54.5 19q29 0 76 -32t69 -32q40 0 62 66z" />
    <glyph glyph-name="Dmacron" horiz-adv-x="703" 
d="M101 697h215q85 0 143 -16.5t100 -55.5t61.5 -107t19.5 -168q0 -195 -77 -272.5t-247 -77.5h-215v697zM563 350q0 91 -12.5 147t-44.5 87.5t-75 42t-115 10.5h-143v-577h143q138 0 192.5 61t54.5 229zM206 770v62h251v-62h-251z" />
    <glyph glyph-name="zerop" 
d="M311 -14q-86 0 -138.5 33t-80.5 115.5t-28 223.5q0 139 28 218t80 108.5t139 29.5q88 0 139.5 -29.5t79.5 -108.5t28 -218q0 -208 -58.5 -290t-188.5 -82zM310 656q-67 0 -101.5 -21t-53 -85.5t-18.5 -191.5q0 -121 18 -188.5t54.5 -94.5t100.5 -27q97 0 136 65.5
t39 244.5q0 96 -9 154.5t-31.5 90.5t-53 42.5t-81.5 10.5z" />
    <glyph glyph-name="onep" horiz-adv-x="338" 
d="M237 0h-72v621l-156 -75l-24 54l252 122v-722z" />
    <glyph glyph-name="twop" horiz-adv-x="588" 
d="M141 60h379v-60h-472v56l225 182.5t118.5 116t52 82t8.5 80.5q0 75 -40.5 103.5t-135.5 28.5q-45 0 -97.5 -7.5t-76.5 -19.5l-18 65q110 27 193 27q130 0 190 -45t60 -150q0 -55 -12.5 -95t-54.5 -93t-116.5 -115t-202.5 -156z" />
    <glyph glyph-name="threep" horiz-adv-x="588" 
d="M364 375q91 -4 126.5 -53t35.5 -130q0 -114 -64.5 -160t-208.5 -46q-97 0 -213 29l17 56q79 -24 196 -24q114 0 155 32.5t41 114.5q0 83 -41.5 116.5t-142.5 33.5h-80v59h80q91 0 132 31t41 101q0 65 -38 91.5t-142 26.5q-112 0 -192 -26l-18 60q126 27 210 27
q138 0 196 -41.5t58 -128.5q0 -72 -31.5 -116.5t-116.5 -52.5z" />
    <glyph glyph-name="fourp" horiz-adv-x="582" 
d="M379 263v389q-64 -78 -137.5 -193t-118.5 -196h256zM450 697v-434h99v-59h-99v-204h-71v204h-353v15q56 103 143.5 240t165.5 238h115z" />
    <glyph glyph-name="fivep" horiz-adv-x="608" 
d="M177 637v-225q51 6 113 6q140 0 197 -49.5t57 -164.5q0 -122 -63 -170t-208 -48q-81 0 -199 29l18 56q78 -24 181 -24q114 0 154 33t40 115q0 92 -36.5 127t-140.5 35q-105 0 -183 -19v359h394v-60h-324z" />
    <glyph glyph-name="sixp" horiz-adv-x="628" 
d="M553 685l-23 -64q-69 28 -156 28q-63 0 -101.5 -9t-70 -35t-46 -75.5t-17.5 -128.5q85 17 181 17q140 0 197.5 -49.5t57.5 -164.5q0 -122 -58 -170t-192 -48q-98 0 -153 32.5t-81.5 112t-26.5 222.5q0 106 19 176.5t60 111t95.5 57t134.5 16.5q88 0 180 -29zM325 47
q103 0 138 32.5t35 115.5q0 92 -37 127t-141 35q-101 0 -181 -18q1 -90 12 -147.5t36 -89t57 -43.5t81 -12z" />
    <glyph glyph-name="sevenp" horiz-adv-x="495" 
d="M507 697v-26q-80 -129 -168 -320.5t-144 -350.5h-82q62 171 145 348.5t153 288.5h-397v60h493z" />
    <glyph glyph-name="eightp" 
d="M311 47q97 0 134.5 33t37.5 114q0 82 -40 116t-132 34t-131.5 -34t-39.5 -116q0 -81 37 -114t134 -33zM311 403q82 0 118.5 31t36.5 101q0 64 -34.5 91t-120.5 27t-120.5 -27t-34.5 -91q0 -70 36.5 -101t118.5 -31zM311 -14q-126 0 -187 47t-61 159q0 81 35.5 130
t127.5 53q-85 8 -114.5 51.5t-29.5 117.5q0 86 54 128t175 42t175.5 -42t54.5 -128q0 -74 -29.5 -117.5t-114.5 -51.5q91 -4 126.5 -53t35.5 -130q0 -113 -60.5 -159.5t-187.5 -46.5z" />
    <glyph glyph-name="ninep" 
d="M309 282q-143 0 -199 44t-56 157q0 123 59 177t191 54q146 0 200 -49.5t54 -193.5q0 -75 -23.5 -144.5t-67 -129.5t-85 -103.5t-98.5 -93.5h-100q197 164 260 292q-80 -10 -135 -10zM484 459q0 53 -7 89t-19.5 57t-36.5 32t-49.5 14t-67.5 3q-102 0 -137.5 -38.5
t-35.5 -124.5q0 -89 35.5 -118t142.5 -29q92 0 160 13q15 48 15 102z" />
    <glyph glyph-name="g.2" horiz-adv-x="572" 
d="M496 490v-140q0 -78 -54 -127t-153 -49q-76 0 -127 20q-8 -28 -8 -49q0 -37 28 -53.5t110 -17.5q128 -2 179 -29.5t51 -97.5q0 -80 -61 -115t-189 -35q-126 0 -205 27l18 62q66 -30 187 -30q99 0 139 19t40 66q0 41 -30 54t-137 16q-60 1 -99 9.5t-58.5 25t-26.5 35.5
t-7 48q0 49 23 91q-53 43 -53 128q0 90 55.5 130.5t173.5 40.5q115 0 204 -29zM431 445q-63 13 -139 13q-90 0 -123.5 -23t-33.5 -89q0 -65 33.5 -88.5t120.5 -23.5q142 0 142 120v91z" />
    <glyph glyph-name="ct" horiz-adv-x="859" 
d="M568 169v276q-50 0 -148 6t-113 6q-47 0 -77 -8t-52.5 -29.5t-32.5 -62t-10 -104.5q0 -119 39.5 -162t132.5 -43q65 0 123 26l21 -60q-63 -28 -144 -28q-124 0 -184 60t-60 209q0 148 60 206t184 58q15 0 113 -7t148 -7v106l65 27v-133h187v-60h-187v-275q0 -66 21 -94
t73 -28q56 0 96 15l15 -58q-55 -19 -111 -19q-89 0 -124 37.5t-35 145.5z" />
    <glyph glyph-name="arrowupleft" horiz-adv-x="722" 
d="M568 517l-334 28l389 -389l-41 -42l-389 389l29 -332l-64 -6l-37 454l451 -39z" />
    <glyph glyph-name="arrowupright" horiz-adv-x="722" 
d="M510 545l-334 -28l-4 63l451 39l-37 -454l-64 6l29 332l-389 -389l-41 42z" />
    <glyph glyph-name="arrowdownleft" horiz-adv-x="722" 
d="M234 187l334 28l4 -63l-451 -39l37 454l64 -6l-29 -332l389 389l41 -42z" />
    <glyph glyph-name="arrowdownright" horiz-adv-x="722" 
d="M176 215l334 -28l-389 389l41 42l389 -389l-29 332l64 6l37 -454l-451 39z" />
    <glyph glyph-name="dmacron" horiz-adv-x="572" 
d="M323 588v55h108v79h65v-79h45v-55h-45v-562q-40 -18 -98 -29t-106 -11q-122 0 -175.5 57.5t-53.5 207.5t53.5 209t175.5 59q88 0 139 -41v110h-108zM292 48q80 0 139 21v317q0 33 -40 52t-99 19q-90 0 -123.5 -42t-33.5 -163q0 -86 15.5 -129.5t47.5 -59t94 -15.5z" />
    <glyph glyph-name="Ldotaccent" horiz-adv-x="546" 
d="M101 697h72v-634h360v-63h-432v697zM314 421q24 0 32.5 -7t8.5 -32q0 -27 -8.5 -35t-32.5 -8q-25 0 -33.5 8t-8.5 35q0 25 8.5 32t33.5 7z" />
    <glyph glyph-name="st" horiz-adv-x="887" 
d="M596 169v276q-70 1 -194 7.5t-142 6.5q-70 0 -99.5 -17.5t-29.5 -73.5q0 -38 29 -56t97 -22q99 -7 143 -41t44 -104q0 -88 -46 -123.5t-149 -35.5t-182 27l20 61q26 -12 74.5 -20.5t87.5 -8.5q67 0 95.5 18.5t28.5 75.5q0 42 -26.5 62t-97.5 26q-97 7 -143 37t-46 98
q0 86 49 121.5t151 35.5q17 0 146 -7t190 -7v106l65 27v-133h187v-60h-187v-275q0 -66 21 -94t73 -28q55 0 96 15l15 -58q-55 -19 -111 -19q-89 0 -124 37.5t-35 145.5z" />
    <glyph glyph-name="orn1" horiz-adv-x="556" 
d="M556 577h-241q24 -22 24 -58q0 -53 -55 -80q7 17 7 40q0 38 -19 68t-51 30h-221v54h556v-54zM286 -40q9 27 31 45t47 25t52.5 21t49 33t36 61t14.5 104q0 104 -33 153.5t-91 49.5q-47 0 -106 -31q-60 31 -106 31q-58 0 -90.5 -49.5t-32.5 -153.5q0 -63 13 -105.5
t32.5 -61.5t46 -33t50.5 -21t48.5 -24t38.5 -44zM286 359q58 32 93 32q34 0 49.5 -33.5t15.5 -110.5q0 -54 -12 -86t-31.5 -44.5t-40 -19t-41.5 -19t-33 -36.5q-12 20 -29.5 32.5t-34.5 17.5t-34 14t-30 22t-21 43t-8 76q0 146 75 146q36 0 82 -34z" />
    <glyph glyph-name="orn2" horiz-adv-x="556" 
d="M241 577h-241v54h556v-54h-221q-32 0 -51 -30t-19 -68q0 -23 7 -40q-55 27 -55 80q0 36 24 58zM270 -40q-9 27 -31 45t-47 25t-52.5 21t-49 33t-36 61t-14.5 104q0 104 33 153.5t91 49.5q47 0 106 -31q60 31 106 31q58 0 90.5 -49.5t32.5 -153.5q0 -63 -13 -105.5
t-32.5 -61.5t-46 -33t-50.5 -21t-48.5 -24t-38.5 -44z" />
    <glyph glyph-name="orn3" horiz-adv-x="556" 
d="M556 15h-241q24 22 24 58q0 53 -55 80q7 -17 7 -40q0 -38 -19 -68t-51 -30h-221v-54h556v54zM286 632q9 -27 31 -45t47 -25t52.5 -21t49 -33t36 -61t14.5 -104q0 -104 -33 -153.5t-91 -49.5q-47 0 -106 31q-60 -31 -106 -31q-58 0 -90.5 49.5t-32.5 153.5q0 63 13 105.5
t32.5 61.5t46 33t50.5 21t48.5 24t38.5 44zM286 233q58 -32 93 -32q34 0 49.5 33.5t15.5 110.5q0 54 -12 86t-31.5 44.5t-40 19t-41.5 19t-33 36.5q-12 -20 -29.5 -32.5t-34.5 -17.5t-34 -14t-30 -22t-21 -43t-8 -76q0 -146 75 -146q36 0 82 34z" />
    <glyph glyph-name="orn4" horiz-adv-x="556" 
d="M0 15h241q-24 22 -24 58q0 53 55 80q-7 -17 -7 -40q0 -38 19 -68t51 -30h221v-54h-556v54zM270 632q14 -27 38.5 -44t48.5 -24t50.5 -21t46 -33t32.5 -61.5t13 -105.5q0 -104 -32.5 -153.5t-90.5 -49.5q-46 0 -106 31q-59 -31 -106 -31q-58 0 -91 49.5t-33 153.5
q0 62 14.5 104t36 61t49 33t52.5 21t47 25t31 45z" />
    <glyph glyph-name="orn5" horiz-adv-x="766" 
d="M637 18v241q-22 -24 -58 -24q-53 0 -80 55q17 -7 40 -7q38 0 68 19t30 51v221h54v-556h-54zM20 288q27 -9 45 -31t25 -47t21 -52.5t33 -49t61 -36t104 -14.5q104 0 153.5 33t49.5 91q0 47 -31 106q31 60 31 106q0 58 -49.5 90.5t-153.5 32.5q-63 0 -105.5 -13
t-61.5 -32.5t-33 -46t-21 -50.5t-24 -48.5t-44 -38.5zM419 288q32 -58 32 -93q0 -34 -33.5 -49.5t-110.5 -15.5q-54 0 -86 12t-44.5 31.5t-19 40t-19 41.5t-36.5 33q20 12 32.5 29.5t17.5 34.5t14 34t22 30t43 21t76 8q146 0 146 -75q0 -36 -34 -82z" />
    <glyph glyph-name="orn6" horiz-adv-x="766" 
d="M637 333v241h54v-556h-54v221q0 32 -30 51t-68 19q-23 0 -40 -7q27 55 80 55q36 0 58 -24zM20 304q27 9 45 31t25 47t21 52.5t33 49t61 36t104 14.5q104 0 153.5 -33t49.5 -91q0 -47 -31 -106q31 -60 31 -106q0 -58 -49.5 -90.5t-153.5 -32.5q-63 0 -105.5 13t-61.5 32.5
t-33 46t-21 50.5t-24 48.5t-44 38.5z" />
    <glyph glyph-name="orn7" horiz-adv-x="766" 
d="M129 260v-241h-54v556h54v-221q0 -32 30 -51t68 -19q23 0 40 7q-27 -55 -80 -55q-36 0 -58 24zM746 289q-27 -9 -45 -31t-25 -47t-21 -52.5t-33 -49t-61 -36t-104 -14.5q-104 0 -153.5 33t-49.5 91q0 47 31 106q-31 60 -31 106q0 58 49.5 90.5t153.5 32.5q63 0 105.5 -13
t61.5 -32.5t33 -46t21 -50.5t24 -48.5t44 -38.5zM347 289q-32 -58 -32 -93q0 -34 33.5 -49.5t110.5 -15.5q54 0 86 12t44.5 31.5t19 40t19 41.5t36.5 33q-20 12 -32.5 29.5t-17.5 34.5t-14 34t-22 30t-43 21t-76 8q-146 0 -146 -75q0 -36 34 -82z" />
    <glyph glyph-name="orn8" horiz-adv-x="766" 
d="M129 575v-241q22 24 58 24q53 0 80 -55q-17 7 -40 7q-38 0 -68 -19t-30 -51v-221h-54v556h54zM746 305q-27 9 -45 31t-25 47t-21 52.5t-33 49t-61 36t-104 14.5q-104 0 -153.5 -33t-49.5 -91q0 -47 31 -106q-31 -60 -31 -106q0 -58 49.5 -90.5t153.5 -32.5q63 0 105.5 13
t61.5 32.5t33 46t21 50.5t24 48.5t44 38.5z" />
    <glyph glyph-name="publish" horiz-adv-x="873" 
d="M797 352q0 -108 -21 -179t-67 -112t-111 -58t-162 -17t-161.5 17t-111 58t-67 112t-20.5 179q0 106 21 176.5t67 111.5t111 57.5t161 16.5q97 0 162 -16.5t111 -57.5t67 -111.5t21 -176.5zM558 427q0 44 -14.5 66.5t-48.5 22.5h-142v-172h139q37 0 51.5 21.5t14.5 61.5z
M637 430q0 -66 -32.5 -107t-98.5 -41h-153v-151h-70v448h220q70 0 102 -41t32 -108zM435 657q-82 0 -133 -12t-87.5 -45.5t-51.5 -93.5t-15 -156q0 -121 29.5 -187t89.5 -91.5t168 -25.5q82 0 134.5 13.5t89 47.5t52 92.5t15.5 150.5q0 96 -15 156t-52.5 93.5t-89 45.5
t-134.5 12z" />
    <glyph glyph-name="zerob" horiz-adv-x="759" 
d="M379 77q98 0 141.5 61.5t43.5 217.5q0 153 -43.5 210t-141.5 57t-141.5 -57t-43.5 -210q0 -156 44 -217.5t141 -61.5zM378 580q51 0 77.5 -16t40.5 -64.5t14 -143.5q0 -134 -29.5 -183.5t-102.5 -49.5q-72 0 -101 49.5t-29 183.5q0 95 14 144t40 64.5t76 15.5zM379 -14
q-113 0 -179.5 31t-101.5 112t-35 223q0 140 35 220t101.5 111t179.5 31t180 -31t102 -111t35 -220q0 -142 -35 -223t-101.5 -112t-180.5 -31z" />
    <glyph glyph-name="oneb" horiz-adv-x="759" 
d="M365 90h54v542l-190 -92l18 -40l118 56v-466zM379 -14q-113 0 -179.5 31t-101.5 112t-35 223q0 140 35 220t101.5 111t179.5 31t180 -31t102 -111t35 -220q0 -142 -35 -223t-101.5 -112t-180.5 -31z" />
    <glyph glyph-name="twob" horiz-adv-x="759" 
d="M379 -14q-113 0 -179.5 31t-101.5 112t-35 223q0 140 35 220t101.5 111t179.5 31t180 -31t102 -111t35 -220q0 -142 -35 -223t-101.5 -112t-180.5 -31zM545 134h-285q127 93 188 150.5t81.5 98.5t20.5 95q0 79 -45 113t-143 34q-65 0 -144 -21l13 -48q42 20 131 20
q71 0 101.5 -21.5t30.5 -77.5q0 -50 -17.5 -83t-77.5 -89t-208 -174v-42h354v45z" />
    <glyph glyph-name="threeb" horiz-adv-x="759" 
d="M444 369q44 4 69 23.5t31.5 43.5t6.5 60q0 65 -43.5 96t-147.5 31q-61 0 -154 -20l13 -45q59 19 141 19q78 0 107 -19.5t29 -68.5q0 -53 -29 -76t-98 -23h-60v-45h60q76 0 107.5 -25t31.5 -87t-31 -86t-117 -24q-89 0 -147 18l-12 -42q83 -22 159 -22q108 0 156.5 34.5
t48.5 119.5q0 40 -9 67.5t-37 48t-75 22.5zM379 -14q-113 0 -179.5 31t-101.5 112t-35 223q0 140 35 220t101.5 111t179.5 31t180 -31t102 -111t35 -220q0 -142 -35 -223t-101.5 -112t-180.5 -31z" />
    <glyph glyph-name="fourb" horiz-adv-x="759" 
d="M434 576v-292h-192q32 59 88 145.5t104 146.5zM488 284v326h-87q-119 -153 -232 -359v-11h265v-153h54v153h74v44h-74zM379 -14q-113 0 -179.5 31t-101.5 112t-35 223q0 140 35 220t101.5 111t179.5 31t180 -31t102 -111t35 -220q0 -142 -35 -223t-101.5 -112t-180.5 -31
z" />
    <glyph glyph-name="fiveb" horiz-adv-x="759" 
d="M282 395v165h243v48h-296v-269q58 14 138 14q78 0 105.5 -26t27.5 -95q0 -62 -30.5 -86.5t-115.5 -24.5q-79 0 -136 18l-13 -42q83 -22 149 -22q108 0 155.5 36t47.5 127q0 87 -42.5 124t-147.5 37q-52 0 -85 -4zM379 -14q-113 0 -179.5 31t-101.5 112t-35 223
q0 140 35 220t101.5 111t179.5 31t180 -31t102 -111t35 -220q0 -142 -35 -223t-101.5 -112t-180.5 -31z" />
    <glyph glyph-name="sixb" horiz-adv-x="759" 
d="M535 553l17 48q-69 22 -135 22q-121 0 -176.5 -58.5t-55.5 -212.5q0 -158 43.5 -216.5t152.5 -58.5q100 0 143.5 36t43.5 127q0 87 -43 124t-148 37q-77 0 -136 -13q2 60 13 97t34.5 56.5t53 26t76.5 6.5q65 0 117 -21zM381 123q-50 0 -78 16.5t-44.5 65t-17.5 137.5
q60 13 136 13q79 0 106.5 -26t27.5 -95q0 -62 -26.5 -86.5t-103.5 -24.5zM379 -14q-113 0 -179.5 31t-101.5 112t-35 223q0 140 35 220t101.5 111t179.5 31t180 -31t102 -111t35 -220q0 -142 -35 -223t-101.5 -112t-180.5 -31z" />
    <glyph glyph-name="sevenb" horiz-adv-x="759" 
d="M294 87h52q112 299 231 523h-375v-48h298q-129 -254 -206 -475zM379 -14q-113 0 -179.5 31t-101.5 112t-35 223q0 140 35 220t101.5 111t179.5 31t180 -31t102 -111t35 -220q0 -142 -35 -223t-101.5 -112t-180.5 -31z" />
    <glyph glyph-name="eightb" horiz-adv-x="759" 
d="M379 123q-73 0 -100.5 24.5t-27.5 85.5t29.5 86.5t98.5 25.5t99 -25.5t30 -86.5t-28 -85.5t-101 -24.5zM379 390q-62 0 -89 23.5t-27 75.5q0 48 25.5 68t90.5 20t90.5 -20t25.5 -68q0 -53 -27 -76t-89 -23zM379 77q95 0 140.5 35t45.5 119q0 40 -9 67.5t-37 48t-75 22.5
q34 3 56 14t33 29.5t15 38t4 45.5q0 64 -41 95.5t-132 31.5t-131.5 -31.5t-40.5 -95.5q0 -56 22 -89t86 -38q-69 -3 -95.5 -39.5t-26.5 -98.5q0 -84 45.5 -119t140.5 -35zM379 -14q-113 0 -179.5 31t-101.5 112t-35 223q0 140 35 220t101.5 111t179.5 31t180 -31t102 -111
t35 -220q0 -142 -35 -223t-101.5 -112t-180.5 -31z" />
    <glyph glyph-name="nineb" horiz-adv-x="759" 
d="M381 301q39 0 102 7q-47 -96 -196 -219h75q43 37 74.5 70t64 78t50 97.5t17.5 108.5q0 108 -40.5 145t-150.5 37q-98 0 -142.5 -40.5t-44.5 -132.5q0 -86 42 -118.5t149 -32.5zM513 434q0 -41 -12 -77q-50 -10 -120 -10q-80 0 -106.5 22t-26.5 89q0 64 26.5 93t102.5 29
q40 0 62 -4t41 -18.5t26 -44t7 -79.5zM379 -14q-113 0 -179.5 31t-101.5 112t-35 223q0 140 35 220t101.5 111t179.5 31t180 -31t102 -111t35 -220q0 -142 -35 -223t-101.5 -112t-180.5 -31z" />
    <glyph glyph-name="apple" horiz-adv-x="928" 
d="M292 -14q-122 0 -175.5 59t-53.5 210q0 69 15.5 116.5t42.5 73t60 42t72.5 29.5t76 28.5t73 46t61.5 75.5q25 -45 61.5 -75.5t73 -46t76 -28.5t72.5 -29.5t60 -42t42.5 -73t15.5 -116.5q0 -151 -53.5 -210t-175.5 -59q-86 0 -139 42v-220h-66v220q-52 -42 -139 -42z
M497 537v-417q0 -34 40 -53t99 -19q90 0 123.5 42t33.5 163q0 65 -17 106.5t-49 63t-66.5 34t-82 33t-81.5 47.5zM431 120v417q-34 -27 -81.5 -47.5t-82 -33t-66.5 -34t-49 -63t-17 -106.5q0 -121 33.5 -163t123.5 -42q59 0 99 19t40 53z" />
    <glyph glyph-name="sp" horiz-adv-x="1072" 
d="M780 -14q-86 0 -139 42v-220h-65v611q-158 40 -316 40q-70 0 -99.5 -17.5t-29.5 -73.5q0 -38 29 -56t97 -22q99 -7 143 -41t44 -104q0 -88 -46 -123.5t-149 -35.5t-182 27l20 61q26 -12 74.5 -20.5t87.5 -8.5q67 0 95.5 18.5t28.5 75.5q0 42 -26.5 62t-97.5 26
q-97 7 -143 37t-46 98q0 86 49 121.5t151 35.5q159 0 316 -40q40 18 98 29t106 11q122 0 175.5 -57t53.5 -207q0 -151 -53.5 -210t-175.5 -59zM780 457q-80 0 -139 -21v-316q0 -34 40 -53t99 -19q90 0 123.5 42t33.5 163q0 125 -32.5 164.5t-124.5 39.5z" />
    <glyph glyph-name="at.2" horiz-adv-x="932" 
d="M597 178v184q-65 12 -131 12q-74 0 -107 -19.5t-33 -83.5t29.5 -90t105.5 -26q72 0 136 23zM663 432v-296q-90 -40 -204 -40q-113 0 -159.5 36t-46.5 134q0 53 14.5 87.5t43.5 51t59.5 22t75.5 5.5q69 0 151 -16q0 93 -30 122.5t-130 29.5q-91 0 -144.5 -11.5t-90.5 -45
t-51 -92t-14 -156.5q0 -180 68.5 -240.5t259.5 -60.5q99 0 159.5 12.5t101.5 47t57 91.5t16 150q0 113 -22 175h70q22 -67 22 -173q0 -107 -23.5 -178.5t-75.5 -112.5t-124.5 -58t-180.5 -17t-180 17t-123.5 58t-75 112t-23.5 179q0 107 21.5 177.5t69.5 112t115 58
t166 16.5q129 0 178.5 -40.5t49.5 -156.5z" />
    <glyph glyph-name="ampersand.2" horiz-adv-x="732" 
d="M509 68v276h-171q-93 0 -132.5 -34t-39.5 -116q0 -79 42.5 -113t141.5 -34q100 0 159 21zM714 344h-136v-318q-39 -18 -107 -29t-121 -11q-128 0 -194.5 47.5t-66.5 158.5q0 81 36 130t127 53q-86 8 -115 50t-29 116q0 86 56 129.5t176 43.5q78 0 144 -25l-22 -60
q-52 24 -122 24q-87 0 -122 -27t-35 -91q0 -70 36.5 -101t118.5 -31h171v106l69 26v-132h136v-59z" />
    <glyph glyph-name="Abrevesmall" horiz-adv-x="534" 
d="M436 0q-29 66 -60 152h-233q-28 -83 -47 -152h-71q62 204 188 505h117q100 -340 179 -505h-73zM281 445h-25q-55 -133 -94 -241h196q-44 125 -77 241zM139 697h54q0 -40 18.5 -54.5t60.5 -14.5t61 14.5t19 54.5h52q0 -126 -133 -126q-132 0 -132 126z" />
    <glyph glyph-name="Amacronsmall" horiz-adv-x="534" 
d="M436 0q-29 66 -60 152h-233q-28 -83 -47 -152h-71q62 204 188 505h117q100 -340 179 -505h-73zM281 445h-25q-55 -133 -94 -241h196q-44 125 -77 241zM143 586v58h251v-58h-251z" />
    <glyph glyph-name="Aogoneksmall" horiz-adv-x="534" 
d="M436 0q-29 66 -60 152h-233q-28 -83 -47 -152h-71q62 204 188 505h117q100 -340 179 -505h-73zM281 445h-25q-55 -133 -94 -241h196q-44 125 -77 241zM467 12h34q-57 -34 -76 -58.5t-19 -57.5q0 -24 14 -34.5t54 -10.5q55 0 92 30l29 -49q-45 -35 -126 -35
q-71 0 -99 21.5t-28 67.5q0 41 31.5 75t93.5 51z" />
    <glyph glyph-name="bracketleftsmall" horiz-adv-x="323" 
d="M86 637h200v-58h-131v-659h131v-57h-200v774z" />
    <glyph glyph-name="braceleftsmall" horiz-adv-x="321" 
d="M27 222v-1v54q49 0 76 32t27 119q0 96 39 151t105 69l24 -51q-35 -8 -55.5 -22t-33.5 -50t-13 -97q0 -87 -26.5 -128.5t-58.5 -49.5q32 -7 58.5 -48.5t26.5 -128.5q0 -61 13 -97t33.5 -50t55.5 -22l-24 -51q-66 14 -105 69t-39 151q0 87 -27 119t-76 32z" />
    <glyph glyph-name="Dcaronsmall" horiz-adv-x="556" 
d="M76 0v505h173q124 0 184 -55t60 -195q0 -142 -60 -198.5t-184 -56.5h-173zM255 445h-114v-385h114q92 0 129 40t37 153q0 117 -36.5 154.5t-129.5 37.5zM182 697l81 -86l79 86h78l-122 -129h-72l-126 129h82z" />
    <glyph glyph-name="Dcroatsmall" horiz-adv-x="556" 
d="M18 240v59h58v206h173q124 0 184 -55t60 -195q0 -142 -60 -198.5t-184 -56.5h-173v240h-58zM255 445h-114v-146h128v-59h-128v-180h114q92 0 129 40t37 153q0 117 -36.5 154.5t-129.5 37.5z" />
    <glyph glyph-name="Dmacronsmall" horiz-adv-x="556" 
d="M76 0v505h173q124 0 184 -55t60 -195q0 -142 -60 -198.5t-184 -56.5h-173zM255 445h-114v-385h114q92 0 129 40t37 153q0 117 -36.5 154.5t-129.5 37.5zM127 586v58h251v-58h-251z" />
    <glyph glyph-name="Emacronsmall" horiz-adv-x="491" 
d="M385 300v-57h-244v-183h304v-60h-369v505h369v-60h-304v-145h244zM138 586v58h251v-58h-251z" />
    <glyph glyph-name="Eurosmall" horiz-adv-x="479" 
d="M430 74l21 -60q-63 -28 -144 -28q-124 0 -184 60t-60 209q0 148 60 206t184 58q80 0 144 -25l-21 -61q-51 24 -123 24q-71 0 -108.5 -20.5t-52.5 -76.5h229v-57h-239q-1 -15 -1 -50q0 -30 1 -43h239v-57h-230q14 -59 53 -82t109 -23q65 0 123 26z" />
    <glyph glyph-name="Eogoneksmall" horiz-adv-x="491" 
d="M385 300v-57h-244v-183h304v-60h-369v505h369v-60h-304v-145h244zM382 12h34q-57 -34 -76 -58.5t-19 -57.5q0 -24 14 -34.5t54 -10.5q55 0 92 30l29 -49q-45 -35 -126 -35q-71 0 -99 21.5t-28 67.5q0 41 31.5 75t93.5 51z" />
    <glyph glyph-name="Ecaronsmall" horiz-adv-x="491" 
d="M385 300v-57h-244v-183h304v-60h-369v505h369v-60h-304v-145h244zM203 697l81 -86l79 86h78l-122 -129h-72l-126 129h82z" />
    <glyph glyph-name="Edotaccentsmall" horiz-adv-x="491" 
d="M385 300v-57h-244v-183h304v-60h-369v505h369v-60h-304v-145h244zM278 657q24 0 32.5 -7t8.5 -32q0 -27 -8.5 -35t-32.5 -8q-25 0 -33.5 8t-8.5 35q0 25 8.5 32t33.5 7z" />
    <glyph glyph-name="Ebrevesmall" horiz-adv-x="491" 
d="M385 300v-57h-244v-183h304v-60h-369v505h369v-60h-304v-145h244zM139 697h54q0 -40 18.5 -54.5t60.5 -14.5t61 14.5t19 54.5h52q0 -126 -133 -126q-132 0 -132 126z" />
    <glyph glyph-name="Gacutesmall" horiz-adv-x="552" 
d="M418 62v160h-142v55h208v-256q-30 -13 -79.5 -24t-87.5 -11q-127 0 -190.5 60.5t-63.5 208.5q0 147 64 205.5t190 58.5q79 0 154 -25l-21 -61q-58 24 -133 24q-96 0 -139 -41t-43 -163q0 -118 43 -161.5t139 -43.5q57 0 101 14zM289 568h-69l119 129h83z" />
    <glyph glyph-name="Gbrevesmall" horiz-adv-x="552" 
d="M418 62v160h-142v55h208v-256q-30 -13 -79.5 -24t-87.5 -11q-127 0 -190.5 60.5t-63.5 208.5q0 147 64 205.5t190 58.5q79 0 154 -25l-21 -61q-58 24 -133 24q-96 0 -139 -41t-43 -163q0 -118 43 -161.5t139 -43.5q57 0 101 14zM172 697h54q0 -40 18.5 -54.5t60.5 -14.5
t61 14.5t19 54.5h52q0 -126 -133 -126q-132 0 -132 126z" />
    <glyph glyph-name="Gcircumflexsmall" horiz-adv-x="552" 
d="M418 62v160h-142v55h208v-256q-30 -13 -79.5 -24t-87.5 -11q-127 0 -190.5 60.5t-63.5 208.5q0 147 64 205.5t190 58.5q79 0 154 -25l-21 -61q-58 24 -133 24q-96 0 -139 -41t-43 -163q0 -118 43 -161.5t139 -43.5q57 0 101 14zM385 568l-81 86l-79 -86h-78l122 129h72
l126 -129h-82z" />
    <glyph glyph-name="Gcommaaccentsmall" horiz-adv-x="552" 
d="M418 62v160h-142v55h208v-256q-30 -13 -79.5 -24t-87.5 -11q-127 0 -190.5 60.5t-63.5 208.5q0 147 64 205.5t190 58.5q79 0 154 -25l-21 -61q-58 24 -133 24q-96 0 -139 -41t-43 -163q0 -118 43 -161.5t139 -43.5q57 0 101 14zM355 -51l-101 -167h-53l70 167h84z" />
    <glyph glyph-name="Gdotaccentsmall" horiz-adv-x="552" 
d="M418 62v160h-142v55h208v-256q-30 -13 -79.5 -24t-87.5 -11q-127 0 -190.5 60.5t-63.5 208.5q0 147 64 205.5t190 58.5q79 0 154 -25l-21 -61q-58 24 -133 24q-96 0 -139 -41t-43 -163q0 -118 43 -161.5t139 -43.5q57 0 101 14zM302 657q24 0 32.5 -7t8.5 -32
q0 -27 -8.5 -35t-32.5 -8q-25 0 -33.5 8t-8.5 35q0 25 8.5 32t33.5 7z" />
    <glyph glyph-name="Germandblssmall" horiz-adv-x="1006" 
d="M906 431q-72 28 -144 28q-70 0 -99.5 -17.5t-29.5 -73.5q0 -38 29 -56t97 -22q99 -7 143 -41t44 -104q0 -88 -46 -123.5t-149 -35.5t-182 27l20 61q26 -12 74.5 -20.5t87.5 -8.5q67 0 95.5 18.5t28.5 75.5q0 42 -26.5 62t-97.5 26q-97 7 -143 37t-46 98q0 86 49 121.5
t151 35.5q73 0 166 -26zM404 431q-72 28 -144 28q-70 0 -99.5 -17.5t-29.5 -73.5q0 -38 29 -56t97 -22q99 -7 143 -41t44 -104q0 -88 -46 -123.5t-149 -35.5t-182 27l20 61q26 -12 74.5 -20.5t87.5 -8.5q67 0 95.5 18.5t28.5 75.5q0 42 -26.5 62t-97.5 26q-97 7 -143 37
t-46 98q0 86 49 121.5t151 35.5q73 0 166 -26z" />
    <glyph glyph-name="Hbarsmall" horiz-adv-x="555" 
d="M9 390v55h67v60h65v-60h273v60h65v-60h67v-55h-67v-390h-65v246h-273v-246h-65v390h-67zM141 303h273v87h-273v-87z" />
    <glyph glyph-name="Hcircumflexsmall" horiz-adv-x="555" 
d="M414 246h-273v-246h-65v505h65v-202h273v202h65v-505h-65v246zM360 568l-81 86l-79 -86h-78l122 129h72l126 -129h-82z" />
    <glyph glyph-name="IJsmall" horiz-adv-x="575" 
d="M141 505v-505h-65v505h65zM499 505v-344q0 -101 -45.5 -138t-119.5 -37q-65 0 -117 22l20 61q44 -23 97 -23q44 0 72 24t28 91v344h65z" />
    <glyph glyph-name="Imacronsmall" horiz-adv-x="217" 
d="M141 505v-505h-65v505h65zM-16 586v58h251v-58h-251z" />
    <glyph glyph-name="Iogoneksmall" horiz-adv-x="217" 
d="M141 505v-505h-65v505h65zM103 12h34q-57 -34 -76 -58.5t-19 -57.5q0 -24 14 -34.5t54 -10.5q55 0 92 30l29 -49q-45 -35 -126 -35q-71 0 -99 21.5t-28 67.5q0 41 31.5 75t93.5 51z" />
    <glyph glyph-name="Itildesmall" horiz-adv-x="217" 
d="M141 505v-505h-65v505h65zM240 689l41 -33q-32 -91 -105 -91q-27 0 -71 33t-67 33q-36 0 -60 -61l-36 35q24 43 47.5 62.5t55.5 19.5q30 0 70.5 -33t63.5 -33q20 0 34 15t27 53z" />
    <glyph glyph-name="Jcircumflexsmall" horiz-adv-x="358" 
d="M282 505v-344q0 -101 -45.5 -138t-119.5 -37q-65 0 -117 22l20 61q44 -23 97 -23q44 0 72 24t28 91v344h65zM326 568l-81 86l-79 -86h-78l122 129h72l126 -129h-82z" />
    <glyph glyph-name="Kcommaaccentsmall" horiz-adv-x="478" 
d="M141 505v-505h-65v505h65zM396 0h84q-200 251 -249 276q60 40 231 229h-84q-179 -199 -237 -238q52 -18 255 -267zM322 -51l-101 -167h-53l70 167h84z" />
    <glyph glyph-name="Lacutesmall" horiz-adv-x="400" 
d="M76 0h321v60h-256v445h-65v-505zM154 568h-69l119 129h83z" />
    <glyph glyph-name="Lcaronsmall" horiz-adv-x="400" 
d="M76 0h321v60h-256v445h-65v-505zM235 548h73l-56 -192h-39z" />
    <glyph glyph-name="Lcommaaccentsmall" horiz-adv-x="400" 
d="M397 0h-321v505h65v-445h256v-60zM283 -51l-101 -167h-53l70 167h84z" />
    <glyph glyph-name="Ldotsmall" horiz-adv-x="400" 
d="M397 0h-321v505h65v-445h256v-60zM261 341q24 0 32.5 -7t8.5 -32q0 -27 -8.5 -35t-32.5 -8q-25 0 -33.5 8t-8.5 35q0 25 8.5 32t33.5 7z" />
    <glyph glyph-name="Nacutesmall" horiz-adv-x="555" 
d="M414 505v-397q-100 174 -273 397h-65v-505h65v411q126 -165 273 -411h65v505h-65zM281 568h-69l119 129h83z" />
    <glyph glyph-name="Ncaronsmall" horiz-adv-x="555" 
d="M414 505v-397q-100 174 -273 397h-65v-505h65v411q126 -165 273 -411h65v505h-65zM205 697l81 -86l79 86h78l-122 -129h-72l-126 129h82z" />
    <glyph glyph-name="Ncommaaccentsmall" horiz-adv-x="555" 
d="M414 108v397h65v-505h-65q-147 246 -273 411v-411h-65v505h65q173 -223 273 -397zM329 -51l-101 -167h-53l70 167h84z" />
    <glyph glyph-name="Obrevesmall" horiz-adv-x="585" 
d="M292 -14q122 0 176 59t54 210q0 150 -54 207t-176 57t-175.5 -57t-53.5 -207q0 -151 53.5 -210t175.5 -59zM292 457q63 0 95 -15t47.5 -59t15.5 -130q0 -121 -33.5 -163t-124.5 -42q-90 0 -123.5 42t-33.5 163q0 125 32.5 164.5t124.5 39.5zM160 697h54q0 -40 18.5 -54.5
t60.5 -14.5t61 14.5t19 54.5h52q0 -126 -133 -126q-132 0 -132 126z" />
    <glyph glyph-name="Ohungarumlautsmall" horiz-adv-x="585" 
d="M292 -14q122 0 176 59t54 210q0 150 -54 207t-176 57t-175.5 -57t-53.5 -207q0 -151 53.5 -210t175.5 -59zM292 457q63 0 95 -15t47.5 -59t15.5 -130q0 -121 -33.5 -163t-124.5 -42q-90 0 -123.5 42t-33.5 163q0 125 32.5 164.5t124.5 39.5zM251 697h75l-107 -129h-53z
M389 697h76l-106 -129h-54z" />
    <glyph glyph-name="Omacronsmall" horiz-adv-x="585" 
d="M292 -14q122 0 176 59t54 210q0 150 -54 207t-176 57t-175.5 -57t-53.5 -207q0 -151 53.5 -210t175.5 -59zM292 457q63 0 95 -15t47.5 -59t15.5 -130q0 -121 -33.5 -163t-124.5 -42q-90 0 -123.5 42t-33.5 163q0 125 32.5 164.5t124.5 39.5zM168 586v58h251v-58h-251z
" />
    <glyph glyph-name="parenleftsmall" horiz-adv-x="297" 
d="M68 250q0 322 190 402l31 -52q-42 -13 -74.5 -48t-55.5 -112.5t-23 -189.5q0 -162 43.5 -245.5t109.5 -103.5l-31 -52q-190 80 -190 401z" />
    <glyph glyph-name="Racutesmall" horiz-adv-x="538" 
d="M325 505q158 0 158 -147q0 -58 -35 -94t-112 -36q37 -8 74 -50t119 -178h-80q-72 131 -116.5 172t-97.5 41h-94v-213h-65v505h249zM141 269h180q48 0 70 22t22 68q0 48 -20.5 67t-67.5 19h-184v-176zM247 568h-69l119 129h83z" />
    <glyph glyph-name="Rcaronsmall" horiz-adv-x="538" 
d="M325 505q158 0 158 -147q0 -58 -35 -94t-112 -36q37 -8 74 -50t119 -178h-80q-72 131 -116.5 172t-97.5 41h-94v-213h-65v505h249zM141 269h180q48 0 70 22t22 68q0 48 -20.5 67t-67.5 19h-184v-176zM196 697l81 -86l79 86h78l-122 -129h-72l-126 129h82z" />
    <glyph glyph-name="Rcommaaccentsmall" horiz-adv-x="538" 
d="M325 505q158 0 158 -147q0 -58 -35 -94t-112 -36q37 -8 74 -50t119 -178h-80q-72 131 -116.5 172t-97.5 41h-94v-213h-65v505h249zM141 269h180q48 0 70 22t22 68q0 48 -20.5 67t-67.5 19h-184v-176zM325 -51l-101 -167h-53l70 167h84z" />
    <glyph glyph-name="sterlingsmall" horiz-adv-x="513" 
d="M47 218v59h57v80q0 162 212 162q86 0 161 -20l-17 -59q-45 20 -143 20q-77 0 -110 -27.5t-33 -87.5v-68h151v-59h-151v-158h291v-60h-361v218h-57z" />
    <glyph glyph-name="summationsmall" horiz-adv-x="495" 
d="M452 445h-299q55 -86 136 -192q-121 -166 -145 -193h310v-60h-418v27q54 65 173 227q-105 145 -158 226v25h401v-60z" />
    <glyph glyph-name="Tbarsmall" horiz-adv-x="481" 
d="M117 218v58h91v169h-198v60h461v-60h-198v-169h95v-58h-95v-218h-65v218h-91z" />
    <glyph glyph-name="Tcommaaccentsmall" horiz-adv-x="481" 
d="M273 445v-445h-65v445h-198v60h461v-60h-198zM287 -51l-101 -167h-53l70 167h84z" />
    <glyph glyph-name="Tcaronsmall" horiz-adv-x="481" 
d="M273 445v-445h-65v445h-198v60h461v-60h-198zM163 697l81 -86l79 86h78l-122 -129h-72l-126 129h82z" />
    <glyph glyph-name="Utildesmall" horiz-adv-x="550" 
d="M474 505v-323q0 -111 -44 -153.5t-155 -42.5t-155 42.5t-44 153.5v323h65v-330q0 -71 27.5 -99t106.5 -28t106.5 28t27.5 99v330h65zM404 689l41 -33q-32 -91 -105 -91q-27 0 -71 33t-67 33q-36 0 -60 -61l-36 35q24 43 47.5 62.5t55.5 19.5q30 0 70.5 -33t63.5 -33
q20 0 34 15t27 53z" />
    <glyph glyph-name="Uringsmall" horiz-adv-x="550" 
d="M474 505v-323q0 -111 -44 -153.5t-155 -42.5t-155 42.5t-44 153.5v323h65v-330q0 -71 27.5 -99t106.5 -28t106.5 28t27.5 99v330h65zM276 738q110 0 110 -94t-110 -94q-109 0 -109 94q0 48 25 71t84 23zM276 693q-32 0 -44.5 -12.5t-12.5 -38.5q0 -52 57 -52q59 0 59 52
q0 26 -13 38.5t-46 12.5z" />
    <glyph glyph-name="Uogoneksmall" horiz-adv-x="550" 
d="M474 505v-323q0 -111 -44 -153.5t-155 -42.5t-155 42.5t-44 153.5v323h65v-330q0 -71 27.5 -99t106.5 -28t106.5 28t27.5 99v330h65zM358 12h34q-57 -34 -76 -58.5t-19 -57.5q0 -24 14 -34.5t54 -10.5q55 0 92 30l29 -49q-45 -35 -126 -35q-71 0 -99 21.5t-28 67.5
q0 41 31.5 75t93.5 51z" />
    <glyph glyph-name="Umacronsmall" horiz-adv-x="550" 
d="M474 505v-323q0 -111 -44 -153.5t-155 -42.5t-155 42.5t-44 153.5v323h65v-330q0 -71 27.5 -99t106.5 -28t106.5 28t27.5 99v330h65zM155 586v58h251v-58h-251z" />
    <glyph glyph-name="Ubrevesmall" horiz-adv-x="550" 
d="M474 505v-323q0 -111 -44 -153.5t-155 -42.5t-155 42.5t-44 153.5v323h65v-330q0 -71 27.5 -99t106.5 -28t106.5 28t27.5 99v330h65zM147 697h54q0 -40 18.5 -54.5t60.5 -14.5t61 14.5t19 54.5h52q0 -126 -133 -126q-132 0 -132 126z" />
    <glyph glyph-name="Uhungarumlautsmall" horiz-adv-x="550" 
d="M474 505v-323q0 -111 -44 -153.5t-155 -42.5t-155 42.5t-44 153.5v323h65v-330q0 -71 27.5 -99t106.5 -28t106.5 28t27.5 99v330h65zM241 697h75l-107 -129h-53zM379 697h76l-106 -129h-54z" />
    <glyph glyph-name="yensmall" horiz-adv-x="473" 
d="M58 225v48h121q-87 120 -184 232h79q62 -72 165 -215q78 89 162 215h77q-88 -121 -181 -232h114v-48h-142v-68h142v-48h-142v-109h-65v109h-146v48h146v68h-146z" />
    <glyph glyph-name="Ycircumflexsmall" horiz-adv-x="473" 
d="M269 235v-235h-65v235q-109 152 -211 270h83q73 -86 163 -215q73 84 161 215h80q-98 -136 -211 -270zM323 568l-81 86l-79 -86h-78l122 129h72l126 -129h-82z" />
    <glyph glyph-name="zerosmall" horiz-adv-x="545" 
d="M272 -14q-108 0 -158.5 59.5t-50.5 209.5q0 148 50.5 206t158.5 58t159 -58t51 -206q0 -150 -51 -209.5t-159 -59.5zM272 459q-77 0 -107 -41t-30 -165q0 -120 30.5 -163.5t106.5 -43.5t107 43.5t31 163.5q0 124 -30 165t-108 41z" />
    <glyph glyph-name="onesmall" horiz-adv-x="545" 
d="M350 0h-65v425l-156 -82l-24 54l245 122v-519z" />
    <glyph glyph-name="twosmall" horiz-adv-x="545" 
d="M174 60h289v-60h-391v55q149 97 211 145.5t81.5 80t19.5 77.5q0 52 -31.5 74t-109.5 22q-34 0 -78.5 -6.5t-62.5 -15.5l-18 67q84 20 160 20q116 0 167 -39t51 -122q0 -76 -57.5 -137.5t-230.5 -160.5z" />
    <glyph glyph-name="foursmall" horiz-adv-x="545" 
d="M340 197v263q-128 -163 -194 -263h194zM299 505h112v-308h99v-59h-99v-138h-71v138h-294v15q101 160 253 352z" />
    <glyph glyph-name="fivesmall" horiz-adv-x="545" 
d="M162 445v-144q56 4 99 4q115 0 166.5 -38.5t51.5 -121.5q0 -88 -56.5 -123.5t-176.5 -35.5q-117 0 -183 21l19 58q64 -19 164 -19q88 0 125.5 22.5t37.5 73.5q0 58 -34.5 83t-113.5 25q-100 0 -165 -13v268h361v-60h-295z" />
    <glyph glyph-name="sixsmall" horiz-adv-x="545" 
d="M486 497l-17 -59q-62 20 -136 20q-107 0 -151.5 -31.5t-48.5 -132.5q78 13 157 13q121 0 169.5 -38t48.5 -123q0 -89 -50.5 -124.5t-166.5 -35.5q-126 0 -176.5 57.5t-50.5 211.5q0 145 65.5 204.5t202.5 59.5q74 0 154 -22zM292 45q88 0 118 22.5t30 78.5q0 63 -31 84.5
t-122 21.5q-82 0 -154 -12q1 -82 20 -125t50.5 -56.5t88.5 -13.5z" />
    <glyph glyph-name="sevensmall" horiz-adv-x="545" 
d="M504 505v-20q-70 -90 -146 -226.5t-129 -258.5h-75q54 117 125 241t128 204h-346v60h443z" />
    <glyph glyph-name="eightsmall" horiz-adv-x="545" 
d="M272 303q79 0 114.5 17t35.5 62q0 42 -32.5 59.5t-117.5 17.5t-117.5 -17.5t-32.5 -59.5q0 -45 35.5 -62t114.5 -17zM272 46q94 0 128.5 22t34.5 80q0 52 -39.5 75t-123.5 23t-123.5 -23t-39.5 -75q0 -58 34.5 -80t128.5 -22zM272 519q114 0 165.5 -30.5t51.5 -93.5
q0 -53 -26.5 -85.5t-96.5 -38.5q138 -6 138 -134q0 -83 -56.5 -117t-175.5 -34t-175.5 34t-56.5 117q0 128 138 134q-70 6 -96.5 38.5t-26.5 85.5q0 63 51.5 93.5t165.5 30.5z" />
    <glyph glyph-name="ninesmall" horiz-adv-x="545" 
d="M268 195q-125 0 -172.5 35.5t-47.5 121.5q0 90 52 129t171 39q125 0 175.5 -46t50.5 -145q0 -37 -9.5 -71t-30.5 -64.5t-40.5 -54t-54 -52t-55.5 -44l-60 -43.5h-101q77 52 153 114.5t94 91.5q-97 -11 -125 -11zM428 329q0 73 -35.5 103t-121.5 30q-92 0 -122.5 -26
t-30.5 -86q0 -61 27 -79t123 -18q63 0 147 12q13 32 13 64z" />
    <glyph glyph-name="threesmall" horiz-adv-x="545" 
d="M333 271q138 -6 138 -134q0 -83 -56.5 -117t-175.5 -34q-101 0 -165 21l19 59q56 -20 146 -20q94 0 128.5 22t34.5 80q0 53 -35.5 75.5t-118.5 22.5h-75v57h75q78 0 111.5 17t33.5 62q0 42 -32.5 59.5t-117.5 17.5q-91 0 -145 -20l-18 60q68 20 163 20q114 0 165.5 -30.5
t51.5 -93.5q0 -114 -127 -124z" />
    <glyph glyph-name="atsmall" horiz-adv-x="729" 
d="M351 380q59 0 104 -7q-3 55 -31 76t-92 21q-80 0 -120.5 -16t-60.5 -62.5t-20 -138.5q0 -127 49 -170t185 -43q134 0 185 48.5t51 184.5q0 105 -20 163h68q17 -50 17 -164q0 -163 -70.5 -225t-230.5 -62q-162 0 -232 57.5t-70 212.5q0 154 62.5 211.5t199.5 57.5
q53 0 84.5 -6.5t57.5 -26.5t36.5 -60.5t10.5 -105.5q0 -82 -16.5 -125t-47.5 -57t-90 -14q-87 0 -121.5 25t-34.5 99q0 75 34 101t113 26zM365 329q-58 0 -77 -13t-19 -58q0 -46 19.5 -61.5t72.5 -15.5q54 0 74 22t20 86v34q-52 6 -90 6z" />
    <glyph glyph-name="backslashsmall" horiz-adv-x="427" 
d="M-4 505h79l352 -505h-77z" />
    <glyph glyph-name="slashsmall" horiz-adv-x="427" 
d="M347 505h79l-354 -505h-77z" />
    <glyph glyph-name="barsmall" horiz-adv-x="311" 
d="M120 621h71v-737h-71v737z" />
    <glyph glyph-name="bracketrightsmall" horiz-adv-x="323" 
d="M37 637h200v-774h-200v57h131v659h-131v58z" />
    <glyph glyph-name="bracerightsmall" horiz-adv-x="321" 
d="M294 274v1v-54q-49 0 -76 -32t-27 -119q0 -96 -39 -151t-105 -69l-24 51q35 8 55.5 22t33.5 50t13 97q0 87 26.5 128.5t58.5 49.5q-32 7 -58.5 48.5t-26.5 128.5q0 61 -13 97t-33.5 50t-55.5 22l24 51q66 -14 105 -69t39 -151q0 -87 27 -119t76 -32z" />
    <glyph glyph-name="Cdotaccentsmall" horiz-adv-x="466" 
d="M430 74l21 -60q-63 -28 -144 -28q-124 0 -184 60t-60 209q0 148 60 206t184 58q80 0 144 -25l-21 -61q-51 24 -123 24q-47 0 -77 -8t-52.5 -29.5t-32.5 -62t-10 -104.5q0 -119 39.5 -162t132.5 -43q65 0 123 26zM301 657q24 0 32.5 -7t8.5 -32q0 -27 -8.5 -35t-32.5 -8
q-25 0 -33.5 8t-8.5 35q0 25 8.5 32t33.5 7z" />
    <glyph glyph-name="Cacutesmall" horiz-adv-x="466" 
d="M430 74l21 -60q-63 -28 -144 -28q-124 0 -184 60t-60 209q0 148 60 206t184 58q80 0 144 -25l-21 -61q-51 24 -123 24q-47 0 -77 -8t-52.5 -29.5t-32.5 -62t-10 -104.5q0 -119 39.5 -162t132.5 -43q65 0 123 26zM279 568h-69l119 129h83z" />
    <glyph glyph-name="Ccaronsmall" horiz-adv-x="466" 
d="M430 74l21 -60q-63 -28 -144 -28q-124 0 -184 60t-60 209q0 148 60 206t184 58q80 0 144 -25l-21 -61q-51 24 -123 24q-47 0 -77 -8t-52.5 -29.5t-32.5 -62t-10 -104.5q0 -119 39.5 -162t132.5 -43q65 0 123 26zM216 697l81 -86l79 86h78l-122 -129h-72l-126 129h82z" />
    <glyph glyph-name="centsmall" horiz-adv-x="466" 
d="M205 519h55v-76q50 -3 100 -19l-19 -52q-35 16 -81 19v-270q40 3 81 20l19 -51q-43 -18 -100 -22v-82h-55v85q-74 8 -110.5 50.5t-36.5 135.5q0 92 36.5 134.5t110.5 49.5v78zM121 256q0 -65 20.5 -95t63.5 -37v264q-44 -6 -64 -35.5t-20 -96.5z" />
    <glyph glyph-name="daggersmall" horiz-adv-x="420" 
d="M30 451v54h150v153h60v-153h150v-54h-150v-253h-60v253h-150z" />
    <glyph glyph-name="degreesmall" horiz-adv-x="348" 
d="M174 177q-77 0 -110.5 37.5t-33.5 136.5q0 97 33 132.5t111 35.5q79 0 111.5 -35.5t32.5 -132.5q0 -99 -33 -136.5t-111 -37.5zM174 471q-49 0 -66 -25t-17 -97q0 -69 17.5 -96.5t65.5 -27.5q49 0 66 27t17 97q0 73 -16 97.5t-67 24.5z" />
    <glyph glyph-name="dollarsmall" horiz-adv-x="556" 
d="M248 614h58v-107q80 0 145 -18l-19 -57q-38 17 -126 19v-168q85 -10 124 -44.5t39 -99.5q0 -127 -163 -145v-107h-58v108q-89 0 -153 17l22 59q54 -18 131 -20v180q-84 8 -122.5 39.5t-38.5 93.5q0 127 161 143v107zM403 139q0 37 -21 56.5t-76 28.5v-173q97 10 97 88z
M155 365q0 -34 21 -51.5t72 -24.5v162q-93 -10 -93 -86z" />
    <glyph glyph-name="numbersignsmall" horiz-adv-x="559" 
d="M41 327l4 55h111l7 123h64l-7 -123h125l7 123h64l-7 -123h118l-4 -55h-118l-8 -134h121l-4 -54h-120l-9 -139h-64l9 139h-125l-9 -139h-64l9 139h-109l4 54h108l8 134h-111zM216 327l-8 -134h125l8 134h-125z" />
    <glyph glyph-name="parenrightsmall" horiz-adv-x="297" 
d="M229 250q0 -322 -190 -402l-31 52q42 13 74.5 48t55.5 112.5t23 189.5q0 162 -43.5 245.5t-109.5 103.5l31 52q190 -80 190 -401z" />
    <glyph glyph-name="percentsmall" horiz-adv-x="784" 
d="M174 177q-77 0 -110.5 37.5t-33.5 136.5q0 97 33 132.5t111 35.5q79 0 111.5 -35.5t32.5 -132.5q0 -99 -33 -136.5t-111 -37.5zM174 471q-49 0 -66 -25t-17 -97q0 -69 17.5 -96.5t65.5 -27.5q49 0 66 27t17 97q0 73 -16 97.5t-67 24.5zM530 505h75l-354 -505h-73z
M610 -14q-77 0 -110.5 37.5t-33.5 136.5q0 97 33 132.5t111 35.5q79 0 111.5 -35.5t32.5 -132.5q0 -99 -33 -136.5t-111 -37.5zM610 280q-49 0 -66 -25t-17 -97q0 -69 17.5 -96.5t65.5 -27.5q49 0 66 27t17 97q0 73 -16 97.5t-67 24.5z" />
    <glyph glyph-name="sectionsmall" horiz-adv-x="461" 
d="M385 501l-17 -51q-44 17 -119 17q-67 0 -99.5 -13t-32.5 -50q0 -27 25 -40.5t89 -17.5q90 -6 133 -31.5t43 -78.5q0 -35 -27 -68q26 -22 26 -66q0 -116 -193 -116q-71 0 -137 17l17 52q44 -17 119 -17q67 0 99.5 13t32.5 50q0 27 -25 40.5t-89 17.5q-90 6 -133 31.5
t-43 78.5q0 34 26 68q-25 22 -25 66q0 116 193 116q68 0 137 -18zM125 313q-10 -24 -10 -43q0 -29 28 -43.5t94 -18.5q64 -3 99 -15q10 28 10 42q0 29 -28 43.5t-94 18.5q-65 3 -99 16z" />
    <glyph glyph-name="Sacutesmall" horiz-adv-x="504" 
d="M404 431q-72 28 -144 28q-70 0 -99.5 -17.5t-29.5 -73.5q0 -38 29 -56t97 -22q99 -7 143 -41t44 -104q0 -88 -46 -123.5t-149 -35.5t-182 27l20 61q26 -12 74.5 -20.5t87.5 -8.5q67 0 95.5 18.5t28.5 75.5q0 42 -26.5 62t-97.5 26q-97 7 -143 37t-46 98q0 86 49 121.5
t151 35.5q73 0 166 -26zM239 568h-69l119 129h83z" />
    <glyph glyph-name="Scedillasmall" horiz-adv-x="504" 
d="M404 431q-72 28 -144 28q-70 0 -99.5 -17.5t-29.5 -73.5q0 -38 29 -56t97 -22q99 -7 143 -41t44 -104q0 -88 -46 -123.5t-149 -35.5t-182 27l20 61q26 -12 74.5 -20.5t87.5 -8.5q67 0 95.5 18.5t28.5 75.5q0 42 -26.5 62t-97.5 26q-97 7 -143 37t-46 98q0 86 49 121.5
t151 35.5q73 0 166 -26zM218 0h34v-47q70 0 94.5 -15t24.5 -60q0 -46 -28 -63.5t-97 -17.5q-70 0 -106 21l18 42q34 -17 88 -17q33 0 45 6.5t12 27.5q0 22 -24.5 28.5t-96.5 2.5z" />
    <glyph glyph-name="Scircumflexsmall" horiz-adv-x="504" 
d="M404 431q-72 28 -144 28q-70 0 -99.5 -17.5t-29.5 -73.5q0 -38 29 -56t97 -22q99 -7 143 -41t44 -104q0 -88 -46 -123.5t-149 -35.5t-182 27l20 61q26 -12 74.5 -20.5t87.5 -8.5q67 0 95.5 18.5t28.5 75.5q0 42 -26.5 62t-97.5 26q-97 7 -143 37t-46 98q0 86 49 121.5
t151 35.5q73 0 166 -26zM336 568l-81 86l-79 -86h-78l122 129h72l126 -129h-82z" />
    <glyph glyph-name="Scommaaccentsmall" horiz-adv-x="504" 
d="M404 431q-72 28 -144 28q-70 0 -99.5 -17.5t-29.5 -73.5q0 -38 29 -56t97 -22q99 -7 143 -41t44 -104q0 -88 -46 -123.5t-149 -35.5t-182 27l20 61q26 -12 74.5 -20.5t87.5 -8.5q67 0 95.5 18.5t28.5 75.5q0 42 -26.5 62t-97.5 26q-97 7 -143 37t-46 98q0 86 49 121.5
t151 35.5q73 0 166 -26zM307 -51l-101 -167h-53l70 167h84z" />
    <glyph glyph-name="Wcircumflexsmall" horiz-adv-x="813" 
d="M787 505q-70 -265 -172 -505h-92q-54 261 -112 430q-54 -218 -130 -430h-92q-80 296 -164 505h77q74 -193 136 -443q33 92 74 230.5t57 212.5h83q57 -165 120 -443q97 256 142 443h73zM489 568l-81 86l-79 -86h-78l122 129h72l126 -129h-82z" />
    <glyph glyph-name="Zacutesmall" horiz-adv-x="495" 
d="M36 0v27q207 250 315 418h-299v60h401v-25q-68 -103 -162 -231t-147 -189h310v-60h-418zM269 568h-69l119 129h83z" />
    <glyph glyph-name="Zdotaccentsmall" horiz-adv-x="495" 
d="M36 0v27q207 250 315 418h-299v60h401v-25q-68 -103 -162 -231t-147 -189h310v-60h-418zM254 657q24 0 32.5 -7t8.5 -32q0 -27 -8.5 -35t-32.5 -8q-25 0 -33.5 8t-8.5 35q0 25 8.5 32t33.5 7z" />
    <glyph glyph-name="zeroop" horiz-adv-x="575" 
d="M292 -14q-116 0 -172.5 60t-56.5 209q0 148 56.5 206t172.5 58q115 0 167.5 -57.5t52.5 -206.5q0 -150 -52.5 -209.5t-167.5 -59.5zM292 459q-91 0 -124 -40t-33 -166q0 -121 33.5 -164t123.5 -43q89 0 118.5 41.5t29.5 165.5q0 128 -29 167t-119 39z" />
    <glyph glyph-name="oneop" horiz-adv-x="326" 
d="M250 0h-65v425l-156 -82l-24 54l245 122v-519z" />
    <glyph glyph-name="twoop" horiz-adv-x="530" 
d="M153 60h322v-60h-424v55q145 80 218 131t99.5 88t26.5 82q0 53 -33 75.5t-124 22.5q-36 0 -87.5 -7t-69.5 -15l-16 67q84 20 174 20q129 0 180.5 -38t51.5 -123q0 -77 -73.5 -149t-244.5 -149z" />
    <glyph glyph-name="threeop" horiz-adv-x="571" 
d="M346 183q92 -4 127 -51.5t35 -128.5q0 -114 -64.5 -160t-208.5 -46q-97 0 -213 29l17 56q79 -24 196 -24q114 0 155 32.5t41 114.5t-41 114.5t-143 32.5h-80v59h80q92 0 132.5 30t40.5 99q0 65 -38 91.5t-142 26.5q-112 0 -192 -26l-18 60q126 27 210 27q138 0 196 -41.5
t58 -128.5q0 -72 -31 -115t-117 -51z" />
    <glyph glyph-name="fourop" horiz-adv-x="551" 
d="M372 59v401q-109 -134 -256 -401h256zM443 505v-446h99v-59h-99v-192h-71v192h-353v15q164 304 309 490h115z" />
    <glyph glyph-name="fiveop" horiz-adv-x="588" 
d="M158 445v-222q51 6 113 6q140 0 197 -49.5t57 -164.5q0 -122 -63 -170t-208 -48q-81 0 -199 29l18 56q78 -24 181 -24q114 0 154 33t40 115q0 92 -36.5 127t-140.5 35q-105 0 -183 -19v356h394v-60h-324z" />
    <glyph glyph-name="sixop" horiz-adv-x="637" 
d="M552 685l-23 -64q-69 28 -156 28q-63 0 -101.5 -9t-70 -35t-46 -75.5t-17.5 -128.5q85 17 181 17q140 0 197.5 -49.5t57.5 -164.5q0 -122 -58 -170t-192 -48q-98 0 -153 32.5t-81.5 112t-26.5 222.5q0 106 19 176.5t60 111t95.5 57t134.5 16.5q88 0 180 -29zM324 47
q103 0 138 32.5t35 115.5q0 92 -37 127t-141 35q-101 0 -181 -18q1 -90 12 -147.5t36 -89t57 -43.5t81 -12z" />
    <glyph glyph-name="sevenop" horiz-adv-x="479" 
d="M480 505v-26q-80 -129 -168 -320.5t-144 -350.5h-82q62 171 145 348.5t153 288.5h-397v60h493z" />
    <glyph glyph-name="eightop" 
d="M311 47q97 0 134.5 33t37.5 114q0 82 -40 116t-132 34t-131.5 -34t-39.5 -116q0 -81 37 -114t134 -33zM311 403q82 0 118.5 31t36.5 101q0 64 -34.5 91t-120.5 27t-120.5 -27t-34.5 -91q0 -70 36.5 -101t118.5 -31zM311 -14q-126 0 -187 47t-61 159q0 81 35.5 130
t127.5 53q-85 8 -114.5 51.5t-29.5 117.5q0 86 54 128t175 42t175.5 -42t54.5 -128q0 -74 -29.5 -117.5t-114.5 -51.5q91 -4 126.5 -53t35.5 -130q0 -113 -60.5 -159.5t-187.5 -46.5z" />
    <glyph glyph-name="nineop" horiz-adv-x="630" 
d="M318 87q-143 0 -199 44t-56 157q0 123 59 177t191 54q146 0 200 -49.5t54 -193.5q0 -75 -23 -144t-66.5 -128.5t-84.5 -102.5t-98 -93h-100q94 78 158 146.5t100 142.5q-80 -10 -135 -10zM493 264q0 53 -7 89t-19.5 57t-36.5 32t-49.5 14t-67.5 3q-102 0 -137.5 -38.5
t-35.5 -124.5q0 -89 35.5 -118t142.5 -29q92 0 160 13q15 48 15 102z" />
    <glyph glyph-name="two.alt" horiz-adv-x="588" 
d="M140 60h378v-60h-466q7 69 27.5 124.5t45.5 90.5t64 65t68 45.5t73 34.5q64 29 91.5 63t27.5 96q0 75 -40 102.5t-135 27.5q-45 0 -97.5 -7.5t-76.5 -19.5l-18 65q110 27 193 27q130 0 190 -45t60 -150q0 -79 -39.5 -127.5t-128.5 -89.5q-52 -24 -82.5 -41.5t-62 -45.5
t-48.5 -65.5t-24 -89.5z" />
    <glyph glyph-name="Ccircumflexsmall" horiz-adv-x="466" 
d="M430 74l21 -60q-63 -28 -144 -28q-124 0 -184 60t-60 209q0 148 60 206t184 58q80 0 144 -25l-21 -61q-51 24 -123 24q-47 0 -77 -8t-52.5 -29.5t-32.5 -62t-10 -104.5q0 -119 39.5 -162t132.5 -43q65 0 123 26zM368 568l-81 86l-79 -86h-78l122 129h72l126 -129h-82z
" />
    <glyph glyph-name="ccaront" horiz-adv-x="859" 
d="M568 445v-276q0 -108 35 -145.5t124 -37.5q56 0 111 19l-15 58q-40 -15 -96 -15q-52 0 -73 28t-21 94v275h187v60h-187v133l-65 -27v-106q-50 0 -148 7t-113 7q-124 0 -184 -58t-60 -206q0 -149 60 -209t184 -60q81 0 144 28l-21 60q-58 -26 -123 -26q-93 0 -132.5 43
t-39.5 162q0 64 10 104.5t32.5 62t52.5 29.5t77 8q15 0 113 -6t148 -6zM225 697l81 -86l79 86h78l-122 -129h-72l-126 129h82z" />
    <glyph glyph-name="scaront" horiz-adv-x="887" 
d="M596 169v276q-70 1 -194 7.5t-142 6.5q-70 0 -99.5 -17.5t-29.5 -73.5q0 -38 29 -56t97 -22q99 -7 143 -41t44 -104q0 -88 -46 -123.5t-149 -35.5t-182 27l20 61q26 -12 74.5 -20.5t87.5 -8.5q67 0 95.5 18.5t28.5 75.5q0 42 -26.5 62t-97.5 26q-97 7 -143 37t-46 98
q0 86 49 121.5t151 35.5q17 0 146 -7t190 -7v106l65 27v-133h187v-60h-187v-275q0 -66 21 -94t73 -28q55 0 96 15l15 -58q-55 -19 -111 -19q-89 0 -124 37.5t-35 145.5zM178 697l81 -86l79 86h78l-122 -129h-72l-126 129h82z" />
    <glyph glyph-name="ampersandsmall.2" horiz-adv-x="660" 
d="M212 273q-71 6 -99 34.5t-28 78.5q0 133 218 133q95 0 163 -20l-18 -60q-54 20 -145 20q-85 0 -117.5 -16.5t-32.5 -58.5q0 -45 33.5 -62t111.5 -17h339v-57h-137v-233q-94 -29 -193 -29q-119 0 -175.5 34t-56.5 117q0 130 137 136zM144 150q0 -58 34.5 -81t128.5 -23
q75 0 128 14v188h-144q-79 0 -113 -23t-34 -75z" />
    <glyph glyph-name="man" horiz-adv-x="524" 
d="M345 419v-611h-76v372h-13v-372h-76v611q-22 -1 -29 -10.5t-7 -37.5v-191h-94v194q0 83 41 109t171 26q129 0 170.5 -26t41.5 -109v-194h-94v191q0 28 -6.5 37.5t-28.5 10.5zM262 721q61 0 82 -16.5t21 -72.5q0 -63 -21 -82t-82 -19q-63 0 -84.5 19t-21.5 82
q0 56 21.5 72.5t84.5 16.5z" />
    <glyph glyph-name="woman" horiz-adv-x="524" 
d="M324 419v-239q104 -241 180 -372h-484q130 284 180 372v239q-36 -1 -46 -10t-10 -38v-191h-74v194q0 83 38 109t154 26q115 0 153.5 -26.5t38.5 -108.5v-194h-74v191q0 29 -10 38t-46 10zM262 721q61 0 82 -16.5t21 -72.5q0 -63 -21 -82t-82 -19q-63 0 -84.5 19t-21.5 82
q0 56 21.5 72.5t84.5 16.5z" />
    <glyph glyph-name="escaperight" horiz-adv-x="1267" 
d="M446 509q13 -60 73 -118t137 -58l-14 -80q-73 0 -133.5 36.5t-88.5 99.5l-49 -229q107 -2 154.5 -72t11.5 -220h-84q32 120 0 170.5t-152 50.5q-37 -128 -102 -182.5t-177 -54.5l18 77q68 0 111.5 41t66.5 149l65 308q-39 0 -74.5 -41.5t-52.5 -132.5h-82
q31 127 80.5 191.5t144.5 64.5h147zM1245 293l-273 -256l-54 57l163 159h-388l13 80h375l-163 159l54 57zM530 531h-74q-63 0 -84.5 19t-21.5 82q0 56 21.5 72.5t84.5 16.5t85 -18t11 -71z" />
    <glyph glyph-name="noentry" horiz-adv-x="853" 
d="M838 0h-124l-215 215v-407h-66v372h-13v-372h-66v407l-215 -215h-124l199 202v172q0 71 28 99l-223 224h133l187 -191q37 3 87 3q54 0 86 -4l189 192h133l-224 -225q28 -27 28 -98v-171zM426 721q61 0 82 -16.5t21 -72.5q0 -63 -21 -82t-82 -19q-63 0 -84.5 19t-21.5 82
q0 56 21.5 72.5t84.5 16.5zM308 371v-73l46 47v16l-42 41q-4 -7 -4 -31zM544 371q0 22 -4 31l-41 -41v-16l45 -46v72z" />
    <glyph glyph-name="escapeleft" horiz-adv-x="1267" 
d="M821 509h147q95 0 144.5 -64.5t80.5 -191.5h-82q-17 91 -52.5 132.5t-74.5 41.5l65 -308q23 -108 66.5 -149t111.5 -41l18 -77q-112 0 -177 54.5t-102 182.5q-120 0 -152 -50.5t0 -170.5h-84q-36 150 11.5 220t154.5 72l-49 229q-28 -63 -88.5 -99.5t-133.5 -36.5l-14 80
q77 0 137 58t73 118zM295 37l-273 256l273 256l54 -57l-163 -159h375l13 -80h-388l163 -159zM811 531h-74l-22 101q-11 53 11 71t85 18t84.5 -16.5t21.5 -72.5q0 -63 -21.5 -82t-84.5 -19z" />
    <glyph glyph-name="manneg" horiz-adv-x="684" 
d="M426 -192v611q22 -1 28.5 -10.5t6.5 -37.5v-191h94v194q0 83 -41.5 109t-170.5 26q-130 0 -171 -26t-41 -109v-194h94v191q0 28 7 37.5t29 10.5v-611h76v372h13v-372h76zM343 721q-63 0 -84.5 -16.5t-21.5 -72.5q0 -63 21.5 -82t84.5 -19q61 0 82 19t21 82q0 56 -21 72.5
t-82 16.5zM551 -232h-418q-61 0 -82 19t-21 82v803q0 56 21 72.5t82 16.5h418q61 0 82 -16.5t21 -72.5v-803q0 -63 -21 -82t-82 -19z" />
    <glyph glyph-name="womanneg" horiz-adv-x="684" 
d="M405 180v239q36 -1 46 -10t10 -38v-191h74v194q0 82 -38.5 108.5t-153.5 26.5q-116 0 -154 -26t-38 -109v-194h74v191q0 29 10 38t46 10v-239q-50 -88 -180 -372h484q-76 131 -180 372zM343 721q-63 0 -84.5 -16.5t-21.5 -72.5q0 -63 21.5 -82t84.5 -19q61 0 82 19t21 82
q0 56 -21 72.5t-82 16.5zM551 -232h-418q-61 0 -82 19t-21 82v803q0 56 21 72.5t82 16.5h418q61 0 82 -16.5t21 -72.5v-803q0 -63 -21 -82t-82 -19z" />
    <glyph glyph-name="escaperightneg" horiz-adv-x="1373" 
d="M1240 -232h-1107q-61 0 -82 19t-21 82v803q0 56 21 72.5t82 16.5h1107q61 0 82 -16.5t21 -72.5v-803q0 -63 -21 -82t-82 -19zM505 509h-147q-95 0 -144.5 -64.5t-80.5 -191.5h82q17 91 52.5 132.5t74.5 41.5l-65 -308q-23 -108 -66.5 -149t-111.5 -41l-18 -77
q112 0 177 54.5t102 182.5q120 0 152 -50.5t0 -170.5h84q36 150 -11.5 220t-154.5 72l49 229q28 -63 88.5 -99.5t133.5 -36.5l14 80q-77 0 -137 58t-73 118zM1031 37l273 256l-273 256l-54 -57l163 -159h-375l-13 -80h388l-163 -159zM515 531h74l22 101q11 53 -11 71t-85 18
t-84.5 -16.5t-21.5 -72.5q0 -63 21.5 -82t84.5 -19z" />
    <glyph glyph-name="escapeleftneg" horiz-adv-x="1373" 
d="M1240 -232h-1107q-61 0 -82 19t-21 82v803q0 56 21 72.5t82 16.5h1107q61 0 82 -16.5t21 -72.5v-803q0 -63 -21 -82t-82 -19zM868 509q-13 -60 -73 -118t-137 -58l14 -80q73 0 133.5 36.5t88.5 99.5l49 -229q-107 -2 -154.5 -72t-11.5 -220h84q-32 120 0 170.5t152 50.5
q37 -128 102 -182.5t177 -54.5l-18 77q-68 0 -111.5 41t-66.5 149l-65 308q39 0 74.5 -41.5t52.5 -132.5h82q-31 127 -80.5 191.5t-144.5 64.5h-147zM69 293l273 -256l54 57l-163 159h388l-13 80h-375l163 159l-54 57zM784 531h74q63 0 84.5 19t21.5 82q0 56 -21.5 72.5
t-84.5 16.5t-85 -18t-11 -71z" />
    <glyph glyph-name="noentryneg" horiz-adv-x="960" 
d="M827 -232h-694q-61 0 -82 19t-21 82v803q0 56 21 72.5t82 16.5h694q61 0 82 -16.5t21 -72.5v-803q0 -63 -21 -82t-82 -19zM767 0h124l-200 203v171q0 71 -28 98l224 225h-133l-189 -192q-32 4 -86 4q-49 0 -87 -3l-187 191h-133l223 -224q-28 -28 -28 -99v-172l-199 -202
h124l215 215v-407h66v372h13v-372h66v407zM479 721q-63 0 -84.5 -16.5t-21.5 -72.5q0 -63 21.5 -82t84.5 -19q61 0 82 19t21 82q0 56 -21 72.5t-82 16.5zM361 298v73q0 24 4 31l42 -41v-16zM597 371v-72l-45 46v16l41 41q4 -9 4 -31z" />
    <glyph glyph-name="trash" horiz-adv-x="1068" 
d="M171 334h46l20 -127h294l21 127h46l-85 -526h-257zM803 509l76 -329v-372h-66v372h-13l-60 -372h-66l60 372l-58 249h-363l-14 80h504zM684 531h-74l-22 101q-11 53 11 71t85 18t84.5 -16.5t21.5 -72.5q0 -63 -21.5 -82t-84.5 -19zM343 412q42 -46 160 -46l-83 -122
q-44 3 -83.5 40t-39.5 62q0 9 7 21t15.5 21t16.5 16zM245 162l19 -122h98v122h-117zM407 162v-122h97l20 122h-117zM272 -5l23 -142h67v142h-90zM407 -5v-142h67l23 142h-90z" />
    <glyph glyph-name="material" horiz-adv-x="1068" 
d="M904 258l130 -226q18 -31 18 -73q0 -64 -44 -107.5t-107 -43.5h-239v-122l-183 162l183 161v-122h239q29 0 50.5 21t21.5 51q0 20 -8 33l-130 227zM425 -192h-260q-56 0 -97 37.5t-48.5 87.5t17.5 102l119 207l-105 61l232 78l48 -239l-106 61l-120 -207
q-20 -33 -0.5 -70.5t59.5 -37.5h261v-80zM277 452l130 225q28 49 80 65.5t102.5 -2.5t77.5 -66l120 -206l105 60l-48 -240l-231 78l106 62l-119 207q-19 33 -60 35.5t-63 -32.5l-131 -226z" />
    <glyph glyph-name="recycling" horiz-adv-x="1068" 
d="M30 256q0 208 148 356t356 148t356 -148t148 -356t-148 -356t-356 -148t-356 148t-148 356zM534 739q-131 0 -242.5 -64.5t-177 -176t-65.5 -242.5t65 -242.5t176.5 -176.5t242.5 -65q-193 0 -327 127q-112 106 -134 252q-24 156 71 270q121 147 391 159v159
q95 -61 165 -126.5t137 -155.5q-140 -179 -302 -282v161q-162 -103 -302 -282q67 -90 137 -155.5t165 -126.5v159q276 12 396 166q91 116 63 272q-25 145 -139 249q-133 121 -320 121z" />
    </font>
</defs>
</svg>
