<?xml version="1.0" standalone="no"?>
<!DOCTYPE svg PUBLIC "-//W3C//DTD SVG 1.1//EN" "http://www.w3.org/Graphics/SVG/1.1/DTD/svg11.dtd" >
<svg>
<metadata>
Created by FontForge 20090622 at Sun Dec  1 22:08:50 2019
 By deploy user
Copyright (c) 2005 by Frantisek Storm, www.stormtype.com. All rights reserved.
</metadata>
<defs>
<font id="EtelkaMediumPro-Bold" horiz-adv-x="592" >
  <font-face 
    font-family="Etelka Medium Pro"
    font-weight="700"
    font-stretch="normal"
    units-per-em="1000"
    panose-1="2 0 8 3 7 0 0 2 0 4"
    ascent="800"
    descent="-200"
    x-height="514"
    cap-height="697"
    bbox="-197 -314 1480 908"
    underline-thickness="50"
    underline-position="-100"
    unicode-range="U+0020-U+FB04"
  />
<missing-glyph horiz-adv-x="560" 
d="M0 0v697h560v-697h-560zM280 445l94 139h-187zM347 350l94 -140v278zM187 115h187l-94 140zM121 488v-278l93 140z" />
    <glyph glyph-name="ff" unicode="ff" horiz-adv-x="708" 
d="M571 514h151v-156h-151v-358h-183v358h-127v-358h-183v358h-81v156h81v20q0 196 205 196q107 0 181 -29q50 29 129 29q92 0 167 -28l-38 -139q-42 14 -87 14q-36 0 -50 -13t-14 -44v-6zM261 514h127v20q0 25 2 36q-38 7 -65 7q-36 0 -50 -13t-14 -44v-6z" />
    <glyph glyph-name="fi" unicode="fi" horiz-adv-x="634" 
d="M571 514v-514h-183v358h-127v-358h-183v358h-81v156h81v20q0 110 68 153t208 43q107 0 206 -28l-38 -139q-70 14 -136 14q-64 0 -94.5 -12.5t-30.5 -44.5v-6h310z" />
    <glyph glyph-name="fl" unicode="fl" horiz-adv-x="640" 
d="M571 702v-546q0 -74 30 -130l-168 -52q-45 62 -45 177v420q-42 6 -63 6q-36 0 -50 -13t-14 -44v-6h91v-156h-91v-358h-183v358h-81v156h81v20q0 110 62.5 153t189.5 43q117 0 241 -28z" />
    <glyph glyph-name="ffi" unicode="ffi" horiz-adv-x="944" 
d="M881 514v-514h-183v358h-127v-358h-183v358h-127v-358h-183v358h-81v156h81v20q0 196 205 196q87 0 187 -35q66 35 194 35q107 0 206 -28l-38 -139q-70 14 -136 14q-64 0 -94.5 -12.5t-30.5 -44.5v-6h310zM261 514h127v20q0 25 2 36q-38 7 -65 7q-36 0 -50 -13t-14 -44
v-6z" />
    <glyph glyph-name="ffl" unicode="ffl" horiz-adv-x="950" 
d="M881 702v-546q0 -74 30 -130l-168 -52q-45 62 -45 177v420q-42 6 -63 6q-36 0 -50 -13t-14 -44v-6h91v-156h-91v-358h-183v358h-127v-358h-183v358h-81v156h81v20q0 196 205 196q89 0 183 -33q59 33 174 33q117 0 241 -28zM261 514h127v20q0 25 2 36q-38 7 -65 7
q-36 0 -50 -13t-14 -44v-6z" />
    <glyph glyph-name="Th" unicode="Th" horiz-adv-x="1132" 
d="M1076 302v-302h-183v294q0 74 -72 74q-55 0 -55 -19v-349h-183v529h-162v-529h-192v529h-229v168h766v-197q77 29 133 29q42 0 71 -8.5t54.5 -31.5t38.5 -69.5t13 -117.5z" />
    <glyph glyph-name="fk" unicode="fk" horiz-adv-x="950" 
d="M571 0h-183v571q-42 6 -63 6q-36 0 -50 -13t-14 -44v-6h91v-156h-91v-358h-183v358h-81v156h81v20q0 110 62.5 153t189.5 43q117 0 241 -28v-702zM741 0h209q-56 116 -104 191t-67 90q20 19 62.5 80.5t95.5 152.5h-209q-120 -203 -157 -242q24 -14 170 -272z" />
    <glyph glyph-name="ffk" unicode="ffk" horiz-adv-x="1260" 
d="M881 0h-183v571q-42 6 -63 6q-36 0 -50 -13t-14 -44v-6h91v-156h-91v-358h-183v358h-127v-358h-183v358h-81v156h81v20q0 196 205 196q89 0 183 -33q59 33 174 33q117 0 241 -28v-702zM1051 0h209q-56 116 -104 191t-67 90q20 19 62.5 80.5t95.5 152.5h-209
q-120 -203 -157 -242q24 -14 170 -272zM261 514h127v20q0 25 2 36q-38 7 -65 7q-36 0 -50 -13t-14 -44v-6z" />
    <glyph glyph-name="fj" unicode="fj" horiz-adv-x="634" 
d="M388 1v357h-127v-358h-183v358h-81v156h81v20q0 110 68 153t208 43q107 0 206 -28l-38 -139q-70 14 -136 14q-64 0 -94.5 -12.5t-30.5 -44.5v-6h310v-507q0 -115 -57.5 -162.5t-196.5 -47.5v146q71 0 71 58z" />
    <glyph glyph-name=".notdef" horiz-adv-x="560" 
d="M0 0v697h560v-697h-560zM280 445l94 139h-187zM347 350l94 -140v278zM187 115h187l-94 140zM121 488v-278l93 140z" />
    <glyph glyph-name=".null" horiz-adv-x="0" 
 />
    <glyph glyph-name="nonmarkingreturn" horiz-adv-x="333" 
 />
    <glyph glyph-name="space" unicode=" " horiz-adv-x="247" 
 />
    <glyph glyph-name="exclam" unicode="!" horiz-adv-x="334" 
d="M60 697h213l-41 -449h-131zM168 184q62 0 84 -17.5t22 -74.5q0 -63 -22 -82t-84 -19q-61 0 -82.5 19.5t-21.5 81.5q0 57 21.5 74.5t82.5 17.5z" />
    <glyph glyph-name="quotedbl" unicode="&#x22;" horiz-adv-x="435" 
d="M45 697h147l-19 -250h-117zM246 697h144l-19 -250h-116z" />
    <glyph glyph-name="numbersign" unicode="#" horiz-adv-x="765" 
d="M38 415l9 145h117l10 138h167l-10 -138h111l10 138h167l-10 -138h126l-9 -145h-126l-9 -124h127l-10 -144h-126l-10 -147h-167l10 147h-111l-10 -147h-167l10 147h-117l10 144h116l9 124h-117zM322 415l-9 -124h111l9 124h-111z" />
    <glyph glyph-name="dollar" unicode="$" horiz-adv-x="621" 
d="M249 825h116v-135q119 -3 196 -32l-36 -155q-69 18 -160 22v-101q101 -17 153 -64.5t52 -133.5q0 -107 -47 -156.5t-158 -60.5v-146h-116v142q-123 3 -200 32l36 156q64 -18 164 -23v103q-205 30 -205 182q0 105 49.5 160t155.5 69v141zM216 482q0 -17 6.5 -25.5
t26.5 -14.5v77q-33 -8 -33 -37zM396 213q0 18 -5.5 26.5t-25.5 14.5v-80q31 9 31 39z" />
    <glyph glyph-name="percent" unicode="%" horiz-adv-x="1057" 
d="M675 697h163l-463 -697h-162zM230 714q120 0 165.5 -48t45.5 -182q0 -137 -46 -188.5t-165 -51.5t-164.5 51t-45.5 189q0 134 45 182t165 48zM230 369q34 0 43 18.5t9 96.5q0 72 -9 89.5t-43 17.5q-35 0 -44 -17.5t-9 -89.5q0 -77 9 -96t44 -19zM826 456q120 0 165.5 -48
t45.5 -182q0 -137 -46 -188.5t-165 -51.5t-164.5 51t-45.5 189q0 134 45 182t165 48zM826 111q34 0 43 18.5t9 96.5q0 72 -9 89.5t-43 17.5q-35 0 -44 -17.5t-9 -89.5q0 -77 9 -96t44 -19z" />
    <glyph glyph-name="ampersand" unicode="&#x26;" horiz-adv-x="834" 
d="M820 0h-219l-35 47q-120 -61 -251 -61q-161 0 -219.5 42.5t-58.5 151.5q0 85 47.5 126.5t147.5 46.5q-89 7 -120.5 45t-31.5 119q0 53 10 86.5t38 60.5t81 38.5t136 11.5q155 0 210 -39t55 -140q0 -77 -40.5 -116t-132.5 -46q56 -3 147 -87q22 47 22 106h199
q0 -131 -101 -240zM317 285q-41 0 -59 -18.5t-18 -58.5t15 -53.5t61 -13.5q81 0 149 31q-92 113 -148 113zM341 432q39 0 57.5 14t18.5 49q0 38 -15.5 49.5t-55.5 11.5q-41 0 -57 -11.5t-16 -49.5q0 -36 14.5 -49.5t53.5 -13.5z" />
    <glyph glyph-name="quotesingle" unicode="'" horiz-adv-x="237" 
d="M45 697h147l-19 -250h-117z" />
    <glyph glyph-name="parenleft" unicode="(" horiz-adv-x="351" 
d="M68 249q0 431 240 527l83 -133q-44 -27 -70.5 -65t-43.5 -119t-17 -210q0 -128 17 -209.5t43.5 -119.5t70.5 -65l-83 -133q-240 96 -240 527z" />
    <glyph glyph-name="parenright" unicode=")" horiz-adv-x="351" 
d="M283 249q0 -431 -240 -527l-83 133q44 27 70.5 65t43.5 119t17 210q0 128 -17 209.5t-43.5 119.5t-70.5 65l83 133q240 -96 240 -527z" />
    <glyph glyph-name="asterisk" unicode="*" horiz-adv-x="569" 
d="M30 440v147h126l-64 110l130 74l63 -110l62 110l130 -74l-65 -110h127v-147h-127l64 -109l-130 -73l-61 107l-63 -107l-130 74l64 108h-126z" />
    <glyph glyph-name="plus" unicode="+" horiz-adv-x="543" 
d="M25 278v176h158v159h176v-159h159v-176h-159v-158h-176v158h-158z" />
    <glyph glyph-name="comma" unicode="," horiz-adv-x="314" 
d="M280 108l-121 -267h-162l79 267h204z" />
    <glyph glyph-name="hyphen" unicode="-" horiz-adv-x="331" 
d="M25 200v176h281v-176h-281z" />
    <glyph glyph-name="hyphen" unicode="&#xad;" horiz-adv-x="331" 
d="M25 200v176h281v-176h-281z" />
    <glyph glyph-name="period" unicode="." horiz-adv-x="314" 
d="M156 184q62 0 84 -17.5t22 -74.5q0 -63 -22 -82t-84 -19q-61 0 -82.5 19.5t-21.5 81.5q0 57 21.5 74.5t82.5 17.5z" />
    <glyph glyph-name="slash" unicode="/" horiz-adv-x="507" 
d="M345 697h193l-356 -697h-193z" />
    <glyph glyph-name="zero" unicode="0" horiz-adv-x="630" 
d="M315 714q95 0 153 -29.5t91 -109t33 -217.5q0 -207 -67.5 -289.5t-209.5 -82.5t-209.5 82.5t-67.5 289.5q0 138 33 217.5t91 109t153 29.5zM316 163q26 0 40 4t25 13t15 33.5t5.5 55.5t1.5 89q0 55 -1.5 83.5t-5.5 51.5t-15 31t-25 11.5t-40 3.5q-22 0 -34 -1.5
t-23.5 -8.5t-16 -17.5t-8 -33t-4.5 -49t-1 -71.5q0 -58 2 -89t6 -55.5t14.5 -33.5t24.5 -13t40 -4z" />
    <glyph glyph-name="one" unicode="1" horiz-adv-x="630" 
d="M449 0h-187v491l-156 -59l-49 163l392 136v-731z" />
    <glyph glyph-name="two" unicode="2" horiz-adv-x="630" 
d="M89 515l-39 162q99 37 252 37q71 0 116.5 -8.5t81 -31.5t51.5 -65.5t16 -108.5q0 -46 -7 -77.5t-20.5 -59.5t-48.5 -58t-76 -59t-117 -78h275v-168h-540v156q231 168 276 209q47 44 52 84q2 11 2 30q0 37 -17 50t-66 13q-98 0 -191 -27z" />
    <glyph glyph-name="three" unicode="3" horiz-adv-x="630" 
d="M179 276v165h113q37 0 48.5 8t11.5 39t-22 41t-98 10q-97 0 -158 -17l-34 168q111 24 243 24q158 0 216 -39.5t58 -145.5q0 -81 -31 -119.5t-120 -45.5q95 -4 130 -46.5t35 -132.5q0 -110 -65 -154.5t-223 -44.5q-133 0 -245 22l34 172q59 -17 160 -17q82 0 106 11t24 45
q0 35 -14.5 46t-50.5 11h-118z" />
    <glyph glyph-name="four" unicode="4" horiz-adv-x="630" 
d="M341 154h-342v68q180 319 287 475h237v-383h87v-160h-87v-154h-182v154zM341 314v200q-60 -88 -119 -200h119z" />
    <glyph glyph-name="five" unicode="5" horiz-adv-x="630" 
d="M82 697h470v-168h-291v-85q38 2 54 2q149 0 203 -48.5t54 -170.5q0 -140 -59 -190.5t-217 -50.5q-53 0 -130 6.5t-115 15.5l34 172q53 -17 160 -17q79 0 98.5 9t19.5 50t-19.5 51t-102.5 10q-89 0 -159 -8v422z" />
    <glyph glyph-name="six" unicode="6" horiz-adv-x="630" 
d="M537 522q-54 17 -172 17q-62 0 -85 -17t-29 -81q33 5 83 5q150 0 205.5 -48.5t55.5 -170.5q0 -140 -58 -190.5t-216 -50.5q-155 0 -216 79t-61 290q0 145 29.5 221t96.5 107t195 31q115 0 206 -24zM397 222q0 38 -16.5 50.5t-74.5 12.5q-1 0 -58 -3q3 -77 17.5 -98
t55.5 -21q46 0 61 12t15 47z" />
    <glyph glyph-name="seven" unicode="7" horiz-adv-x="630" 
d="M620 697v-53q-58 -92 -153.5 -300.5t-138.5 -343.5h-216q55 153 127.5 308.5t126.5 220.5h-322v168h576z" />
    <glyph glyph-name="eight" unicode="8" horiz-adv-x="630" 
d="M316 141q46 0 61.5 13.5t15.5 53.5q0 42 -16 59.5t-61 17.5q-46 0 -62 -17.5t-16 -59.5q0 -40 16 -53.5t62 -13.5zM316 432q38 0 54.5 13.5t16.5 49.5q0 38 -15.5 49.5t-55.5 11.5q-41 0 -57 -11.5t-16 -49.5q0 -36 17 -49.5t56 -13.5zM316 -14h-1q-160 0 -218 44.5
t-58 154.5q0 91 34 133t129 46q-89 7 -120.5 45.5t-31.5 119.5q0 70 19.5 107.5t77 57.5t168.5 20t168.5 -20t77 -57.5t19.5 -107.5q0 -81 -31.5 -119.5t-120.5 -45.5q95 -4 129 -46t34 -133q0 -110 -57.5 -154.5t-217.5 -44.5z" />
    <glyph glyph-name="nine" unicode="9" horiz-adv-x="630" 
d="M153 0q138 154 190 255h-38q-150 0 -205.5 48.5t-55.5 170.5q0 140 58 190t216 50q115 0 174.5 -23.5t81 -72.5t21.5 -143q0 -136 -53.5 -249.5t-159.5 -225.5h-229zM333 416q36 0 56 1q2 14 2 42q0 49 -12.5 64t-60.5 15q-47 0 -61.5 -11.5t-14.5 -48.5q0 -40 15.5 -51
t75.5 -11z" />
    <glyph glyph-name="colon" unicode=":" horiz-adv-x="314" 
d="M156 184q62 0 84 -17.5t22 -74.5q0 -63 -22 -82t-84 -19q-61 0 -82.5 19.5t-21.5 81.5q0 57 21.5 74.5t82.5 17.5zM156 525q63 0 84.5 -17t21.5 -75q0 -62 -22 -81t-84 -19q-61 0 -82.5 19t-21.5 81q0 58 21.5 75t82.5 17z" />
    <glyph glyph-name="semicolon" unicode=";" horiz-adv-x="314" 
d="M280 108l-121 -267h-162l79 267h204zM156 525q63 0 84.5 -17t21.5 -75q0 -62 -22 -81t-84 -19q-61 0 -82.5 19t-21.5 81q0 58 21.5 75t82.5 17z" />
    <glyph glyph-name="less" unicode="&#x3c;" horiz-adv-x="543" 
d="M514 553l-216 -186l216 -189l-93 -135l-363 278v88l362 277z" />
    <glyph glyph-name="equal" unicode="=" horiz-adv-x="543" 
d="M25 115v176h493v-176h-493zM25 444v176h493v-176h-493z" />
    <glyph glyph-name="greater" unicode="&#x3e;" horiz-adv-x="543" 
d="M58 177l216 186l-216 189l93 135l363 -278v-88l-362 -277z" />
    <glyph glyph-name="question" unicode="?" horiz-adv-x="520" 
d="M343 232h-179q66 80 96.5 135.5t30.5 109.5q0 30 -21.5 46t-78.5 16q-96 0 -149 -17l-34 168q91 24 205 24q161 0 230 -49.5t69 -161.5q0 -71 -45 -135t-124 -136zM257 184q62 0 84 -17.5t22 -74.5q0 -63 -22 -82t-84 -19q-61 0 -82.5 19.5t-21.5 81.5q0 57 21.5 74.5
t82.5 17.5z" />
    <glyph glyph-name="at" unicode="@" horiz-adv-x="946" 
d="M437 488q-75 0 -115.5 -7t-70 -30t-39 -64.5t-9.5 -113.5q0 -79 10 -123.5t42 -72.5t81 -36.5t137 -8.5q87 0 138.5 11.5t83 45t42.5 85t11 139.5q0 108 -19 159h153q18 -70 18 -165q0 -236 -97 -328t-328 -92q-119 0 -197 17.5t-132 60.5t-77 116t-23 186
q0 88 18.5 152.5t51 105t83.5 65t108 34t133 9.5q77 0 123.5 -11t78.5 -43t44 -87t12 -146q0 -85 -9 -132.5t-38.5 -75.5t-71.5 -35.5t-121 -7.5q-122 0 -162 34t-40 134q0 99 37 132.5t142 33.5q58 0 99 -9q-1 41 -18 54.5t-79 13.5zM476 310q-30 0 -40.5 -8t-10.5 -34
q0 -27 10.5 -34.5t47.5 -7.5q28 0 39.5 8t11.5 31v41q-24 4 -58 4z" />
    <glyph glyph-name="A" unicode="A" horiz-adv-x="696" 
d="M211 697h291q108 -368 240 -697h-211q-23 53 -50 134h-270l-36 -134h-207q38 133 111.5 344t131.5 353zM358 529h-25q-28 -79 -74 -230h167q-43 136 -68 230z" />
    <glyph glyph-name="B" unicode="B" horiz-adv-x="735" 
d="M267 163h168q36 0 36 57q0 61 -40 61h-164v-118zM267 534v-98h165q15 0 22 9t7 39q0 50 -29 50h-165zM515 364q95 -4 129 -46t34 -133q0 -102 -48 -143.5t-139 -41.5h-415v697h415q101 0 138.5 -38.5t37.5 -129.5q0 -81 -31.5 -119.5t-120.5 -45.5z" />
    <glyph glyph-name="C" unicode="C" horiz-adv-x="583" 
d="M44 355q0 106 20 176t63 110.5t102.5 56.5t148.5 16q114 0 205 -24l-34 -168q-53 17 -126 17q-54 0 -82.5 -5t-52 -23.5t-32 -56t-8.5 -101.5q0 -65 8.5 -102.5t32 -57t52.5 -25t82 -5.5q73 0 126 17l34 -172q-91 -22 -205 -22q-176 0 -255 81t-79 288z" />
    <glyph glyph-name="D" unicode="D" horiz-adv-x="770" 
d="M76 697h316q88 0 147.5 -15.5t103 -54t63.5 -106t20 -168.5q0 -198 -79.5 -275.5t-254.5 -77.5h-316v697zM522 350q0 65 -5.5 99t-25 53t-45 23t-79.5 4h-100v-360h100q42 0 65.5 3.5t43.5 13t28.5 30.5t13 52t4.5 82z" />
    <glyph glyph-name="E" unicode="E" horiz-adv-x="631" 
d="M76 697h534v-168h-343v-88h247v-165h-247v-108h343v-168h-534v697z" />
    <glyph glyph-name="F" unicode="F" horiz-adv-x="597" 
d="M76 697h521v-168h-330v-126h247v-165h-247v-238h-191v697z" />
    <glyph glyph-name="G" unicode="G" horiz-adv-x="724" 
d="M464 165v111h-123v165h320v-418q-47 -15 -128.5 -26t-154.5 -11q-176 0 -255 81t-79 288q0 105 24 176t73.5 110.5t115 56t159.5 16.5q134 0 225 -24l-31 -168q-22 7 -80.5 12t-93.5 5q-59 0 -90 -5t-56 -23.5t-33.5 -55.5t-8.5 -102t8.5 -102.5t32 -57t52.5 -25t82 -5.5
q15 0 41 2z" />
    <glyph glyph-name="H" unicode="H" horiz-adv-x="759" 
d="M267 278v-278h-191v697h191v-241h226v241h190v-697h-190v278h-226z" />
    <glyph glyph-name="I" unicode="I" horiz-adv-x="343" 
d="M76 697h191v-697h-191v697z" />
    <glyph glyph-name="J" unicode="J" horiz-adv-x="483" 
d="M412 697l1 -505q0 -57 -20 -99t-54.5 -64.5t-73.5 -32.5t-85 -10q-102 0 -180 25l28 169q56 -17 126 -17q66 0 66 64v470h192z" />
    <glyph glyph-name="K" unicode="K" horiz-adv-x="707" 
d="M267 697v-697h-191v697h191zM726 0h-227q-78 161 -141 257.5t-90 110.5q29 27 88.5 116t127.5 213h225q-142 -248 -209 -320q26 -22 89 -122t137 -255z" />
    <glyph glyph-name="L" unicode="L" horiz-adv-x="556" 
d="M76 697h191v-529h298v-168h-489v697z" />
    <glyph glyph-name="M" unicode="M" horiz-adv-x="963" 
d="M491 328q76 203 155 369h241v-697h-185v422q-72 -160 -150 -370h-153q-93 267 -139 370v-422h-184v697h252q68 -135 163 -369z" />
    <glyph glyph-name="N" unicode="N" horiz-adv-x="818" 
d="M742 697v-697h-237q-107 198 -243 427v-427h-186v697h247q124 -211 230 -415v415h189z" />
    <glyph glyph-name="O" unicode="O" horiz-adv-x="781" 
d="M391 714q88 0 149.5 -16t107.5 -56t67.5 -110t21.5 -174q0 -106 -22 -179t-67.5 -115t-107 -60t-149.5 -18t-150 18t-107.5 60t-67.5 115t-22 179q0 104 22 174t67.5 110t107 56t150.5 16zM391 161q35 0 55.5 2t38 10t25.5 19t14 35t7.5 52.5t1.5 76.5q0 45 -1.5 71.5
t-7.5 49t-14 33t-26 17.5t-38 8.5t-55 1.5q-36 0 -56 -1.5t-38 -8.5t-26 -17.5t-14 -33t-7.5 -49t-1.5 -71.5q0 -48 1.5 -76.5t7.5 -52.5t14 -35t26 -19t38.5 -10t55.5 -2z" />
    <glyph glyph-name="P" unicode="P" horiz-adv-x="696" 
d="M267 360h150q54 0 54 86q0 88 -53 88h-151v-174zM267 0h-191v697h415q189 0 189 -251q0 -104 -49.5 -172.5t-139.5 -68.5h-224v-205z" />
    <glyph glyph-name="Q" unicode="Q" horiz-adv-x="781" 
d="M391 714q88 0 149.5 -16t107.5 -56t67.5 -110t21.5 -174q0 -276 -165 -320q62 -23 203 -230h-217q-101 170 -167 178q-88 0 -150 18t-107.5 60t-67.5 115t-22 179q0 104 22 174t67.5 110t107 56t150.5 16zM391 161q35 0 55.5 2t38 10t25.5 19t14 35t7.5 52.5t1.5 76.5
q0 45 -1.5 71.5t-7.5 49t-14 33t-26 17.5t-38 8.5t-55 1.5q-36 0 -56 -1.5t-38 -8.5t-26 -17.5t-14 -33t-7.5 -49t-1.5 -71.5q0 -48 1.5 -76.5t7.5 -52.5t14 -35t26 -19t38.5 -10t55.5 -2z" />
    <glyph glyph-name="R" unicode="R" horiz-adv-x="738" 
d="M267 534v-148h160q40 0 40 73q0 75 -39 75h-161zM515 295q36 -13 79.5 -69.5t143.5 -225.5h-237q-79 138 -116 184.5t-67 46.5h-51v-231h-191v697h415q99 0 144 -55t45 -149q0 -185 -165 -198z" />
    <glyph glyph-name="S" unicode="S" horiz-adv-x="621" 
d="M583 679l-37 -162q-92 22 -198 22q-68 0 -89.5 -10.5t-21.5 -34.5q0 -27 22 -37.5t107 -20.5q119 -15 173 -65.5t54 -149.5q0 -133 -71 -184t-247 -51q-141 0 -236 35l38 163q94 -23 195 -23q71 0 92.5 9.5t21.5 36.5t-24 38t-118 22q-110 13 -160 57.5t-50 139.5
q0 134 75 192t241 58q141 0 233 -35z" />
    <glyph glyph-name="T" unicode="T" horiz-adv-x="650" 
d="M421 0h-192v529h-229v168h650v-168h-229v-529z" />
    <glyph glyph-name="U" unicode="U" horiz-adv-x="747" 
d="M486 222v475h192v-517q0 -56 -21.5 -95t-63.5 -60t-95 -30t-125 -9q-149 0 -226.5 42.5t-77.5 151.5v517h192v-475q0 -30 24.5 -43.5t87.5 -13.5t88 13.5t25 43.5z" />
    <glyph glyph-name="V" unicode="V" horiz-adv-x="658" 
d="M-44 697h210q37 -89 89.5 -239.5t78.5 -244.5q76 207 149 484h206q-36 -129 -111 -338.5t-136 -358.5h-243q-50 170 -119.5 370t-123.5 327z" />
    <glyph glyph-name="W" unicode="W" horiz-adv-x="1046" 
d="M525 363q-41 -173 -98 -363h-243q-99 424 -194 697h207q74 -217 124 -443q87 284 119 443h170q73 -231 124 -443q69 220 111 443h201q-30 -130 -89.5 -339.5t-107.5 -357.5h-243q-33 168 -81 363z" />
    <glyph glyph-name="X" unicode="X" horiz-adv-x="701" 
d="M231 697l127 -174q77 113 109 174h240q-76 -120 -229 -343q180 -257 241 -354h-241q-52 84 -121 183q-96 -132 -137 -183h-240q75 94 257 352q-181 250 -258 345h252z" />
    <glyph glyph-name="Y" unicode="Y" horiz-adv-x="669" 
d="M183 697l165 -227q115 168 148 227h237q-105 -166 -291 -430v-267h-191v266q-233 324 -322 431h254z" />
    <glyph glyph-name="Z" unicode="Z" horiz-adv-x="634" 
d="M13 0v36q182 279 305 493h-287v168h593v-34q-40 -77 -148 -251.5t-157 -243.5h309v-168h-615z" />
    <glyph glyph-name="bracketleft" unicode="[" horiz-adv-x="416" 
d="M94 755h340v-158h-151v-700h151v-157h-340v1015z" />
    <glyph glyph-name="backslash" unicode="\" horiz-adv-x="507" 
d="M-10 697h193l356 -697h-193z" />
    <glyph glyph-name="bracketright" unicode="]" horiz-adv-x="416" 
d="M-18 755h340v-1015h-340v157h151v700h-151v158z" />
    <glyph glyph-name="asciicircum" unicode="^" horiz-adv-x="591" 
d="M376 296l-82 195l-80 -195h-197l193 401h169l196 -401h-199z" />
    <glyph glyph-name="underscore" unicode="_" horiz-adv-x="543" 
d="M25 -203v176h493v-176h-493z" />
    <glyph glyph-name="grave" unicode="`" horiz-adv-x="469" 
d="M390 568h-150l-156 129h182z" />
    <glyph glyph-name="a" unicode="a" horiz-adv-x="578" 
d="M522 329v-303q-117 -40 -256 -40q-133 0 -178.5 34.5t-45.5 135.5t48 134t152 33q49 0 107 -12q0 43 -18.5 57.5t-86.5 14.5q-71 0 -163 -25l-26 143q116 28 237 28q120 0 175 -45t55 -155zM349 129v69q-23 5 -65 5q-32 0 -43.5 -8t-11.5 -34q0 -27 9.5 -35t42.5 -8
q38 0 68 11z" />
    <glyph glyph-name="b" unicode="b" horiz-adv-x="604" 
d="M246 349v-209q26 -11 58 -11q46 0 61.5 23t15.5 108q0 67 -15 90t-57 23q-27 0 -45 -7t-18 -17zM63 21v701h183v-219q58 26 124 26q99 0 146 -58t47 -206q0 -155 -60.5 -217t-198.5 -62q-145 0 -241 35z" />
    <glyph glyph-name="c" unicode="c" horiz-adv-x="474" 
d="M430 163l36 -152q-66 -25 -167 -25q-124 0 -191.5 62.5t-67.5 211.5q0 76 18.5 129.5t54.5 83.5t81 43t105 13q103 0 167 -22l-36 -152q-68 20 -113 20q-27 0 -41 -3t-28 -14t-19.5 -35.5t-5.5 -65.5q0 -73 21.5 -94.5t72.5 -21.5q54 0 113 22z" />
    <glyph glyph-name="d" unicode="d" horiz-adv-x="604" 
d="M358 146v208q0 11 -17.5 19.5t-43.5 8.5q-42 0 -58 -25.5t-16 -93.5q0 -78 16 -102t61 -24q35 0 58 9zM541 722v-701q-98 -35 -241 -35q-139 0 -199.5 60t-60.5 214q0 269 213 269q52 0 105 -16v209h183z" />
    <glyph glyph-name="e" unicode="e" horiz-adv-x="559" 
d="M462 150l26 -136q-84 -28 -191 -28q-257 0 -257 274q0 148 63.5 208.5t182.5 60.5q57 0 95.5 -7.5t70.5 -28t48.5 -57.5t23 -95.5t0.5 -141.5h-297q1 -38 23 -50.5t71 -12.5q78 0 141 14zM301 394q-37 0 -51.5 -13.5t-21.5 -50.5h142q-1 38 -16 51t-53 13z" />
    <glyph glyph-name="f" unicode="f" horiz-adv-x="398" 
d="M261 514h151v-156h-151v-358h-183v358h-81v156h81v20q0 196 205 196q92 0 167 -28l-38 -139q-42 14 -87 14q-36 0 -50 -13t-14 -44v-6z" />
    <glyph glyph-name="g" unicode="g" horiz-adv-x="604" 
d="M358 166v209q-29 12 -58 12q-46 0 -61.5 -23.5t-15.5 -107.5q0 -68 14.5 -91t57.5 -23q27 0 45 7t18 17zM358 15q-57 -25 -119 -25q-100 0 -149.5 57t-49.5 204q0 154 61 216t199 62q143 0 241 -35v-452q0 -76 -22 -127t-65 -76t-91 -34t-116 -9q-107 0 -195 30l30 139
q95 -21 162 -21q56 0 85 16t29 55z" />
    <glyph glyph-name="h" unicode="h" horiz-adv-x="612" 
d="M556 302v-302h-183v294q0 74 -72 74q-55 0 -55 -19v-349h-183v722h183v-222q77 29 133 29q42 0 71 -8.5t54.5 -31.5t38.5 -69.5t13 -117.5z" />
    <glyph glyph-name="i" unicode="i" horiz-adv-x="307" 
d="M246 0v514h-183v-514h183zM154 746q60 0 81 -15.5t21 -68.5q0 -58 -21 -76t-81 -18t-81 18t-21 76q0 53 21 68.5t81 15.5z" />
    <glyph glyph-name="j" unicode="j" horiz-adv-x="307" 
d="M154 746q60 0 81 -15.5t21 -68.5q0 -58 -21 -76t-81 -18t-81 18t-21 76q0 53 21 68.5t81 15.5zM246 7v507h-183v-513q0 -58 -71 -58v-146q139 0 196.5 47.5t57.5 162.5z" />
    <glyph glyph-name="k" unicode="k" horiz-adv-x="625" 
d="M246 722v-722h-183v722h183zM416 0h209q-56 116 -104 191t-67 90q20 19 62.5 80.5t95.5 152.5h-209q-120 -203 -157 -242q24 -14 170 -272z" />
    <glyph glyph-name="l" unicode="l" horiz-adv-x="315" 
d="M246 722v-566q0 -74 30 -130l-168 -52q-45 62 -45 177v571h183z" />
    <glyph glyph-name="m" unicode="m" horiz-adv-x="902" 
d="M246 360v-360h-183v481q144 48 273 48q78 0 125 -33q94 33 175 33q108 0 158.5 -56t50.5 -190v-283h-182v271q0 56 -12.5 76t-54.5 20q-14 0 -57 -5q7 -42 7 -79v-283h-183v271q0 56 -12.5 76t-54.5 20q-22 0 -50 -7z" />
    <glyph glyph-name="n" unicode="n" horiz-adv-x="612" 
d="M246 360v-360h-183v481q144 48 278 48q109 0 162 -56.5t53 -189.5v-283h-183v271q0 56 -13.5 76t-58.5 20q-18 0 -55 -7z" />
    <glyph glyph-name="o" unicode="o" 
d="M295 -14q-132 0 -193.5 60.5t-61.5 213.5q0 151 62 210t193 59q133 0 195 -59t62 -210q0 -153 -62 -213.5t-195 -60.5zM295 389q-45 0 -58.5 -22.5t-13.5 -109.5q0 -85 14 -108t58 -23q45 0 59 23t14 108q0 87 -13.5 109.5t-59.5 22.5z" />
    <glyph glyph-name="p" unicode="p" horiz-adv-x="604" 
d="M246 369v-208q0 -11 17 -19t43 -8q43 0 59 25.5t16 92.5q0 78 -16 102t-61 24q-36 0 -58 -9zM63 -192v686q96 35 241 35q139 0 199 -59.5t60 -213.5q0 -270 -213 -270q-47 0 -104 17v-195h-183z" />
    <glyph glyph-name="q" unicode="q" horiz-adv-x="604" 
d="M358 166v209q-29 12 -58 12q-46 0 -61.5 -23.5t-15.5 -107.5q0 -68 14.5 -91t57.5 -23q27 0 45 7t18 17zM541 494v-686h-183v205q-62 -27 -125 -27q-99 0 -146 58t-47 207q0 154 61 216t199 62q143 0 241 -35z" />
    <glyph glyph-name="r" unicode="r" horiz-adv-x="415" 
d="M63 0v514h183v-41q14 27 40.5 41.5t77.5 14.5q22 0 51 -3v-169q-30 10 -78 10q-38 0 -64.5 -13t-26.5 -34v-320h-183z" />
    <glyph glyph-name="s" unicode="s" horiz-adv-x="478" 
d="M443 500l-32 -132q-80 20 -153 20q-31 0 -42.5 -4.5t-11.5 -23.5q0 -14 13 -19t70 -13q90 -13 128.5 -47t38.5 -113q0 -182 -241 -182q-106 0 -182 28l33 135q74 -19 140 -19q43 0 59.5 5.5t16.5 23.5q0 15 -18 21.5t-77 12.5q-82 8 -118.5 41t-36.5 114q0 181 236 181
q100 0 177 -29z" />
    <glyph glyph-name="t" unicode="t" horiz-adv-x="438" 
d="M422 358h-151v-163q0 -31 12.5 -43.5t48.5 -12.5q34 0 77 13l29 -138q-69 -28 -169 -28q-92 0 -136.5 39.5t-44.5 148.5v184h-81v156h81v66l183 74v-140h151v-156z" />
    <glyph glyph-name="u" unicode="u" horiz-adv-x="612" 
d="M367 154v360h182v-481q-144 -48 -278 -48q-109 0 -161.5 56.5t-52.5 189.5v283h182v-271q0 -56 13.5 -76t58.5 -20q17 0 56 7z" />
    <glyph glyph-name="v" unicode="v" horiz-adv-x="513" 
d="M-24 514h184q51 -142 97 -326q60 183 93 326h180q-80 -273 -177 -514h-214q-70 252 -163 514z" />
    <glyph glyph-name="w" unicode="w" horiz-adv-x="847" 
d="M420 253q-21 -109 -67 -253h-214q-70 252 -163 514h184q55 -153 97 -321q39 121 89 321h158q55 -179 87 -321q64 196 93 321h180q-86 -289 -177 -514h-215q-20 114 -52 253z" />
    <glyph glyph-name="x" unicode="x" horiz-adv-x="520" 
d="M346 514h196q-50 -81 -173 -253q131 -192 174 -261h-198q-20 35 -77 119q-82 -109 -90 -119h-197q52 61 193 256q-122 174 -190 258h206q24 -31 82 -115q39 57 74 115z" />
    <glyph glyph-name="y" unicode="y" horiz-adv-x="513" 
d="M350 514h180q-105 -372 -264 -706h-200q39 66 84 166q-60 218 -174 540h184q51 -142 97 -326q60 183 93 326z" />
    <glyph glyph-name="z" unicode="z" horiz-adv-x="499" 
d="M19 514h477v-25q-89 -154 -215 -333h199v-156h-479v24q53 74 121.5 179.5t94.5 154.5h-198v156z" />
    <glyph glyph-name="braceleft" unicode="{" horiz-adv-x="418" 
d="M47 173v-1v153q112 0 112 201q0 61 15.5 106.5t44 74t56.5 44.5t64 28l86 -134q-35 -15 -53 -33t-29 -58t-11 -108q0 -97 -27 -142t-61 -55q34 -10 61 -56.5t27 -144.5q0 -99 19.5 -137t73.5 -61l-86 -131q-36 12 -64 28t-56.5 44.5t-44 74t-15.5 106.5q0 201 -112 201z
" />
    <glyph glyph-name="bar" unicode="|" horiz-adv-x="431" 
d="M120 755h191v-1011h-191v1011z" />
    <glyph glyph-name="braceright" unicode="}" horiz-adv-x="418" 
d="M371 325v1v-153q-112 0 -112 -201q0 -61 -15.5 -106.5t-44 -74t-56.5 -44.5t-64 -28l-86 134q35 15 53 33t29 58t11 108q0 97 27 142t61 55q-34 10 -61 56.5t-27 144.5q0 99 -19.5 137t-73.5 61l86 131q36 -12 64 -28t56.5 -44.5t44 -74t15.5 -106.5q0 -201 112 -201z
" />
    <glyph glyph-name="asciitilde" unicode="~" horiz-adv-x="543" 
d="M426 465l112 -91q-20 -53 -66 -90.5t-109 -37.5q-39 0 -73 20.5t-63.5 41t-56.5 20.5q-19 0 -32.5 -11.5t-27.5 -43.5l-102 101q63 107 154 107q45 0 82.5 -20t66.5 -40t53 -20q23 0 35.5 13t26.5 51z" />
    <glyph glyph-name="nbspace" unicode="&#xa0;" horiz-adv-x="247" 
 />
    <glyph glyph-name="exclamdown" unicode="&#xa1;" horiz-adv-x="334" 
d="M274 -177h-213l41 449h131zM166 336q-62 0 -84 17.5t-22 74.5q0 63 22 82t84 19q61 0 82.5 -19.5t21.5 -81.5q0 -57 -21.5 -74.5t-82.5 -17.5z" />
    <glyph glyph-name="cent" unicode="&#xa2;" horiz-adv-x="451" 
d="M229 746h136v-108q48 -5 82 -17l-34 -134q-17 6 -48 8v-247q30 2 48 10l34 -133q-33 -13 -82 -20v-119h-136v118q-189 31 -189 270q0 235 189 264v108zM205 371q0 -71 24 -98v199q-24 -29 -24 -101z" />
    <glyph glyph-name="sterling" unicode="&#xa3;" horiz-adv-x="621" 
d="M25 267v149h51v48q0 128 71 189t233 61q141 0 233 -35l-37 -162q-92 22 -198 22q-69 0 -90 -12.5t-21 -46.5v-64h202v-149h-202v-99h318v-168h-509v267h-51z" />
    <glyph glyph-name="currency" unicode="&#xa4;" horiz-adv-x="701" 
d="M355 83q-40 0 -68 4l-67 -87l-161 104l68 93q-27 60 -27 160q0 92 23 150l-67 86l172 104l58 -76q35 5 69 5q26 0 68 -4l47 75l173 -103l-57 -81q26 -60 26 -156q0 -97 -26 -158l64 -95l-172 -104l-56 87q-28 -4 -67 -4zM355 476q-26 0 -37.5 -2t-24 -13.5t-16.5 -36.5
t-4 -70q0 -43 4 -68t16 -36.5t24.5 -14t37.5 -2.5q26 0 38 2.5t24.5 14t16.5 36.5t4 68q0 45 -4 70t-16.5 36.5t-24 13.5t-38.5 2z" />
    <glyph glyph-name="yen" unicode="&#xa5;" horiz-adv-x="669" 
d="M99 243v125h78q-188 256 -248 329h254l165 -227q115 168 148 227h237q-83 -133 -220 -329h68v-125h-139v-59h139v-125h-139v-59h-191v59h-152v125h152v59h-152z" />
    <glyph glyph-name="brokenbar" unicode="&#xa6;" horiz-adv-x="431" 
d="M120 755h191v-367h-191v367zM120 111h191v-367h-191v367z" />
    <glyph glyph-name="section" unicode="&#xa7;" horiz-adv-x="621" 
d="M568 681l-34 -151q-80 21 -181 21q-62 0 -81.5 -10t-19.5 -32q0 -26 19.5 -35t98.5 -19q112 -15 169.5 -62.5t57.5 -138.5q0 -65 -52 -119q31 -42 31 -105q0 -123 -77 -178t-232 -55q-131 0 -213 33l34 151q80 -21 181 -21q62 0 81.5 10t19.5 32q0 26 -19.5 35t-98.5 19
q-112 15 -169.5 62.5t-57.5 138.5q0 73 47 125q-26 40 -26 99q0 123 77 178t232 55q131 0 213 -33zM235 299q-21 -9 -21 -29q0 -26 25 -36t125 -20l22 -3q22 11 22 30q0 26 -25 36t-125 20q-4 0 -11.5 0.5t-11.5 1.5z" />
    <glyph glyph-name="dieresis" unicode="&#xa8;" horiz-adv-x="517" 
d="M129 706q46 0 62 -13.5t16 -58.5q0 -49 -16 -64.5t-62 -15.5q-45 0 -61 15.5t-16 64.5q0 45 16 58.5t61 13.5zM367 706q45 0 61 -13.5t16 -58.5q0 -49 -16 -64.5t-61 -15.5q-46 0 -62 15t-16 65q0 45 15.5 58.5t62.5 13.5z" />
    <glyph glyph-name="copyright" unicode="&#xa9;" horiz-adv-x="801" 
d="M401 714q89 0 151.5 -16.5t110 -55.5t71 -109.5t23.5 -174.5q0 -206 -88.5 -289t-267.5 -83q-180 0 -268.5 83t-88.5 289q0 104 23.5 174.5t71 109.5t110.5 55.5t152 16.5zM401 110q44 0 71.5 3t53 12t39.5 25.5t25 44.5t15 67.5t4 95.5q0 79 -9 124t-36 69t-62 30
t-101 6q-67 0 -101.5 -6t-62 -30t-36.5 -69t-9 -124q0 -84 9 -132.5t36 -74.5t62.5 -33.5t101.5 -7.5zM531 287l28 -116q-52 -20 -123 -20q-56 0 -91 7.5t-62 29t-38 61.5t-11 104q0 63 11 102t38 60.5t61.5 28.5t91.5 7q74 0 123 -18l-28 -116q-39 11 -82 11
q-39 0 -53 -13.5t-14 -63.5q0 -47 14.5 -61.5t52.5 -14.5q51 0 82 12z" />
    <glyph glyph-name="ordfeminine" unicode="&#xaa;" horiz-adv-x="464" 
d="M404 578v-222q-81 -28 -187 -28q-93 0 -125 24t-32 96t33.5 95.5t107.5 23.5q37 0 74 -8q0 30 -12.5 39t-60.5 9q-62 0 -114 -15l-18 102q84 20 166 20q84 0 126 -31.5t42 -104.5zM275 429v49q-16 4 -44 4q-22 0 -30 -5.5t-8 -24.5q0 -20 6.5 -25.5t29.5 -5.5q25 0 46 8z
" />
    <glyph glyph-name="guillemotleft" unicode="&#xab;" horiz-adv-x="742" 
d="M396 513l-136 -186l136 -189l-103 -105l-273 292l272 291zM722 513l-136 -186l136 -189l-103 -105l-273 292l272 291z" />
    <glyph glyph-name="logicalnot" unicode="&#xac;" horiz-adv-x="543" 
d="M25 278v176h493v-454h-189v278h-304z" />
    <glyph glyph-name="registered" unicode="&#xae;" horiz-adv-x="576" 
d="M426 499q0 -44 -17.5 -60.5t-54.5 -16.5q16 -7 25 -14.5t18 -30.5t11 -60h-102q0 29 -7.5 46.5t-16.5 17.5h-8v-64h-100v272h177q37 0 56 -25.5t19 -64.5zM322 492q0 18 -13 18h-35v-36h35q13 0 13 18zM545 452q0 -148 -60 -206t-196 -58q-137 0 -197.5 58t-60.5 206
q0 149 60.5 205.5t197.5 56.5q136 0 196 -56.5t60 -205.5zM440 452q0 73 -15 108.5t-44.5 46.5t-91.5 11q-46 0 -72 -5.5t-45 -23t-26 -50t-7 -87.5q0 -101 31 -133.5t119 -32.5t119.5 33t31.5 133z" />
    <glyph glyph-name="macron" unicode="&#xaf;" horiz-adv-x="508" 
d="M110 567v122h305v-122h-305z" />
    <glyph glyph-name="macron" unicode="&#x2c9;" horiz-adv-x="508" 
d="M110 567v122h305v-122h-305z" />
    <glyph glyph-name="degree" unicode="&#xb0;" horiz-adv-x="461" 
d="M230 714q120 0 165.5 -48t45.5 -182q0 -137 -46 -188.5t-165 -51.5t-164.5 51t-45.5 189q0 134 45 182t165 48zM230 369q34 0 43 18.5t9 96.5q0 72 -9 89.5t-43 17.5q-35 0 -44 -17.5t-9 -89.5q0 -77 9 -96t44 -19z" />
    <glyph glyph-name="plusminus" unicode="&#xb1;" horiz-adv-x="543" 
d="M25 -2v176h493v-176h-493zM25 362v176h158v159h176v-159h159v-176h-159v-158h-176v158h-158z" />
    <glyph glyph-name="twosuperior" unicode="&#xb2;" horiz-adv-x="479" 
d="M71 563l-23 127q60 23 165 23q97 0 146.5 -33.5t49.5 -112.5q0 -107 -68 -130q-21 -7 -44.5 -14l-36 -10.5t-24.5 -8t-17 -8.5t-6 -10h197v-124h-373q4 94 32 143.5t94 82.5q12 6 42 17t42.5 20.5t12.5 24.5q0 18 -12.5 24.5t-48.5 6.5q-61 0 -128 -18z" />
    <glyph glyph-name="threesuperior" unicode="&#xb3;" horiz-adv-x="471" 
d="M138 430v111h72q21 0 28 6t7 21q0 13 -13.5 18t-60.5 5q-65 0 -101 -11l-21 118q68 15 155 15q105 0 154.5 -26.5t49.5 -91.5q0 -51 -23.5 -76.5t-81.5 -29.5q61 -3 87.5 -31t26.5 -84q0 -68 -54 -97.5t-159 -29.5q-82 0 -157 14l22 120q40 -11 102 -11q50 0 65.5 6
t15.5 20q0 20 -8.5 27t-30.5 7h-75z" />
    <glyph glyph-name="acute" unicode="&#xb4;" horiz-adv-x="469" 
d="M234 568h-150l124 129h182z" />
    <glyph glyph-name="mu" unicode="&#xb5;" horiz-adv-x="612" 
d="M220 -192h-176l13 423v283h182v-271q0 -56 13.5 -76t58.5 -20q17 0 56 7v360h182v-481q-144 -48 -278 -48q-33 0 -57 4z" />
    <glyph glyph-name="mu" unicode="&#x3bc;" horiz-adv-x="612" 
d="M220 -192h-176l13 423v283h182v-271q0 -56 13.5 -76t58.5 -20q17 0 56 7v360h182v-481q-144 -48 -278 -48q-33 0 -57 4z" />
    <glyph glyph-name="paragraph" unicode="&#xb6;" horiz-adv-x="696" 
d="M620 0h-161v205h-75v-205h-161v205h-18q-90 0 -139.5 68.5t-49.5 172.5q0 251 189 251h415v-697z" />
    <glyph glyph-name="periodcentered" unicode="&#xb7;" horiz-adv-x="331" 
d="M164 404q68 0 91.5 -18.5t23.5 -80.5q0 -67 -24 -88t-91 -21q-65 0 -88.5 21t-23.5 88q0 62 23 80.5t89 18.5z" />
    <glyph glyph-name="periodcentered" unicode="&#x2219;" horiz-adv-x="331" 
d="M164 404q68 0 91.5 -18.5t23.5 -80.5q0 -67 -24 -88t-91 -21q-65 0 -88.5 21t-23.5 88q0 62 23 80.5t89 18.5z" />
    <glyph glyph-name="cedilla" unicode="&#xb8;" horiz-adv-x="629" 
d="M332 0h65v-36q100 0 100 -81q0 -48 -33 -67t-116 -19q-52 0 -90 11l26 66q14 -7 54 -7q26 0 26 19q0 26 -68 20z" />
    <glyph glyph-name="onesuperior" unicode="&#xb9;" horiz-adv-x="418" 
d="M307 262h-145v263l-96 -37l-40 121l281 113v-460z" />
    <glyph glyph-name="ordmasculine" unicode="&#xba;" horiz-adv-x="480" 
d="M239 308q-92 0 -140 48t-48 156t48 155t140 47q94 0 142 -47t48 -155t-48.5 -156t-141.5 -48zM239 609q-32 0 -43.5 -18.5t-11.5 -80.5q0 -60 12 -79t43 -19q32 0 44 19t12 79q0 62 -12 80.5t-44 18.5z" />
    <glyph glyph-name="guillemotright" unicode="&#xbb;" horiz-adv-x="742" 
d="M346 137l136 186l-136 189l103 105l273 -292l-272 -291zM20 137l136 186l-136 189l103 105l273 -292l-272 -291z" />
    <glyph glyph-name="onequarter" unicode="&#xbc;" horiz-adv-x="942" 
d="M567 697h173l-467 -697h-173zM708 84h-229v68q85 149 189 294h184v-235h55v-127h-55v-84h-144v84zM708 211v118q-45 -61 -76 -118h76zM278 262h-145v263l-96 -37l-40 121l281 113v-460z" />
    <glyph glyph-name="onehalf" unicode="&#xbd;" horiz-adv-x="942" 
d="M584 301l-23 127q60 23 165 23q97 0 146.5 -33.5t49.5 -112.5q0 -107 -68 -130q-21 -7 -44.5 -14l-36 -10.5t-24.5 -8t-17 -8.5t-6 -10h197v-124h-373q4 94 32 143.5t94 82.5q12 6 42 17t42.5 20.5t12.5 24.5q0 18 -12.5 24.5t-48.5 6.5q-60 0 -128 -18zM567 697h173
l-467 -697h-173zM278 262h-145v263l-96 -37l-40 121l281 113v-460z" />
    <glyph glyph-name="threequarters" unicode="&#xbe;" horiz-adv-x="942" 
d="M636 697h173l-467 -697h-173zM737 84h-229v68q85 149 189 294h184v-235h55v-127h-55v-84h-144v84zM737 211v118q-45 -61 -76 -118h76zM99 430v111h72q21 0 28 6t7 21q0 13 -13.5 18t-60.5 5q-65 0 -101 -11l-21 118q68 15 155 15q105 0 154.5 -26.5t49.5 -91.5
q0 -51 -23.5 -76.5t-81.5 -29.5q61 -3 87.5 -31t26.5 -84q0 -68 -54 -97.5t-159 -29.5q-82 0 -157 14l22 120q40 -11 102 -11q50 0 65.5 6t15.5 20q0 20 -8.5 27t-30.5 7h-75z" />
    <glyph glyph-name="questiondown" unicode="&#xbf;" horiz-adv-x="520" 
d="M177 288q-79 -72 -124 -136t-45 -135q0 -112 69 -161.5t230 -49.5q114 0 205 24l-34 168q-53 -17 -149 -17q-57 0 -78.5 16t-21.5 46q0 54 30.5 109.5t96.5 135.5h-179zM263 336q-62 0 -84 17.5t-22 74.5q0 63 22 82t84 19q61 0 82.5 -19.5t21.5 -81.5q0 -57 -21.5 -74.5
t-82.5 -17.5z" />
    <glyph glyph-name="Agrave" unicode="&#xc0;" horiz-adv-x="696" 
d="M211 697h291q108 -368 240 -697h-211q-23 53 -50 134h-270l-36 -134h-207q38 133 111.5 344t131.5 353zM358 529h-25q-28 -79 -74 -230h167q-43 136 -68 230zM465 747h-150l-156 129h182z" />
    <glyph glyph-name="Aacute" unicode="&#xc1;" horiz-adv-x="696" 
d="M502 697h-291q-58 -142 -131.5 -353t-111.5 -344h207l36 134h270q27 -81 50 -134h211q-132 329 -240 697zM358 529q25 -94 68 -230h-167q46 151 74 230h25zM375 747h-150l124 129h182z" />
    <glyph glyph-name="Acircumflex" unicode="&#xc2;" horiz-adv-x="696" 
d="M502 697h-291q-58 -142 -131.5 -353t-111.5 -344h207l36 134h270q27 -81 50 -134h211q-132 329 -240 697zM358 529q25 -94 68 -230h-167q46 151 74 230h25zM409 747l-61 66l-59 -66h-148l122 129h172l126 -129h-152z" />
    <glyph glyph-name="Atilde" unicode="&#xc3;" horiz-adv-x="696" 
d="M502 697h-291q-58 -142 -131.5 -353t-111.5 -344h207l36 134h270q27 -81 50 -134h211q-132 329 -240 697zM358 529q25 -94 68 -230h-167q46 151 74 230h25zM455 891l83 -67q-15 -40 -49 -67.5t-81 -27.5q-36 0 -78.5 20.5t-64.5 20.5q-26 0 -44 -41l-76 75q46 79 114 79
q44 0 88 -19.5t62 -19.5q17 0 26.5 9.5t19.5 37.5z" />
    <glyph glyph-name="Adieresis" unicode="&#xc4;" horiz-adv-x="696" 
d="M502 697h-291q-58 -142 -131.5 -353t-111.5 -344h207l36 134h270q27 -81 50 -134h211q-132 329 -240 697zM358 529q25 -94 68 -230h-167q46 151 74 230h25zM229 881q46 0 62 -13.5t16 -58.5q0 -49 -16 -64.5t-62 -15.5q-45 0 -61 15.5t-16 64.5q0 45 16 58.5t61 13.5z
M467 881q45 0 61 -13.5t16 -58.5q0 -49 -16 -64.5t-61 -15.5q-46 0 -62 15t-16 65q0 45 15.5 58.5t62.5 13.5z" />
    <glyph glyph-name="Aring" unicode="&#xc5;" horiz-adv-x="696" 
d="M211 697h291q108 -368 240 -697h-211q-23 53 -50 134h-270l-36 -134h-207q38 133 111.5 344t131.5 353zM358 529h-25q-28 -79 -74 -230h167q-43 136 -68 230zM348 908q69 0 98.5 -21.5t29.5 -80.5t-29 -80.5t-99 -21.5q-71 0 -100.5 21.5t-29.5 80.5t30 80.5t100 21.5z
M348 840q-27 0 -35 -7.5t-8 -27.5q0 -21 8 -27.5t35 -6.5q26 0 34 7t8 27q0 21 -8 28t-34 7z" />
    <glyph glyph-name="AE" unicode="&#xc6;" horiz-adv-x="976" 
d="M310 697h645v-168h-343v-88h197v-165h-197v-108h343v-168h-534v134h-278l-82 -134h-232q85 136 231 347zM248 299h173v230h-21z" />
    <glyph glyph-name="Ccedilla" unicode="&#xc7;" horiz-adv-x="583" 
d="M44 355q0 106 20 176t63 110.5t102.5 56.5t148.5 16q114 0 205 -24l-34 -168q-53 17 -126 17q-54 0 -82.5 -5t-52 -23.5t-32 -56t-8.5 -101.5q0 -65 8.5 -102.5t32 -57t52.5 -25t82 -5.5q73 0 126 17l34 -172q-91 -22 -205 -22q-176 0 -255 81t-79 288zM332 0h65v-36
q100 0 100 -81q0 -48 -33 -67t-116 -19q-52 0 -90 11l26 66q14 -7 54 -7q26 0 26 19q0 26 -68 20z" />
    <glyph glyph-name="Egrave" unicode="&#xc8;" horiz-adv-x="631" 
d="M76 697h534v-168h-343v-88h247v-165h-247v-108h343v-168h-534v697zM492 747h-150l-156 129h182z" />
    <glyph glyph-name="Eacute" unicode="&#xc9;" horiz-adv-x="631" 
d="M610 697h-534v-697h534v168h-343v108h247v165h-247v88h343v168zM390 747h-150l124 129h182z" />
    <glyph glyph-name="Ecircumflex" unicode="&#xca;" horiz-adv-x="631" 
d="M610 697h-534v-697h534v168h-343v108h247v165h-247v88h343v168zM409 747l-61 66l-59 -66h-148l122 129h172l126 -129h-152z" />
    <glyph glyph-name="Edieresis" unicode="&#xcb;" horiz-adv-x="631" 
d="M610 697h-534v-697h534v168h-343v108h247v165h-247v88h343v168zM227 881q46 0 62 -13.5t16 -58.5q0 -49 -16 -64.5t-62 -15.5q-45 0 -61 15.5t-16 64.5q0 45 16 58.5t61 13.5zM465 881q45 0 61 -13.5t16 -58.5q0 -49 -16 -64.5t-61 -15.5q-46 0 -62 15t-16 65
q0 45 15.5 58.5t62.5 13.5z" />
    <glyph glyph-name="Igrave" unicode="&#xcc;" horiz-adv-x="343" 
d="M76 697h191v-697h-191v697zM279 747h-150l-156 129h182z" />
    <glyph glyph-name="Iacute" unicode="&#xcd;" horiz-adv-x="343" 
d="M267 697h-191v-697h191v697zM218 747h-150l124 129h182z" />
    <glyph glyph-name="Icircumflex" unicode="&#xce;" horiz-adv-x="343" 
d="M267 697h-191v-697h191v697zM230 747l-61 66l-59 -66h-148l122 129h172l126 -129h-152z" />
    <glyph glyph-name="Idieresis" unicode="&#xcf;" horiz-adv-x="343" 
d="M267 697h-191v-697h191v697zM53 881q46 0 62 -13.5t16 -58.5q0 -49 -16 -64.5t-62 -15.5q-45 0 -61 15.5t-16 64.5q0 45 16 58.5t61 13.5zM291 881q45 0 61 -13.5t16 -58.5q0 -49 -16 -64.5t-61 -15.5q-46 0 -62 15t-16 65q0 45 15.5 58.5t62.5 13.5z" />
    <glyph glyph-name="Eth" unicode="&#xd0;" horiz-adv-x="770" 
d="M25 289v128h51v280h316q88 0 147.5 -15.5t103 -54t63.5 -106t20 -168.5q0 -198 -79.5 -275.5t-254.5 -77.5h-316v289h-51zM522 350q0 65 -5.5 99t-25 53t-45 23t-79.5 4h-100v-112h156v-128h-156v-120h100q42 0 65.5 3.5t43.5 13t28.5 30.5t13 52t4.5 82z" />
    <glyph glyph-name="Ntilde" unicode="&#xd1;" horiz-adv-x="818" 
d="M742 697v-697h-237q-107 198 -243 427v-427h-186v697h247q124 -211 230 -415v415h189zM519 891l83 -67q-15 -40 -49 -67.5t-81 -27.5q-36 0 -78.5 20.5t-64.5 20.5q-26 0 -44 -41l-76 75q46 79 114 79q44 0 88 -19.5t62 -19.5q17 0 26.5 9.5t19.5 37.5z" />
    <glyph glyph-name="Ograve" unicode="&#xd2;" horiz-adv-x="781" 
d="M391 714q88 0 149.5 -16t107.5 -56t67.5 -110t21.5 -174q0 -106 -22 -179t-67.5 -115t-107 -60t-149.5 -18t-150 18t-107.5 60t-67.5 115t-22 179q0 104 22 174t67.5 110t107 56t150.5 16zM391 161q35 0 55.5 2t38 10t25.5 19t14 35t7.5 52.5t1.5 76.5q0 45 -1.5 71.5
t-7.5 49t-14 33t-26 17.5t-38 8.5t-55 1.5q-36 0 -56 -1.5t-38 -8.5t-26 -17.5t-14 -33t-7.5 -49t-1.5 -71.5q0 -48 1.5 -76.5t7.5 -52.5t14 -35t26 -19t38.5 -10t55.5 -2zM505 747h-150l-156 129h182z" />
    <glyph glyph-name="Oacute" unicode="&#xd3;" horiz-adv-x="781" 
d="M391 714q-89 0 -150.5 -16t-107 -56t-67.5 -110t-22 -174q0 -106 22 -179t67.5 -115t107.5 -60t150 -18t149.5 18t107 60t67.5 115t22 179q0 104 -21.5 174t-67.5 110t-107.5 56t-149.5 16zM391 161q-35 0 -55.5 2t-38.5 10t-26 19t-14 35t-7.5 52.5t-1.5 76.5
q0 45 1.5 71.5t7.5 49t14 33t26 17.5t38 8.5t56 1.5q35 0 55 -1.5t38 -8.5t26 -17.5t14 -33t7.5 -49t1.5 -71.5q0 -48 -1.5 -76.5t-7.5 -52.5t-14 -35t-25.5 -19t-38 -10t-55.5 -2zM390 747h-150l124 129h182z" />
    <glyph glyph-name="Ocircumflex" unicode="&#xd4;" horiz-adv-x="781" 
d="M391 714q-89 0 -150.5 -16t-107 -56t-67.5 -110t-22 -174q0 -106 22 -179t67.5 -115t107.5 -60t150 -18t149.5 18t107 60t67.5 115t22 179q0 104 -21.5 174t-67.5 110t-107.5 56t-149.5 16zM391 161q-35 0 -55.5 2t-38.5 10t-26 19t-14 35t-7.5 52.5t-1.5 76.5
q0 45 1.5 71.5t7.5 49t14 33t26 17.5t38 8.5t56 1.5q35 0 55 -1.5t38 -8.5t26 -17.5t14 -33t7.5 -49t1.5 -71.5q0 -48 -1.5 -76.5t-7.5 -52.5t-14 -35t-25.5 -19t-38 -10t-55.5 -2zM448 747l-61 66l-59 -66h-148l122 129h172l126 -129h-152z" />
    <glyph glyph-name="Otilde" unicode="&#xd5;" horiz-adv-x="781" 
d="M391 714q-89 0 -150.5 -16t-107 -56t-67.5 -110t-22 -174q0 -106 22 -179t67.5 -115t107.5 -60t150 -18t149.5 18t107 60t67.5 115t22 179q0 104 -21.5 174t-67.5 110t-107.5 56t-149.5 16zM391 161q-35 0 -55.5 2t-38.5 10t-26 19t-14 35t-7.5 52.5t-1.5 76.5
q0 45 1.5 71.5t7.5 49t14 33t26 17.5t38 8.5t56 1.5q35 0 55 -1.5t38 -8.5t26 -17.5t14 -33t7.5 -49t1.5 -71.5q0 -48 -1.5 -76.5t-7.5 -52.5t-14 -35t-25.5 -19t-38 -10t-55.5 -2zM504 891l83 -67q-15 -40 -49 -67.5t-81 -27.5q-36 0 -78.5 20.5t-64.5 20.5q-26 0 -44 -41
l-76 75q46 79 114 79q44 0 88 -19.5t62 -19.5q17 0 26.5 9.5t19.5 37.5z" />
    <glyph glyph-name="Odieresis" unicode="&#xd6;" horiz-adv-x="781" 
d="M391 714q-89 0 -150.5 -16t-107 -56t-67.5 -110t-22 -174q0 -106 22 -179t67.5 -115t107.5 -60t150 -18t149.5 18t107 60t67.5 115t22 179q0 104 -21.5 174t-67.5 110t-107.5 56t-149.5 16zM391 161q-35 0 -55.5 2t-38.5 10t-26 19t-14 35t-7.5 52.5t-1.5 76.5
q0 45 1.5 71.5t7.5 49t14 33t26 17.5t38 8.5t56 1.5q35 0 55 -1.5t38 -8.5t26 -17.5t14 -33t7.5 -49t1.5 -71.5q0 -48 -1.5 -76.5t-7.5 -52.5t-14 -35t-25.5 -19t-38 -10t-55.5 -2zM269 881q46 0 62 -13.5t16 -58.5q0 -49 -16 -64.5t-62 -15.5q-45 0 -61 15.5t-16 64.5
q0 45 16 58.5t61 13.5zM507 881q45 0 61 -13.5t16 -58.5q0 -49 -16 -64.5t-61 -15.5q-46 0 -62 15t-16 65q0 45 15.5 58.5t62.5 13.5z" />
    <glyph glyph-name="multiply" unicode="&#xd7;" horiz-adv-x="543" 
d="M159 130l-124 124l112 112l-113 112l125 125l112 -113l112 113l125 -125l-113 -112l112 -112l-124 -124l-112 112z" />
    <glyph glyph-name="Oslash" unicode="&#xd8;" horiz-adv-x="781" 
d="M604 697h193l-103 -116q43 -83 43 -223q0 -106 -22 -179t-67.5 -115t-107 -60t-149.5 -18q-119 0 -192 33l-17 -19h-193l103 117q-48 85 -48 241q0 104 22 174t67.5 110t107 56t150.5 16q124 0 198 -34zM391 537q-36 0 -56 -1.5t-38 -8.5t-26 -17.5t-14 -33t-7.5 -49
t-1.5 -71.5q0 -44 1 -62l211 239q-24 4 -69 4zM391 161q35 0 55.5 2t38 10t25.5 19t14 35t7.5 52.5t1.5 76.5q0 29 -1 41l-205 -233q25 -3 64 -3z" />
    <glyph glyph-name="Ugrave" unicode="&#xd9;" horiz-adv-x="747" 
d="M486 222v475h192v-517q0 -56 -21.5 -95t-63.5 -60t-95 -30t-125 -9q-149 0 -226.5 42.5t-77.5 151.5v517h192v-475q0 -30 24.5 -43.5t87.5 -13.5t88 13.5t25 43.5zM498 747h-150l-156 129h182z" />
    <glyph glyph-name="Uacute" unicode="&#xda;" horiz-adv-x="747" 
d="M486 697v-475q0 -30 -25 -43.5t-88 -13.5t-87.5 13.5t-24.5 43.5v475h-192v-517q0 -109 77.5 -151.5t226.5 -42.5q72 0 125 9t95 30t63.5 60t21.5 95v517h-192zM398 747h-150l124 129h182z" />
    <glyph glyph-name="Ucircumflex" unicode="&#xdb;" horiz-adv-x="747" 
d="M486 697v-475q0 -30 -25 -43.5t-88 -13.5t-87.5 13.5t-24.5 43.5v475h-192v-517q0 -109 77.5 -151.5t226.5 -42.5q72 0 125 9t95 30t63.5 60t21.5 95v517h-192zM428 747l-61 66l-59 -66h-148l122 129h172l126 -129h-152z" />
    <glyph glyph-name="Udieresis" unicode="&#xdc;" horiz-adv-x="747" 
d="M486 697v-475q0 -30 -25 -43.5t-88 -13.5t-87.5 13.5t-24.5 43.5v475h-192v-517q0 -109 77.5 -151.5t226.5 -42.5q72 0 125 9t95 30t63.5 60t21.5 95v517h-192zM252 881q46 0 62 -13.5t16 -58.5q0 -49 -16 -64.5t-62 -15.5q-45 0 -61 15.5t-16 64.5q0 45 16 58.5t61 13.5
zM490 881q45 0 61 -13.5t16 -58.5q0 -49 -16 -64.5t-61 -15.5q-46 0 -62 15t-16 65q0 45 15.5 58.5t62.5 13.5z" />
    <glyph glyph-name="Yacute" unicode="&#xdd;" horiz-adv-x="669" 
d="M183 697l165 -227q115 168 148 227h237q-105 -166 -291 -430v-267h-191v266q-233 324 -322 431h254zM382 747h-150l124 129h182z" />
    <glyph glyph-name="Thorn" unicode="&#xde;" horiz-adv-x="696" 
d="M76 697h191v-89h224q189 0 189 -251q0 -104 -49.5 -172.5t-139.5 -68.5h-224v-116h-191v697zM267 271h150q54 0 54 86q0 88 -53 88h-151v-174z" />
    <glyph glyph-name="germandbls" unicode="&#xdf;" horiz-adv-x="692" 
d="M342 714q165 0 230 -40.5t65 -144.5q0 -81 -31 -119.5t-120 -45.5q95 -4 129.5 -46t34.5 -133q0 -110 -64.5 -154.5t-222.5 -44.5q-46 0 -87 4l22 155q44 -4 76 -4q46 0 61.5 14.5t15.5 52.5q0 44 -18 60.5t-57 16.5h-54v146h49q43 0 58.5 16.5t15.5 47.5
q0 36 -20.5 47.5t-83.5 11.5q-95 0 -95 -71v-483h-183v518q0 110 69 153t210 43z" />
    <glyph glyph-name="agrave" unicode="&#xe0;" horiz-adv-x="578" 
d="M522 329v-303q-117 -40 -256 -40q-133 0 -178.5 34.5t-45.5 135.5t48 134t152 33q49 0 107 -12q0 43 -18.5 57.5t-86.5 14.5q-71 0 -163 -25l-26 143q116 28 237 28q120 0 175 -45t55 -155zM349 129v69q-23 5 -65 5q-32 0 -43.5 -8t-11.5 -34q0 -27 9.5 -35t42.5 -8
q38 0 68 11zM390 568h-150l-156 129h182z" />
    <glyph glyph-name="aacute" unicode="&#xe1;" horiz-adv-x="578" 
d="M522 26v303q0 110 -55 155t-175 45q-122 0 -237 -28l26 -143q92 25 163 25q68 0 86.5 -14.5t18.5 -57.5q-58 12 -107 12q-104 0 -152 -33t-48 -134t45.5 -135.5t178.5 -34.5q139 0 256 40zM349 129q-30 -11 -68 -11q-33 0 -42.5 8t-9.5 35q0 26 11.5 34t43.5 8
q42 0 65 -5v-69zM330 568h-150l124 129h182z" />
    <glyph glyph-name="acircumflex" unicode="&#xe2;" horiz-adv-x="578" 
d="M522 26v303q0 110 -55 155t-175 45q-122 0 -237 -28l26 -143q92 25 163 25q68 0 86.5 -14.5t18.5 -57.5q-58 12 -107 12q-104 0 -152 -33t-48 -134t45.5 -135.5t178.5 -34.5q139 0 256 40zM349 129q-30 -11 -68 -11q-33 0 -42.5 8t-9.5 35q0 26 11.5 34t43.5 8
q42 0 65 -5v-69zM347 568l-61 66l-59 -66h-148l122 129h172l126 -129h-152z" />
    <glyph glyph-name="atilde" unicode="&#xe3;" horiz-adv-x="578" 
d="M522 26v303q0 110 -55 155t-175 45q-122 0 -237 -28l26 -143q92 25 163 25q68 0 86.5 -14.5t18.5 -57.5q-58 12 -107 12q-104 0 -152 -33t-48 -134t45.5 -135.5t178.5 -34.5q139 0 256 40zM349 129q-30 -11 -68 -11q-33 0 -42.5 8t-9.5 35q0 26 11.5 34t43.5 8
q42 0 65 -5v-69zM391 715l83 -67q-15 -40 -49 -67.5t-81 -27.5q-36 0 -78.5 20.5t-64.5 20.5q-26 0 -44 -41l-76 75q46 79 114 79q44 0 88 -19.5t62 -19.5q17 0 26.5 9.5t19.5 37.5z" />
    <glyph glyph-name="adieresis" unicode="&#xe4;" horiz-adv-x="578" 
d="M522 26v303q0 110 -55 155t-175 45q-122 0 -237 -28l26 -143q92 25 163 25q68 0 86.5 -14.5t18.5 -57.5q-58 12 -107 12q-104 0 -152 -33t-48 -134t45.5 -135.5t178.5 -34.5q139 0 256 40zM349 129q-30 -11 -68 -11q-33 0 -42.5 8t-9.5 35q0 26 11.5 34t43.5 8
q42 0 65 -5v-69zM162 706q46 0 62 -13.5t16 -58.5q0 -49 -16 -64.5t-62 -15.5q-45 0 -61 15.5t-16 64.5q0 45 16 58.5t61 13.5zM400 706q45 0 61 -13.5t16 -58.5q0 -49 -16 -64.5t-61 -15.5q-46 0 -62 15t-16 65q0 45 15.5 58.5t62.5 13.5z" />
    <glyph glyph-name="aring" unicode="&#xe5;" horiz-adv-x="578" 
d="M522 329v-303q-117 -40 -256 -40q-133 0 -178.5 34.5t-45.5 135.5t48 134t152 33q49 0 107 -12q0 43 -18.5 57.5t-86.5 14.5q-71 0 -163 -25l-26 143q116 28 237 28q120 0 175 -45t55 -155zM349 129v69q-23 5 -65 5q-32 0 -43.5 -8t-11.5 -34q0 -27 9.5 -35t42.5 -8
q38 0 68 11zM284 744q69 0 98.5 -21.5t29.5 -80.5t-29 -80.5t-99 -21.5q-71 0 -100.5 21.5t-29.5 80.5t30 80.5t100 21.5zM284 676q-27 0 -35 -7.5t-8 -27.5q0 -21 8 -27.5t35 -6.5q26 0 34 7t8 27q0 21 -8 28t-34 7z" />
    <glyph glyph-name="ae" unicode="&#xe6;" horiz-adv-x="858" 
d="M761 150l26 -136q-84 -28 -191 -28q-77 0 -129 26q-104 -26 -201 -26q-133 0 -178.5 34.5t-45.5 135.5t48 134t152 33q49 0 107 -12q0 42 -18 55t-87 13q-86 0 -163 -21l-26 143q116 28 237 28q99 0 153 -33q52 33 140 33q57 0 95.5 -7.5t70.5 -28t48.5 -57.5t23 -95.5
t0.5 -141.5h-297q1 -38 23 -50.5t71 -12.5q78 0 141 14zM359 131q-12 36 -12 67q-23 5 -61 5q-32 0 -43.5 -8t-11.5 -34q0 -27 9.5 -35t42.5 -8q37 0 76 13zM600 394q-37 0 -51.5 -13.5t-21.5 -50.5h142q-1 38 -16 51t-53 13z" />
    <glyph glyph-name="ccedilla" unicode="&#xe7;" horiz-adv-x="474" 
d="M430 163l36 -152q-66 -25 -167 -25q-124 0 -191.5 62.5t-67.5 211.5q0 76 18.5 129.5t54.5 83.5t81 43t105 13q103 0 167 -22l-36 -152q-68 20 -113 20q-27 0 -41 -3t-28 -14t-19.5 -35.5t-5.5 -65.5q0 -73 21.5 -94.5t72.5 -21.5q54 0 113 22zM253 0h65v-36
q100 0 100 -81q0 -48 -33 -67t-116 -19q-52 0 -90 11l26 66q14 -7 54 -7q26 0 26 19q0 26 -68 20z" />
    <glyph glyph-name="egrave" unicode="&#xe8;" horiz-adv-x="559" 
d="M462 150l26 -136q-84 -28 -191 -28q-257 0 -257 274q0 148 63.5 208.5t182.5 60.5q57 0 95.5 -7.5t70.5 -28t48.5 -57.5t23 -95.5t0.5 -141.5h-297q1 -38 23 -50.5t71 -12.5q78 0 141 14zM301 394q-37 0 -51.5 -13.5t-21.5 -50.5h142q-1 38 -16 51t-53 13zM404 568h-150
l-156 129h182z" />
    <glyph glyph-name="eacute" unicode="&#xe9;" horiz-adv-x="559" 
d="M488 14l-26 136q-63 -14 -141 -14q-49 0 -71 12.5t-23 50.5h297q6 83 -0.5 141.5t-23 95.5t-48.5 57.5t-70.5 28t-95.5 7.5q-119 0 -182.5 -60.5t-63.5 -208.5q0 -274 257 -274q107 0 191 28zM301 394q38 0 53 -13t16 -51h-142q7 37 21.5 50.5t51.5 13.5zM342 568h-150
l124 129h182z" />
    <glyph glyph-name="ecircumflex" unicode="&#xea;" horiz-adv-x="559" 
d="M488 14l-26 136q-63 -14 -141 -14q-49 0 -71 12.5t-23 50.5h297q6 83 -0.5 141.5t-23 95.5t-48.5 57.5t-70.5 28t-95.5 7.5q-119 0 -182.5 -60.5t-63.5 -208.5q0 -274 257 -274q107 0 191 28zM301 394q38 0 53 -13t16 -51h-142q7 37 21.5 50.5t51.5 13.5zM358 568l-61 66
l-59 -66h-148l122 129h172l126 -129h-152z" />
    <glyph glyph-name="edieresis" unicode="&#xeb;" horiz-adv-x="559" 
d="M488 14l-26 136q-63 -14 -141 -14q-49 0 -71 12.5t-23 50.5h297q6 83 -0.5 141.5t-23 95.5t-48.5 57.5t-70.5 28t-95.5 7.5q-119 0 -182.5 -60.5t-63.5 -208.5q0 -274 257 -274q107 0 191 28zM301 394q38 0 53 -13t16 -51h-142q7 37 21.5 50.5t51.5 13.5zM179 706
q46 0 62 -13.5t16 -58.5q0 -49 -16 -64.5t-62 -15.5q-45 0 -61 15.5t-16 64.5q0 45 16 58.5t61 13.5zM417 706q45 0 61 -13.5t16 -58.5q0 -49 -16 -64.5t-61 -15.5q-46 0 -62 15t-16 65q0 45 15.5 58.5t62.5 13.5z" />
    <glyph glyph-name="igrave" unicode="&#xec;" horiz-adv-x="307" 
d="M246 514v-514h-183v514h183zM267 568h-150l-156 129h182z" />
    <glyph glyph-name="iacute" unicode="&#xed;" horiz-adv-x="307" 
d="M246 514v-514h-183v514h183zM186 568h-150l124 129h182z" />
    <glyph glyph-name="icircumflex" unicode="&#xee;" horiz-adv-x="307" 
d="M246 514v-514h-183v514h183zM213 568l-61 66l-59 -66h-148l122 129h172l126 -129h-152z" />
    <glyph glyph-name="idieresis" unicode="&#xef;" horiz-adv-x="307" 
d="M246 514v-514h-183v514h183zM37 706q46 0 62 -13.5t16 -58.5q0 -49 -16 -64.5t-62 -15.5q-45 0 -61 15.5t-16 64.5q0 45 16 58.5t61 13.5zM275 706q45 0 61 -13.5t16 -58.5q0 -49 -16 -64.5t-61 -15.5q-46 0 -62 15t-16 65q0 45 15.5 58.5t62.5 13.5z" />
    <glyph glyph-name="eth" unicode="&#xf0;" horiz-adv-x="630" 
d="M241 470l-65 82l67 38q-20 26 -90 107h229q3 -3 8 -9t8 -9l47 27l65 -81l-45 -26q130 -175 130 -377q0 -94 -21.5 -143t-81 -72.5t-174.5 -23.5q-158 0 -216 50t-58 190q0 122 55.5 170.5t205.5 48.5h38q-19 35 -39 64zM333 281q-60 0 -75.5 -11t-15.5 -51
q0 -37 14.5 -48.5t61.5 -11.5q48 0 60.5 15t12.5 64q0 28 -2 42q-20 1 -56 1z" />
    <glyph glyph-name="ntilde" unicode="&#xf1;" horiz-adv-x="612" 
d="M246 360v-360h-183v481q144 48 278 48q109 0 162 -56.5t53 -189.5v-283h-183v271q0 56 -13.5 76t-58.5 20q-18 0 -55 -7zM421 715l83 -67q-15 -40 -49 -67.5t-81 -27.5q-36 0 -78.5 20.5t-64.5 20.5q-26 0 -44 -41l-76 75q46 79 114 79q44 0 88 -19.5t62 -19.5
q17 0 26.5 9.5t19.5 37.5z" />
    <glyph glyph-name="ograve" unicode="&#xf2;" 
d="M295 -14q-132 0 -193.5 60.5t-61.5 213.5q0 151 62 210t193 59q133 0 195 -59t62 -210q0 -153 -62 -213.5t-195 -60.5zM295 389q-45 0 -58.5 -22.5t-13.5 -109.5q0 -85 14 -108t58 -23q45 0 59 23t14 108q0 87 -13.5 109.5t-59.5 22.5zM409 568h-150l-156 129h182z" />
    <glyph glyph-name="oacute" unicode="&#xf3;" 
d="M295 -14q133 0 195 60.5t62 213.5q0 151 -62 210t-195 59q-131 0 -193 -59t-62 -210q0 -153 61.5 -213.5t193.5 -60.5zM295 389q46 0 59.5 -22.5t13.5 -109.5q0 -85 -14 -108t-59 -23q-44 0 -58 23t-14 108q0 87 13.5 109.5t58.5 22.5zM329 568h-150l124 129h182z" />
    <glyph glyph-name="ocircumflex" unicode="&#xf4;" 
d="M295 -14q133 0 195 60.5t62 213.5q0 151 -62 210t-195 59q-131 0 -193 -59t-62 -210q0 -153 61.5 -213.5t193.5 -60.5zM295 389q46 0 59.5 -22.5t13.5 -109.5q0 -85 -14 -108t-59 -23q-44 0 -58 23t-14 108q0 87 13.5 109.5t58.5 22.5zM351 568l-61 66l-59 -66h-148
l122 129h172l126 -129h-152z" />
    <glyph glyph-name="otilde" unicode="&#xf5;" 
d="M295 -14q133 0 195 60.5t62 213.5q0 151 -62 210t-195 59q-131 0 -193 -59t-62 -210q0 -153 61.5 -213.5t193.5 -60.5zM295 389q46 0 59.5 -22.5t13.5 -109.5q0 -85 -14 -108t-59 -23q-44 0 -58 23t-14 108q0 87 13.5 109.5t58.5 22.5zM408 715l83 -67q-15 -40 -49 -67.5
t-81 -27.5q-36 0 -78.5 20.5t-64.5 20.5q-26 0 -44 -41l-76 75q46 79 114 79q44 0 88 -19.5t62 -19.5q17 0 26.5 9.5t19.5 37.5z" />
    <glyph glyph-name="odieresis" unicode="&#xf6;" 
d="M295 -14q133 0 195 60.5t62 213.5q0 151 -62 210t-195 59q-131 0 -193 -59t-62 -210q0 -153 61.5 -213.5t193.5 -60.5zM295 389q46 0 59.5 -22.5t13.5 -109.5q0 -85 -14 -108t-59 -23q-44 0 -58 23t-14 108q0 87 13.5 109.5t58.5 22.5zM176 706q46 0 62 -13.5t16 -58.5
q0 -49 -16 -64.5t-62 -15.5q-45 0 -61 15.5t-16 64.5q0 45 16 58.5t61 13.5zM414 706q45 0 61 -13.5t16 -58.5q0 -49 -16 -64.5t-61 -15.5q-46 0 -62 15t-16 65q0 45 15.5 58.5t62.5 13.5z" />
    <glyph glyph-name="divide" unicode="&#xf7;" horiz-adv-x="543" 
d="M25 278v176h493v-176h-493zM266 241q62 0 84 -17.5t22 -74.5q0 -63 -22 -82t-84 -19q-61 0 -82.5 19.5t-21.5 81.5q0 57 21.5 74.5t82.5 17.5zM266 682q63 0 84.5 -17t21.5 -75q0 -62 -22 -81t-84 -19q-61 0 -82.5 19t-21.5 81q0 58 21.5 75t82.5 17z" />
    <glyph glyph-name="oslash" unicode="&#xf8;" 
d="M449 514h156l-82 -92q29 -61 29 -162q0 -153 -62 -213.5t-195 -60.5q-84 0 -141 24l-9 -10h-156l81 91q-30 61 -30 169q0 151 62 210t193 59q92 0 145 -25zM295 389q-45 0 -58.5 -21.5t-13.5 -106.5l110 123q-12 5 -38 5zM295 126q44 0 58 21.5t15 101.5l-108 -120
q9 -3 35 -3z" />
    <glyph glyph-name="ugrave" unicode="&#xf9;" horiz-adv-x="612" 
d="M367 154v360h182v-481q-144 -48 -278 -48q-109 0 -161.5 56.5t-52.5 189.5v283h182v-271q0 -56 13.5 -76t58.5 -20q17 0 56 7zM413 568h-150l-156 129h182z" />
    <glyph glyph-name="uacute" unicode="&#xfa;" horiz-adv-x="612" 
d="M367 514v-360q-39 -7 -56 -7q-45 0 -58.5 20t-13.5 76v271h-182v-283q0 -133 52.5 -189.5t161.5 -56.5q134 0 278 48v481h-182zM343 568h-150l124 129h182z" />
    <glyph glyph-name="ucircumflex" unicode="&#xfb;" horiz-adv-x="612" 
d="M367 514v-360q-39 -7 -56 -7q-45 0 -58.5 20t-13.5 76v271h-182v-283q0 -133 52.5 -189.5t161.5 -56.5q134 0 278 48v481h-182zM364 568l-61 66l-59 -66h-148l122 129h172l126 -129h-152z" />
    <glyph glyph-name="udieresis" unicode="&#xfc;" horiz-adv-x="612" 
d="M367 514v-360q-39 -7 -56 -7q-45 0 -58.5 20t-13.5 76v271h-182v-283q0 -133 52.5 -189.5t161.5 -56.5q134 0 278 48v481h-182zM182 706q46 0 62 -13.5t16 -58.5q0 -49 -16 -64.5t-62 -15.5q-45 0 -61 15.5t-16 64.5q0 45 16 58.5t61 13.5zM420 706q45 0 61 -13.5
t16 -58.5q0 -49 -16 -64.5t-61 -15.5q-46 0 -62 15t-16 65q0 45 15.5 58.5t62.5 13.5z" />
    <glyph glyph-name="yacute" unicode="&#xfd;" horiz-adv-x="513" 
d="M350 514h180q-105 -372 -264 -706h-200q39 66 84 166q-60 218 -174 540h184q51 -142 97 -326q60 183 93 326zM312 568h-150l124 129h182z" />
    <glyph glyph-name="thorn" unicode="&#xfe;" horiz-adv-x="604" 
d="M63 -192v889h183v-170q38 2 58 2q139 0 199 -59.5t60 -213.5q0 -270 -213 -270q-47 0 -104 17v-195h-183zM246 369v-208q0 -11 17 -19t43 -8q43 0 59 25.5t16 92.5q0 78 -16 102t-61 24q-36 0 -58 -9z" />
    <glyph glyph-name="ydieresis" unicode="&#xff;" horiz-adv-x="513" 
d="M350 514h180q-105 -372 -264 -706h-200q39 66 84 166q-60 218 -174 540h184q51 -142 97 -326q60 183 93 326zM145 706q46 0 62 -13.5t16 -58.5q0 -49 -16 -64.5t-62 -15.5q-45 0 -61 15.5t-16 64.5q0 45 16 58.5t61 13.5zM383 706q45 0 61 -13.5t16 -58.5
q0 -49 -16 -64.5t-61 -15.5q-46 0 -62 15t-16 65q0 45 15.5 58.5t62.5 13.5z" />
    <glyph glyph-name="Amacron" unicode="&#x100;" horiz-adv-x="696" 
d="M502 697h-291q-58 -142 -131.5 -353t-111.5 -344h207l36 134h270q27 -81 50 -134h211q-132 329 -240 697zM358 529q25 -94 68 -230h-167q46 151 74 230h25zM198 737v122h305v-122h-305z" />
    <glyph glyph-name="amacron" unicode="&#x101;" horiz-adv-x="578" 
d="M522 26v303q0 110 -55 155t-175 45q-122 0 -237 -28l26 -143q92 25 163 25q68 0 86.5 -14.5t18.5 -57.5q-58 12 -107 12q-104 0 -152 -33t-48 -134t45.5 -135.5t178.5 -34.5q139 0 256 40zM349 129q-30 -11 -68 -11q-33 0 -42.5 8t-9.5 35q0 26 11.5 34t43.5 8
q42 0 65 -5v-69zM133 567v122h305v-122h-305z" />
    <glyph glyph-name="Abreve" unicode="&#x102;" horiz-adv-x="696" 
d="M502 697h-291q-58 -142 -131.5 -353t-111.5 -344h207l36 134h270q27 -81 50 -134h211q-132 329 -240 697zM358 529q25 -94 68 -230h-167q46 151 74 230h25zM181 871h116q0 -27 12.5 -36.5t41.5 -9.5q28 0 40.5 9.5t12.5 36.5h108q0 -148 -166 -148q-79 0 -122 36.5
t-43 111.5z" />
    <glyph glyph-name="abreve" unicode="&#x103;" horiz-adv-x="578" 
d="M522 26v303q0 110 -55 155t-175 45q-122 0 -237 -28l26 -143q92 25 163 25q68 0 86.5 -14.5t18.5 -57.5q-58 12 -107 12q-104 0 -152 -33t-48 -134t45.5 -135.5t178.5 -34.5q139 0 256 40zM349 129q-30 -11 -68 -11q-33 0 -42.5 8t-9.5 35q0 26 11.5 34t43.5 8
q42 0 65 -5v-69zM121 697h116q0 -27 12.5 -36.5t41.5 -9.5q28 0 40.5 9.5t12.5 36.5h108q0 -148 -166 -148q-79 0 -122 36.5t-43 111.5z" />
    <glyph glyph-name="Aogonek" unicode="&#x104;" horiz-adv-x="696" 
d="M211 697h291q108 -368 240 -697h-211q-23 53 -50 134h-270l-36 -134h-207q38 133 111.5 344t131.5 353zM358 529h-25q-28 -79 -74 -230h167q-43 136 -68 230zM639 12h45q-44 -27 -59 -46t-15 -46q0 -19 11 -27t42 -8q44 0 73 24l42 -77q-50 -35 -136 -35
q-77 0 -107.5 21.5t-30.5 67.5q0 41 34 75t101 51z" />
    <glyph glyph-name="aogonek" unicode="&#x105;" horiz-adv-x="578" 
d="M522 329v-303q-117 -40 -256 -40q-133 0 -178.5 34.5t-45.5 135.5t48 134t152 33q49 0 107 -12q0 43 -18.5 57.5t-86.5 14.5q-71 0 -163 -25l-26 143q116 28 237 28q120 0 175 -45t55 -155zM349 129v69q-23 5 -65 5q-32 0 -43.5 -8t-11.5 -34q0 -27 9.5 -35t42.5 -8
q38 0 68 11zM431 12h45q-44 -27 -59 -46t-15 -46q0 -19 11 -27t42 -8q44 0 73 24l42 -77q-50 -35 -136 -35q-77 0 -107.5 21.5t-30.5 67.5q0 41 34 75t101 51z" />
    <glyph glyph-name="Cacute" unicode="&#x106;" horiz-adv-x="583" 
d="M44 355q0 106 20 176t63 110.5t102.5 56.5t148.5 16q114 0 205 -24l-34 -168q-53 17 -126 17q-54 0 -82.5 -5t-52 -23.5t-32 -56t-8.5 -101.5q0 -65 8.5 -102.5t32 -57t52.5 -25t82 -5.5q73 0 126 17l34 -172q-91 -22 -205 -22q-176 0 -255 81t-79 288zM381 747h-150
l124 129h182z" />
    <glyph glyph-name="cacute" unicode="&#x107;" horiz-adv-x="474" 
d="M430 163l36 -152q-66 -25 -167 -25q-124 0 -191.5 62.5t-67.5 211.5q0 76 18.5 129.5t54.5 83.5t81 43t105 13q103 0 167 -22l-36 -152q-68 20 -113 20q-27 0 -41 -3t-28 -14t-19.5 -35.5t-5.5 -65.5q0 -73 21.5 -94.5t72.5 -21.5q54 0 113 22zM317 568h-150l124 129h182
z" />
    <glyph glyph-name="Ccircumflex" unicode="&#x108;" horiz-adv-x="583" 
d="M44 355q0 106 20 176t63 110.5t102.5 56.5t148.5 16q114 0 205 -24l-34 -168q-53 17 -126 17q-54 0 -82.5 -5t-52 -23.5t-32 -56t-8.5 -101.5q0 -65 8.5 -102.5t32 -57t52.5 -25t82 -5.5q73 0 126 17l34 -172q-91 -22 -205 -22q-176 0 -255 81t-79 288zM433 747l-61 66
l-59 -66h-148l122 129h172l126 -129h-152z" />
    <glyph glyph-name="ccircumflex" unicode="&#x109;" horiz-adv-x="474" 
d="M430 163l36 -152q-66 -25 -167 -25q-124 0 -191.5 62.5t-67.5 211.5q0 76 18.5 129.5t54.5 83.5t81 43t105 13q103 0 167 -22l-36 -152q-68 20 -113 20q-27 0 -41 -3t-28 -14t-19.5 -35.5t-5.5 -65.5q0 -73 21.5 -94.5t72.5 -21.5q54 0 113 22zM353 568l-61 66l-59 -66
h-148l122 129h172l126 -129h-152z" />
    <glyph glyph-name="Cdotaccent" unicode="&#x10a;" horiz-adv-x="583" 
d="M44 355q0 106 20 176t63 110.5t102.5 56.5t148.5 16q114 0 205 -24l-34 -168q-53 17 -126 17q-54 0 -82.5 -5t-52 -23.5t-32 -56t-8.5 -101.5q0 -65 8.5 -102.5t32 -57t52.5 -25t82 -5.5q73 0 126 17l34 -172q-91 -22 -205 -22q-176 0 -255 81t-79 288zM385 887
q46 0 62 -13.5t16 -58.5q0 -49 -16 -64.5t-62 -15.5q-45 0 -61 15.5t-16 64.5q0 45 16 58.5t61 13.5z" />
    <glyph glyph-name="cdotaccent" unicode="&#x10b;" horiz-adv-x="474" 
d="M430 163l36 -152q-66 -25 -167 -25q-124 0 -191.5 62.5t-67.5 211.5q0 76 18.5 129.5t54.5 83.5t81 43t105 13q103 0 167 -22l-36 -152q-68 20 -113 20q-27 0 -41 -3t-28 -14t-19.5 -35.5t-5.5 -65.5q0 -73 21.5 -94.5t72.5 -21.5q54 0 113 22zM289 706q46 0 62 -13.5
t16 -58.5q0 -49 -16 -64.5t-62 -15.5q-45 0 -61 15.5t-16 64.5q0 45 16 58.5t61 13.5z" />
    <glyph glyph-name="Ccaron" unicode="&#x10c;" horiz-adv-x="583" 
d="M44 355q0 106 20 176t63 110.5t102.5 56.5t148.5 16q114 0 205 -24l-34 -168q-53 17 -126 17q-54 0 -82.5 -5t-52 -23.5t-32 -56t-8.5 -101.5q0 -65 8.5 -102.5t32 -57t52.5 -25t82 -5.5q73 0 126 17l34 -172q-91 -22 -205 -22q-176 0 -255 81t-79 288zM307 876l61 -66
l59 66h148l-122 -129h-172l-126 129h152z" />
    <glyph glyph-name="ccaron" unicode="&#x10d;" horiz-adv-x="474" 
d="M430 163l36 -152q-66 -25 -167 -25q-124 0 -191.5 62.5t-67.5 211.5q0 76 18.5 129.5t54.5 83.5t81 43t105 13q103 0 167 -22l-36 -152q-68 20 -113 20q-27 0 -41 -3t-28 -14t-19.5 -35.5t-5.5 -65.5q0 -73 21.5 -94.5t72.5 -21.5q54 0 113 22zM230 697l61 -66l59 66h148
l-122 -129h-172l-126 129h152z" />
    <glyph glyph-name="Dcaron" unicode="&#x10e;" horiz-adv-x="770" 
d="M76 697h316q88 0 147.5 -15.5t103 -54t63.5 -106t20 -168.5q0 -198 -79.5 -275.5t-254.5 -77.5h-316v697zM522 350q0 65 -5.5 99t-25 53t-45 23t-79.5 4h-100v-360h100q42 0 65.5 3.5t43.5 13t28.5 30.5t13 52t4.5 82zM301 876l61 -66l59 66h148l-122 -129h-172l-126 129
h152z" />
    <glyph glyph-name="dcaron" unicode="&#x10f;" horiz-adv-x="604" 
d="M358 146v208q0 11 -17.5 19.5t-43.5 8.5q-42 0 -58 -25.5t-16 -93.5q0 -78 16 -102t61 -24q35 0 58 9zM541 722v-701q-98 -35 -241 -35q-139 0 -199.5 60t-60.5 214q0 269 213 269q52 0 105 -16v209h183zM599 722h148l-58 -192h-108z" />
    <glyph glyph-name="Dcroat" unicode="&#x110;" horiz-adv-x="770" 
d="M25 289v128h51v280h316q88 0 147.5 -15.5t103 -54t63.5 -106t20 -168.5q0 -198 -79.5 -275.5t-254.5 -77.5h-316v289h-51zM522 350q0 65 -5.5 99t-25 53t-45 23t-79.5 4h-100v-112h156v-128h-156v-120h100q42 0 65.5 3.5t43.5 13t28.5 30.5t13 52t4.5 82z" />
    <glyph glyph-name="dcroat" unicode="&#x111;" horiz-adv-x="604" 
d="M288 567v122h70v33h183v-33h52v-122h-52v-546q-98 -35 -241 -35q-139 0 -199.5 60t-60.5 214q0 269 213 269q52 0 105 -16v54h-70zM358 146v208q0 11 -17.5 19.5t-43.5 8.5q-42 0 -58 -25.5t-16 -93.5q0 -78 16 -102t61 -24q35 0 58 9z" />
    <glyph glyph-name="Emacron" unicode="&#x112;" horiz-adv-x="631" 
d="M610 697h-534v-697h534v168h-343v108h247v165h-247v88h343v168zM191 737v122h305v-122h-305z" />
    <glyph glyph-name="emacron" unicode="&#x113;" horiz-adv-x="559" 
d="M488 14l-26 136q-63 -14 -141 -14q-49 0 -71 12.5t-23 50.5h297q6 83 -0.5 141.5t-23 95.5t-48.5 57.5t-70.5 28t-95.5 7.5q-119 0 -182.5 -60.5t-63.5 -208.5q0 -274 257 -274q107 0 191 28zM301 394q38 0 53 -13t16 -51h-142q7 37 21.5 50.5t51.5 13.5zM149 567v122
h305v-122h-305z" />
    <glyph glyph-name="Ebreve" unicode="&#x114;" horiz-adv-x="631" 
d="M610 697h-534v-697h534v168h-343v108h247v165h-247v88h343v168zM195 871h116q0 -27 12.5 -36.5t41.5 -9.5q28 0 40.5 9.5t12.5 36.5h108q0 -148 -166 -148q-79 0 -122 36.5t-43 111.5z" />
    <glyph glyph-name="ebreve" unicode="&#x115;" horiz-adv-x="559" 
d="M488 14l-26 136q-63 -14 -141 -14q-49 0 -71 12.5t-23 50.5h297q6 83 -0.5 141.5t-23 95.5t-48.5 57.5t-70.5 28t-95.5 7.5q-119 0 -182.5 -60.5t-63.5 -208.5q0 -274 257 -274q107 0 191 28zM301 394q38 0 53 -13t16 -51h-142q7 37 21.5 50.5t51.5 13.5zM131 697h116
q0 -27 12.5 -36.5t41.5 -9.5q28 0 40.5 9.5t12.5 36.5h108q0 -148 -166 -148q-79 0 -122 36.5t-43 111.5z" />
    <glyph glyph-name="Edotaccent" unicode="&#x116;" horiz-adv-x="631" 
d="M610 697h-534v-697h534v168h-343v108h247v165h-247v88h343v168zM362 887q46 0 62 -13.5t16 -58.5q0 -49 -16 -64.5t-62 -15.5q-45 0 -61 15.5t-16 64.5q0 45 16 58.5t61 13.5z" />
    <glyph glyph-name="edotaccent" unicode="&#x117;" horiz-adv-x="559" 
d="M488 14l-26 136q-63 -14 -141 -14q-49 0 -71 12.5t-23 50.5h297q6 83 -0.5 141.5t-23 95.5t-48.5 57.5t-70.5 28t-95.5 7.5q-119 0 -182.5 -60.5t-63.5 -208.5q0 -274 257 -274q107 0 191 28zM301 394q38 0 53 -13t16 -51h-142q7 37 21.5 50.5t51.5 13.5zM298 706
q46 0 62 -13.5t16 -58.5q0 -49 -16 -64.5t-62 -15.5q-45 0 -61 15.5t-16 64.5q0 45 16 58.5t61 13.5z" />
    <glyph glyph-name="Eogonek" unicode="&#x118;" horiz-adv-x="631" 
d="M76 697h534v-168h-343v-88h247v-165h-247v-108h343v-168h-534v697zM520 12h45q-44 -27 -59 -46t-15 -46q0 -19 11 -27t42 -8q44 0 73 24l42 -77q-50 -35 -136 -35q-77 0 -107.5 21.5t-30.5 67.5q0 41 34 75t101 51z" />
    <glyph glyph-name="eogonek" unicode="&#x119;" horiz-adv-x="559" 
d="M462 150l26 -136q-84 -28 -191 -28q-257 0 -257 274q0 148 63.5 208.5t182.5 60.5q57 0 95.5 -7.5t70.5 -28t48.5 -57.5t23 -95.5t0.5 -141.5h-297q1 -38 23 -50.5t71 -12.5q78 0 141 14zM301 394q-37 0 -51.5 -13.5t-21.5 -50.5h142q-1 38 -16 51t-53 13zM414 12h45
q-44 -27 -59 -46t-15 -46q0 -19 11 -27t42 -8q44 0 73 24l42 -77q-50 -35 -136 -35q-77 0 -107.5 21.5t-30.5 67.5q0 41 34 75t101 51z" />
    <glyph glyph-name="Ecaron" unicode="&#x11a;" horiz-adv-x="631" 
d="M610 697h-534v-697h534v168h-343v108h247v165h-247v88h343v168zM293 876l61 -66l59 66h148l-122 -129h-172l-126 129h152z" />
    <glyph glyph-name="ecaron" unicode="&#x11b;" horiz-adv-x="559" 
d="M488 14l-26 136q-63 -14 -141 -14q-49 0 -71 12.5t-23 50.5h297q6 83 -0.5 141.5t-23 95.5t-48.5 57.5t-70.5 28t-95.5 7.5q-119 0 -182.5 -60.5t-63.5 -208.5q0 -274 257 -274q107 0 191 28zM301 394q38 0 53 -13t16 -51h-142q7 37 21.5 50.5t51.5 13.5zM236 697l61 -66
l59 66h148l-122 -129h-172l-126 129h152z" />
    <glyph glyph-name="Gcircumflex" unicode="&#x11c;" horiz-adv-x="724" 
d="M464 165v111h-123v165h320v-418q-47 -15 -128.5 -26t-154.5 -11q-176 0 -255 81t-79 288q0 105 24 176t73.5 110.5t115 56t159.5 16.5q134 0 225 -24l-31 -168q-22 7 -80.5 12t-93.5 5q-59 0 -90 -5t-56 -23.5t-33.5 -55.5t-8.5 -102t8.5 -102.5t32 -57t52.5 -25t82 -5.5
q15 0 41 2zM456 747l-61 66l-59 -66h-148l122 129h172l126 -129h-152z" />
    <glyph glyph-name="gcircumflex" unicode="&#x11d;" horiz-adv-x="604" 
d="M358 375v-209q0 -10 -18 -17t-45 -7q-43 0 -57.5 23t-14.5 91q0 84 15.5 107.5t61.5 23.5q30 0 58 -12zM358 15q0 -39 -29 -55t-85 -16q-67 0 -162 21l-30 -139q88 -30 195 -30q68 0 116 9t91 34t65 76t22 127v452q-98 35 -241 35q-138 0 -199 -62t-61 -216
q0 -147 49.5 -204t149.5 -57q62 0 119 25zM364 568l-61 66l-59 -66h-148l122 129h172l126 -129h-152z" />
    <glyph glyph-name="Gbreve" unicode="&#x11e;" horiz-adv-x="724" 
d="M464 165v111h-123v165h320v-418q-47 -15 -128.5 -26t-154.5 -11q-176 0 -255 81t-79 288q0 105 24 176t73.5 110.5t115 56t159.5 16.5q134 0 225 -24l-31 -168q-22 7 -80.5 12t-93.5 5q-59 0 -90 -5t-56 -23.5t-33.5 -55.5t-8.5 -102t8.5 -102.5t32 -57t52.5 -25t82 -5.5
q15 0 41 2zM224 871h116q0 -27 12.5 -36.5t41.5 -9.5q28 0 40.5 9.5t12.5 36.5h108q0 -148 -166 -148q-79 0 -122 36.5t-43 111.5z" />
    <glyph glyph-name="gbreve" unicode="&#x11f;" horiz-adv-x="604" 
d="M358 375v-209q0 -10 -18 -17t-45 -7q-43 0 -57.5 23t-14.5 91q0 84 15.5 107.5t61.5 23.5q30 0 58 -12zM358 15q0 -39 -29 -55t-85 -16q-67 0 -162 21l-30 -139q88 -30 195 -30q68 0 116 9t91 34t65 76t22 127v452q-98 35 -241 35q-138 0 -199 -62t-61 -216
q0 -147 49.5 -204t149.5 -57q62 0 119 25zM137 697h116q0 -27 12.5 -36.5t41.5 -9.5q28 0 40.5 9.5t12.5 36.5h108q0 -148 -166 -148q-79 0 -122 36.5t-43 111.5z" />
    <glyph glyph-name="Gdotaccent" unicode="&#x120;" horiz-adv-x="724" 
d="M464 165v111h-123v165h320v-418q-47 -15 -128.5 -26t-154.5 -11q-176 0 -255 81t-79 288q0 105 24 176t73.5 110.5t115 56t159.5 16.5q134 0 225 -24l-31 -168q-22 7 -80.5 12t-93.5 5q-59 0 -90 -5t-56 -23.5t-33.5 -55.5t-8.5 -102t8.5 -102.5t32 -57t52.5 -25t82 -5.5
q15 0 41 2zM411 887q46 0 62 -13.5t16 -58.5q0 -49 -16 -64.5t-62 -15.5q-45 0 -61 15.5t-16 64.5q0 45 16 58.5t61 13.5z" />
    <glyph glyph-name="gdotaccent" unicode="&#x121;" horiz-adv-x="604" 
d="M358 375v-209q0 -10 -18 -17t-45 -7q-43 0 -57.5 23t-14.5 91q0 84 15.5 107.5t61.5 23.5q30 0 58 -12zM358 15q0 -39 -29 -55t-85 -16q-67 0 -162 21l-30 -139q88 -30 195 -30q68 0 116 9t91 34t65 76t22 127v452q-98 35 -241 35q-138 0 -199 -62t-61 -216
q0 -147 49.5 -204t149.5 -57q62 0 119 25zM296 706q46 0 62 -13.5t16 -58.5q0 -49 -16 -64.5t-62 -15.5q-45 0 -61 15.5t-16 64.5q0 45 16 58.5t61 13.5z" />
    <glyph glyph-name="Gcommaaccent" unicode="&#x122;" horiz-adv-x="724" 
d="M464 165v111h-123v165h320v-418q-47 -15 -128.5 -26t-154.5 -11q-176 0 -255 81t-79 288q0 105 24 176t73.5 110.5t115 56t159.5 16.5q134 0 225 -24l-31 -168q-22 7 -80.5 12t-93.5 5q-59 0 -90 -5t-56 -23.5t-33.5 -55.5t-8.5 -102t8.5 -102.5t32 -57t52.5 -25t82 -5.5
q15 0 41 2zM504 -51l-114 -167h-142l72 167h184z" />
    <glyph glyph-name="gcommaaccent" unicode="&#x123;" horiz-adv-x="604" 
d="M358 375v-209q0 -10 -18 -17t-45 -7q-43 0 -57.5 23t-14.5 91q0 84 15.5 107.5t61.5 23.5q30 0 58 -12zM358 15q0 -39 -29 -55t-85 -16q-67 0 -162 21l-30 -139q88 -30 195 -30q68 0 116 9t91 34t65 76t22 127v452q-98 35 -241 35q-138 0 -199 -62t-61 -216
q0 -147 49.5 -204t149.5 -57q62 0 119 25zM466 758l-114 -167h-142l72 167h184z" />
    <glyph glyph-name="Hcircumflex" unicode="&#x124;" horiz-adv-x="759" 
d="M267 278v-278h-191v697h191v-241h226v241h190v-697h-190v278h-226zM436 747l-61 66l-59 -66h-148l122 129h172l126 -129h-152z" />
    <glyph glyph-name="hcircumflex" unicode="&#x125;" horiz-adv-x="612" 
d="M556 302v-302h-183v294q0 74 -72 74q-55 0 -55 -19v-349h-183v722h183v-222q77 29 133 29q42 0 71 -8.5t54.5 -31.5t38.5 -69.5t13 -117.5zM296 747l-61 66l-59 -66h-148l122 129h172l126 -129h-152z" />
    <glyph glyph-name="Hbar" unicode="&#x126;" horiz-adv-x="759" 
d="M25 502v152h51v43h191v-43h226v43h190v-43h51v-152h-51v-502h-190v278h-226v-278h-191v502h-51zM267 456h226v46h-226v-46z" />
    <glyph glyph-name="hbar" unicode="&#x127;" horiz-adv-x="612" 
d="M24 567v122h39v33h183v-33h83v-122h-83v-67q77 29 133 29q42 0 71 -8.5t54.5 -31.5t38.5 -69.5t13 -117.5v-302h-183v294q0 74 -72 74q-55 0 -55 -19v-349h-183v567h-39z" />
    <glyph glyph-name="Itilde" unicode="&#x128;" horiz-adv-x="343" 
d="M267 697h-191v-697h191v697zM285 891l83 -67q-15 -40 -49 -67.5t-81 -27.5q-36 0 -78.5 20.5t-64.5 20.5q-26 0 -44 -41l-76 75q46 79 114 79q44 0 88 -19.5t62 -19.5q17 0 26.5 9.5t19.5 37.5z" />
    <glyph glyph-name="itilde" unicode="&#x129;" horiz-adv-x="307" 
d="M246 514v-514h-183v514h183zM268 715l83 -67q-15 -40 -49 -67.5t-81 -27.5q-36 0 -78.5 20.5t-64.5 20.5q-26 0 -44 -41l-76 75q46 79 114 79q44 0 88 -19.5t62 -19.5q17 0 26.5 9.5t19.5 37.5z" />
    <glyph glyph-name="Imacron" unicode="&#x12a;" horiz-adv-x="343" 
d="M267 697h-191v-697h191v697zM19 737v122h305v-122h-305z" />
    <glyph glyph-name="imacron" unicode="&#x12b;" horiz-adv-x="307" 
d="M246 514v-514h-183v514h183zM2 567v122h305v-122h-305z" />
    <glyph glyph-name="Ibreve" unicode="&#x12c;" horiz-adv-x="343" 
d="M267 697h-191v-697h191v697zM6 871h116q0 -27 12.5 -36.5t41.5 -9.5q28 0 40.5 9.5t12.5 36.5h108q0 -148 -166 -148q-79 0 -122 36.5t-43 111.5z" />
    <glyph glyph-name="ibreve" unicode="&#x12d;" horiz-adv-x="307" 
d="M246 514v-514h-183v514h183zM-12 697h116q0 -27 12.5 -36.5t41.5 -9.5q28 0 40.5 9.5t12.5 36.5h108q0 -148 -166 -148q-79 0 -122 36.5t-43 111.5z" />
    <glyph glyph-name="Iogonek" unicode="&#x12e;" horiz-adv-x="343" 
d="M76 697h191v-697h-191v697zM173 12h45q-44 -27 -59 -46t-15 -46q0 -19 11 -27t42 -8q44 0 73 24l42 -77q-50 -35 -136 -35q-77 0 -107.5 21.5t-30.5 67.5q0 41 34 75t101 51z" />
    <glyph glyph-name="iogonek" unicode="&#x12f;" horiz-adv-x="307" 
d="M246 0v514h-183v-514h183zM154 746q60 0 81 -15.5t21 -68.5q0 -58 -21 -76t-81 -18t-81 18t-21 76q0 53 21 68.5t81 15.5zM216 12h-45q-67 -17 -101 -51t-34 -75q0 -46 30.5 -67.5t107.5 -21.5q86 0 136 35l-42 77q-29 -24 -73 -24q-31 0 -42 8t-11 27q0 27 15 46t59 46z
" />
    <glyph glyph-name="Idotaccent" unicode="&#x130;" horiz-adv-x="343" 
d="M267 697h-191v-697h191v697zM170 887q46 0 62 -13.5t16 -58.5q0 -49 -16 -64.5t-62 -15.5q-45 0 -61 15.5t-16 64.5q0 45 16 58.5t61 13.5z" />
    <glyph glyph-name="dotlessi" unicode="&#x131;" horiz-adv-x="307" 
d="M246 514v-514h-183v514h183z" />
    <glyph glyph-name="IJ" unicode="&#x132;" horiz-adv-x="824" 
d="M76 697h191v-697h-191v697zM753 697l1 -505q0 -57 -20 -99t-54.5 -64.5t-73.5 -32.5t-85 -10q-102 0 -180 25l28 169q56 -17 126 -17q66 0 66 64v470h192z" />
    <glyph glyph-name="ij" unicode="&#x133;" horiz-adv-x="616" 
d="M246 0v514h-183v-514h183zM154 746q60 0 81 -15.5t21 -68.5q0 -58 -21 -76t-81 -18t-81 18t-21 76q0 53 21 68.5t81 15.5zM462 746q60 0 81 -15.5t21 -68.5q0 -58 -21 -76t-81 -18t-81 18t-21 76q0 53 21 68.5t81 15.5zM554 7v507h-183v-513q0 -58 -71 -58v-146
q139 0 196.5 47.5t57.5 162.5z" />
    <glyph glyph-name="Jcircumflex" unicode="&#x134;" horiz-adv-x="483" 
d="M412 697l1 -505q0 -57 -20 -99t-54.5 -64.5t-73.5 -32.5t-85 -10q-102 0 -180 25l28 169q56 -17 126 -17q66 0 66 64v470h192zM372 747l-61 66l-59 -66h-148l122 129h172l126 -129h-152z" />
    <glyph glyph-name="jcircumflex" unicode="&#x135;" horiz-adv-x="307" 
d="M206 568l-61 66l-59 -66h-148l122 129h172l126 -129h-152zM246 7v507h-183v-513q0 -58 -71 -58v-146q139 0 196.5 47.5t57.5 162.5z" />
    <glyph glyph-name="Kcommaaccent" unicode="&#x136;" horiz-adv-x="707" 
d="M267 697v-697h-191v697h191zM726 0h-227q-78 161 -141 257.5t-90 110.5q29 27 88.5 116t127.5 213h225q-142 -248 -209 -320q26 -22 89 -122t137 -255zM459 -51l-114 -167h-142l72 167h184z" />
    <glyph glyph-name="kcommaaccent" unicode="&#x137;" horiz-adv-x="625" 
d="M246 722v-722h-183v722h183zM416 0h209q-56 116 -104 191t-67 90q20 19 62.5 80.5t95.5 152.5h-209q-120 -203 -157 -242q24 -14 170 -272zM416 -51l-114 -167h-142l72 167h184z" />
    <glyph glyph-name="Lacute" unicode="&#x139;" horiz-adv-x="556" 
d="M76 697h191v-529h298v-168h-489v697zM254 747h-150l124 129h182z" />
    <glyph glyph-name="lacute" unicode="&#x13a;" horiz-adv-x="315" 
d="M246 722v-566q0 -74 30 -130l-168 -52q-45 62 -45 177v571h183zM208 747h-150l124 129h182z" />
    <glyph glyph-name="Lcommaaccent" unicode="&#x13b;" horiz-adv-x="556" 
d="M76 697h191v-529h298v-168h-489v697zM422 -51l-114 -167h-142l72 167h184z" />
    <glyph glyph-name="lcommaaccent" unicode="&#x13c;" horiz-adv-x="315" 
d="M246 722v-566q0 -74 30 -130l-168 -52q-45 62 -45 177v571h183zM289 -51l-114 -167h-142l72 167h184z" />
    <glyph glyph-name="Lcaron" unicode="&#x13d;" horiz-adv-x="556" 
d="M76 697h191v-529h298v-168h-489v697zM359 722h148l-58 -192h-108z" />
    <glyph glyph-name="lcaron" unicode="&#x13e;" horiz-adv-x="315" 
d="M246 722v-566q0 -74 30 -130l-168 -52q-45 62 -45 177v571h183zM316 722h148l-58 -192h-108z" />
    <glyph glyph-name="Ldot" unicode="&#x13f;" horiz-adv-x="556" 
d="M76 697h191v-529h298v-168h-489v697zM395 505q46 0 62 -13.5t16 -58.5q0 -49 -16 -64.5t-62 -15.5q-45 0 -61 15.5t-16 64.5q0 45 16 58.5t61 13.5z" />
    <glyph glyph-name="ldot" unicode="&#x140;" horiz-adv-x="315" 
d="M246 722v-566q0 -74 30 -130l-168 -52q-45 62 -45 177v571h183zM343 487q46 0 62 -13.5t16 -58.5q0 -49 -16 -64.5t-62 -15.5q-45 0 -61 15.5t-16 64.5q0 45 16 58.5t61 13.5z" />
    <glyph glyph-name="Lslash" unicode="&#x141;" horiz-adv-x="556" 
d="M414 590v-172l-147 -117v-133h298v-168h-489v150l-61 -48v172l61 48v375h191v-224z" />
    <glyph glyph-name="lslash" unicode="&#x142;" horiz-adv-x="315" 
d="M246 722v-195l60 64v-172l-60 -64v-199q0 -74 30 -130l-168 -52q-45 62 -45 177v10l-55 -58v172l55 58v389h183z" />
    <glyph glyph-name="Nacute" unicode="&#x143;" horiz-adv-x="818" 
d="M742 697v-697h-237q-107 198 -243 427v-427h-186v697h247q124 -211 230 -415v415h189zM443 747h-150l124 129h182z" />
    <glyph glyph-name="nacute" unicode="&#x144;" horiz-adv-x="612" 
d="M246 360v-360h-183v481q144 48 278 48q109 0 162 -56.5t53 -189.5v-283h-183v271q0 56 -13.5 76t-58.5 20q-18 0 -55 -7zM339 568h-150l124 129h182z" />
    <glyph glyph-name="Ncommaaccent" unicode="&#x145;" horiz-adv-x="818" 
d="M742 697v-697h-237q-107 198 -243 427v-427h-186v697h247q124 -211 230 -415v415h189zM505 -51l-114 -167h-142l72 167h184z" />
    <glyph glyph-name="ncommaaccent" unicode="&#x146;" horiz-adv-x="612" 
d="M246 360v-360h-183v481q144 48 278 48q109 0 162 -56.5t53 -189.5v-283h-183v271q0 56 -13.5 76t-58.5 20q-18 0 -55 -7zM402 -51l-114 -167h-142l72 167h184z" />
    <glyph glyph-name="Ncaron" unicode="&#x147;" horiz-adv-x="818" 
d="M742 697v-697h-237q-107 198 -243 427v-427h-186v697h247q124 -211 230 -415v415h189zM367 876l61 -66l59 66h148l-122 -129h-172l-126 129h152z" />
    <glyph glyph-name="ncaron" unicode="&#x148;" horiz-adv-x="612" 
d="M246 360v-360h-183v481q144 48 278 48q109 0 162 -56.5t53 -189.5v-283h-183v271q0 56 -13.5 76t-58.5 20q-18 0 -55 -7zM247 697l61 -66l59 66h148l-122 -129h-172l-126 129h152z" />
    <glyph glyph-name="Omacron" unicode="&#x14c;" horiz-adv-x="781" 
d="M391 714q-89 0 -150.5 -16t-107 -56t-67.5 -110t-22 -174q0 -106 22 -179t67.5 -115t107.5 -60t150 -18t149.5 18t107 60t67.5 115t22 179q0 104 -21.5 174t-67.5 110t-107.5 56t-149.5 16zM391 161q-35 0 -55.5 2t-38.5 10t-26 19t-14 35t-7.5 52.5t-1.5 76.5
q0 45 1.5 71.5t7.5 49t14 33t26 17.5t38 8.5t56 1.5q35 0 55 -1.5t38 -8.5t26 -17.5t14 -33t7.5 -49t1.5 -71.5q0 -48 -1.5 -76.5t-7.5 -52.5t-14 -35t-25.5 -19t-38 -10t-55.5 -2zM239 737v122h305v-122h-305z" />
    <glyph glyph-name="omacron" unicode="&#x14d;" 
d="M295 -14q133 0 195 60.5t62 213.5q0 151 -62 210t-195 59q-131 0 -193 -59t-62 -210q0 -153 61.5 -213.5t193.5 -60.5zM295 389q46 0 59.5 -22.5t13.5 -109.5q0 -85 -14 -108t-59 -23q-44 0 -58 23t-14 108q0 87 13.5 109.5t58.5 22.5zM143 567v122h305v-122h-305z" />
    <glyph glyph-name="Obreve" unicode="&#x14e;" horiz-adv-x="781" 
d="M391 714q-89 0 -150.5 -16t-107 -56t-67.5 -110t-22 -174q0 -106 22 -179t67.5 -115t107.5 -60t150 -18t149.5 18t107 60t67.5 115t22 179q0 104 -21.5 174t-67.5 110t-107.5 56t-149.5 16zM391 161q-35 0 -55.5 2t-38.5 10t-26 19t-14 35t-7.5 52.5t-1.5 76.5
q0 45 1.5 71.5t7.5 49t14 33t26 17.5t38 8.5t56 1.5q35 0 55 -1.5t38 -8.5t26 -17.5t14 -33t7.5 -49t1.5 -71.5q0 -48 -1.5 -76.5t-7.5 -52.5t-14 -35t-25.5 -19t-38 -10t-55.5 -2zM227 871h116q0 -27 12.5 -36.5t41.5 -9.5q28 0 40.5 9.5t12.5 36.5h108q0 -148 -166 -148
q-79 0 -122 36.5t-43 111.5z" />
    <glyph glyph-name="obreve" unicode="&#x14f;" 
d="M295 -14q133 0 195 60.5t62 213.5q0 151 -62 210t-195 59q-131 0 -193 -59t-62 -210q0 -153 61.5 -213.5t193.5 -60.5zM295 389q46 0 59.5 -22.5t13.5 -109.5q0 -85 -14 -108t-59 -23q-44 0 -58 23t-14 108q0 87 13.5 109.5t58.5 22.5zM129 697h116q0 -27 12.5 -36.5
t41.5 -9.5q28 0 40.5 9.5t12.5 36.5h108q0 -148 -166 -148q-79 0 -122 36.5t-43 111.5z" />
    <glyph glyph-name="Ohungarumlaut" unicode="&#x150;" horiz-adv-x="781" 
d="M391 714q-89 0 -150.5 -16t-107 -56t-67.5 -110t-22 -174q0 -106 22 -179t67.5 -115t107.5 -60t150 -18t149.5 18t107 60t67.5 115t22 179q0 104 -21.5 174t-67.5 110t-107.5 56t-149.5 16zM391 161q-35 0 -55.5 2t-38.5 10t-26 19t-14 35t-7.5 52.5t-1.5 76.5
q0 45 1.5 71.5t7.5 49t14 33t26 17.5t38 8.5t56 1.5q35 0 55 -1.5t38 -8.5t26 -17.5t14 -33t7.5 -49t1.5 -71.5q0 -48 -1.5 -76.5t-7.5 -52.5t-14 -35t-25.5 -19t-38 -10t-55.5 -2zM317 747h-118l97 129h143zM507 747h-118l97 129h143z" />
    <glyph glyph-name="ohungarumlaut" unicode="&#x151;" 
d="M295 -14q133 0 195 60.5t62 213.5q0 151 -62 210t-195 59q-131 0 -193 -59t-62 -210q0 -153 61.5 -213.5t193.5 -60.5zM295 389q46 0 59.5 -22.5t13.5 -109.5q0 -85 -14 -108t-59 -23q-44 0 -58 23t-14 108q0 87 13.5 109.5t58.5 22.5zM223 568h-118l97 129h143zM413 568
h-118l97 129h143z" />
    <glyph glyph-name="OE" unicode="&#x152;" horiz-adv-x="1087" 
d="M543 697h523v-168h-351q12 -39 18 -88h187v-165h-187q-6 -57 -22 -108h355v-168h-539q-56 -14 -136 -14q-88 0 -150 18t-107.5 60t-67.5 115t-22 179q0 104 22 174t67.5 110t107 56t150.5 16q90 0 152 -17zM391 161q35 0 55.5 2t38 10t25.5 19t14 35t7.5 52.5t1.5 76.5
q0 45 -1.5 71.5t-7.5 49t-14 33t-26 17.5t-38 8.5t-55 1.5q-36 0 -56 -1.5t-38 -8.5t-26 -17.5t-14 -33t-7.5 -49t-1.5 -71.5q0 -48 1.5 -76.5t7.5 -52.5t14 -35t26 -19t38.5 -10t55.5 -2z" />
    <glyph glyph-name="oe" unicode="&#x153;" horiz-adv-x="883" 
d="M786 150l26 -136q-84 -28 -191 -28q-101 0 -157 45q-53 -45 -169 -45q-132 0 -193.5 60.5t-61.5 213.5q0 151 62 210t193 59q113 0 165 -40q51 40 150 40q57 0 95.5 -7.5t70.5 -28t48.5 -57.5t23 -95.5t0.5 -141.5h-297q1 -38 23 -50.5t71 -12.5q78 0 141 14zM295 389
q-45 0 -58.5 -22.5t-13.5 -109.5q0 -85 14 -108t58 -23q45 0 59 23t14 108q0 87 -13.5 109.5t-59.5 22.5zM625 394q-37 0 -51.5 -13.5t-21.5 -50.5h142q-1 38 -16 51t-53 13z" />
    <glyph glyph-name="Racute" unicode="&#x154;" horiz-adv-x="738" 
d="M267 534v-148h160q40 0 40 73q0 75 -39 75h-161zM515 295q36 -13 79.5 -69.5t143.5 -225.5h-237q-79 138 -116 184.5t-67 46.5h-51v-231h-191v697h415q99 0 144 -55t45 -149q0 -185 -165 -198zM378 747h-150l124 129h182z" />
    <glyph glyph-name="racute" unicode="&#x155;" horiz-adv-x="415" 
d="M63 0v514h183v-41q14 27 40.5 41.5t77.5 14.5q22 0 51 -3v-169q-30 10 -78 10q-38 0 -64.5 -13t-26.5 -34v-320h-183zM303 568h-150l124 129h182z" />
    <glyph glyph-name="Rcommaaccent" unicode="&#x156;" horiz-adv-x="738" 
d="M267 534v-148h160q40 0 40 73q0 75 -39 75h-161zM515 295q36 -13 79.5 -69.5t143.5 -225.5h-237q-79 138 -116 184.5t-67 46.5h-51v-231h-191v697h415q99 0 144 -55t45 -149q0 -185 -165 -198zM478 -51l-114 -167h-142l72 167h184z" />
    <glyph glyph-name="rcommaaccent" unicode="&#x157;" horiz-adv-x="415" 
d="M63 0v514h183v-41q14 27 40.5 41.5t77.5 14.5q22 0 51 -3v-169q-30 10 -78 10q-38 0 -64.5 -13t-26.5 -34v-320h-183zM280 -51l-114 -167h-142l72 167h184z" />
    <glyph glyph-name="Rcaron" unicode="&#x158;" horiz-adv-x="738" 
d="M267 534v-148h160q40 0 40 73q0 75 -39 75h-161zM515 295q36 -13 79.5 -69.5t143.5 -225.5h-237q-79 138 -116 184.5t-67 46.5h-51v-231h-191v697h415q99 0 144 -55t45 -149q0 -185 -165 -198zM293 876l61 -66l59 66h148l-122 -129h-172l-126 129h152z" />
    <glyph glyph-name="rcaron" unicode="&#x159;" horiz-adv-x="415" 
d="M63 0v514h183v-41q14 27 40.5 41.5t77.5 14.5q22 0 51 -3v-169q-30 10 -78 10q-38 0 -64.5 -13t-26.5 -34v-320h-183zM193 697l61 -66l59 66h148l-122 -129h-172l-126 129h152z" />
    <glyph glyph-name="Sacute" unicode="&#x15a;" horiz-adv-x="621" 
d="M583 679l-37 -162q-92 22 -198 22q-68 0 -89.5 -10.5t-21.5 -34.5q0 -27 22 -37.5t107 -20.5q119 -15 173 -65.5t54 -149.5q0 -133 -71 -184t-247 -51q-141 0 -236 35l38 163q94 -23 195 -23q71 0 92.5 9.5t21.5 36.5t-24 38t-118 22q-110 13 -160 57.5t-50 139.5
q0 134 75 192t241 58q141 0 233 -35zM355 747h-150l124 129h182z" />
    <glyph glyph-name="sacute" unicode="&#x15b;" horiz-adv-x="478" 
d="M443 500l-32 -132q-80 20 -153 20q-31 0 -42.5 -4.5t-11.5 -23.5q0 -14 13 -19t70 -13q90 -13 128.5 -47t38.5 -113q0 -182 -241 -182q-106 0 -182 28l33 135q74 -19 140 -19q43 0 59.5 5.5t16.5 23.5q0 15 -18 21.5t-77 12.5q-82 8 -118.5 41t-36.5 114q0 181 236 181
q100 0 177 -29zM277 568h-150l124 129h182z" />
    <glyph glyph-name="Scircumflex" unicode="&#x15c;" horiz-adv-x="621" 
d="M583 679l-37 -162q-92 22 -198 22q-68 0 -89.5 -10.5t-21.5 -34.5q0 -27 22 -37.5t107 -20.5q119 -15 173 -65.5t54 -149.5q0 -133 -71 -184t-247 -51q-141 0 -236 35l38 163q94 -23 195 -23q71 0 92.5 9.5t21.5 36.5t-24 38t-118 22q-110 13 -160 57.5t-50 139.5
q0 134 75 192t241 58q141 0 233 -35zM386 747l-61 66l-59 -66h-148l122 129h172l126 -129h-152z" />
    <glyph glyph-name="scircumflex" unicode="&#x15d;" horiz-adv-x="478" 
d="M443 500l-32 -132q-80 20 -153 20q-31 0 -42.5 -4.5t-11.5 -23.5q0 -14 13 -19t70 -13q90 -13 128.5 -47t38.5 -113q0 -182 -241 -182q-106 0 -182 28l33 135q74 -19 140 -19q43 0 59.5 5.5t16.5 23.5q0 15 -18 21.5t-77 12.5q-82 8 -118.5 41t-36.5 114q0 181 236 181
q100 0 177 -29zM316 568l-61 66l-59 -66h-148l122 129h172l126 -129h-152z" />
    <glyph glyph-name="Scedilla" unicode="&#x15e;" horiz-adv-x="621" 
d="M583 679l-37 -162q-92 22 -198 22q-68 0 -89.5 -10.5t-21.5 -34.5q0 -27 22 -37.5t107 -20.5q119 -15 173 -65.5t54 -149.5q0 -133 -71 -184t-247 -51q-141 0 -236 35l38 163q94 -23 195 -23q71 0 92.5 9.5t21.5 36.5t-24 38t-118 22q-110 13 -160 57.5t-50 139.5
q0 134 75 192t241 58q141 0 233 -35zM272 0h65v-36q100 0 100 -81q0 -48 -33 -67t-116 -19q-52 0 -90 11l26 66q14 -7 54 -7q26 0 26 19q0 26 -68 20z" />
    <glyph glyph-name="Scedilla" unicode="&#xf6c1;" horiz-adv-x="621" 
d="M583 679l-37 -162q-92 22 -198 22q-68 0 -89.5 -10.5t-21.5 -34.5q0 -27 22 -37.5t107 -20.5q119 -15 173 -65.5t54 -149.5q0 -133 -71 -184t-247 -51q-141 0 -236 35l38 163q94 -23 195 -23q71 0 92.5 9.5t21.5 36.5t-24 38t-118 22q-110 13 -160 57.5t-50 139.5
q0 134 75 192t241 58q141 0 233 -35zM272 0h65v-36q100 0 100 -81q0 -48 -33 -67t-116 -19q-52 0 -90 11l26 66q14 -7 54 -7q26 0 26 19q0 26 -68 20z" />
    <glyph glyph-name="scedilla" unicode="&#x15f;" horiz-adv-x="478" 
d="M443 500l-32 -132q-80 20 -153 20q-31 0 -42.5 -4.5t-11.5 -23.5q0 -14 13 -19t70 -13q90 -13 128.5 -47t38.5 -113q0 -182 -241 -182q-106 0 -182 28l33 135q74 -19 140 -19q43 0 59.5 5.5t16.5 23.5q0 15 -18 21.5t-77 12.5q-82 8 -118.5 41t-36.5 114q0 181 236 181
q100 0 177 -29zM205 0h65v-36q100 0 100 -81q0 -48 -33 -67t-116 -19q-52 0 -90 11l26 66q14 -7 54 -7q26 0 26 19q0 26 -68 20z" />
    <glyph glyph-name="scedilla" unicode="&#xf6c2;" horiz-adv-x="478" 
d="M443 500l-32 -132q-80 20 -153 20q-31 0 -42.5 -4.5t-11.5 -23.5q0 -14 13 -19t70 -13q90 -13 128.5 -47t38.5 -113q0 -182 -241 -182q-106 0 -182 28l33 135q74 -19 140 -19q43 0 59.5 5.5t16.5 23.5q0 15 -18 21.5t-77 12.5q-82 8 -118.5 41t-36.5 114q0 181 236 181
q100 0 177 -29zM205 0h65v-36q100 0 100 -81q0 -48 -33 -67t-116 -19q-52 0 -90 11l26 66q14 -7 54 -7q26 0 26 19q0 26 -68 20z" />
    <glyph glyph-name="Scaron" unicode="&#x160;" horiz-adv-x="621" 
d="M583 679l-37 -162q-92 22 -198 22q-68 0 -89.5 -10.5t-21.5 -34.5q0 -27 22 -37.5t107 -20.5q119 -15 173 -65.5t54 -149.5q0 -133 -71 -184t-247 -51q-141 0 -236 35l38 163q94 -23 195 -23q71 0 92.5 9.5t21.5 36.5t-24 38t-118 22q-110 13 -160 57.5t-50 139.5
q0 134 75 192t241 58q141 0 233 -35zM266 876l61 -66l59 66h148l-122 -129h-172l-126 129h152z" />
    <glyph glyph-name="scaron" unicode="&#x161;" horiz-adv-x="478" 
d="M443 500l-32 -132q-80 20 -153 20q-31 0 -42.5 -4.5t-11.5 -23.5q0 -14 13 -19t70 -13q90 -13 128.5 -47t38.5 -113q0 -182 -241 -182q-106 0 -182 28l33 135q74 -19 140 -19q43 0 59.5 5.5t16.5 23.5q0 15 -18 21.5t-77 12.5q-82 8 -118.5 41t-36.5 114q0 181 236 181
q100 0 177 -29zM191 697l61 -66l59 66h148l-122 -129h-172l-126 129h152z" />
    <glyph glyph-name="Tcommaaccent" unicode="&#x162;" horiz-adv-x="650" 
d="M421 0h-192v529h-229v168h650v-168h-229v-529zM445 -51l-114 -167h-142l72 167h184z" />
    <glyph glyph-name="Tcommaaccent" unicode="&#x21a;" horiz-adv-x="650" 
d="M421 0h-192v529h-229v168h650v-168h-229v-529zM445 -51l-114 -167h-142l72 167h184z" />
    <glyph glyph-name="tcommaaccent" unicode="&#x163;" horiz-adv-x="438" 
d="M422 358h-151v-163q0 -31 12.5 -43.5t48.5 -12.5q34 0 77 13l29 -138q-69 -28 -169 -28q-92 0 -136.5 39.5t-44.5 148.5v184h-81v156h81v66l183 74v-140h151v-156zM342 -51l-114 -167h-142l72 167h184z" />
    <glyph glyph-name="tcommaaccent" unicode="&#x21b;" horiz-adv-x="438" 
d="M422 358h-151v-163q0 -31 12.5 -43.5t48.5 -12.5q34 0 77 13l29 -138q-69 -28 -169 -28q-92 0 -136.5 39.5t-44.5 148.5v184h-81v156h81v66l183 74v-140h151v-156zM342 -51l-114 -167h-142l72 167h184z" />
    <glyph glyph-name="Tcaron" unicode="&#x164;" horiz-adv-x="650" 
d="M421 0h-192v529h-229v168h650v-168h-229v-529zM271 876l61 -66l59 66h148l-122 -129h-172l-126 129h152z" />
    <glyph glyph-name="tcaron" unicode="&#x165;" horiz-adv-x="438" 
d="M271 358h151v156h-151v140l-183 -74v-66h-81v-156h81v-184q0 -109 44.5 -148.5t136.5 -39.5q100 0 169 28l-29 138q-43 -13 -77 -13q-36 0 -48.5 12.5t-12.5 43.5v163zM353 773h148l-58 -192h-108z" />
    <glyph glyph-name="Tbar" unicode="&#x166;" horiz-adv-x="650" 
d="M169 219v122h60v188h-229v168h650v-168h-229v-188h55v-122h-55v-219h-192v219h-60z" />
    <glyph glyph-name="tbar" unicode="&#x167;" horiz-adv-x="438" 
d="M41 207v102h47v49h-81v156h81v66l183 74v-140h151v-156h-151v-49h75v-102h-75v-12q0 -31 14 -43.5t50 -12.5q31 0 74 13l29 -138q-69 -28 -166 -28q-92 0 -138 40t-46 148v33h-47z" />
    <glyph glyph-name="Utilde" unicode="&#x168;" horiz-adv-x="747" 
d="M486 697v-475q0 -30 -25 -43.5t-88 -13.5t-87.5 13.5t-24.5 43.5v475h-192v-517q0 -109 77.5 -151.5t226.5 -42.5q72 0 125 9t95 30t63.5 60t21.5 95v517h-192zM487 891l83 -67q-15 -40 -49 -67.5t-81 -27.5q-36 0 -78.5 20.5t-64.5 20.5q-26 0 -44 -41l-76 75
q46 79 114 79q44 0 88 -19.5t62 -19.5q17 0 26.5 9.5t19.5 37.5z" />
    <glyph glyph-name="utilde" unicode="&#x169;" horiz-adv-x="612" 
d="M367 514v-360q-39 -7 -56 -7q-45 0 -58.5 20t-13.5 76v271h-182v-283q0 -133 52.5 -189.5t161.5 -56.5q134 0 278 48v481h-182zM418 715l83 -67q-15 -40 -49 -67.5t-81 -27.5q-36 0 -78.5 20.5t-64.5 20.5q-26 0 -44 -41l-76 75q46 79 114 79q44 0 88 -19.5t62 -19.5
q17 0 26.5 9.5t19.5 37.5z" />
    <glyph glyph-name="Umacron" unicode="&#x16a;" horiz-adv-x="747" 
d="M486 697v-475q0 -30 -25 -43.5t-88 -13.5t-87.5 13.5t-24.5 43.5v475h-192v-517q0 -109 77.5 -151.5t226.5 -42.5q72 0 125 9t95 30t63.5 60t21.5 95v517h-192zM218 737v122h305v-122h-305z" />
    <glyph glyph-name="umacron" unicode="&#x16b;" horiz-adv-x="612" 
d="M367 514v-360q-39 -7 -56 -7q-45 0 -58.5 20t-13.5 76v271h-182v-283q0 -133 52.5 -189.5t161.5 -56.5q134 0 278 48v481h-182zM149 567v122h305v-122h-305z" />
    <glyph glyph-name="Ubreve" unicode="&#x16c;" horiz-adv-x="747" 
d="M486 697v-475q0 -30 -25 -43.5t-88 -13.5t-87.5 13.5t-24.5 43.5v475h-192v-517q0 -109 77.5 -151.5t226.5 -42.5q72 0 125 9t95 30t63.5 60t21.5 95v517h-192zM206 871h116q0 -27 12.5 -36.5t41.5 -9.5q28 0 40.5 9.5t12.5 36.5h108q0 -148 -166 -148q-79 0 -122 36.5
t-43 111.5z" />
    <glyph glyph-name="ubreve" unicode="&#x16d;" horiz-adv-x="612" 
d="M367 514v-360q-39 -7 -56 -7q-45 0 -58.5 20t-13.5 76v271h-182v-283q0 -133 52.5 -189.5t161.5 -56.5q134 0 278 48v481h-182zM136 697h116q0 -27 12.5 -36.5t41.5 -9.5q28 0 40.5 9.5t12.5 36.5h108q0 -148 -166 -148q-79 0 -122 36.5t-43 111.5z" />
    <glyph glyph-name="Uring" unicode="&#x16e;" horiz-adv-x="747" 
d="M486 222v475h192v-517q0 -56 -21.5 -95t-63.5 -60t-95 -30t-125 -9q-149 0 -226.5 42.5t-77.5 151.5v517h192v-475q0 -30 24.5 -43.5t87.5 -13.5t88 13.5t25 43.5zM372 908q69 0 98.5 -21.5t29.5 -80.5t-29 -80.5t-99 -21.5q-71 0 -100.5 21.5t-29.5 80.5t30 80.5
t100 21.5zM372 840q-27 0 -35 -7.5t-8 -27.5q0 -21 8 -27.5t35 -6.5q26 0 34 7t8 27q0 21 -8 28t-34 7z" />
    <glyph glyph-name="uring" unicode="&#x16f;" horiz-adv-x="612" 
d="M367 154v360h182v-481q-144 -48 -278 -48q-109 0 -161.5 56.5t-52.5 189.5v283h182v-271q0 -56 13.5 -76t58.5 -20q17 0 56 7zM302 744q69 0 98.5 -21.5t29.5 -80.5t-29 -80.5t-99 -21.5q-71 0 -100.5 21.5t-29.5 80.5t30 80.5t100 21.5zM302 676q-27 0 -35 -7.5
t-8 -27.5q0 -21 8 -27.5t35 -6.5q26 0 34 7t8 27q0 21 -8 28t-34 7z" />
    <glyph glyph-name="Uhungarumlaut" unicode="&#x170;" horiz-adv-x="747" 
d="M486 697v-475q0 -30 -25 -43.5t-88 -13.5t-87.5 13.5t-24.5 43.5v475h-192v-517q0 -109 77.5 -151.5t226.5 -42.5q72 0 125 9t95 30t63.5 60t21.5 95v517h-192zM310 747h-118l97 129h143zM500 747h-118l97 129h143z" />
    <glyph glyph-name="uhungarumlaut" unicode="&#x171;" horiz-adv-x="612" 
d="M367 514v-360q-39 -7 -56 -7q-45 0 -58.5 20t-13.5 76v271h-182v-283q0 -133 52.5 -189.5t161.5 -56.5q134 0 278 48v481h-182zM226 568h-118l97 129h143zM416 568h-118l97 129h143z" />
    <glyph glyph-name="Uogonek" unicode="&#x172;" horiz-adv-x="747" 
d="M486 222v475h192v-517q0 -56 -21.5 -95t-63.5 -60t-95 -30t-125 -9q-149 0 -226.5 42.5t-77.5 151.5v517h192v-475q0 -30 24.5 -43.5t87.5 -13.5t88 13.5t25 43.5zM406 12h45q-44 -27 -59 -46t-15 -46q0 -19 11 -27t42 -8q44 0 73 24l42 -77q-50 -35 -136 -35
q-77 0 -107.5 21.5t-30.5 67.5q0 41 34 75t101 51z" />
    <glyph glyph-name="uogonek" unicode="&#x173;" horiz-adv-x="612" 
d="M367 154v360h182v-481q-144 -48 -278 -48q-109 0 -161.5 56.5t-52.5 189.5v283h182v-271q0 -56 13.5 -76t58.5 -20q17 0 56 7zM424 12h45q-44 -27 -59 -46t-15 -46q0 -19 11 -27t42 -8q44 0 73 24l42 -77q-50 -35 -136 -35q-77 0 -107.5 21.5t-30.5 67.5q0 41 34 75
t101 51z" />
    <glyph glyph-name="Wcircumflex" unicode="&#x174;" horiz-adv-x="1046" 
d="M525 363q48 -195 81 -363h243q48 148 107.5 357.5t89.5 339.5h-201q-42 -223 -111 -443q-51 212 -124 443h-170q-32 -159 -119 -443q-50 226 -124 443h-207q95 -273 194 -697h243q57 190 98 363zM583 747l-61 66l-59 -66h-148l122 129h172l126 -129h-152z" />
    <glyph glyph-name="wcircumflex" unicode="&#x175;" horiz-adv-x="847" 
d="M420 253q-21 -109 -67 -253h-214q-70 252 -163 514h184q55 -153 97 -321q39 121 89 321h158q55 -179 87 -321q64 196 93 321h180q-86 -289 -177 -514h-215q-20 114 -52 253zM482 568l-61 66l-59 -66h-148l122 129h172l126 -129h-152z" />
    <glyph glyph-name="Ycircumflex" unicode="&#x176;" horiz-adv-x="669" 
d="M183 697l165 -227q115 168 148 227h237q-105 -166 -291 -430v-267h-191v266q-233 324 -322 431h254zM405 747l-61 66l-59 -66h-148l122 129h172l126 -129h-152z" />
    <glyph glyph-name="ycircumflex" unicode="&#x177;" horiz-adv-x="513" 
d="M350 514h180q-105 -372 -264 -706h-200q39 66 84 166q-60 218 -174 540h184q51 -142 97 -326q60 183 93 326zM317 568l-61 66l-59 -66h-148l122 129h172l126 -129h-152z" />
    <glyph glyph-name="Ydieresis" unicode="&#x178;" horiz-adv-x="669" 
d="M183 697l165 -227q115 168 148 227h237q-105 -166 -291 -430v-267h-191v266q-233 324 -322 431h254zM228 881q46 0 62 -13.5t16 -58.5q0 -49 -16 -64.5t-62 -15.5q-45 0 -61 15.5t-16 64.5q0 45 16 58.5t61 13.5zM466 881q45 0 61 -13.5t16 -58.5q0 -49 -16 -64.5
t-61 -15.5q-46 0 -62 15t-16 65q0 45 15.5 58.5t62.5 13.5z" />
    <glyph glyph-name="Zacute" unicode="&#x179;" horiz-adv-x="634" 
d="M13 0v36q182 279 305 493h-287v168h593v-34q-40 -77 -148 -251.5t-157 -243.5h309v-168h-615zM357 747h-150l124 129h182z" />
    <glyph glyph-name="zacute" unicode="&#x17a;" horiz-adv-x="499" 
d="M19 514h477v-25q-89 -154 -215 -333h199v-156h-479v24q53 74 121.5 179.5t94.5 154.5h-198v156zM303 568h-150l124 129h182z" />
    <glyph glyph-name="Zdotaccent" unicode="&#x17b;" horiz-adv-x="634" 
d="M13 0v36q182 279 305 493h-287v168h593v-34q-40 -77 -148 -251.5t-157 -243.5h309v-168h-615zM327 887q46 0 62 -13.5t16 -58.5q0 -49 -16 -64.5t-62 -15.5q-45 0 -61 15.5t-16 64.5q0 45 16 58.5t61 13.5z" />
    <glyph glyph-name="zdotaccent" unicode="&#x17c;" horiz-adv-x="499" 
d="M19 514h477v-25q-89 -154 -215 -333h199v-156h-479v24q53 74 121.5 179.5t94.5 154.5h-198v156zM254 706q46 0 62 -13.5t16 -58.5q0 -49 -16 -64.5t-62 -15.5q-45 0 -61 15.5t-16 64.5q0 45 16 58.5t61 13.5z" />
    <glyph glyph-name="Zcaron" unicode="&#x17d;" horiz-adv-x="634" 
d="M13 0v36q182 279 305 493h-287v168h593v-34q-40 -77 -148 -251.5t-157 -243.5h309v-168h-615zM274 876l61 -66l59 66h148l-122 -129h-172l-126 129h152z" />
    <glyph glyph-name="zcaron" unicode="&#x17e;" horiz-adv-x="499" 
d="M19 514h477v-25q-89 -154 -215 -333h199v-156h-479v24q53 74 121.5 179.5t94.5 154.5h-198v156zM196 697l61 -66l59 66h148l-122 -129h-172l-126 129h152z" />
    <glyph glyph-name="florin" unicode="&#x192;" horiz-adv-x="398" 
d="M60 0h1l63 358h-91l28 156h91l3 20q34 196 240 196q102 0 172 -28l-63 -139q-39 14 -94 14q-36 0 -52.5 -13t-21.5 -44l-1 -6h161l-28 -156h-161l-63 -358h-1q-14 -74 -57.5 -121.5t-95 -64.5t-112.5 -17q-100 0 -175 25l52 131q54 -17 123 -17q71 0 82 64z" />
    <glyph glyph-name="Scommaaccent" unicode="&#x218;" horiz-adv-x="621" 
d="M583 679l-37 -162q-92 22 -198 22q-68 0 -89.5 -10.5t-21.5 -34.5q0 -27 22 -37.5t107 -20.5q119 -15 173 -65.5t54 -149.5q0 -133 -71 -184t-247 -51q-141 0 -236 35l38 163q94 -23 195 -23q71 0 92.5 9.5t21.5 36.5t-24 38t-118 22q-110 13 -160 57.5t-50 139.5
q0 134 75 192t241 58q141 0 233 -35zM426 -51l-114 -167h-142l72 167h184z" />
    <glyph glyph-name="scommaaccent" unicode="&#x219;" horiz-adv-x="478" 
d="M443 500l-32 -132q-80 20 -153 20q-31 0 -42.5 -4.5t-11.5 -23.5q0 -14 13 -19t70 -13q90 -13 128.5 -47t38.5 -113q0 -182 -241 -182q-106 0 -182 28l33 135q74 -19 140 -19q43 0 59.5 5.5t16.5 23.5q0 15 -18 21.5t-77 12.5q-82 8 -118.5 41t-36.5 114q0 181 236 181
q100 0 177 -29zM354 -51l-114 -167h-142l72 167h184z" />
    <glyph glyph-name="circumflex" unicode="&#x2c6;" horiz-adv-x="641" 
d="M394 568l-61 66l-59 -66h-148l122 129h172l126 -129h-152z" />
    <glyph glyph-name="caron" unicode="&#x2c7;" horiz-adv-x="641" 
d="M278 697l61 -66l59 66h148l-122 -129h-172l-126 129h152z" />
    <glyph glyph-name="breve" unicode="&#x2d8;" horiz-adv-x="512" 
d="M89 697h116q0 -27 12.5 -36.5t41.5 -9.5q28 0 40.5 9.5t12.5 36.5h108q0 -148 -166 -148q-79 0 -122 36.5t-43 111.5z" />
    <glyph glyph-name="dotaccent" unicode="&#x2d9;" horiz-adv-x="517" 
d="M263 706q46 0 62 -13.5t16 -58.5q0 -49 -16 -64.5t-62 -15.5q-45 0 -61 15.5t-16 64.5q0 45 16 58.5t61 13.5z" />
    <glyph glyph-name="ring" unicode="&#x2da;" horiz-adv-x="702" 
d="M360 744q69 0 98.5 -21.5t29.5 -80.5t-29 -80.5t-99 -21.5q-71 0 -100.5 21.5t-29.5 80.5t30 80.5t100 21.5zM360 676q-27 0 -35 -7.5t-8 -27.5q0 -21 8 -27.5t35 -6.5q26 0 34 7t8 27q0 21 -8 28t-34 7z" />
    <glyph glyph-name="ogonek" unicode="&#x2db;" horiz-adv-x="629" 
d="M448 12h45q-44 -27 -59 -46t-15 -46q0 -19 11 -27t42 -8q44 0 73 24l42 -77q-50 -35 -136 -35q-77 0 -107.5 21.5t-30.5 67.5q0 41 34 75t101 51z" />
    <glyph glyph-name="tilde" unicode="&#x2dc;" horiz-adv-x="703" 
d="M451 715l83 -67q-15 -40 -49 -67.5t-81 -27.5q-36 0 -78.5 20.5t-64.5 20.5q-26 0 -44 -41l-76 75q46 79 114 79q44 0 88 -19.5t62 -19.5q17 0 26.5 9.5t19.5 37.5z" />
    <glyph glyph-name="hungarumlaut" unicode="&#x2dd;" horiz-adv-x="469" 
d="M268 568h-118l97 129h143zM458 568h-118l97 129h143z" />
    <glyph glyph-name="Delta" unicode="&#x394;" horiz-adv-x="658" 
d="M690 0h-733q36 129 111 338.5t136 358.5h243q50 -170 119.5 -370t123.5 -327zM312 484q-33 -89 -102 -316h205q-68 189 -103 316z" />
    <glyph glyph-name="Delta" unicode="&#x2206;" horiz-adv-x="658" 
d="M690 0h-733q36 129 111 338.5t136 358.5h243q50 -170 119.5 -370t123.5 -327zM312 484q-33 -89 -102 -316h205q-68 189 -103 316z" />
    <glyph glyph-name="Omega" unicode="&#x3a9;" horiz-adv-x="821" 
d="M0 0v176h133q-24 19 -47 86.5t-23 135.5q0 175 84.5 245.5t262.5 70.5q177 0 261.5 -70.5t84.5 -245.5q0 -68 -23 -135.5t-47 -86.5h135v-176h-358v165q56 12 72.5 61t16.5 170q0 95 -23 118t-119 23q-97 0 -120 -23t-23 -118q0 -119 16 -168t71 -62v-166h-354z" />
    <glyph glyph-name="Omega" unicode="&#x2126;" horiz-adv-x="821" 
d="M0 0v176h133q-24 19 -47 86.5t-23 135.5q0 175 84.5 245.5t262.5 70.5q177 0 261.5 -70.5t84.5 -245.5q0 -68 -23 -135.5t-47 -86.5h135v-176h-358v165q56 12 72.5 61t16.5 170q0 95 -23 118t-119 23q-97 0 -120 -23t-23 -118q0 -119 16 -168t71 -62v-166h-354z" />
    <glyph glyph-name="pi" unicode="&#x3c0;" horiz-adv-x="673" 
d="M20 338v176h633v-176h-80v-338h-183v338h-111v-242q0 -107 -67 -159l-131 112q15 17 15 44v245h-76z" />
    <glyph glyph-name="afii10023" unicode="&#x401;" horiz-adv-x="631" 
d="M610 697h-534v-697h534v168h-343v108h247v165h-247v88h343v168zM219 881q46 0 62 -13.5t16 -58.5q0 -49 -16 -64.5t-62 -15.5q-45 0 -61 15.5t-16 64.5q0 45 16 58.5t61 13.5zM457 881q45 0 61 -13.5t16 -58.5q0 -49 -16 -64.5t-61 -15.5q-46 0 -62 15t-16 65
q0 45 15.5 58.5t62.5 13.5z" />
    <glyph glyph-name="afii10051" unicode="&#x402;" horiz-adv-x="781" 
d="M650 529h-229v-109q77 29 133 29q37 0 63.5 -6t51 -23.5t39.5 -48t24 -81t9 -121.5q0 -149 -37.5 -238t-98.5 -126l-142 118q44 31 64.5 82t20.5 156q0 81 -15.5 104t-56.5 23q-52 0 -55 -17v-271h-192v529h-229v168h650v-168z" />
    <glyph glyph-name="afii10052" unicode="&#x403;" horiz-adv-x="556" 
d="M76 0h191v529h318v168h-509v-697zM370 747h-150l124 129h182z" />
    <glyph glyph-name="afii10053" unicode="&#x404;" horiz-adv-x="624" 
d="M504 441v-165h-251q10 -70 51 -91.5t129 -21.5q83 0 136 17l34 -172q-91 -22 -215 -22q-88 0 -149.5 18t-106.5 60t-66.5 114t-21.5 177q0 106 21.5 176.5t66.5 110.5t106 56t150 16q124 0 215 -24l-34 -168q-53 17 -136 17q-86 0 -126.5 -18t-51.5 -80h249z" />
    <glyph glyph-name="afii10054" unicode="&#x405;" horiz-adv-x="621" 
d="M583 679l-37 -162q-92 22 -198 22q-68 0 -89.5 -10.5t-21.5 -34.5q0 -27 22 -37.5t107 -20.5q119 -15 173 -65.5t54 -149.5q0 -133 -71 -184t-247 -51q-141 0 -236 35l38 163q94 -23 195 -23q71 0 92.5 9.5t21.5 36.5t-24 38t-118 22q-110 13 -160 57.5t-50 139.5
q0 134 75 192t241 58q141 0 233 -35z" />
    <glyph glyph-name="afii10055" unicode="&#x406;" horiz-adv-x="343" 
d="M76 697h191v-697h-191v697z" />
    <glyph glyph-name="afii10056" unicode="&#x407;" horiz-adv-x="343" 
d="M267 697h-191v-697h191v697zM52 881q46 0 62 -13.5t16 -58.5q0 -49 -16 -64.5t-62 -15.5q-45 0 -61 15.5t-16 64.5q0 45 16 58.5t61 13.5zM290 881q45 0 61 -13.5t16 -58.5q0 -49 -16 -64.5t-61 -15.5q-46 0 -62 15t-16 65q0 45 15.5 58.5t62.5 13.5z" />
    <glyph glyph-name="afii10057" unicode="&#x408;" horiz-adv-x="483" 
d="M412 697l1 -505q0 -57 -20 -99t-54.5 -64.5t-73.5 -32.5t-85 -10q-102 0 -180 25l28 169q56 -17 126 -17q66 0 66 64v470h192z" />
    <glyph glyph-name="afii10058" unicode="&#x409;" horiz-adv-x="1114" 
d="M477 519h-140q-28 -270 -115 -519h-202q128 389 141 697h507v-205h224q90 0 139.5 -68.5t49.5 -172.5q0 -251 -189 -251h-415v519zM818 337h-150v-174h151q53 0 53 88q0 86 -54 86z" />
    <glyph glyph-name="afii10059" unicode="&#x40a;" horiz-adv-x="1130" 
d="M267 323v-323h-191v697h191v-212h226v212h191v-213h224q90 0 139.5 -67.5t49.5 -171.5q0 -119 -44.5 -182t-144.5 -63h-415v323h-226zM834 323h-150v-160h151q27 0 40 17.5t13 64.5t-14 62.5t-40 15.5z" />
    <glyph glyph-name="afii10060" unicode="&#x40b;" horiz-adv-x="787" 
d="M731 222v-222h-183v214q0 74 -72 74q-52 0 -55 -17v-271h-192v529h-229v168h650v-168h-229v-109q77 29 133 29q42 0 71 -8.5t54.5 -31.5t38.5 -69.5t13 -117.5z" />
    <glyph glyph-name="afii10061" unicode="&#x40c;" horiz-adv-x="711" 
d="M502 0h227q-31 106 -60.5 179.5t-58 114t-51 59.5t-51.5 32q58 63 201 312h-225q-104 -191 -217 -332v332h-191v-697h191v319q51 -6 87.5 -33.5t73.5 -96t74 -189.5zM434 747h-150l124 129h182z" />
    <glyph glyph-name="afii10062" unicode="&#x40e;" horiz-adv-x="669" 
d="M346 395q-70 179 -139 302h-232q59 -97 133.5 -251.5t117.5 -261.5q-57 -101 -119 -184h245q89 150 183.5 341t159.5 356h-224q-49 -143 -125 -302zM176 871h116q0 -27 12.5 -36.5t41.5 -9.5q28 0 40.5 9.5t12.5 36.5h108q0 -148 -166 -148q-79 0 -122 36.5t-43 111.5z
" />
    <glyph glyph-name="afii10145" unicode="&#x40f;" horiz-adv-x="759" 
d="M683 0h-220l-21 -192h-123l-21 192h-222v697h191v-519h226v519h190v-697z" />
    <glyph glyph-name="afii10017" unicode="&#x410;" horiz-adv-x="696" 
d="M211 697h291q108 -368 240 -697h-211q-23 53 -50 134h-270l-36 -134h-207q38 133 111.5 344t131.5 353zM358 529h-25q-28 -79 -74 -230h167q-43 136 -68 230z" />
    <glyph glyph-name="afii10018" unicode="&#x411;" horiz-adv-x="734" 
d="M267 163h168q36 0 36 57q0 61 -40 61h-164v-118zM635 697v-168h-368v-93h224q88 0 137.5 -54t49.5 -164q0 -124 -47 -171t-140 -47h-415v697h559z" />
    <glyph glyph-name="afii10019" unicode="&#x412;" horiz-adv-x="735" 
d="M267 163h168q36 0 36 57q0 61 -40 61h-164v-118zM267 534v-98h165q15 0 22 9t7 39q0 50 -29 50h-165zM515 364q95 -4 129 -46t34 -133q0 -102 -48 -143.5t-139 -41.5h-415v697h415q101 0 138.5 -38.5t37.5 -129.5q0 -81 -31.5 -119.5t-120.5 -45.5z" />
    <glyph glyph-name="afii10020" unicode="&#x413;" horiz-adv-x="556" 
d="M267 0h-191v697h509v-168h-318v-529z" />
    <glyph glyph-name="afii10021" unicode="&#x414;" horiz-adv-x="842" 
d="M721 697v-519h121l-23 -332h-170v154h-446v-154h-171l-23 332h116q80 279 90 519h506zM531 178v351h-140q-21 -197 -63 -351h203z" />
    <glyph glyph-name="afii10022" unicode="&#x415;" horiz-adv-x="631" 
d="M76 697h534v-168h-343v-88h247v-165h-247v-108h343v-168h-534v697z" />
    <glyph glyph-name="afii10024" unicode="&#x416;" horiz-adv-x="1059" 
d="M209 0h-227q40 140 80 224t69 114t67 47q-45 49 -196 312h225q105 -194 207 -331v331h191v-331q102 137 207 331h225q-151 -263 -196 -312q38 -17 67 -47t69 -114t80 -224h-227q-55 178 -103.5 244t-121.5 75v-319h-191v319q-74 -9 -122.5 -75t-102.5 -244z" />
    <glyph glyph-name="afii10025" unicode="&#x417;" horiz-adv-x="648" 
d="M179 276v165h123q39 0 54.5 8.5t15.5 38.5q0 31 -26 41t-104 10q-107 0 -168 -17l-34 168q111 24 253 24q159 0 221.5 -40.5t62.5 -144.5q0 -81 -31 -119.5t-120 -45.5q95 -4 130 -46.5t35 -132.5q0 -109 -69.5 -154t-228.5 -45q-143 0 -255 22l34 172q24 -7 79.5 -12
t90.5 -5q84 0 112 11t28 45t-18.5 45.5t-56.5 11.5h-128z" />
    <glyph glyph-name="afii10026" unicode="&#x418;" horiz-adv-x="818" 
d="M742 697v-697h-188v415q-106 -204 -230 -415h-248v697h187v-430q152 256 246 430h233z" />
    <glyph glyph-name="afii10027" unicode="&#x419;" horiz-adv-x="818" 
d="M742 0v697h-233q-94 -174 -246 -430v430h-187v-697h248q124 211 230 415v-415h188zM239 871h116q0 -27 12.5 -36.5t41.5 -9.5q28 0 40.5 9.5t12.5 36.5h108q0 -148 -166 -148q-79 0 -122 36.5t-43 111.5z" />
    <glyph glyph-name="afii10028" unicode="&#x41a;" horiz-adv-x="711" 
d="M729 0h-227q-37 121 -74 189.5t-73.5 96t-87.5 33.5v-319h-191v697h191v-332q113 141 217 332h225q-143 -249 -201 -312q29 -13 51.5 -32t51 -59.5t58 -114t60.5 -179.5z" />
    <glyph glyph-name="afii10029" unicode="&#x41b;" horiz-adv-x="743" 
d="M477 529h-140q-30 -284 -115 -529h-202q128 389 141 697h506v-697h-190v529z" />
    <glyph glyph-name="afii10030" unicode="&#x41c;" horiz-adv-x="963" 
d="M491 328q76 203 155 369h241v-697h-185v422q-72 -160 -150 -370h-153q-93 267 -139 370v-422h-184v697h252q68 -135 163 -369z" />
    <glyph glyph-name="afii10031" unicode="&#x41d;" horiz-adv-x="759" 
d="M267 278v-278h-191v697h191v-241h226v241h190v-697h-190v278h-226z" />
    <glyph glyph-name="afii10032" unicode="&#x41e;" horiz-adv-x="781" 
d="M391 714q88 0 149.5 -16t107.5 -56t67.5 -110t21.5 -174q0 -106 -22 -179t-67.5 -115t-107 -60t-149.5 -18t-150 18t-107.5 60t-67.5 115t-22 179q0 104 22 174t67.5 110t107 56t150.5 16zM391 161q35 0 55.5 2t38 10t25.5 19t14 35t7.5 52.5t1.5 76.5q0 45 -1.5 71.5
t-7.5 49t-14 33t-26 17.5t-38 8.5t-55 1.5q-36 0 -56 -1.5t-38 -8.5t-26 -17.5t-14 -33t-7.5 -49t-1.5 -71.5q0 -48 1.5 -76.5t7.5 -52.5t14 -35t26 -19t38.5 -10t55.5 -2z" />
    <glyph glyph-name="afii10033" unicode="&#x41f;" horiz-adv-x="759" 
d="M267 529v-529h-191v697h607v-697h-190v529h-226z" />
    <glyph glyph-name="afii10034" unicode="&#x420;" horiz-adv-x="696" 
d="M267 360h150q54 0 54 86q0 88 -53 88h-151v-174zM267 0h-191v697h415q189 0 189 -251q0 -104 -49.5 -172.5t-139.5 -68.5h-224v-205z" />
    <glyph glyph-name="afii10035" unicode="&#x421;" horiz-adv-x="583" 
d="M44 355q0 106 20 176t63 110.5t102.5 56.5t148.5 16q114 0 205 -24l-34 -168q-53 17 -126 17q-54 0 -82.5 -5t-52 -23.5t-32 -56t-8.5 -101.5q0 -65 8.5 -102.5t32 -57t52.5 -25t82 -5.5q73 0 126 17l34 -172q-91 -22 -205 -22q-176 0 -255 81t-79 288z" />
    <glyph glyph-name="afii10036" unicode="&#x422;" horiz-adv-x="650" 
d="M421 0h-192v529h-229v168h650v-168h-229v-529z" />
    <glyph glyph-name="afii10037" unicode="&#x423;" horiz-adv-x="669" 
d="M346 395q76 159 125 302h224q-65 -165 -159.5 -356t-183.5 -341h-245q62 83 119 184q-43 107 -117.5 261.5t-133.5 251.5h232q69 -123 139 -302z" />
    <glyph glyph-name="afii10038" unicode="&#x424;" horiz-adv-x="858" 
d="M328 697h191v-73q175 -10 241 -71t66 -203t-66 -203t-241 -71v-76h-191v75q-172 10 -234 70.5t-62 204.5t62 204t234 70v73zM628 350q0 72 -19 94.5t-90 24.5v-239q71 2 90 25t19 95zM226 350q0 -69 19 -93t83 -27v238q-65 -2 -83.5 -25t-18.5 -93z" />
    <glyph glyph-name="afii10039" unicode="&#x425;" horiz-adv-x="701" 
d="M231 697l127 -174q77 113 109 174h240q-76 -120 -229 -343q180 -257 241 -354h-241q-52 84 -121 183q-96 -132 -137 -183h-240q75 94 257 352q-181 250 -258 345h252z" />
    <glyph glyph-name="afii10040" unicode="&#x426;" horiz-adv-x="804" 
d="M267 697v-519h226v519h190v-519h121l-23 -332h-170v154h-535v697h191z" />
    <glyph glyph-name="afii10041" unicode="&#x427;" horiz-adv-x="734" 
d="M467 417v280h191v-697h-191v204q-59 -23 -168 -23q-54 0 -96 11.5t-78 39t-55.5 79.5t-19.5 127v259h192v-255q0 -48 21.5 -65t85.5 -17t91 14t27 43z" />
    <glyph glyph-name="afii10042" unicode="&#x428;" horiz-adv-x="1044" 
d="M968 697v-697h-892v697h191v-519h160v519h191v-519h160v519h190z" />
    <glyph glyph-name="afii10043" unicode="&#x429;" horiz-adv-x="1089" 
d="M267 697v-519h160v519h191v-519h160v519h190v-519h121l-23 -332h-170v154h-820v697h191z" />
    <glyph glyph-name="afii10044" unicode="&#x42a;" horiz-adv-x="763" 
d="M126 529h-106v168h297v-202h224q90 0 139.5 -70t49.5 -174q0 -251 -189 -251h-415v529zM467 334h-150v-171h151q53 0 53 88q0 83 -54 83z" />
    <glyph glyph-name="afii10045" unicode="&#x42b;" horiz-adv-x="1003" 
d="M417 334h-150v-171h151q53 0 53 88q0 83 -54 83zM76 697h191v-202h224q90 0 139.5 -70t49.5 -174q0 -251 -189 -251h-415v697zM736 697h191v-697h-191v697z" />
    <glyph glyph-name="afii10046" unicode="&#x42c;" horiz-adv-x="713" 
d="M417 334h-150v-171h151q53 0 53 88q0 83 -54 83zM76 697h191v-202h224q90 0 139.5 -70t49.5 -174q0 -251 -189 -251h-415v697z" />
    <glyph glyph-name="afii10047" unicode="&#x42d;" horiz-adv-x="624" 
d="M120 276v165h249q-11 62 -51.5 80t-126.5 18q-83 0 -136 -17l-34 168q91 24 215 24q89 0 150 -16t106 -56t66.5 -110.5t21.5 -176.5q0 -105 -21.5 -177t-66.5 -114t-106.5 -60t-149.5 -18q-124 0 -215 22l34 172q53 -17 136 -17q88 0 129 21.5t51 91.5h-251z" />
    <glyph glyph-name="afii10048" unicode="&#x42e;" horiz-adv-x="1011" 
d="M675 714q71 0 122 -16.5t91 -55.5t59.5 -109.5t19.5 -174.5q0 -105 -20 -178.5t-59 -115.5t-91 -60t-122 -18q-131 0 -206.5 66.5t-87.5 225.5h-114v-278h-191v697h191v-241h115q16 143 90.5 200.5t202.5 57.5zM676 163q33 0 49 5t27 27t13.5 57.5t2.5 105.5
q0 66 -2.5 99.5t-14 53.5t-27 24t-48.5 4q-43 0 -61.5 -11t-27 -48t-8.5 -122q0 -90 8.5 -130t27 -52.5t61.5 -12.5z" />
    <glyph glyph-name="afii10049" unicode="&#x42f;" horiz-adv-x="738" 
d="M471 386v148h-161q-39 0 -39 -75q0 -73 40 -73h160zM223 295q-165 13 -165 198q0 94 45 149t144 55h415v-697h-191v231h-90q-53 0 -78.5 -42t-62.5 -189h-220q38 124 70.5 188t60.5 83.5t72 23.5z" />
    <glyph glyph-name="afii10065" unicode="&#x430;" horiz-adv-x="578" 
d="M522 329v-303q-117 -40 -256 -40q-133 0 -178.5 34.5t-45.5 135.5t48 134t152 33q49 0 107 -12q0 42 -18 55t-87 13q-86 0 -163 -21l-26 143q116 28 237 28q120 0 175 -45t55 -155zM349 129v69q-23 5 -65 5q-32 0 -43.5 -8t-11.5 -34q0 -27 9.5 -35t42.5 -8q38 0 68 11z
" />
    <glyph glyph-name="afii10066" unicode="&#x431;" horiz-adv-x="586" 
d="M228 248q0 -78 13 -99t51 -21q30 0 42.5 5.5t20.5 32t8 83.5q0 66 -14 85t-58 19q-40 0 -51.5 -20t-11.5 -85zM228 456q39 49 116 49q50 0 84.5 -10.5t62.5 -37t41.5 -77t13.5 -126.5q0 -153 -60 -210.5t-200 -57.5q-48 0 -82 6.5t-66 26t-51 54.5t-30.5 93.5
t-11.5 141.5q0 104 9.5 172.5t27 113t52.5 69t75.5 34.5t106.5 15q132 9 205 36v-156q-48 -20 -192 -31q-53 -4 -73.5 -28.5t-27.5 -76.5z" />
    <glyph glyph-name="afii10067" unicode="&#x432;" horiz-adv-x="609" 
d="M246 132h104q15 0 23 6.5t8 25.5q0 21 -8.5 27.5t-26.5 6.5h-100v-66zM246 382v-60h101q13 0 19 5.5t6 23.5q0 31 -25 31h-101zM429 268q81 -3 110.5 -34t29.5 -98q0 -75 -41 -105.5t-119 -30.5h-346v514h346q87 0 119 -28.5t32 -95.5q0 -60 -27.5 -88.5t-103.5 -33.5z
" />
    <glyph glyph-name="afii10068" unicode="&#x433;" horiz-adv-x="449" 
d="M246 358v-358h-183v514h386v-156h-203z" />
    <glyph glyph-name="afii10069" unicode="&#x434;" horiz-adv-x="717" 
d="M160 514h453v-358h104l-40 -310h-150v154h-336v-154h-151l-40 310h100q50 203 60 358zM430 358h-105q-5 -85 -34 -202h139v202z" />
    <glyph glyph-name="afii10070" unicode="&#x435;" horiz-adv-x="559" 
d="M462 150l26 -136q-84 -28 -191 -28q-257 0 -257 274q0 148 63.5 208.5t182.5 60.5q57 0 95.5 -7.5t70.5 -28t48.5 -57.5t23 -95.5t0.5 -141.5h-297q1 -38 23 -50.5t71 -12.5q78 0 141 14zM301 394q-37 0 -51.5 -13.5t-21.5 -50.5h142q-1 38 -16 51t-53 13z" />
    <glyph glyph-name="afii10072" unicode="&#x436;" horiz-adv-x="921" 
d="M212 0h-207q34 101 67 163t54.5 82.5t49.5 32.5q-25 25 -70.5 87t-92.5 149h207q82 -149 149 -243v243h183v-243q74 108 149 243h207q-47 -87 -92.5 -149t-70.5 -87q28 -12 49.5 -32.5t54.5 -82.5t67 -163h-207q-41 109 -79 160t-78 66v-226h-183v226q-85 -31 -157 -226z
" />
    <glyph glyph-name="afii10073" unicode="&#x437;" horiz-adv-x="533" 
d="M158 198v129h81q34 0 45 4.5t11 18.5q0 17 -12 22.5t-53 5.5q-84 0 -172 -24l-33 155q103 20 209 20q153 0 203.5 -27.5t50.5 -110.5q0 -62 -25.5 -90t-94.5 -33q72 -4 101.5 -36t29.5 -98q0 -87 -56 -117.5t-209 -30.5q-98 0 -211 18l33 162q80 -28 173 -28q47 0 61 6.5
t14 25.5q0 18 -14.5 23t-50.5 5h-81z" />
    <glyph glyph-name="afii10074" unicode="&#x438;" horiz-adv-x="632" 
d="M246 514v-237q56 63 140 237h183v-514h-183v226q-61 -121 -140 -226h-183v514h183z" />
    <glyph glyph-name="afii10075" unicode="&#x439;" horiz-adv-x="632" 
d="M246 514v-237q56 63 140 237h183v-514h-183v226q-61 -121 -140 -226h-183v514h183zM147 697h116q0 -27 12.5 -36.5t41.5 -9.5q28 0 40.5 9.5t12.5 36.5h108q0 -148 -166 -148q-79 0 -122 36.5t-43 111.5z" />
    <glyph glyph-name="afii10076" unicode="&#x43a;" horiz-adv-x="625" 
d="M620 0h-209q-44 117 -80 164.5t-85 61.5v-226h-183v514h183v-247q66 94 157 247h209q-107 -184 -161 -236q42 -17 79 -73t90 -205z" />
    <glyph glyph-name="afii10077" unicode="&#x43b;" horiz-adv-x="619" 
d="M373 358h-97q-13 -200 -60 -358h-190q57 212 77 514h453v-514h-183v358z" />
    <glyph glyph-name="afii10078" unicode="&#x43c;" horiz-adv-x="822" 
d="M419 283q58 146 99 231h241v-514h-180v295q-49 -107 -108 -271h-126q-50 158 -101 271v-295h-181v514h252q30 -55 104 -231z" />
    <glyph glyph-name="afii10079" unicode="&#x43d;" horiz-adv-x="619" 
d="M246 514v-172h127v172h183v-514h-183v186h-127v-186h-183v514h183z" />
    <glyph glyph-name="afii10080" unicode="&#x43e;" 
d="M295 -14q-132 0 -193.5 60.5t-61.5 213.5q0 151 62 210t193 59q133 0 195 -59t62 -210q0 -153 -62 -213.5t-195 -60.5zM295 389q-45 0 -58.5 -22.5t-13.5 -109.5q0 -85 14 -108t58 -23q45 0 59 23t14 108q0 87 -13.5 109.5t-59.5 22.5z" />
    <glyph glyph-name="afii10081" unicode="&#x43f;" horiz-adv-x="619" 
d="M246 358v-358h-183v514h493v-514h-183v358h-127z" />
    <glyph glyph-name="afii10082" unicode="&#x440;" horiz-adv-x="604" 
d="M246 369v-208q0 -11 17 -19t43 -8q43 0 59 25.5t16 92.5q0 78 -16 102t-61 24q-36 0 -58 -9zM63 -192v686q96 35 241 35q139 0 199 -59.5t60 -213.5q0 -270 -213 -270q-47 0 -104 17v-195h-183z" />
    <glyph glyph-name="afii10083" unicode="&#x441;" horiz-adv-x="474" 
d="M430 163l36 -152q-66 -25 -167 -25q-124 0 -191.5 62.5t-67.5 211.5q0 76 18.5 129.5t54.5 83.5t81 43t105 13q103 0 167 -22l-36 -152q-68 20 -113 20q-27 0 -41 -3t-28 -14t-19.5 -35.5t-5.5 -65.5q0 -73 21.5 -94.5t72.5 -21.5q54 0 113 22z" />
    <glyph glyph-name="afii10084" unicode="&#x442;" horiz-adv-x="489" 
d="M336 358v-358h-183v358h-153v156h489v-156h-153z" />
    <glyph glyph-name="afii10085" unicode="&#x443;" horiz-adv-x="513" 
d="M350 514h180q-105 -372 -264 -706h-200q39 66 84 166q-60 218 -174 540h184q51 -142 97 -326q60 183 93 326z" />
    <glyph glyph-name="afii10086" unicode="&#x444;" horiz-adv-x="833" 
d="M325 527v195h183v-195q10 2 45 2q136 0 187.5 -58t51.5 -215q0 -147 -50 -208.5t-143 -61.5q-54 0 -91 17v-195h-183v195q-37 -17 -91 -17q-93 0 -143 61.5t-50 208.5q0 157 51.5 215t187.5 58q35 0 45 -2zM278 134q47 0 47 25v214q-15 5 -45 5q-38 0 -52.5 -24
t-14.5 -102q0 -65 16 -91.5t49 -26.5zM555 134q33 0 49 26.5t16 91.5q0 78 -14.5 102t-52.5 24q-30 0 -45 -5v-214q0 -25 47 -25z" />
    <glyph glyph-name="afii10087" unicode="&#x445;" horiz-adv-x="520" 
d="M346 514h196q-50 -81 -173 -253q131 -192 174 -261h-198q-20 35 -77 119q-82 -109 -90 -119h-197q52 61 193 256q-122 174 -190 258h206q24 -31 82 -115q39 57 74 115z" />
    <glyph glyph-name="afii10088" unicode="&#x446;" horiz-adv-x="691" 
d="M556 156h135l-41 -310h-150v154h-437v514h183v-358h127v358h183v-358z" />
    <glyph glyph-name="afii10089" unicode="&#x447;" horiz-adv-x="586" 
d="M30 370v144h183v-136q0 -74 72 -74q55 0 55 19v191h183v-514h-183v172q-77 -29 -133 -29q-42 0 -71 8.5t-54.5 31.5t-38.5 69.5t-13 117.5z" />
    <glyph glyph-name="afii10090" unicode="&#x448;" horiz-adv-x="929" 
d="M866 514v-514h-803v514h183v-358h127v358h183v-358h127v358h183z" />
    <glyph glyph-name="afii10091" unicode="&#x449;" horiz-adv-x="1001" 
d="M866 156h135l-41 -310h-150v154h-747v514h183v-358h127v358h183v-358h127v358h183v-358z" />
    <glyph glyph-name="afii10092" unicode="&#x44a;" horiz-adv-x="629" 
d="M266 347h163q74 0 117 -46t43 -130q0 -93 -41 -132t-119 -39h-346v358h-73v156h256v-167zM266 125h104q14 0 22.5 12t8.5 32q0 44 -35 44h-100v-88z" />
    <glyph glyph-name="afii10093" unicode="&#x44b;" horiz-adv-x="852" 
d="M246 125h104q14 0 22.5 11.5t8.5 31.5q0 45 -35 45h-100v-88zM246 347h163q74 0 117 -46t43 -130q0 -93 -41 -132t-119 -39h-346v514h183v-167zM789 0v514h-183v-514h183z" />
    <glyph glyph-name="afii10094" unicode="&#x44c;" horiz-adv-x="609" 
d="M246 125h104q14 0 22.5 12t8.5 32q0 44 -35 44h-100v-88zM246 347h163q74 0 117 -46t43 -130q0 -93 -41 -132t-119 -39h-346v514h183v-167z" />
    <glyph glyph-name="afii10095" unicode="&#x44d;" horiz-adv-x="479" 
d="M15 11l34 137q41 -15 117 -15q73 0 86 66h-173v131h171q-15 52 -84 52q-70 0 -117 -14l-34 139q64 22 167 22q257 0 257 -269q0 -274 -257 -274q-101 0 -167 25z" />
    <glyph glyph-name="afii10096" unicode="&#x44e;" horiz-adv-x="889" 
d="M592 -14q-115 0 -176 45t-75 155h-95v-186h-183v514h183v-172h96q16 104 77 145.5t173 41.5q133 0 195 -59t62 -210q0 -153 -62 -213.5t-195 -60.5zM592 389q-45 0 -58.5 -22.5t-13.5 -109.5q0 -85 14 -108t58 -23q45 0 59 23t14 108q0 87 -13.5 109.5t-59.5 22.5z" />
    <glyph glyph-name="afii10097" unicode="&#x44f;" horiz-adv-x="637" 
d="M391 289v84h-105q-33 0 -33 -42t34 -42h104zM198 213q-76 6 -109.5 47t-33.5 103q0 69 39.5 110t125.5 41h354v-514h-183v150h-60q-40 0 -61.5 -29.5t-45.5 -120.5h-209q40 121 76.5 162.5t106.5 50.5z" />
    <glyph glyph-name="afii10071" unicode="&#x451;" horiz-adv-x="559" 
d="M488 14l-26 136q-63 -14 -141 -14q-49 0 -71 12.5t-23 50.5h297q6 83 -0.5 141.5t-23 95.5t-48.5 57.5t-70.5 28t-95.5 7.5q-119 0 -182.5 -60.5t-63.5 -208.5q0 -274 257 -274q107 0 191 28zM301 394q38 0 53 -13t16 -51h-142q7 37 21.5 50.5t51.5 13.5zM171 706
q46 0 62 -13.5t16 -58.5q0 -49 -16 -64.5t-62 -15.5q-45 0 -61 15.5t-16 64.5q0 45 16 58.5t61 13.5zM409 706q45 0 61 -13.5t16 -58.5q0 -49 -16 -64.5t-61 -15.5q-46 0 -62 15t-16 65q0 45 15.5 58.5t62.5 13.5z" />
    <glyph glyph-name="afii10099" unicode="&#x452;" horiz-adv-x="606" 
d="M246 567v-90q68 29 133 29q46 0 78 -12t58 -42.5t38.5 -89t12.5 -146.5q0 -153 -39.5 -264.5t-96.5 -146.5l-142 118q85 59 85 285q0 81 -15.5 104t-56.5 23q-52 0 -55 -17v-318h-183v567h-39v122h39v33h183v-33h83v-122h-83z" />
    <glyph glyph-name="afii10100" unicode="&#x453;" horiz-adv-x="449" 
d="M246 358v-358h-183v514h386v-156h-203zM292 568h-150l124 129h182z" />
    <glyph glyph-name="afii10101" unicode="&#x454;" horiz-adv-x="479" 
d="M430 148l34 -137q-66 -25 -165 -25q-259 0 -259 274q0 269 257 269q103 0 167 -22l-34 -139q-47 14 -117 14q-69 0 -84 -52h171v-131h-173q13 -66 86 -66q76 0 117 15z" />
    <glyph glyph-name="afii10102" unicode="&#x455;" horiz-adv-x="478" 
d="M443 500l-32 -132q-80 20 -153 20q-31 0 -42.5 -4.5t-11.5 -23.5q0 -14 13 -19t70 -13q90 -13 128.5 -47t38.5 -113q0 -182 -241 -182q-106 0 -182 28l33 135q74 -19 140 -19q43 0 59.5 5.5t16.5 23.5q0 15 -18 21.5t-77 12.5q-82 8 -118.5 41t-36.5 114q0 181 236 181
q100 0 177 -29z" />
    <glyph glyph-name="afii10103" unicode="&#x456;" horiz-adv-x="307" 
d="M246 0v514h-183v-514h183zM154 746q60 0 81 -15.5t21 -68.5q0 -58 -21 -76t-81 -18t-81 18t-21 76q0 53 21 68.5t81 15.5z" />
    <glyph glyph-name="afii10104" unicode="&#x457;" horiz-adv-x="307" 
d="M246 514v-514h-183v514h183zM35 706q46 0 62 -13.5t16 -58.5q0 -49 -16 -64.5t-62 -15.5q-45 0 -61 15.5t-16 64.5q0 45 16 58.5t61 13.5zM273 706q45 0 61 -13.5t16 -58.5q0 -49 -16 -64.5t-61 -15.5q-46 0 -62 15t-16 65q0 45 15.5 58.5t62.5 13.5z" />
    <glyph glyph-name="afii10105" unicode="&#x458;" horiz-adv-x="307" 
d="M154 746q60 0 81 -15.5t21 -68.5q0 -58 -21 -76t-81 -18t-81 18t-21 76q0 53 21 68.5t81 15.5zM246 7v507h-183v-513q0 -58 -71 -58v-146q139 0 196.5 47.5t57.5 162.5z" />
    <glyph glyph-name="afii10106" unicode="&#x459;" horiz-adv-x="919" 
d="M373 358h-97q-13 -200 -60 -358h-190q57 212 77 514h453v-167h163q74 0 117 -46t43 -130q0 -93 -41 -132t-119 -39h-346v358zM556 125h104q14 0 22.5 12t8.5 32q0 44 -35 44h-100v-88z" />
    <glyph glyph-name="afii10107" unicode="&#x45a;" horiz-adv-x="919" 
d="M556 347h163q74 0 117 -46t43 -130q0 -93 -41 -132t-119 -39h-346v213h-127v-213h-183v514h183v-167h127v167h183v-167zM556 125h104q14 0 22.5 12.5t8.5 32.5q0 43 -35 43h-100v-88z" />
    <glyph glyph-name="afii10108" unicode="&#x45b;" horiz-adv-x="612" 
d="M24 567v122h39v33h183v-33h83v-122h-83v-67q77 29 133 29q42 0 71 -8.5t54.5 -31.5t38.5 -69.5t13 -117.5v-302h-183v294q0 74 -72 74q-55 0 -55 -19v-349h-183v567h-39z" />
    <glyph glyph-name="afii10109" unicode="&#x45c;" horiz-adv-x="625" 
d="M620 0h-209q-44 117 -80 164.5t-85 61.5v-226h-183v514h183v-247q66 94 157 247h209q-107 -184 -161 -236q42 -17 79 -73t90 -205zM374 568h-150l124 129h182z" />
    <glyph glyph-name="afii10110" unicode="&#x45e;" horiz-adv-x="513" 
d="M350 514h180q-105 -372 -264 -706h-200q39 66 84 166q-60 218 -174 540h184q51 -142 97 -326q60 183 93 326zM89 697h116q0 -27 12.5 -36.5t41.5 -9.5q28 0 40.5 9.5t12.5 36.5h108q0 -148 -166 -148q-79 0 -122 36.5t-43 111.5z" />
    <glyph glyph-name="afii10193" unicode="&#x45f;" horiz-adv-x="619" 
d="M246 514v-358h127v358h183v-514h-163l-21 -192h-123l-21 192h-165v514h183z" />
    <glyph glyph-name="afii10050" unicode="&#x490;" horiz-adv-x="556" 
d="M76 0v697h344l42 192h123v-360h-318v-529h-191z" />
    <glyph glyph-name="afii10098" unicode="&#x491;" horiz-adv-x="449" 
d="M63 514h241l42 183h103v-339h-203v-358h-183v514z" />
    <glyph glyph-name="endash" unicode="&#x2013;" horiz-adv-x="613" 
d="M45 200v176h523v-176h-523z" />
    <glyph glyph-name="emdash" unicode="&#x2014;" horiz-adv-x="893" 
d="M45 200v176h803v-176h-803z" />
    <glyph glyph-name="quoteleft" unicode="&#x2018;" horiz-adv-x="295" 
d="M24 505l109 267h140l-78 -267h-171z" />
    <glyph glyph-name="quoteright" unicode="&#x2019;" horiz-adv-x="295" 
d="M272 762l-109 -267h-140l78 267h171z" />
    <glyph glyph-name="quotesinglbase" unicode="&#x201a;" horiz-adv-x="275" 
d="M262 108l-109 -267h-140l78 267h171z" />
    <glyph glyph-name="quotedblleft" unicode="&#x201c;" horiz-adv-x="523" 
d="M24 505l109 267h140l-78 -267h-171zM250 505l109 267h140l-78 -267h-171z" />
    <glyph glyph-name="quotedblright" unicode="&#x201d;" horiz-adv-x="523" 
d="M499 764l-109 -267h-140l78 267h171zM273 764l-109 -267h-140l78 267h171z" />
    <glyph glyph-name="quotedblbase" unicode="&#x201e;" horiz-adv-x="523" 
d="M499 98l-109 -267h-140l78 267h171zM273 98l-109 -267h-140l78 267h171z" />
    <glyph glyph-name="dagger" unicode="&#x2020;" horiz-adv-x="473" 
d="M30 440v147h133v133h146v-133h134v-147h-134v-203h-146v203h-133z" />
    <glyph glyph-name="daggerdbl" unicode="&#x2021;" horiz-adv-x="473" 
d="M30 231v147h133v62h-133v147h133v133h146v-133h134v-147h-134v-62h134v-147h-134v-133h-146v133h-133z" />
    <glyph glyph-name="bullet" unicode="&#x2022;" 
d="M295 56q-132 0 -193.5 60.5t-61.5 213.5q0 151 62 210t193 59q133 0 195 -59t62 -210q0 -153 -62 -213.5t-195 -60.5z" />
    <glyph glyph-name="ellipsis" unicode="&#x2026;" horiz-adv-x="1071" 
d="M184 184q62 0 84 -17.5t22 -74.5q0 -63 -22 -82t-84 -19q-61 0 -82.5 19.5t-21.5 81.5q0 57 21.5 74.5t82.5 17.5zM533 184q62 0 84 -17.5t22 -74.5q0 -63 -22 -82t-84 -19q-61 0 -82.5 19.5t-21.5 81.5q0 57 21.5 74.5t82.5 17.5zM885 184q62 0 84 -17.5t22 -74.5
q0 -63 -22 -82t-84 -19q-61 0 -82.5 19.5t-21.5 81.5q0 57 21.5 74.5t82.5 17.5z" />
    <glyph glyph-name="perthousand" unicode="&#x2030;" horiz-adv-x="1500" 
d="M675 697h163l-463 -697h-162zM230 714q120 0 165.5 -48t45.5 -182q0 -137 -46 -188.5t-165 -51.5t-164.5 51t-45.5 189q0 134 45 182t165 48zM230 369q34 0 43 18.5t9 96.5q0 72 -9 89.5t-43 17.5q-35 0 -44 -17.5t-9 -89.5q0 -77 9 -96t44 -19zM826 456q120 0 165.5 -48
t45.5 -182q0 -137 -46 -188.5t-165 -51.5t-164.5 51t-45.5 189q0 134 45 182t165 48zM826 111q34 0 43 18.5t9 96.5q0 72 -9 89.5t-43 17.5q-35 0 -44 -17.5t-9 -89.5q0 -77 9 -96t44 -19zM1269 456q120 0 165.5 -48t45.5 -182q0 -137 -46 -188.5t-165 -51.5t-164.5 51
t-45.5 189q0 134 45 182t165 48zM1269 111q34 0 43 18.5t9 96.5q0 72 -9 89.5t-43 17.5q-35 0 -44 -17.5t-9 -89.5q0 -77 9 -96t44 -19z" />
    <glyph glyph-name="guilsinglleft" unicode="&#x2039;" horiz-adv-x="416" 
d="M396 513l-136 -186l136 -189l-103 -105l-273 292l272 291z" />
    <glyph glyph-name="guilsinglright" unicode="&#x203a;" horiz-adv-x="416" 
d="M20 137l136 186l-136 189l103 105l273 -292l-272 -291z" />
    <glyph glyph-name="fraction" unicode="&#x2044;" horiz-adv-x="658" 
d="M495 697h163l-483 -697h-162z" />
    <glyph glyph-name="fraction" unicode="&#x2215;" horiz-adv-x="658" 
d="M495 697h163l-483 -697h-162z" />
    <glyph glyph-name="franc" unicode="&#x20a3;" horiz-adv-x="581" 
d="M45 74v122h31v501h521v-168h-330v-126h197v-165h-197v-42h83v-122h-83v-74h-191v74h-31z" />
    <glyph glyph-name="Euro" unicode="&#x20ac;" horiz-adv-x="583" 
d="M44 355q0 106 20 176t63 110.5t102.5 56.5t148.5 16q114 0 205 -24l-34 -168q-53 17 -126 17q-66 0 -100.5 -9.5t-52.5 -40.5h186v-111h-208v-25v-25h208v-111h-186q18 -33 52.5 -43.5t100.5 -10.5q73 0 126 17l34 -172q-91 -22 -205 -22q-176 0 -255 81t-79 288z" />
    <glyph glyph-name="afii61352" unicode="&#x2116;" horiz-adv-x="1251" 
d="M742 697v-697h-237q-107 198 -243 427v-427h-186v697h247q124 -211 230 -415v415h189zM810 61v136h381v-136h-381zM1000 714q120 0 165.5 -48t45.5 -182q0 -137 -46 -188.5t-165 -51.5t-164.5 51t-45.5 189q0 134 45 182t165 48zM1000 369q34 0 43 18.5t9 96.5
q0 72 -9 89.5t-43 17.5q-35 0 -44 -17.5t-9 -89.5q0 -77 9 -96t44 -19z" />
    <glyph glyph-name="trademark" unicode="&#x2122;" horiz-adv-x="921" 
d="M243 328h-122v260h-121v109h364v-109h-121v-260zM550 697l91 -192l86 192h144v-369h-118v196l-82 -168h-77l-75 168v-196h-118v369h149z" />
    <glyph glyph-name="estimated" unicode="&#x212e;" horiz-adv-x="732" 
d="M572 180l34 -172q-91 -22 -205 -22q-180 0 -268.5 83t-88.5 289q0 104 21.5 174.5t65.5 109.5t101.5 55.5t138.5 16.5q178 0 255.5 -107.5t66.5 -338.5h-443q6 -68 37.5 -87.5t113.5 -19.5q34 0 91.5 6t79.5 13zM371 537q-65 0 -89.5 -16.5t-30.5 -76.5h239
q-6 60 -30.5 76.5t-88.5 16.5z" />
    <glyph glyph-name="arrowleft" unicode="&#x2190;" horiz-adv-x="792" 
d="M413 -31l-403 388l403 389l134 -129l-179 -172h414v-175h-414l179 -172z" />
    <glyph glyph-name="arrowup" unicode="&#x2191;" horiz-adv-x="797" 
d="M10 340l388 403l389 -403l-129 -134l-172 179v-414h-175v414l-172 -179z" />
    <glyph glyph-name="arrowright" unicode="&#x2192;" horiz-adv-x="792" 
d="M379 745l403 -388l-403 -389l-134 129l179 172h-414v175h414l-179 172z" />
    <glyph glyph-name="arrowdown" unicode="&#x2193;" horiz-adv-x="797" 
d="M787 374l-388 -403l-389 403l129 134l172 -179v414h175v-414l172 179z" />
    <glyph glyph-name="partialdiff" unicode="&#x2202;" horiz-adv-x="630" 
d="M153 697h229q106 -112 159.5 -225.5t53.5 -249.5q0 -94 -21.5 -143t-81 -72.5t-174.5 -23.5q-158 0 -216 50t-58 190q0 122 55.5 170.5t205.5 48.5h38q-52 101 -190 255zM333 281q-60 0 -75.5 -11t-15.5 -51q0 -37 14.5 -48.5t61.5 -11.5q48 0 60.5 15t12.5 64
q0 28 -2 42q-20 1 -56 1z" />
    <glyph glyph-name="product" unicode="&#x220f;" horiz-adv-x="759" 
d="M267 519v-519h-191v697h607v-697h-190v519h-226z" />
    <glyph glyph-name="summation" unicode="&#x2211;" horiz-adv-x="636" 
d="M212 350q-152 249 -197 347h603v-168h-287q27 -49 107 -183q-67 -109 -115 -178h307v-168h-630q27 40 212 350z" />
    <glyph glyph-name="minus" unicode="&#x2212;" horiz-adv-x="543" 
d="M25 278v176h493v-176h-493z" />
    <glyph glyph-name="radical" unicode="&#x221a;" horiz-adv-x="615" 
d="M0 514h203q51 -142 97 -326q127 389 155 509h180q-37 -126 -114.5 -353t-124.5 -344h-214q-46 165 -100 330h-82v184z" />
    <glyph glyph-name="infinity" unicode="&#x221e;" horiz-adv-x="775" 
d="M317 352q0 33 -14 47.5t-51 14.5q-40 0 -51.5 -13.5t-11.5 -48.5q0 -36 11.5 -49.5t51.5 -13.5q37 0 51 14.5t14 48.5zM388 253q-8 -78 -48 -105.5t-123 -27.5q-54 0 -87.5 8.5t-58.5 34t-35.5 71t-10.5 118.5t10.5 118.5t35.5 70.5t58.5 33.5t87.5 8.5q84 0 123.5 -27.5
t47.5 -105.5q7 78 46.5 105.5t123.5 27.5q54 0 87.5 -8.5t58.5 -33.5t35.5 -70.5t10.5 -118.5t-10.5 -118.5t-35.5 -71t-58.5 -34t-87.5 -8.5q-83 0 -123 27.5t-47 105.5zM458 351q0 -33 14 -47.5t51 -14.5q40 0 51.5 13.5t11.5 48.5q0 36 -11.5 49.5t-51.5 13.5
q-37 0 -51 -14.5t-14 -48.5z" />
    <glyph glyph-name="integral" unicode="&#x222b;" horiz-adv-x="324" 
d="M74 0l1 534q0 196 205 196q102 0 177 -28l-38 -139q-42 14 -97 14q-36 0 -50 -13t-14 -44v-520h-1q-1 -56 -20.5 -97t-53.5 -63.5t-72.5 -32.5t-83.5 -10q-100 0 -180 25l29 131q57 -17 126 -17q72 0 72 64z" />
    <glyph glyph-name="approxequal" unicode="&#x2248;" horiz-adv-x="543" 
d="M426 325l112 -91q-20 -53 -66 -90.5t-109 -37.5q-39 0 -73 20.5t-63.5 41t-56.5 20.5q-19 0 -32.5 -11.5t-27.5 -43.5l-102 101q63 107 154 107q45 0 82.5 -20t66.5 -40t53 -20q23 0 35.5 13t26.5 51zM426 565l112 -91q-20 -53 -66 -90.5t-109 -37.5q-39 0 -73 20.5
t-63.5 41t-56.5 20.5q-19 0 -32.5 -11.5t-27.5 -43.5l-102 101q63 107 154 107q45 0 82.5 -20t66.5 -40t53 -20q23 0 35.5 13t26.5 51z" />
    <glyph glyph-name="notequal" unicode="&#x2260;" horiz-adv-x="543" 
d="M343 687h172l-33 -67h36v-176h-123l-75 -153h198v-176h-284l-35 -71h-172l35 71h-37v176h123l75 153h-198v176h285z" />
    <glyph glyph-name="lessequal" unicode="&#x2264;" horiz-adv-x="543" 
d="M25 -2v176h493v-176h-493zM497 622l-216 -160l216 -163l-93 -116l-363 240v75l362 239z" />
    <glyph glyph-name="greaterequal" unicode="&#x2265;" horiz-adv-x="543" 
d="M519 174v-176h-493v176h493zM263 462l-216 160l94 115l362 -239v-75l-363 -240l-93 116z" />
    <glyph glyph-name="lozenge" unicode="&#x25ca;" horiz-adv-x="696" 
d="M9 252q104 256 202 445h291q73 -199 188 -445q-114 -242 -188 -444h-291q-96 186 -202 444zM333 -59h25q8 25 65.5 155.5t67.5 155.5q-11 28 -68 157.5t-65 154.5h-25q-88 -193 -133 -312q47 -122 133 -311z" />
    <glyph glyph-name="caron.alt" unicode="&#xe01e;" horiz-adv-x="315" 
d="M359 722h148l-58 -192h-108z" />
    <glyph glyph-name="commaaccent" unicode="&#xf6c3;" horiz-adv-x="255" 
d="M316 -51l-114 -167h-142l72 167h184z" />
    <glyph glyph-name="Acute" unicode="&#xf6c9;" horiz-adv-x="469" 
d="M254 747h-150l124 129h182z" />
    <glyph glyph-name="Caron" unicode="&#xf6ca;" horiz-adv-x="641" 
d="M293 876l61 -66l59 66h148l-122 -129h-172l-126 129h152z" />
    <glyph glyph-name="Dieresis" unicode="&#xf6cb;" horiz-adv-x="526" 
d="M144 881q46 0 62 -13.5t16 -58.5q0 -49 -16 -64.5t-62 -15.5q-45 0 -61 15.5t-16 64.5q0 45 16 58.5t61 13.5zM382 881q45 0 61 -13.5t16 -58.5q0 -49 -16 -64.5t-61 -15.5q-46 0 -62 15t-16 65q0 45 15.5 58.5t62.5 13.5z" />
    <glyph glyph-name="Grave" unicode="&#xf6ce;" horiz-adv-x="469" 
d="M410 747h-150l-156 129h182z" />
    <glyph glyph-name="Hungarumlaut" unicode="&#xf6cf;" horiz-adv-x="606" 
d="M268 747h-118l97 129h143zM458 747h-118l97 129h143z" />
    <glyph glyph-name="Macron" unicode="&#xf6d0;" horiz-adv-x="314" 
d="M110 737v122h305v-122h-305z" />
    <glyph glyph-name="Lslashsmall" unicode="&#xf6f9;" horiz-adv-x="464" 
d="M246 255v-93h223v-162h-406v107l-36 -29v144l36 29v263h183v-114l85 70v-146z" />
    <glyph glyph-name="OEsmall" unicode="&#xf6fa;" horiz-adv-x="802" 
d="M772 514v-142h-234q9 -26 11 -45h156v-134h-156q-2 -23 -12 -51h235v-142h-362q-46 -14 -115 -14q-132 0 -193.5 60.5t-61.5 213.5q0 151 62 210t193 59q68 0 119 -15h358zM295 389q-45 0 -58.5 -22.5t-13.5 -109.5q0 -85 14 -108t58 -23q45 0 59 23t14 108
q0 87 -13.5 109.5t-59.5 22.5z" />
    <glyph glyph-name="Scaronsmall" unicode="&#xf6fd;" horiz-adv-x="478" 
d="M443 500l-32 -132q-80 20 -153 20q-31 0 -42.5 -4.5t-11.5 -23.5q0 -14 13 -19t70 -13q90 -13 128.5 -47t38.5 -113q0 -182 -241 -182q-106 0 -182 28l33 135q74 -19 140 -19q43 0 59.5 5.5t16.5 23.5q0 15 -18 21.5t-77 12.5q-82 8 -118.5 41t-36.5 114q0 181 236 181
q100 0 177 -29zM191 697l61 -66l59 66h148l-122 -129h-172l-126 129h152z" />
    <glyph glyph-name="Zcaronsmall" unicode="&#xf6ff;" horiz-adv-x="499" 
d="M19 514h477v-25q-89 -154 -215 -333h199v-156h-479v24q53 74 121.5 179.5t94.5 154.5h-198v156zM196 697l61 -66l59 66h148l-122 -129h-172l-126 129h152z" />
    <glyph glyph-name="exclamsmall" unicode="&#xf721;" horiz-adv-x="324" 
d="M63 514h197l-35 -271h-131zM161 179q62 0 84 -17.5t22 -74.5q0 -63 -22 -82t-84 -19q-61 0 -82.5 19.5t-21.5 81.5q0 57 21.5 74.5t82.5 17.5z" />
    <glyph glyph-name="ampersandsmall" unicode="&#xf726;" horiz-adv-x="748" 
d="M527 299h200q0 -94 -98 -179q53 -54 98 -120h-200l-29 37q-116 -51 -228 -51q-103 0 -153 13t-68.5 43t-18.5 92q0 64 34 97t107 37q-68 5 -91 32.5t-23 90.5q0 30 2.5 49t11.5 36t24 26t41.5 15.5t62 9t87.5 2.5t87.5 -2.5t62 -9t41.5 -15.5t24 -26t11.5 -36t2.5 -49
q0 -61 -28 -89.5t-98 -33.5q44 -3 110 -43q28 34 28 74zM277 118q32 0 67 9.5t54 24.5q-58 46 -125 46q-27 0 -38.5 -9t-11.5 -32t12 -31t42 -8zM290 332q28 0 39 7t11 27q0 21 -10.5 28t-39.5 7q-30 0 -40.5 -7t-10.5 -28q0 -20 11.5 -27t39.5 -7z" />
    <glyph glyph-name="zerooldstyle" unicode="&#xf730;" horiz-adv-x="630" 
d="M314 -14q-118 0 -176.5 61.5t-58.5 212.5q0 150 59 209.5t176 59.5q119 0 178 -59.5t59 -209.5q0 -151 -59 -212.5t-178 -61.5zM314 389q-21 0 -30.5 -7.5t-15.5 -36.5t-6 -88q0 -83 11 -107t41 -24q32 0 42.5 23t10.5 108q0 86 -11 109t-42 23z" />
    <glyph glyph-name="oneoldstyle" unicode="&#xf731;" horiz-adv-x="630" 
d="M472 0h-184v299l-156 -59l-49 153l389 136v-529z" />
    <glyph glyph-name="twooldstyle" unicode="&#xf732;" horiz-adv-x="630" 
d="M113 341l-42 162q104 26 245 26q131 0 179.5 -34.5t48.5 -124.5q0 -72 -44 -124.5t-163 -103.5h224v-142h-485v128q127 71 184.5 107.5t73 53.5t15.5 36q0 25 -14.5 34.5t-59.5 9.5q-34 0 -83 -8.5t-79 -19.5z" />
    <glyph glyph-name="threeoldstyle" unicode="&#xf733;" horiz-adv-x="630" 
d="M179 91v165h113q37 0 48.5 8t11.5 39t-22 41t-98 10q-97 0 -158 -17l-34 168q111 24 243 24q158 0 216 -39.5t58 -145.5q0 -81 -31 -119.5t-120 -45.5q95 -4 130 -46.5t35 -132.5q0 -110 -65 -154.5t-223 -44.5q-133 0 -245 22l34 172q60 -17 160 -17q82 0 106 11t24 45
q0 35 -14.5 46t-50.5 11h-118z" />
    <glyph glyph-name="fouroldstyle" unicode="&#xf734;" horiz-adv-x="630" 
d="M345 0h-339v65q176 298 284 449h235v-367h87v-147h-87v-192h-180v192zM345 147v192q-48 -68 -116 -192h116z" />
    <glyph glyph-name="fiveoldstyle" unicode="&#xf735;" horiz-adv-x="630" 
d="M82 514h470v-168h-291v-85q38 2 54 2q149 0 203 -48.5t54 -171.5q0 -141 -59.5 -193.5t-216.5 -52.5q-53 0 -130 6.5t-115 15.5l34 172q53 -17 160 -17q77 0 97.5 11t20.5 53q0 41 -19.5 51.5t-102.5 10.5q-89 0 -159 -8v422z" />
    <glyph glyph-name="sixoldstyle" unicode="&#xf736;" horiz-adv-x="630" 
d="M537 522q-54 17 -172 17q-62 0 -85 -17t-29 -81q33 5 83 5q150 0 205.5 -48.5t55.5 -170.5q0 -140 -58 -190.5t-216 -50.5q-155 0 -216 79t-61 290q0 145 29.5 221t96.5 107t195 31q115 0 206 -24zM397 222q0 38 -16.5 50.5t-74.5 12.5q-1 0 -58 -3q3 -77 17.5 -98
t55.5 -21q46 0 61 12t15 47z" />
    <glyph glyph-name="sevenoldstyle" unicode="&#xf737;" horiz-adv-x="630" 
d="M620 514v-53q-60 -97 -161 -309t-143 -344h-216q52 144 131.5 308t134.5 230h-322v168h576z" />
    <glyph glyph-name="eightoldstyle" unicode="&#xf738;" horiz-adv-x="630" 
d="M316 141q46 0 61.5 13.5t15.5 53.5q0 42 -16 59.5t-61 17.5q-46 0 -62 -17.5t-16 -59.5q0 -40 16 -53.5t62 -13.5zM316 432q38 0 54.5 13.5t16.5 49.5q0 38 -15.5 49.5t-55.5 11.5q-41 0 -57 -11.5t-16 -49.5q0 -36 17 -49.5t56 -13.5zM316 -14h-1q-160 0 -218 44.5
t-58 154.5q0 91 34 133t129 46q-89 7 -120.5 45.5t-31.5 119.5q0 70 19.5 107.5t77 57.5t168.5 20t168.5 -20t77 -57.5t19.5 -107.5q0 -81 -31.5 -119.5t-120.5 -45.5q95 -4 129 -46t34 -133q0 -110 -57.5 -154.5t-217.5 -44.5z" />
    <glyph glyph-name="nineoldstyle" unicode="&#xf739;" horiz-adv-x="630" 
d="M147 -192q144 160 196 262h-38q-150 0 -205.5 48.5t-55.5 170.5q0 140 58 190t216 50q115 0 174.5 -23.5t81 -72.5t21.5 -143q0 -135 -56 -252t-163 -230h-229zM333 231q36 0 56 1q2 14 2 42q0 49 -12.5 64t-60.5 15q-47 0 -61.5 -11.5t-14.5 -48.5q0 -40 15.5 -51
t75.5 -11z" />
    <glyph glyph-name="questionsmall" unicode="&#xf73f;" horiz-adv-x="499" 
d="M323 232h-166q66 47 92 74t26 47q0 18 -13 26.5t-54 8.5q-88 0 -164 -21l-22 148q125 22 206 22q143 0 197.5 -31t54.5 -107q0 -48 -37.5 -87.5t-119.5 -79.5zM237 184q62 0 84 -17.5t22 -74.5q0 -63 -22 -82t-84 -19q-61 0 -82.5 19.5t-21.5 81.5q0 57 21.5 74.5
t82.5 17.5z" />
    <glyph glyph-name="Asmall" unicode="&#xf761;" 
d="M160 514h269q81 -275 177 -514h-187q-18 41 -35 94h-193q-20 -74 -25 -94h-185q63 224 179 514zM296 374h-18q-19 -50 -47 -149h109q-21 64 -44 149z" />
    <glyph glyph-name="Bsmall" unicode="&#xf762;" horiz-adv-x="609" 
d="M246 132h104q15 0 23 6.5t8 25.5q0 21 -8.5 27.5t-26.5 6.5h-100v-66zM246 382v-60h101q13 0 19 5.5t6 23.5q0 31 -25 31h-101zM429 268q81 -3 110.5 -34t29.5 -98q0 -75 -41 -105.5t-119 -30.5h-346v514h346q87 0 119 -28.5t32 -95.5q0 -60 -27.5 -88.5t-103.5 -33.5z
" />
    <glyph glyph-name="Csmall" unicode="&#xf763;" horiz-adv-x="474" 
d="M430 163l36 -152q-66 -25 -167 -25q-124 0 -191.5 62.5t-67.5 211.5q0 76 18.5 129.5t54.5 83.5t81 43t105 13q103 0 167 -22l-36 -152q-68 20 -113 20q-27 0 -41 -3t-28 -14t-19.5 -35.5t-5.5 -65.5q0 -73 21.5 -94.5t72.5 -21.5q54 0 113 22z" />
    <glyph glyph-name="Dsmall" unicode="&#xf764;" horiz-adv-x="612" 
d="M63 514h259q132 0 191 -55t59 -200t-59 -202t-191 -57h-259v514zM297 382h-51v-250h51q49 0 70 23.5t21 101.5q0 79 -21 102t-70 23z" />
    <glyph glyph-name="Esmall" unicode="&#xf765;" horiz-adv-x="519" 
d="M489 514v-142h-243v-45h176v-134h-176v-51h243v-142h-426v514h426z" />
    <glyph glyph-name="Fsmall" unicode="&#xf766;" horiz-adv-x="494" 
d="M489 514v-142h-243v-72h176v-137h-176v-163h-183v514h426z" />
    <glyph glyph-name="Gsmall" unicode="&#xf767;" horiz-adv-x="587" 
d="M527 318v-297q-115 -35 -238 -35q-119 0 -184 62.5t-65 211.5q0 76 20.5 130t58 83.5t84 42.5t106.5 13q123 0 187 -22l-44 -144q-67 20 -135 20q-51 0 -72.5 -24t-21.5 -102q0 -73 20.5 -98.5t63.5 -25.5q40 0 64 13v33h-75v139h231z" />
    <glyph glyph-name="Hsmall" unicode="&#xf768;" horiz-adv-x="619" 
d="M246 514v-172h127v172h183v-514h-183v186h-127v-186h-183v514h183z" />
    <glyph glyph-name="Ismall" unicode="&#xf769;" horiz-adv-x="307" 
d="M246 514v-514h-183v514h183z" />
    <glyph glyph-name="Jsmall" unicode="&#xf76a;" horiz-adv-x="471" 
d="M410 514v-322q0 -57 -19.5 -99t-53.5 -64.5t-72.5 -32.5t-84.5 -10q-100 0 -180 25l29 151q57 -17 126 -17q72 0 72 64v305h183z" />
    <glyph glyph-name="Ksmall" unicode="&#xf76b;" horiz-adv-x="625" 
d="M246 514v-514h-183v514h183zM416 0h209q-56 116 -104 191t-67 90q20 19 62.5 80.5t95.5 152.5h-209q-120 -203 -157 -242q24 -14 170 -272z" />
    <glyph glyph-name="Lsmall" unicode="&#xf76c;" horiz-adv-x="464" 
d="M246 514v-352h223v-162h-406v514h183z" />
    <glyph glyph-name="Msmall" unicode="&#xf76d;" horiz-adv-x="822" 
d="M419 283q58 146 99 231h241v-514h-180v295q-49 -107 -108 -271h-126q-50 158 -101 271v-295h-181v514h252q30 -55 104 -231z" />
    <glyph glyph-name="Nsmall" unicode="&#xf76e;" horiz-adv-x="632" 
d="M246 232v-232h-183v514h179q91 -122 144 -226v226h183v-514h-183q-79 162 -140 232z" />
    <glyph glyph-name="Osmall" unicode="&#xf76f;" 
d="M295 -14q-132 0 -193.5 60.5t-61.5 213.5q0 151 62 210t193 59q133 0 195 -59t62 -210q0 -153 -62 -213.5t-195 -60.5zM295 389q-45 0 -58.5 -22.5t-13.5 -109.5q0 -85 14 -108t58 -23q45 0 59 23t14 108q0 87 -13.5 109.5t-59.5 22.5z" />
    <glyph glyph-name="Psmall" unicode="&#xf770;" horiz-adv-x="580" 
d="M560 342q0 -78 -35 -126t-111 -48h-168v-168h-183v514h331q87 0 126.5 -43.5t39.5 -128.5zM246 382v-88h99q11 0 19 12t8 31t-8 32t-19 13h-99z" />
    <glyph glyph-name="Qsmall" unicode="&#xf771;" 
d="M275 -14q-112 0 -173.5 62.5t-61.5 211.5q0 151 62 210t193 59q133 0 195 -59t62 -210q0 -177 -101 -243q34 -11 68.5 -51t102.5 -148h-193q-49 85 -85.5 126.5t-68.5 41.5zM295 389q-45 0 -58.5 -22.5t-13.5 -109.5q0 -85 14 -108t58 -23q45 0 59 23t14 108
q0 87 -13.5 109.5t-59.5 22.5z" />
    <glyph glyph-name="Rsmall" unicode="&#xf772;" horiz-adv-x="610" 
d="M246 373v-84h101q34 0 34 42t-33 42h-102zM436 213q46 -13 78.5 -51.5t95.5 -161.5h-209q-42 88 -65.5 119t-42.5 31h-47v-150h-183v514h351q85 0 120 -40t35 -111q0 -64 -29 -104t-104 -46z" />
    <glyph glyph-name="Ssmall" unicode="&#xf773;" horiz-adv-x="478" 
d="M443 500l-32 -132q-80 20 -153 20q-31 0 -42.5 -4.5t-11.5 -23.5q0 -14 13 -19t70 -13q90 -13 128.5 -47t38.5 -113q0 -182 -241 -182q-106 0 -182 28l33 135q74 -19 140 -19q43 0 59.5 5.5t16.5 23.5q0 15 -18 21.5t-77 12.5q-82 8 -118.5 41t-36.5 114q0 181 236 181
q100 0 177 -29z" />
    <glyph glyph-name="Tsmall" unicode="&#xf774;" horiz-adv-x="489" 
d="M336 358v-358h-183v358h-153v156h489v-156h-153z" />
    <glyph glyph-name="Usmall" unicode="&#xf775;" horiz-adv-x="606" 
d="M304 147q37 0 50 17.5t13 58.5v291h182v-283q0 -137 -54.5 -191t-190.5 -54t-191.5 54.5t-55.5 190.5v283h182v-291q0 -41 13.5 -58.5t51.5 -17.5z" />
    <glyph glyph-name="Vsmall" unicode="&#xf776;" horiz-adv-x="536" 
d="M-6 514h184q51 -142 97 -326q60 183 93 326h180q-80 -273 -177 -514h-214q-70 252 -163 514z" />
    <glyph glyph-name="Wsmall" unicode="&#xf777;" horiz-adv-x="847" 
d="M420 253q-21 -109 -67 -253h-214q-70 252 -163 514h184q55 -153 97 -321q39 121 89 321h158q55 -179 87 -321q64 196 93 321h180q-86 -289 -177 -514h-215q-20 114 -52 253z" />
    <glyph glyph-name="Xsmall" unicode="&#xf778;" horiz-adv-x="520" 
d="M346 514h196q-50 -81 -173 -253q131 -192 174 -261h-198q-20 35 -77 119q-82 -109 -90 -119h-197q52 61 193 256q-122 174 -190 258h206q24 -31 82 -115q39 57 74 115z" />
    <glyph glyph-name="Ysmall" unicode="&#xf779;" horiz-adv-x="502" 
d="M262 374q53 72 90 140h193q-102 -168 -194 -287v-227h-183v227q-138 197 -211 287h205q47 -59 100 -140z" />
    <glyph glyph-name="Zsmall" unicode="&#xf77a;" horiz-adv-x="499" 
d="M19 514h477v-25q-89 -154 -215 -333h199v-156h-479v24q53 74 121.5 179.5t94.5 154.5h-198v156z" />
    <glyph glyph-name="exclamdownsmall" unicode="&#xf7a1;" horiz-adv-x="324" 
d="M261 0h-197l35 272h131zM163 336q-62 0 -84 17.5t-22 74.5q0 63 22 82t84 19q61 0 82.5 -19.5t21.5 -81.5q0 -57 -21.5 -74.5t-82.5 -17.5z" />
    <glyph glyph-name="questiondownsmall" unicode="&#xf7bf;" horiz-adv-x="499" 
d="M179 288q-82 -40 -119.5 -79.5t-37.5 -87.5q0 -75 54.5 -105t198.5 -30q97 0 205 19l-22 148q-76 -21 -164 -21q-41 0 -54 8.5t-13 26.5q0 20 26 47t92 74h-166zM265 336q-62 0 -84 17.5t-22 74.5q0 63 22 82t84 19q61 0 82.5 -19.5t21.5 -81.5q0 -57 -21.5 -74.5
t-82.5 -17.5z" />
    <glyph glyph-name="Agravesmall" unicode="&#xf7e0;" 
d="M160 514h269q81 -275 177 -514h-187q-18 41 -35 94h-193q-20 -74 -25 -94h-185q63 224 179 514zM296 374h-18q-19 -50 -47 -149h109q-21 64 -44 149zM421 568h-150l-156 129h182z" />
    <glyph glyph-name="Aacutesmall" unicode="&#xf7e1;" 
d="M429 514h-269q-116 -290 -179 -514h185q5 20 25 94h193q17 -53 35 -94h187q-96 239 -177 514zM296 374q23 -85 44 -149h-109q28 99 47 149h18zM309 568h-150l124 129h182z" />
    <glyph glyph-name="Acircumflexsmall" unicode="&#xf7e2;" 
d="M429 514h-269q-116 -290 -179 -514h185q5 20 25 94h193q17 -53 35 -94h187q-96 239 -177 514zM296 374q23 -85 44 -149h-109q28 99 47 149h18zM348 568l-61 66l-59 -66h-148l122 129h172l126 -129h-152z" />
    <glyph glyph-name="Atildesmall" unicode="&#xf7e3;" 
d="M429 514h-269q-116 -290 -179 -514h185q5 20 25 94h193q17 -53 35 -94h187q-96 239 -177 514zM296 374q23 -85 44 -149h-109q28 99 47 149h18zM403 715l83 -67q-15 -40 -49 -67.5t-81 -27.5q-36 0 -78.5 20.5t-64.5 20.5q-26 0 -44 -41l-76 75q46 79 114 79
q44 0 88 -19.5t62 -19.5q17 0 26.5 9.5t19.5 37.5z" />
    <glyph glyph-name="Adieresissmall" unicode="&#xf7e4;" 
d="M429 514h-269q-116 -290 -179 -514h185q5 20 25 94h193q17 -53 35 -94h187q-96 239 -177 514zM296 374q23 -85 44 -149h-109q28 99 47 149h18zM172 706q46 0 62 -13.5t16 -58.5q0 -49 -16 -64.5t-62 -15.5q-45 0 -61 15.5t-16 64.5q0 45 16 58.5t61 13.5zM410 706
q45 0 61 -13.5t16 -58.5q0 -49 -16 -64.5t-61 -15.5q-46 0 -62 15t-16 65q0 45 15.5 58.5t62.5 13.5z" />
    <glyph glyph-name="Aringsmall" unicode="&#xf7e5;" 
d="M160 514h269q81 -275 177 -514h-187q-18 41 -35 94h-193q-20 -74 -25 -94h-185q63 224 179 514zM296 374h-18q-19 -50 -47 -149h109q-21 64 -44 149zM287 744q69 0 98.5 -21.5t29.5 -80.5t-29 -80.5t-99 -21.5q-71 0 -100.5 21.5t-29.5 80.5t30 80.5t100 21.5zM287 676
q-27 0 -35 -7.5t-8 -27.5q0 -21 8 -27.5t35 -6.5q26 0 34 7t8 27q0 21 -8 28t-34 7z" />
    <glyph glyph-name="AEsmall" unicode="&#xf7e6;" horiz-adv-x="856" 
d="M826 514v-142h-243v-45h176v-134h-176v-51h243v-142h-426v99h-211l-58 -99h-191q134 220 347 514h539zM272 230h128v160h-25q-40 -59 -103 -160z" />
    <glyph glyph-name="Ccedillasmall" unicode="&#xf7e7;" horiz-adv-x="474" 
d="M430 163l36 -152q-66 -25 -167 -25q-124 0 -191.5 62.5t-67.5 211.5q0 76 18.5 129.5t54.5 83.5t81 43t105 13q103 0 167 -22l-36 -152q-68 20 -113 20q-27 0 -41 -3t-28 -14t-19.5 -35.5t-5.5 -65.5q0 -73 21.5 -94.5t72.5 -21.5q54 0 113 22zM253 0h65v-36
q100 0 100 -81q0 -48 -33 -67t-116 -19q-52 0 -90 11l26 66q14 -7 54 -7q26 0 26 19q0 26 -68 20z" />
    <glyph glyph-name="Egravesmall" unicode="&#xf7e8;" horiz-adv-x="519" 
d="M489 514v-142h-243v-45h176v-134h-176v-51h243v-142h-426v514h426zM408 568h-150l-156 129h182z" />
    <glyph glyph-name="Eacutesmall" unicode="&#xf7e9;" horiz-adv-x="519" 
d="M489 514v-142h-243v-45h176v-134h-176v-51h243v-142h-426v514h426zM310 568h-150l124 129h182z" />
    <glyph glyph-name="Ecircumflexsmall" unicode="&#xf7ea;" horiz-adv-x="519" 
d="M489 514v-142h-243v-45h176v-134h-176v-51h243v-142h-426v514h426zM348 568l-61 66l-59 -66h-148l122 129h172l126 -129h-152z" />
    <glyph glyph-name="Edieresissmall" unicode="&#xf7eb;" horiz-adv-x="519" 
d="M489 514v-142h-243v-45h176v-134h-176v-51h243v-142h-426v514h426zM167 706q46 0 62 -13.5t16 -58.5q0 -49 -16 -64.5t-62 -15.5q-45 0 -61 15.5t-16 64.5q0 45 16 58.5t61 13.5zM405 706q45 0 61 -13.5t16 -58.5q0 -49 -16 -64.5t-61 -15.5q-46 0 -62 15t-16 65
q0 45 15.5 58.5t62.5 13.5z" />
    <glyph glyph-name="Igravesmall" unicode="&#xf7ec;" horiz-adv-x="307" 
d="M246 514v-514h-183v514h183zM267 568h-150l-156 129h182z" />
    <glyph glyph-name="Iacutesmall" unicode="&#xf7ed;" horiz-adv-x="307" 
d="M246 514v-514h-183v514h183zM186 568h-150l124 129h182z" />
    <glyph glyph-name="Icircumflexsmall" unicode="&#xf7ee;" horiz-adv-x="307" 
d="M246 514v-514h-183v514h183zM213 568l-61 66l-59 -66h-148l122 129h172l126 -129h-152z" />
    <glyph glyph-name="Idieresissmall" unicode="&#xf7ef;" horiz-adv-x="307" 
d="M246 514v-514h-183v514h183zM37 706q46 0 62 -13.5t16 -58.5q0 -49 -16 -64.5t-62 -15.5q-45 0 -61 15.5t-16 64.5q0 45 16 58.5t61 13.5zM275 706q45 0 61 -13.5t16 -58.5q0 -49 -16 -64.5t-61 -15.5q-46 0 -62 15t-16 65q0 45 15.5 58.5t62.5 13.5z" />
    <glyph glyph-name="Ethsmall" unicode="&#xf7f0;" horiz-adv-x="612" 
d="M26 200v122h37v192h259q132 0 191 -55t59 -200t-59 -202t-191 -57h-259v200h-37zM297 382h-51v-60h50v-122h-50v-68h51q49 0 70 23.5t21 101.5q0 79 -21 102t-70 23z" />
    <glyph glyph-name="Ntildesmall" unicode="&#xf7f1;" horiz-adv-x="632" 
d="M246 0v232q61 -70 140 -232h183v514h-183v-226q-53 104 -144 226h-179v-514h183zM437 715l83 -67q-15 -40 -49 -67.5t-81 -27.5q-36 0 -78.5 20.5t-64.5 20.5q-26 0 -44 -41l-76 75q46 79 114 79q44 0 88 -19.5t62 -19.5q17 0 26.5 9.5t19.5 37.5z" />
    <glyph glyph-name="Ogravesmall" unicode="&#xf7f2;" 
d="M295 -14q-132 0 -193.5 60.5t-61.5 213.5q0 151 62 210t193 59q133 0 195 -59t62 -210q0 -153 -62 -213.5t-195 -60.5zM295 389q-45 0 -58.5 -22.5t-13.5 -109.5q0 -85 14 -108t58 -23q45 0 59 23t14 108q0 87 -13.5 109.5t-59.5 22.5zM409 568h-150l-156 129h182z" />
    <glyph glyph-name="Oacutesmall" unicode="&#xf7f3;" 
d="M295 -14q133 0 195 60.5t62 213.5q0 151 -62 210t-195 59q-131 0 -193 -59t-62 -210q0 -153 61.5 -213.5t193.5 -60.5zM295 389q46 0 59.5 -22.5t13.5 -109.5q0 -85 -14 -108t-59 -23q-44 0 -58 23t-14 108q0 87 13.5 109.5t58.5 22.5zM329 568h-150l124 129h182z" />
    <glyph glyph-name="Ocircumflexsmall" unicode="&#xf7f4;" 
d="M295 -14q133 0 195 60.5t62 213.5q0 151 -62 210t-195 59q-131 0 -193 -59t-62 -210q0 -153 61.5 -213.5t193.5 -60.5zM295 389q46 0 59.5 -22.5t13.5 -109.5q0 -85 -14 -108t-59 -23q-44 0 -58 23t-14 108q0 87 13.5 109.5t58.5 22.5zM351 568l-61 66l-59 -66h-148
l122 129h172l126 -129h-152z" />
    <glyph glyph-name="Otildesmall" unicode="&#xf7f5;" 
d="M295 -14q133 0 195 60.5t62 213.5q0 151 -62 210t-195 59q-131 0 -193 -59t-62 -210q0 -153 61.5 -213.5t193.5 -60.5zM295 389q46 0 59.5 -22.5t13.5 -109.5q0 -85 -14 -108t-59 -23q-44 0 -58 23t-14 108q0 87 13.5 109.5t58.5 22.5zM408 715l83 -67q-15 -40 -49 -67.5
t-81 -27.5q-36 0 -78.5 20.5t-64.5 20.5q-26 0 -44 -41l-76 75q46 79 114 79q44 0 88 -19.5t62 -19.5q17 0 26.5 9.5t19.5 37.5z" />
    <glyph glyph-name="Odieresissmall" unicode="&#xf7f6;" 
d="M295 -14q133 0 195 60.5t62 213.5q0 151 -62 210t-195 59q-131 0 -193 -59t-62 -210q0 -153 61.5 -213.5t193.5 -60.5zM295 389q46 0 59.5 -22.5t13.5 -109.5q0 -85 -14 -108t-59 -23q-44 0 -58 23t-14 108q0 87 13.5 109.5t58.5 22.5zM176 706q46 0 62 -13.5t16 -58.5
q0 -49 -16 -64.5t-62 -15.5q-45 0 -61 15.5t-16 64.5q0 45 16 58.5t61 13.5zM414 706q45 0 61 -13.5t16 -58.5q0 -49 -16 -64.5t-61 -15.5q-46 0 -62 15t-16 65q0 45 15.5 58.5t62.5 13.5z" />
    <glyph glyph-name="Oslashsmall" unicode="&#xf7f8;" 
d="M449 514h156l-82 -92q29 -61 29 -162q0 -153 -62 -213.5t-195 -60.5q-84 0 -141 24l-9 -10h-156l81 91q-30 61 -30 169q0 151 62 210t193 59q92 0 145 -25zM295 389q-45 0 -58.5 -21.5t-13.5 -106.5l110 123q-12 5 -38 5zM295 126q44 0 58 21.5t15 101.5l-108 -120
q9 -3 35 -3z" />
    <glyph glyph-name="Ugravesmall" unicode="&#xf7f9;" horiz-adv-x="606" 
d="M304 147q37 0 50 17.5t13 58.5v291h182v-283q0 -137 -54.5 -191t-190.5 -54t-191.5 54.5t-55.5 190.5v283h182v-291q0 -41 13.5 -58.5t51.5 -17.5zM407 568h-150l-156 129h182z" />
    <glyph glyph-name="Uacutesmall" unicode="&#xf7fa;" horiz-adv-x="606" 
d="M304 147q37 0 50 17.5t13 58.5v291h182v-283q0 -137 -54.5 -191t-190.5 -54t-191.5 54.5t-55.5 190.5v283h182v-291q0 -41 13.5 -58.5t51.5 -17.5zM330 568h-150l124 129h182z" />
    <glyph glyph-name="Ucircumflexsmall" unicode="&#xf7fb;" horiz-adv-x="606" 
d="M304 147q37 0 50 17.5t13 58.5v291h182v-283q0 -137 -54.5 -191t-190.5 -54t-191.5 54.5t-55.5 190.5v283h182v-291q0 -41 13.5 -58.5t51.5 -17.5zM364 568l-61 66l-59 -66h-148l122 129h172l126 -129h-152z" />
    <glyph glyph-name="Udieresissmall" unicode="&#xf7fc;" horiz-adv-x="606" 
d="M304 147q37 0 50 17.5t13 58.5v291h182v-283q0 -137 -54.5 -191t-190.5 -54t-191.5 54.5t-55.5 190.5v283h182v-291q0 -41 13.5 -58.5t51.5 -17.5zM185 706q46 0 62 -13.5t16 -58.5q0 -49 -16 -64.5t-62 -15.5q-45 0 -61 15.5t-16 64.5q0 45 16 58.5t61 13.5zM423 706
q45 0 61 -13.5t16 -58.5q0 -49 -16 -64.5t-61 -15.5q-46 0 -62 15t-16 65q0 45 15.5 58.5t62.5 13.5z" />
    <glyph glyph-name="Yacutesmall" unicode="&#xf7fd;" horiz-adv-x="502" 
d="M262 374q53 72 90 140h193q-102 -168 -194 -287v-227h-183v227q-138 197 -211 287h205q47 -59 100 -140zM284 568h-150l124 129h182z" />
    <glyph glyph-name="Thornsmall" unicode="&#xf7fe;" horiz-adv-x="580" 
d="M246 514v-80h148q87 0 126.5 -43.5t39.5 -128.5q0 -78 -35 -126t-111 -48h-168v-88h-183v514h183zM246 302v-88h99q11 0 19 12t8 31t-8 32t-19 13h-99z" />
    <glyph glyph-name="Ydieresissmall" unicode="&#xf7ff;" horiz-adv-x="502" 
d="M262 374q53 72 90 140h193q-102 -168 -194 -287v-227h-183v227q-138 197 -211 287h205q47 -59 100 -140zM146 706q46 0 62 -13.5t16 -58.5q0 -49 -16 -64.5t-62 -15.5q-45 0 -61 15.5t-16 64.5q0 45 16 58.5t61 13.5zM384 706q45 0 61 -13.5t16 -58.5q0 -49 -16 -64.5
t-61 -15.5q-46 0 -62 15t-16 65q0 45 15.5 58.5t62.5 13.5z" />
    <glyph glyph-name="CR" horiz-adv-x="247" 
 />
    <glyph glyph-name="orn1" horiz-adv-x="650" 
d="M320 -153q-9 22 -30.5 37t-47 24.5l-54.5 20t-56 28t-49 42.5t-35 69.5t-13 104.5q0 109 40.5 167t119.5 58q54 0 125 -28q74 27 128 27q159 0 159 -220q0 -70 -18 -120t-45 -73.5t-61 -41.5t-65 -27t-58.5 -26t-39.5 -42zM320 230q-50 23 -66 23q-36 0 -36 -78
q0 -37 8 -61t20.5 -34.5t26 -16.5t27 -15t20.5 -22q7 13 21 21.5t27 15t26 17t21 35t8 62.5q0 76 -36 76q-17 0 -67 -23zM322 377q10 36 10 66q0 106 -131 106h-201v148h650v-148h-249q7 -13 7 -34q0 -38 -22.5 -77.5t-63.5 -60.5z" />
    <glyph glyph-name="ct" horiz-adv-x="851" 
d="M501 174v184q-57 0 -122.5 9.5t-73.5 9.5q-33 0 -48.5 -6.5t-24.5 -32.5t-9 -81q0 -75 17.5 -96.5t64.5 -21.5q61 0 102 15l34 -143q-66 -25 -152 -25q-117 0 -183 62.5t-66 211.5q0 147 66.5 208t182.5 61q27 0 94 -7.5t118 -7.5v66l183 74v-140h151v-156h-151v-163
q0 -31 14 -43.5t50 -12.5q31 0 74 13l29 -138q-69 -28 -166 -28q-92 0 -138 40t-46 148z" />
    <glyph glyph-name="st" horiz-adv-x="901" 
d="M551 174v184q-82 0 -180 15t-113 15q-31 0 -42.5 -4.5t-11.5 -23.5q0 -14 13 -19t70 -13q90 -13 128.5 -47t38.5 -113q0 -182 -241 -182q-106 0 -182 28l33 135q74 -19 140 -19q43 0 59.5 5.5t16.5 23.5q0 15 -18 21.5t-77 12.5q-82 8 -118.5 41t-36.5 114q0 181 236 181
q21 0 120 -7.5t165 -7.5v66l183 74v-140h151v-156h-151v-163q0 -31 14 -43.5t50 -12.5q31 0 74 13l29 -138q-69 -28 -166 -28q-92 0 -138 40t-46 148z" />
    <glyph glyph-name="Gcedilla" horiz-adv-x="724" 
d="M464 165v111h-123v165h320v-418q-47 -15 -128.5 -26t-154.5 -11q-176 0 -255 81t-79 288q0 105 24 176t73.5 110.5t115 56t159.5 16.5q134 0 225 -24l-31 -168q-22 7 -80.5 12t-93.5 5q-59 0 -90 -5t-56 -23.5t-33.5 -55.5t-8.5 -102t8.5 -102.5t32 -57t52.5 -25t82 -5.5
q15 0 41 2zM364 0h65v-36q100 0 100 -81q0 -48 -33 -67t-116 -19q-52 0 -90 11l26 66q14 -7 54 -7q26 0 26 19q0 26 -68 20z" />
    <glyph glyph-name="Idot" horiz-adv-x="343" 
d="M267 697h-191v-697h191v697zM170 887q46 0 62 -13.5t16 -58.5q0 -49 -16 -64.5t-62 -15.5q-45 0 -61 15.5t-16 64.5q0 45 16 58.5t61 13.5z" />
    <glyph glyph-name="Breve" horiz-adv-x="311" 
d="M112 871h116q0 -27 12.5 -36.5t41.5 -9.5q28 0 40.5 9.5t12.5 36.5h108q0 -148 -166 -148q-79 0 -122 36.5t-43 111.5z" />
    <glyph glyph-name="dmacron" horiz-adv-x="604" 
d="M288 567v122h70v33h183v-33h52v-122h-52v-546q-98 -35 -241 -35q-139 0 -199.5 60t-60.5 214q0 269 213 269q52 0 105 -16v54h-70zM358 146v208q0 11 -17.5 19.5t-43.5 8.5q-42 0 -58 -25.5t-16 -93.5q0 -78 16 -102t61 -24q35 0 58 9z" />
    <glyph glyph-name="Dotaccent" horiz-adv-x="268" 
d="M159 887q46 0 62 -13.5t16 -58.5q0 -49 -16 -64.5t-62 -15.5q-45 0 -61 15.5t-16 64.5q0 45 16 58.5t61 13.5z" />
    <glyph glyph-name="gacute" horiz-adv-x="604" 
d="M358 375v-209q0 -10 -18 -17t-45 -7q-43 0 -57.5 23t-14.5 91q0 84 15.5 107.5t61.5 23.5q30 0 58 -12zM358 15q0 -39 -29 -55t-85 -16q-67 0 -162 21l-30 -139q88 -30 195 -30q68 0 116 9t91 34t65 76t22 127v452q-98 35 -241 35q-138 0 -199 -62t-61 -216
q0 -147 49.5 -204t149.5 -57q62 0 119 25zM340 568h-150l124 129h182z" />
    <glyph glyph-name="ldotaccent" horiz-adv-x="315" 
d="M246 722v-566q0 -74 30 -130l-168 -52q-45 62 -45 177v571h183zM343 487q46 0 62 -13.5t16 -58.5q0 -49 -16 -64.5t-62 -15.5q-45 0 -61 15.5t-16 64.5q0 45 16 58.5t61 13.5z" />
    <glyph glyph-name="Ring" horiz-adv-x="702" 
d="M360 908q69 0 98.5 -21.5t29.5 -80.5t-29 -80.5t-99 -21.5q-71 0 -100.5 21.5t-29.5 80.5t30 80.5t100 21.5zM360 840q-27 0 -35 -7.5t-8 -27.5q0 -21 8 -27.5t35 -6.5q26 0 34 7t8 27q0 21 -8 28t-34 7z" />
    <glyph glyph-name="Tilde" horiz-adv-x="696" 
d="M519 891l83 -67q-15 -40 -49 -67.5t-81 -27.5q-36 0 -78.5 20.5t-64.5 20.5q-26 0 -44 -41l-76 75q46 79 114 79q44 0 88 -19.5t62 -19.5q17 0 26.5 9.5t19.5 37.5z" />
    <glyph glyph-name="Dmacron" horiz-adv-x="770" 
d="M76 697h316q88 0 147.5 -15.5t103 -54t63.5 -106t20 -168.5q0 -198 -79.5 -275.5t-254.5 -77.5h-316v697zM522 350q0 65 -5.5 99t-25 53t-45 23t-79.5 4h-100v-360h100q42 0 65.5 3.5t43.5 13t28.5 30.5t13 52t4.5 82zM219 737v122h305v-122h-305z" />
    <glyph glyph-name="Ldotaccent" horiz-adv-x="556" 
d="M76 697h191v-529h298v-168h-489v697zM395 505q46 0 62 -13.5t16 -58.5q0 -49 -16 -64.5t-62 -15.5q-45 0 -61 15.5t-16 64.5q0 45 16 58.5t61 13.5z" />
    <glyph glyph-name="g.2" horiz-adv-x="604" 
d="M557 494v-103q0 -216 -273 -216h-34q-2 -3 -2 -10q0 -13 27.5 -17.5t115.5 -8.5q181 -9 181 -147q0 -108 -77 -152t-218 -44q-127 0 -216 27l33 155q86 -27 174 -27q118 0 118 27q0 13 -16.5 17t-80.5 6q-126 5 -170.5 26t-44.5 86q0 48 35 86q-63 32 -63 146
q0 184 260 184q65 0 137 -10t114 -25zM374 368v8q-26 11 -78 11q-36 0 -51.5 -9t-15.5 -29t14.5 -26t48.5 -6q82 0 82 51z" />
    <glyph glyph-name="zerop" horiz-adv-x="642" 
d="M321 714q95 0 153 -29.5t91 -109t33 -217.5q0 -207 -67.5 -289.5t-209.5 -82.5t-209.5 82.5t-67.5 289.5q0 138 33 217.5t91 109t153 29.5zM322 163q26 0 40 4t25 13t15 33.5t5.5 55.5t1.5 89q0 55 -1.5 83.5t-5.5 51.5t-15 31t-25 11.5t-40 3.5q-22 0 -34 -1.5
t-23.5 -8.5t-16 -17.5t-8 -33t-4.5 -49t-1 -71.5q0 -58 2 -89t6 -55.5t14.5 -33.5t24.5 -13t40 -4z" />
    <glyph glyph-name="onep" horiz-adv-x="457" 
d="M381 0h-187v491l-156 -59l-49 163l392 136v-731z" />
    <glyph glyph-name="twop" horiz-adv-x="630" 
d="M92 515l-39 162q99 37 252 37q71 0 116.5 -8.5t81 -31.5t51.5 -65.5t16 -108.5q0 -46 -7 -77.5t-20.5 -59.5t-48.5 -58t-76 -59t-117 -78h275v-168h-540v156q231 168 276 209q47 44 52 84q2 11 2 30q0 37 -17 50t-66 13q-98 0 -191 -27z" />
    <glyph glyph-name="threep" horiz-adv-x="611" 
d="M179 276v165h113q37 0 48.5 8t11.5 39t-22 41t-98 10q-97 0 -158 -17l-34 168q111 24 243 24q158 0 216 -39.5t58 -145.5q0 -81 -31 -119.5t-120 -45.5q95 -4 130 -46.5t35 -132.5q0 -110 -65 -154.5t-223 -44.5q-133 0 -245 22l34 172q59 -17 160 -17q82 0 106 11t24 45
q0 35 -14.5 46t-50.5 11h-118z" />
    <glyph glyph-name="fourp" horiz-adv-x="630" 
d="M349 154h-342v68q180 319 287 475h237v-383h87v-160h-87v-154h-182v154zM349 314v200q-60 -88 -119 -200h119z" />
    <glyph glyph-name="fivep" horiz-adv-x="608" 
d="M77 697h470v-168h-291v-85q38 2 54 2q149 0 203 -48.5t54 -170.5q0 -140 -59 -190.5t-217 -50.5q-53 0 -130 6.5t-115 15.5l34 172q53 -17 160 -17q79 0 98.5 9t19.5 50t-19.5 51t-102.5 10q-89 0 -159 -8v422z" />
    <glyph glyph-name="sixp" horiz-adv-x="630" 
d="M537 522q-54 17 -172 17q-62 0 -85 -17t-29 -81q33 5 83 5q150 0 205.5 -48.5t55.5 -170.5q0 -140 -58 -190.5t-216 -50.5q-155 0 -216 79t-61 290q0 145 29.5 221t96.5 107t195 31q115 0 206 -24zM397 222q0 38 -16.5 50.5t-74.5 12.5q-1 0 -58 -3q3 -77 17.5 -98
t55.5 -21q46 0 61 12t15 47z" />
    <glyph glyph-name="sevenp" horiz-adv-x="561" 
d="M587 697v-53q-58 -92 -153.5 -300.5t-138.5 -343.5h-216q55 153 127.5 308.5t126.5 220.5h-322v168h576z" />
    <glyph glyph-name="eightp" horiz-adv-x="640" 
d="M321 141q46 0 61.5 13.5t15.5 53.5q0 42 -16 59.5t-61 17.5q-46 0 -62 -17.5t-16 -59.5q0 -40 16 -53.5t62 -13.5zM321 432q38 0 54.5 13.5t16.5 49.5q0 38 -15.5 49.5t-55.5 11.5q-41 0 -57 -11.5t-16 -49.5q0 -36 17 -49.5t56 -13.5zM321 -14h-1q-160 0 -218 44.5
t-58 154.5q0 91 34 133t129 46q-89 7 -120.5 45.5t-31.5 119.5q0 70 19.5 107.5t77 57.5t168.5 20t168.5 -20t77 -57.5t19.5 -107.5q0 -81 -31.5 -119.5t-120.5 -45.5q95 -4 129 -46t34 -133q0 -110 -57.5 -154.5t-217.5 -44.5z" />
    <glyph glyph-name="ninep" horiz-adv-x="630" 
d="M153 0q138 154 190 255h-38q-150 0 -205.5 48.5t-55.5 170.5q0 140 58 190t216 50q115 0 174.5 -23.5t81 -72.5t21.5 -143q0 -136 -53.5 -249.5t-159.5 -225.5h-229zM333 416q36 0 56 1q2 14 2 42q0 49 -12.5 64t-60.5 15q-47 0 -61.5 -11.5t-14.5 -48.5q0 -40 15.5 -51
t75.5 -11z" />
    <glyph glyph-name="arrowupleft" horiz-adv-x="669" 
d="M60 74l-10 559l560 -9l4 -187l-248 4l293 -292l-125 -124l-292 293l5 -248z" />
    <glyph glyph-name="arrowupright" horiz-adv-x="668" 
d="M59 623l559 10l-9 -560l-187 -4l4 248l-292 -293l-124 125l293 292l-248 -5z" />
    <glyph glyph-name="arrowdownleft" horiz-adv-x="669" 
d="M50 25l10 559l187 4l-5 -248l292 293l125 -124l-293 -292l248 4l-4 -187z" />
    <glyph glyph-name="arrowdownright" horiz-adv-x="668" 
d="M618 23l-559 10l-4 187l248 -5l-293 292l124 125l292 -293l-4 248l187 -4z" />
    <glyph glyph-name="orn2" horiz-adv-x="650" 
d="M330 -153q-12 25 -39.5 42t-58.5 26t-65 27t-61 41.5t-45 73.5t-18 120q0 220 159 220q54 0 128 -27q71 28 125 28q79 0 119.5 -58t40.5 -167q0 -60 -13 -104.5t-35 -69.5t-49 -42.5t-56 -28l-54.5 -20t-47 -24.5t-30.5 -37zM328 377q-41 21 -63.5 60.5t-22.5 77.5
q0 21 7 34h-249v148h650v-148h-201q-131 0 -131 -106q0 -30 10 -66z" />
    <glyph glyph-name="orn3" horiz-adv-x="650" 
d="M320 697q12 -25 39.5 -42t58.5 -26t65 -27t61 -41.5t45 -73.5t18 -120q0 -220 -159 -220q-54 0 -128 27q-71 -28 -125 -28q-79 0 -119.5 58t-40.5 167q0 60 13 104.5t35 69.5t49 42.5t56 28l54.5 20t47 24.5t30.5 37zM320 314q50 -23 67 -23q36 0 36 76q0 38 -8 62.5
t-21 35t-26 17t-27 15t-21 21.5q-7 -13 -20.5 -22t-27 -15t-26 -16.5t-20.5 -34.5t-8 -61q0 -78 36 -78q16 0 66 23zM322 167q41 -21 63.5 -60.5t22.5 -77.5q0 -21 -7 -34h249v-148h-650v148h201q131 0 131 106q0 30 -10 66z" />
    <glyph glyph-name="orn4" horiz-adv-x="650" 
d="M330 697q9 -22 30.5 -37t47 -24.5l54.5 -20t56 -28t49 -42.5t35 -69.5t13 -104.5q0 -109 -40.5 -167t-119.5 -58q-54 0 -125 28q-74 -27 -128 -27q-159 0 -159 220q0 70 18 120t45 73.5t61 41.5t65 27t58.5 26t39.5 42zM328 167q-10 -36 -10 -66q0 -106 131 -106h201
v-148h-650v148h249q-7 13 -7 34q0 38 22.5 77.5t63.5 60.5z" />
    <glyph glyph-name="orn5" horiz-adv-x="920" 
d="M10 277q22 9 37 30.5t24.5 47l20 54.5t28 56t42.5 49t69.5 35t104.5 13q109 0 167 -40.5t58 -119.5q0 -54 -28 -125q27 -73 27 -128q0 -159 -220 -159q-70 0 -120 18t-73.5 45t-41.5 61t-27 65t-26 58.5t-42 39.5zM393 277q23 50 23 66q0 36 -78 36q-37 0 -61 -8
t-34.5 -20.5t-16.5 -26t-15 -27t-22 -20.5q13 -7 21.5 -21t15 -27t17 -26t35 -21t62.5 -8q76 0 76 36q0 17 -23 67zM540 275q36 -10 66 -10q106 0 106 131v201h148v-650h-148v249q-13 -7 -34 -7q-38 0 -77.5 22.5t-60.5 63.5z" />
    <glyph glyph-name="orn6" horiz-adv-x="920" 
d="M10 267q25 12 42 39.5t26 58.5t27 65t41.5 61t73.5 45t120 18q220 0 220 -159q0 -55 -27 -128q28 -71 28 -125q0 -79 -58 -119.5t-167 -40.5q-60 0 -104.5 13t-69.5 35t-42.5 49t-28 56l-20 54.5t-24.5 47t-37 30.5zM540 269q21 41 60.5 63.5t77.5 22.5q21 0 34 -7v249
h148v-650h-148v201q0 131 -106 131q-30 0 -66 -10z" />
    <glyph glyph-name="orn7" horiz-adv-x="920" 
d="M910 277q-25 -12 -42 -39.5t-26 -58.5t-27 -65t-41.5 -61t-73.5 -45t-120 -18q-220 0 -220 159q0 55 27 128q-28 71 -28 125q0 79 58 119.5t167 40.5q60 0 104.5 -13t69.5 -35t42.5 -49t28 -56l20 -54.5t24.5 -47t37 -30.5zM527 277q-23 -50 -23 -67q0 -36 76 -36
q38 0 62.5 8t35 21t17 26t15 27t21.5 21q-13 7 -22 20.5t-15 27t-16.5 26t-34.5 20.5t-61 8q-78 0 -78 -36q0 -16 23 -66zM380 275q-21 -41 -60.5 -63.5t-77.5 -22.5q-21 0 -34 7v-249h-148v650h148v-201q0 -131 106 -131q30 0 66 10z" />
    <glyph glyph-name="orn8" horiz-adv-x="920" 
d="M910 267q-22 -9 -37 -30.5t-24.5 -47l-20 -54.5t-28 -56t-42.5 -49t-69.5 -35t-104.5 -13q-109 0 -167 40.5t-58 119.5q0 54 28 125q-27 73 -27 128q0 159 220 159q70 0 120 -18t73.5 -45t41.5 -61t27 -65t26 -58.5t42 -39.5zM380 269q-36 10 -66 10q-106 0 -106 -131
v-201h-148v650h148v-249q13 7 34 7q38 0 77.5 -22.5t60.5 -63.5z" />
    <glyph glyph-name="publish" horiz-adv-x="801" 
d="M757 358q0 -206 -88.5 -289t-267.5 -83q-180 0 -268.5 83t-88.5 289q0 104 23.5 174.5t71 109.5t110.5 55.5t152 16.5t151.5 -16.5t110 -55.5t71 -109.5t23.5 -174.5zM609 358q0 79 -9 124t-36 69t-62 30t-101 6q-67 0 -101.5 -6t-62 -30t-36.5 -69t-9 -124
q0 -84 9 -132.5t36 -74.5t62.5 -33.5t101.5 -7.5q44 0 71.5 3t53 12t39.5 25.5t25 44.5t15 67.5t4 95.5zM452 395q0 17 -5.5 24t-18.5 7h-49v-61h48q13 0 19 6.5t6 23.5zM585 390q0 -143 -104 -143h-102v-93h-140v385h242q55 0 79.5 -37t24.5 -112z" />
    <glyph glyph-name="zerob" horiz-adv-x="781" 
d="M390 605q-100 0 -147 -54t-47 -195q0 -145 47.5 -203t146.5 -58t146.5 58t47.5 203q0 141 -47 195t-147 54zM391 219q-42 0 -51.5 22t-9.5 115q0 87 9.5 106.5t51.5 19.5t51.5 -19.5t9.5 -106.5q0 -93 -9.5 -115t-51.5 -22zM391 714q88 0 149.5 -16t107.5 -56t67.5 -110
t21.5 -174q0 -106 -22 -179t-67.5 -115t-107 -60t-149.5 -18t-150 18t-107.5 60t-67.5 115t-22 179q0 104 22 174t67.5 110t107 56t150.5 16z" />
    <glyph glyph-name="oneb" horiz-adv-x="781" 
d="M343 110h131v511l-274 -95l34 -114l109 42v-344zM391 714q88 0 149.5 -16t107.5 -56t67.5 -110t21.5 -174q0 -106 -22 -179t-67.5 -115t-107 -60t-149.5 -18t-150 18t-107.5 60t-67.5 115t-22 179q0 104 22 174t67.5 110t107 56t150.5 16z" />
    <glyph glyph-name="twob" horiz-adv-x="781" 
d="M391 714q88 0 149.5 -16t107.5 -56t67.5 -110t21.5 -174q0 -106 -22 -179t-67.5 -115t-107 -60t-149.5 -18t-150 18t-107.5 60t-67.5 115t-22 179q0 104 22 174t67.5 110t107 56t150.5 16zM205 581l27 -113q68 18 134 18q35 0 46.5 -9t11.5 -35q0 -37 -21 -62
q-25 -30 -171 -135q-13 -11 -39 -29v-109h378v118h-193q124 79 156.5 117.5t32.5 114.5q0 89 -43 119.5t-143 30.5q-108 0 -176 -26z" />
    <glyph glyph-name="threeb" horiz-adv-x="781" 
d="M302 414v-116h82q26 0 36 -8t10 -32t-17 -31.5t-74 -7.5q-71 0 -112 12l-24 -120q82 -16 172 -16q110 0 155.5 31t45.5 109q0 63 -24.5 92.5t-90.5 32.5q62 5 83.5 32t21.5 83q0 74 -40.5 102t-150.5 28q-93 0 -171 -17l24 -118q43 12 111 12q54 0 69 -6.5t15 -28.5
t-8 -27.5t-34 -5.5h-79zM391 714q88 0 149.5 -16t107.5 -56t67.5 -110t21.5 -174q0 -106 -22 -179t-67.5 -115t-107 -60t-149.5 -18t-150 18t-107.5 60t-67.5 115t-22 179q0 104 22 174t67.5 110t107 56t150.5 16z" />
    <glyph glyph-name="fourb" horiz-adv-x="781" 
d="M155 212h239v-107h128v107h61v112h-61v269h-166q-85 -124 -201 -333v-48zM394 464v-140h-83q43 81 83 140zM391 714q88 0 149.5 -16t107.5 -56t67.5 -110t21.5 -174q0 -106 -22 -179t-67.5 -115t-107 -60t-149.5 -18t-150 18t-107.5 60t-67.5 115t-22 179q0 104 22 174
t67.5 110t107 56t150.5 16z" />
    <glyph glyph-name="fiveb" horiz-adv-x="781" 
d="M554 590h-329v-295q47 6 111 6q58 0 72 -7.5t14 -35.5t-13.5 -34.5t-69.5 -6.5q-74 0 -112 12l-24 -121q63 -15 172 -15q110 0 151.5 35.5t41.5 132.5q0 86 -38 120t-142 34q-10 0 -38 -2v60h204v117zM391 714q88 0 149.5 -16t107.5 -56t67.5 -110t21.5 -174
q0 -106 -22 -179t-67.5 -115t-107 -60t-149.5 -18t-150 18t-107.5 60t-67.5 115t-22 179q0 104 22 174t67.5 110t107 56t150.5 16z" />
    <glyph glyph-name="sixb" horiz-adv-x="781" 
d="M542 470l24 118q-63 17 -145 17q-131 0 -177.5 -51.5t-46.5 -199.5t42.5 -203.5t151.5 -55.5q110 0 151 35.5t41 133.5q0 85 -39 119t-144 34q-40 0 -58 -3q4 44 20 56t59 12q83 0 121 -12zM444 260q0 -24 -10.5 -32.5t-42.5 -8.5q-29 0 -39.5 15t-11.5 68q26 2 40 2
q41 0 52.5 -9t11.5 -35zM391 714q88 0 149.5 -16t107.5 -56t67.5 -110t21.5 -174q0 -106 -22 -179t-67.5 -115t-107 -60t-149.5 -18t-150 18t-107.5 60t-67.5 115t-22 179q0 104 22 174t67.5 110t107 56t150.5 16z" />
    <glyph glyph-name="sevenb" horiz-adv-x="781" 
d="M254 105h151q73 218 210 488h-408v-118h210q-85 -157 -163 -370zM391 714q88 0 149.5 -16t107.5 -56t67.5 -110t21.5 -174q0 -106 -22 -179t-67.5 -115t-107 -60t-149.5 -18t-150 18t-107.5 60t-67.5 115t-22 179q0 104 22 174t67.5 110t107 56t150.5 16z" />
    <glyph glyph-name="eightb" horiz-adv-x="781" 
d="M391 204q-33 0 -44 9.5t-11 37.5q0 29 11.5 41t43.5 12t43 -12t11 -41q0 -28 -11 -37.5t-43 -9.5zM391 407q-28 0 -39.5 9.5t-11.5 35.5t11 34t40 8q28 0 38.5 -8t10.5 -34t-11.5 -35.5t-37.5 -9.5zM390 95h1q111 0 151.5 31t40.5 109q0 63 -24 92.5t-90 32.5q63 5 85 32
t22 83q0 73 -36.5 101.5t-149.5 28.5t-149.5 -28.5t-36.5 -101.5q0 -56 22 -83t85 -32q-66 -3 -90 -32.5t-24 -92.5q0 -78 40.5 -109t152.5 -31zM391 714q88 0 149.5 -16t107.5 -56t67.5 -110t21.5 -174q0 -106 -22 -179t-67.5 -115t-107 -60t-149.5 -18t-150 18t-107.5 60
t-67.5 115t-22 179q0 104 22 174t67.5 110t107 56t150.5 16z" />
    <glyph glyph-name="nineb" horiz-adv-x="781" 
d="M278 107h160q75 78 112.5 157.5t37.5 175.5q0 97 -38.5 132t-155.5 35q-111 0 -151.5 -35t-40.5 -133q0 -86 38.5 -119.5t143.5 -33.5h27q-36 -70 -133 -179zM404 398q-42 0 -53 8t-11 36q0 26 10 34t44 8q33 0 42 -10.5t9 -45.5q0 -19 -2 -29q-14 -1 -39 -1zM391 714
q88 0 149.5 -16t107.5 -56t67.5 -110t21.5 -174q0 -106 -22 -179t-67.5 -115t-107 -60t-149.5 -18t-150 18t-107.5 60t-67.5 115t-22 179q0 104 22 174t67.5 110t107 56t150.5 16z" />
    <glyph glyph-name="Circumflex" horiz-adv-x="641" 
d="M409 747l-61 66l-59 -66h-148l122 129h172l126 -129h-152z" />
    <glyph glyph-name="apple" horiz-adv-x="896" 
d="M538 3v-195h-180v195q-57 -17 -104 -17q-213 0 -213 270q0 67 18 116.5t48.5 78.5t68 49t79 34t78 28.5t68 38t47.5 56.5q16 -33 47.5 -56.5t68 -38t78 -28.5t79 -34t68 -49t48.5 -78.5t18 -116.5q0 -270 -213 -270q-47 0 -104 17zM538 411v-250q0 -11 17 -19t43 -8
q43 0 59 25.5t16 92.5q0 49 -14.5 77t-33 35.5l-45.5 19t-42 27.5zM358 161v250q-15 -16 -42 -27.5l-45.5 -19t-33 -35.5t-14.5 -77q0 -67 16 -92.5t59 -25.5q26 0 43 8t17 19z" />
    <glyph glyph-name="sp" horiz-adv-x="1080" 
d="M539 -192v530q-191 50 -281 50q-31 0 -42.5 -4.5t-11.5 -23.5q0 -14 13 -19t70 -13q90 -13 128.5 -47t38.5 -113q0 -182 -241 -182q-106 0 -182 28l33 135q74 -19 140 -19q43 0 59.5 5.5t16.5 23.5q0 15 -18 21.5t-77 12.5q-82 8 -118.5 41t-36.5 114q0 181 236 181
q136 0 273 -35q96 35 241 35q139 0 199 -59.5t60 -213.5q0 -270 -213 -270q-47 0 -104 17v-195h-183zM722 369v-208q0 -11 17 -19t43 -8q43 0 59 25.5t16 92.5q0 78 -16 102t-61 24q-36 0 -58 -9z" />
    <glyph glyph-name="at.2" horiz-adv-x="955" 
d="M701 444v-309q-49 -18 -118.5 -29t-126.5 -11q-123 0 -165 34t-42 134t44 133t140 33q46 0 99 -12q0 43 -17 57t-80 14q-74 0 -113 -6.5t-66 -30.5t-34.5 -64t-7.5 -114q0 -80 9.5 -124t41 -72t80 -36.5t136.5 -8.5q89 0 142.5 11.5t82.5 42.5t38.5 73t9.5 114
q0 108 -19 159h148q18 -70 18 -165q0 -117 -20 -189.5t-71.5 -115.5t-127.5 -59t-199 -16q-119 0 -197 17.5t-132 60.5t-77 116t-23 186q0 110 26 182.5t80.5 112.5t124.5 55.5t173 15.5q130 0 186.5 -42.5t56.5 -146.5zM532 237v68q-20 5 -58 5q-30 0 -40.5 -8t-10.5 -34
t9 -34t39 -8q34 0 61 11z" />
    <glyph glyph-name="ampersand.2" horiz-adv-x="782" 
d="M667 278v-236q-153 -56 -344 -56q-141 0 -214.5 46t-73.5 153q0 90 35 132.5t130 46.5q-82 7 -111.5 45.5t-29.5 119.5q0 101 63.5 143t188.5 42q77 0 184 -23l-50 -168q-58 16 -99 16q-50 0 -66 -10t-16 -41q0 -29 12.5 -39t47.5 -10h160v64l183 74v-138h131v-161h-131z
M484 174v104h-175q-36 0 -50.5 -12t-14.5 -47q0 -34 20.5 -45t89.5 -11q66 0 130 11z" />
    <glyph glyph-name="Abrevesmall" 
d="M429 514h-269q-116 -290 -179 -514h185q5 20 25 94h193q17 -53 35 -94h187q-96 239 -177 514zM296 374q23 -85 44 -149h-109q28 99 47 149h18zM122 697h116q0 -27 12.5 -36.5t41.5 -9.5q28 0 40.5 9.5t12.5 36.5h108q0 -148 -166 -148q-79 0 -122 36.5t-43 111.5z" />
    <glyph glyph-name="Amacronsmall" 
d="M429 514h-269q-116 -290 -179 -514h185q5 20 25 94h193q17 -53 35 -94h187q-96 239 -177 514zM296 374q23 -85 44 -149h-109q28 99 47 149h18zM134 567v122h305v-122h-305z" />
    <glyph glyph-name="Aogoneksmall" 
d="M160 514h269q81 -275 177 -514h-187q-18 41 -35 94h-193q-20 -74 -25 -94h-185q63 224 179 514zM296 374h-18q-19 -50 -47 -149h109q-21 64 -44 149zM498 12h45q-44 -27 -59 -46t-15 -46q0 -19 11 -27t42 -8q44 0 73 24l42 -77q-50 -35 -136 -35q-77 0 -107.5 21.5
t-30.5 67.5q0 41 34 75t101 51z" />
    <glyph glyph-name="bracketleftsmall" horiz-adv-x="434" 
d="M94 678h340v-158h-151v-527h151v-157h-340v842z" />
    <glyph glyph-name="braceleftsmall" horiz-adv-x="391" 
d="M47 180v-1v145q48 0 75 32t27 121q0 50 14 87.5t40 60t51.5 35.5t58.5 23l78 -129q-47 -18 -66 -50t-19 -112q0 -42 -9 -71t-26.5 -42.5t-31 -18.5t-33.5 -8q19 -3 33 -8.5t31 -19.5t26.5 -43.5t9.5 -72.5q0 -80 18 -110.5t67 -50.5l-78 -126q-33 10 -58.5 23t-51.5 35.5
t-40 60t-14 87.5q0 89 -27 121t-75 32z" />
    <glyph glyph-name="Dcaronsmall" horiz-adv-x="612" 
d="M63 514h259q132 0 191 -55t59 -200t-59 -202t-191 -57h-259v514zM297 382h-51v-250h51q49 0 70 23.5t21 101.5q0 79 -21 102t-70 23zM241 697l61 -66l59 66h148l-122 -129h-172l-126 129h152z" />
    <glyph glyph-name="Dmacronsmall" horiz-adv-x="612" 
d="M63 514h259q132 0 191 -55t59 -200t-59 -202t-191 -57h-259v514zM297 382h-51v-250h51q49 0 70 23.5t21 101.5q0 79 -21 102t-70 23zM147 567v122h305v-122h-305z" />
    <glyph glyph-name="Emacronsmall" horiz-adv-x="519" 
d="M489 514v-142h-243v-45h176v-134h-176v-51h243v-142h-426v514h426zM131 567v122h305v-122h-305z" />
    <glyph glyph-name="Eurosmall" horiz-adv-x="460" 
d="M412 134l34 -123q-66 -25 -157 -25q-117 0 -183 62.5t-66 211.5q0 147 66.5 208t182.5 61q93 0 157 -22l-34 -124q-47 14 -105 14q-47 0 -67 -37h145v-80h-161q-1 -6 -1 -23q0 -14 1 -20h161v-79h-145q19 -39 67 -39q65 0 105 15z" />
    <glyph glyph-name="Eogoneksmall" horiz-adv-x="519" 
d="M489 514v-142h-243v-45h176v-134h-176v-51h243v-142h-426v514h426zM436 12h-45q-67 -17 -101 -51t-34 -75q0 -46 30.5 -67.5t107.5 -21.5q86 0 136 35l-42 77q-29 -24 -73 -24q-31 0 -42 8t-11 27q0 27 15 46t59 46z" />
    <glyph glyph-name="Ecaronsmall" horiz-adv-x="519" 
d="M489 514v-142h-243v-45h176v-134h-176v-51h243v-142h-426v514h426zM238 697l61 -66l59 66h148l-122 -129h-172l-126 129h152z" />
    <glyph glyph-name="Edotaccentsmall" horiz-adv-x="519" 
d="M489 514v-142h-243v-45h176v-134h-176v-51h243v-142h-426v514h426zM286 706q46 0 62 -13.5t16 -58.5q0 -49 -16 -64.5t-62 -15.5q-45 0 -61 15.5t-16 64.5q0 45 16 58.5t61 13.5z" />
    <glyph glyph-name="Ebrevesmall" horiz-adv-x="519" 
d="M489 514v-142h-243v-45h176v-134h-176v-51h243v-142h-426v514h426zM123 697h116q0 -27 12.5 -36.5t41.5 -9.5q28 0 40.5 9.5t12.5 36.5h108q0 -148 -166 -148q-79 0 -122 36.5t-43 111.5z" />
    <glyph glyph-name="Gacutesmall" horiz-adv-x="587" 
d="M527 318v-297q-115 -35 -238 -35q-119 0 -184 62.5t-65 211.5q0 76 20.5 130t58 83.5t84 42.5t106.5 13q123 0 187 -22l-44 -144q-67 20 -135 20q-51 0 -72.5 -24t-21.5 -102q0 -73 20.5 -98.5t63.5 -25.5q40 0 64 13v33h-75v139h231zM329 568h-150l124 129h182z" />
    <glyph glyph-name="Gbrevesmall" horiz-adv-x="587" 
d="M527 318v-297q-115 -35 -238 -35q-119 0 -184 62.5t-65 211.5q0 76 20.5 130t58 83.5t84 42.5t106.5 13q123 0 187 -22l-44 -144q-67 20 -135 20q-51 0 -72.5 -24t-21.5 -102q0 -73 20.5 -98.5t63.5 -25.5q40 0 64 13v33h-75v139h231zM151 697h116q0 -27 12.5 -36.5
t41.5 -9.5q28 0 40.5 9.5t12.5 36.5h108q0 -148 -166 -148q-79 0 -122 36.5t-43 111.5z" />
    <glyph glyph-name="Gcircumflexsmall" horiz-adv-x="587" 
d="M527 318v-297q-115 -35 -238 -35q-119 0 -184 62.5t-65 211.5q0 76 20.5 130t58 83.5t84 42.5t106.5 13q123 0 187 -22l-44 -144q-67 20 -135 20q-51 0 -72.5 -24t-21.5 -102q0 -73 20.5 -98.5t63.5 -25.5q40 0 64 13v33h-75v139h231zM369 568l-61 66l-59 -66h-148
l122 129h172l126 -129h-152z" />
    <glyph glyph-name="Gcommaaccentsmall" horiz-adv-x="587" 
d="M527 318v-297q-115 -35 -238 -35q-119 0 -184 62.5t-65 211.5q0 76 20.5 130t58 83.5t84 42.5t106.5 13q123 0 187 -22l-44 -144q-67 20 -135 20q-51 0 -72.5 -24t-21.5 -102q0 -73 20.5 -98.5t63.5 -25.5q40 0 64 13v33h-75v139h231zM407 -51l-114 -167h-142l72 167h184
z" />
    <glyph glyph-name="Gdotaccentsmall" horiz-adv-x="587" 
d="M527 318v-297q-115 -35 -238 -35q-119 0 -184 62.5t-65 211.5q0 76 20.5 130t58 83.5t84 42.5t106.5 13q123 0 187 -22l-44 -144q-67 20 -135 20q-51 0 -72.5 -24t-21.5 -102q0 -73 20.5 -98.5t63.5 -25.5q40 0 64 13v33h-75v139h231zM312 706q46 0 62 -13.5t16 -58.5
q0 -49 -16 -64.5t-62 -15.5q-45 0 -61 15.5t-16 64.5q0 45 16 58.5t61 13.5z" />
    <glyph glyph-name="Germandblssmall" horiz-adv-x="956" 
d="M921 500l-32 -132q-80 20 -153 20q-31 0 -42.5 -4.5t-11.5 -23.5q0 -14 13 -19t70 -13q90 -13 128.5 -47t38.5 -113q0 -182 -241 -182q-106 0 -182 28l33 135q74 -19 140 -19q43 0 59.5 5.5t16.5 23.5q0 15 -18 21.5t-77 12.5q-82 8 -118.5 41t-36.5 114q0 181 236 181
q100 0 177 -29zM443 500l-32 -132q-80 20 -153 20q-31 0 -42.5 -4.5t-11.5 -23.5q0 -14 13 -19t70 -13q90 -13 128.5 -47t38.5 -113q0 -182 -241 -182q-106 0 -182 28l33 135q74 -19 140 -19q43 0 59.5 5.5t16.5 23.5q0 15 -18 21.5t-77 12.5q-82 8 -118.5 41t-36.5 114
q0 181 236 181q100 0 177 -29z" />
    <glyph glyph-name="Hbarsmall" horiz-adv-x="619" 
d="M18 372v104h45v38h183v-38h127v38h183v-38h46v-104h-46v-372h-183v186h-127v-186h-183v372h-45zM246 342h127v30h-127v-30z" />
    <glyph glyph-name="Hcircumflexsmall" horiz-adv-x="619" 
d="M246 514v-172h127v172h183v-514h-183v186h-127v-186h-183v514h183zM367 568l-61 66l-59 -66h-148l122 129h172l126 -129h-152z" />
    <glyph glyph-name="Imacronsmall" horiz-adv-x="307" 
d="M246 514v-514h-183v514h183zM1 567v122h305v-122h-305z" />
    <glyph glyph-name="Iogoneksmall" horiz-adv-x="307" 
d="M246 514v-514h-183v514h183zM205 12h-45q-67 -17 -101 -51t-34 -75q0 -46 30.5 -67.5t107.5 -21.5q86 0 136 35l-42 77q-29 -24 -73 -24q-31 0 -42 8t-11 27q0 27 15 46t59 46z" />
    <glyph glyph-name="Itildesmall" horiz-adv-x="307" 
d="M246 514v-514h-183v514h183zM271 715l83 -67q-15 -40 -49 -67.5t-81 -27.5q-36 0 -78.5 20.5t-64.5 20.5q-26 0 -44 -41l-76 75q46 79 114 79q44 0 88 -19.5t62 -19.5q17 0 26.5 9.5t19.5 37.5z" />
    <glyph glyph-name="Jcircumflexsmall" horiz-adv-x="471" 
d="M410 192v322h-183v-305q0 -64 -72 -64q-69 0 -126 17l-29 -151q80 -25 180 -25q46 0 84.5 10t72.5 32.5t53.5 64.5t19.5 99zM373 568l-61 66l-59 -66h-148l122 129h172l126 -129h-152z" />
    <glyph glyph-name="Kcommaaccentsmall" horiz-adv-x="625" 
d="M246 514v-514h-183v514h183zM416 0h209q-56 116 -104 191t-67 90q20 19 62.5 80.5t95.5 152.5h-209q-120 -203 -157 -242q24 -14 170 -272zM432 -51l-114 -167h-142l72 167h184z" />
    <glyph glyph-name="Lacutesmall" horiz-adv-x="464" 
d="M246 162v352h-183v-514h406v162h-223zM246 568h-150l124 129h182z" />
    <glyph glyph-name="Lcaronsmall" horiz-adv-x="464" 
d="M246 162v352h-183v-514h406v162h-223zM307 531h148l-58 -192h-108z" />
    <glyph glyph-name="Lcommaaccentsmall" horiz-adv-x="464" 
d="M246 514v-352h223v-162h-406v514h183zM356 -51l-114 -167h-142l72 167h184z" />
    <glyph glyph-name="Ldotsmall" horiz-adv-x="464" 
d="M246 514v-352h223v-162h-406v514h183zM358 423q46 0 62 -13.5t16 -58.5q0 -49 -16 -64.5t-62 -15.5q-45 0 -61 15.5t-16 64.5q0 45 16 58.5t61 13.5z" />
    <glyph glyph-name="Nacutesmall" horiz-adv-x="632" 
d="M246 0v232q61 -70 140 -232h183v514h-183v-226q-53 104 -144 226h-179v-514h183zM360 568h-150l124 129h182z" />
    <glyph glyph-name="Ncaronsmall" horiz-adv-x="632" 
d="M246 0v232q61 -70 140 -232h183v514h-183v-226q-53 104 -144 226h-179v-514h183zM258 697l61 -66l59 66h148l-122 -129h-172l-126 129h152z" />
    <glyph glyph-name="Ncommaaccentsmall" horiz-adv-x="632" 
d="M246 232v-232h-183v514h179q91 -122 144 -226v226h183v-514h-183q-79 162 -140 232zM417 -51l-114 -167h-142l72 167h184z" />
    <glyph glyph-name="Ohungarumlautsmall" 
d="M295 -14q133 0 195 60.5t62 213.5q0 151 -62 210t-195 59q-131 0 -193 -59t-62 -210q0 -153 61.5 -213.5t193.5 -60.5zM295 389q46 0 59.5 -22.5t13.5 -109.5q0 -85 -14 -108t-59 -23q-44 0 -58 23t-14 108q0 87 13.5 109.5t58.5 22.5zM234 568h-118l97 129h143zM424 568
h-118l97 129h143z" />
    <glyph glyph-name="Omacronsmall" 
d="M295 -14q133 0 195 60.5t62 213.5q0 151 -62 210t-195 59q-131 0 -193 -59t-62 -210q0 -153 61.5 -213.5t193.5 -60.5zM295 389q46 0 59.5 -22.5t13.5 -109.5q0 -85 -14 -108t-59 -23q-44 0 -58 23t-14 108q0 87 13.5 109.5t58.5 22.5zM144 567v122h305v-122h-305z" />
    <glyph glyph-name="parenleftsmall" horiz-adv-x="393" 
d="M68 250q0 175 65 279t175 138l83 -133q-35 -16 -55.5 -31.5t-39.5 -46t-27.5 -81t-8.5 -125.5t8.5 -125t27.5 -80.5t39.5 -46.5t55.5 -32l-83 -133q-110 34 -175 138t-65 279z" />
    <glyph glyph-name="Racutesmall" horiz-adv-x="610" 
d="M246 373v-84h101q34 0 34 42t-33 42h-102zM436 213q46 -13 78.5 -51.5t95.5 -161.5h-209q-42 88 -65.5 119t-42.5 31h-47v-150h-183v514h351q85 0 120 -40t35 -111q0 -64 -29 -104t-104 -46zM319 568h-150l124 129h182z" />
    <glyph glyph-name="Rcaronsmall" horiz-adv-x="610" 
d="M246 373v-84h101q34 0 34 42t-33 42h-102zM436 213q46 -13 78.5 -51.5t95.5 -161.5h-209q-42 88 -65.5 119t-42.5 31h-47v-150h-183v514h351q85 0 120 -40t35 -111q0 -64 -29 -104t-104 -46zM250 697l61 -66l59 66h148l-122 -129h-172l-126 129h152z" />
    <glyph glyph-name="Rcommaaccentsmall" horiz-adv-x="610" 
d="M246 373v-84h101q34 0 34 42t-33 42h-102zM436 213q46 -13 78.5 -51.5t95.5 -161.5h-209q-42 88 -65.5 119t-42.5 31h-47v-150h-183v514h351q85 0 120 -40t35 -111q0 -64 -29 -104t-104 -46zM417 -51l-114 -167h-142l72 167h184z" />
    <glyph glyph-name="sterlingsmall" horiz-adv-x="513" 
d="M18 189v120h42v20q0 99 61 149.5t196 50.5q98 0 179 -28l-35 -142q-76 18 -146 18q-51 0 -67.5 -12.5t-16.5 -36.5v-19h156v-120h-156v-41h241v-148h-412v189h-42z" />
    <glyph glyph-name="summationsmall" horiz-adv-x="499" 
d="M354 263l-73 -107h199v-156h-479v24q63 87 158 237q-66 101 -141 228v25h477v-156h-198z" />
    <glyph glyph-name="Tbarsmall" horiz-adv-x="489" 
d="M92 138v122h61v98h-153v156h489v-156h-153v-98h61v-122h-61v-138h-183v138h-61z" />
    <glyph glyph-name="Tcommaaccentsmall" horiz-adv-x="489" 
d="M336 358v-358h-183v358h-153v156h489v-156h-153zM359 -51l-114 -167h-142l72 167h184z" />
    <glyph glyph-name="Tcaronsmall" horiz-adv-x="489" 
d="M336 358v-358h-183v358h-153v156h489v-156h-153zM190 697l61 -66l59 66h148l-122 -129h-172l-126 129h152z" />
    <glyph glyph-name="Utildesmall" horiz-adv-x="606" 
d="M304 147q37 0 50 17.5t13 58.5v291h182v-283q0 -137 -54.5 -191t-190.5 -54t-191.5 54.5t-55.5 190.5v283h182v-291q0 -41 13.5 -58.5t51.5 -17.5zM416 715l83 -67q-15 -40 -49 -67.5t-81 -27.5q-36 0 -78.5 20.5t-64.5 20.5q-26 0 -44 -41l-76 75q46 79 114 79
q44 0 88 -19.5t62 -19.5q17 0 26.5 9.5t19.5 37.5z" />
    <glyph glyph-name="Uringsmall" horiz-adv-x="606" 
d="M304 147q37 0 50 17.5t13 58.5v291h182v-283q0 -137 -54.5 -191t-190.5 -54t-191.5 54.5t-55.5 190.5v283h182v-291q0 -41 13.5 -58.5t51.5 -17.5zM304 744q69 0 98.5 -21.5t29.5 -80.5t-29 -80.5t-99 -21.5q-71 0 -100.5 21.5t-29.5 80.5t30 80.5t100 21.5zM304 676
q-27 0 -35 -7.5t-8 -27.5q0 -21 8 -27.5t35 -6.5q26 0 34 7t8 27q0 21 -8 28t-34 7z" />
    <glyph glyph-name="Uogoneksmall" horiz-adv-x="606" 
d="M304 147q37 0 50 17.5t13 58.5v291h182v-283q0 -137 -54.5 -191t-190.5 -54t-191.5 54.5t-55.5 190.5v283h182v-291q0 -41 13.5 -58.5t51.5 -17.5zM383 12h-45q-67 -17 -101 -51t-34 -75q0 -46 30.5 -67.5t107.5 -21.5q86 0 136 35l-42 77q-29 -24 -73 -24q-31 0 -42 8
t-11 27q0 27 15 46t59 46z" />
    <glyph glyph-name="Umacronsmall" horiz-adv-x="606" 
d="M304 147q37 0 50 17.5t13 58.5v291h182v-283q0 -137 -54.5 -191t-190.5 -54t-191.5 54.5t-55.5 190.5v283h182v-291q0 -41 13.5 -58.5t51.5 -17.5zM152 567v122h305v-122h-305z" />
    <glyph glyph-name="Ubrevesmall" horiz-adv-x="606" 
d="M304 147q37 0 50 17.5t13 58.5v291h182v-283q0 -137 -54.5 -191t-190.5 -54t-191.5 54.5t-55.5 190.5v283h182v-291q0 -41 13.5 -58.5t51.5 -17.5zM139 697h116q0 -27 12.5 -36.5t41.5 -9.5q28 0 40.5 9.5t12.5 36.5h108q0 -148 -166 -148q-79 0 -122 36.5t-43 111.5z
" />
    <glyph glyph-name="Uhungarumlautsmall" horiz-adv-x="606" 
d="M304 147q37 0 50 17.5t13 58.5v291h182v-283q0 -137 -54.5 -191t-190.5 -54t-191.5 54.5t-55.5 190.5v283h182v-291q0 -41 13.5 -58.5t51.5 -17.5zM235 568h-118l97 129h143zM425 568h-118l97 129h143z" />
    <glyph glyph-name="Ycircumflexsmall" horiz-adv-x="502" 
d="M262 374q53 72 90 140h193q-102 -168 -194 -287v-227h-183v227q-138 197 -211 287h205q47 -59 100 -140zM315 568l-61 66l-59 -66h-148l122 129h172l126 -129h-152z" />
    <glyph glyph-name="zerosmall" horiz-adv-x="578" 
d="M288 -14q-118 0 -176.5 61.5t-58.5 212.5q0 150 59 209.5t176 59.5q119 0 178 -59.5t59 -209.5q0 -151 -59 -212.5t-178 -61.5zM288 389q-21 0 -30.5 -7.5t-15.5 -36.5t-6 -88q0 -83 11 -107t41 -24q32 0 42.5 23t10.5 108q0 86 -11 109t-42 23z" />
    <glyph glyph-name="onesmall" horiz-adv-x="578" 
d="M439 0h-184v299l-156 -59l-49 153l389 136v-529z" />
    <glyph glyph-name="twosmall" horiz-adv-x="578" 
d="M82 341l-42 162q104 26 245 26q131 0 179.5 -34.5t48.5 -124.5q0 -72 -44 -124.5t-163 -103.5h224v-142h-485v128q127 71 184.5 107.5t73 53.5t15.5 36q0 25 -14.5 34.5t-59.5 9.5q-34 0 -83 -8.5t-79 -19.5z" />
    <glyph glyph-name="foursmall" horiz-adv-x="578" 
d="M307 104h-297v80q110 168 247 330h216v-273h82v-137h-82v-104h-166v104zM307 241v129q-54 -65 -96 -129h96z" />
    <glyph glyph-name="fivesmall" horiz-adv-x="578" 
d="M88 514h413v-147h-231v-40q26 2 48 2q114 0 156 -33.5t42 -125.5q0 -105 -60 -144.5t-204 -39.5q-117 0 -192 17l28 146q19 -6 70 -11.5t77 -5.5q59 0 80 6t21 28q0 24 -19 30t-82 6q-56 0 -147 -7v319z" />
    <glyph glyph-name="sevensmall" horiz-adv-x="578" 
d="M40 514h524v-28q-137 -231 -235 -486h-212q87 198 191 358h-268v156z" />
    <glyph glyph-name="eightsmall" horiz-adv-x="578" 
d="M289 121q35 0 46 7.5t11 28.5q0 25 -11 32t-46 7q-34 0 -44.5 -7t-10.5 -32q0 -21 10.5 -28.5t44.5 -7.5zM289 -14q-103 0 -153 13t-68.5 43t-18.5 92q0 66 29.5 98t101.5 36q-69 5 -94.5 33t-25.5 90q0 30 2.5 49t11.5 36t24 26t41.5 15.5t62 9t87.5 2.5t87.5 -2.5
t62 -9t41.5 -15.5t24 -26t11.5 -36t2.5 -49q0 -62 -25.5 -90t-94.5 -33q72 -4 101.5 -36t29.5 -98q0 -62 -18.5 -92t-68.5 -43t-153 -13zM289 332q33 0 42.5 7t9.5 27q0 23 -10 29t-42 6t-41.5 -6t-9.5 -29q0 -20 9.5 -27t41.5 -7z" />
    <glyph glyph-name="atsmall" horiz-adv-x="728" 
d="M335 418q-101 0 -134 -27t-33 -124q0 -107 37 -138.5t156 -31.5q118 0 157 39.5t39 159.5q0 73 -15 121h128q18 -61 18 -126q0 -173 -76.5 -241.5t-249.5 -68.5q-176 0 -249 60t-73 222q0 80 20.5 134.5t62 83.5t92.5 41t122 12q114 0 154 -41.5t40 -172.5
q0 -64 -7 -99.5t-29 -56t-54 -26.5t-91 -6q-94 0 -124 25.5t-30 102.5q0 75 28.5 100t108.5 25q41 0 65 -4q-2 22 -13.5 29.5t-49.5 7.5zM363 289q-18 0 -24 -5t-6 -21t6.5 -20.5t28.5 -4.5q16 0 23 4.5t7 18.5v26q-22 2 -35 2z" />
    <glyph glyph-name="slashsmall" horiz-adv-x="427" 
d="M253 514h193l-264 -514h-193z" />
    <glyph glyph-name="Cdotaccentsmall" horiz-adv-x="474" 
d="M430 163l36 -152q-66 -25 -167 -25q-124 0 -191.5 62.5t-67.5 211.5q0 76 18.5 129.5t54.5 83.5t81 43t105 13q103 0 167 -22l-36 -152q-68 20 -113 20q-27 0 -41 -3t-28 -14t-19.5 -35.5t-5.5 -65.5q0 -73 21.5 -94.5t72.5 -21.5q54 0 113 22zM289 706q46 0 62 -13.5
t16 -58.5q0 -49 -16 -64.5t-62 -15.5q-45 0 -61 15.5t-16 64.5q0 45 16 58.5t61 13.5z" />
    <glyph glyph-name="Cacutesmall" horiz-adv-x="474" 
d="M430 163l36 -152q-66 -25 -167 -25q-124 0 -191.5 62.5t-67.5 211.5q0 76 18.5 129.5t54.5 83.5t81 43t105 13q103 0 167 -22l-36 -152q-68 20 -113 20q-27 0 -41 -3t-28 -14t-19.5 -35.5t-5.5 -65.5q0 -73 21.5 -94.5t72.5 -21.5q54 0 113 22zM332 568h-150l124 129h182
z" />
    <glyph glyph-name="Ccaronsmall" horiz-adv-x="474" 
d="M430 163l36 -152q-66 -25 -167 -25q-124 0 -191.5 62.5t-67.5 211.5q0 76 18.5 129.5t54.5 83.5t81 43t105 13q103 0 167 -22l-36 -152q-68 20 -113 20q-27 0 -41 -3t-28 -14t-19.5 -35.5t-5.5 -65.5q0 -73 21.5 -94.5t72.5 -21.5q54 0 113 22zM230 697l61 -66l59 66h148
l-122 -129h-172l-126 129h152z" />
    <glyph glyph-name="dollarsmall" horiz-adv-x="484" 
d="M202 626h80v-97q91 -3 161 -29l-32 -132q-57 13 -129 18v-60q86 -15 129 -49.5t43 -108.5q0 -156 -172 -177v-114h-80v109q-106 4 -171 28l33 135q57 -16 138 -19v63q-85 9 -128.5 42.5t-43.5 112.5q0 156 172 177v101zM184 360q0 -9 3.5 -13t14.5 -8v46q-18 -5 -18 -25z
M300 159q0 15 -18 21v-46q18 6 18 25z" />
    <glyph glyph-name="sectionsmall" horiz-adv-x="488" 
d="M442 507l-31 -105q-73 20 -137 20q-28 0 -43 -2.5t-19 -6.5t-4 -11q0 -10 7 -12.5t40 -5.5q20 -2 33 -3q85 -9 127.5 -35.5t42.5 -82.5q0 -44 -36 -78q21 -26 21 -61q0 -75 -56.5 -106.5t-174.5 -31.5q-98 0 -166 22l31 105q58 -20 137 -20q41 0 53.5 4.5t12.5 15.5
t-9 14t-45 6q-16 1 -26 2q-85 9 -127.5 35.5t-42.5 82.5q0 50 33 81q-18 27 -18 57q0 75 56.5 106.5t174.5 31.5q98 0 166 -22zM310 246q0 3 -1 5t-3.5 3.5t-5.5 3t-8.5 3l-11.5 3t-15.5 3.5l-19.5 4t-24.5 5.5t-28.5 6.5q-11 -5 -11 -13q0 -5 4.5 -8.5t16 -7t23 -5.5t34 -7
l41.5 -9q10 6 10 13z" />
    <glyph glyph-name="Sacutesmall" horiz-adv-x="478" 
d="M443 500l-32 -132q-80 20 -153 20q-31 0 -42.5 -4.5t-11.5 -23.5q0 -14 13 -19t70 -13q90 -13 128.5 -47t38.5 -113q0 -182 -241 -182q-106 0 -182 28l33 135q74 -19 140 -19q43 0 59.5 5.5t16.5 23.5q0 15 -18 21.5t-77 12.5q-82 8 -118.5 41t-36.5 114q0 181 236 181
q100 0 177 -29zM277 568h-150l124 129h182z" />
    <glyph glyph-name="Scedillasmall" horiz-adv-x="478" 
d="M443 500l-32 -132q-80 20 -153 20q-31 0 -42.5 -4.5t-11.5 -23.5q0 -14 13 -19t70 -13q90 -13 128.5 -47t38.5 -113q0 -182 -241 -182q-106 0 -182 28l33 135q74 -19 140 -19q43 0 59.5 5.5t16.5 23.5q0 15 -18 21.5t-77 12.5q-82 8 -118.5 41t-36.5 114q0 181 236 181
q100 0 177 -29zM205 0h65v-36q100 0 100 -81q0 -48 -33 -67t-116 -19q-52 0 -90 11l26 66q14 -7 54 -7q26 0 26 19q0 26 -68 20z" />
    <glyph glyph-name="Scircumflexsmall" horiz-adv-x="478" 
d="M443 500l-32 -132q-80 20 -153 20q-31 0 -42.5 -4.5t-11.5 -23.5q0 -14 13 -19t70 -13q90 -13 128.5 -47t38.5 -113q0 -182 -241 -182q-106 0 -182 28l33 135q74 -19 140 -19q43 0 59.5 5.5t16.5 23.5q0 15 -18 21.5t-77 12.5q-82 8 -118.5 41t-36.5 114q0 181 236 181
q100 0 177 -29zM316 568l-61 66l-59 -66h-148l122 129h172l126 -129h-152z" />
    <glyph glyph-name="Scommaaccentsmall" horiz-adv-x="478" 
d="M443 500l-32 -132q-80 20 -153 20q-31 0 -42.5 -4.5t-11.5 -23.5q0 -14 13 -19t70 -13q90 -13 128.5 -47t38.5 -113q0 -182 -241 -182q-106 0 -182 28l33 135q74 -19 140 -19q43 0 59.5 5.5t16.5 23.5q0 15 -18 21.5t-77 12.5q-82 8 -118.5 41t-36.5 114q0 181 236 181
q100 0 177 -29zM354 -51l-114 -167h-142l72 167h184z" />
    <glyph glyph-name="Wcircumflexsmall" horiz-adv-x="847" 
d="M420 253q-21 -109 -67 -253h-214q-70 252 -163 514h184q55 -153 97 -321q39 121 89 321h158q55 -179 87 -321q64 196 93 321h180q-86 -289 -177 -514h-215q-20 114 -52 253zM482 568l-61 66l-59 -66h-148l122 129h172l126 -129h-152z" />
    <glyph glyph-name="Zacutesmall" horiz-adv-x="499" 
d="M19 514h477v-25q-89 -154 -215 -333h199v-156h-479v24q53 74 121.5 179.5t94.5 154.5h-198v156zM303 568h-150l124 129h182z" />
    <glyph glyph-name="Zdotaccentsmall" horiz-adv-x="499" 
d="M19 514h477v-25q-89 -154 -215 -333h199v-156h-479v24q53 74 121.5 179.5t94.5 154.5h-198v156zM254 706q46 0 62 -13.5t16 -58.5q0 -49 -16 -64.5t-62 -15.5q-45 0 -61 15.5t-16 64.5q0 45 16 58.5t61 13.5z" />
    <glyph glyph-name="Ccircumflexsmall" horiz-adv-x="474" 
d="M430 163l36 -152q-66 -25 -167 -25q-124 0 -191.5 62.5t-67.5 211.5q0 76 18.5 129.5t54.5 83.5t81 43t105 13q103 0 167 -22l-36 -152q-68 20 -113 20q-27 0 -41 -3t-28 -14t-19.5 -35.5t-5.5 -65.5q0 -73 21.5 -94.5t72.5 -21.5q54 0 113 22zM353 568l-61 66l-59 -66
h-148l122 129h172l126 -129h-152z" />
    <glyph glyph-name="threesmall" horiz-adv-x="578" 
d="M181 198v129h81q34 0 45 4.5t11 18.5q0 17 -12 22.5t-53 5.5q-84 0 -172 -24l-33 155q103 20 209 20q153 0 203.5 -27.5t50.5 -110.5q0 -62 -25.5 -90t-94.5 -33q72 -4 101.5 -36t29.5 -98q0 -87 -56 -117.5t-209 -30.5q-98 0 -211 18l33 162q80 -28 173 -28q47 0 61 6.5
t14 25.5q0 18 -14.5 23t-50.5 5h-81z" />
    <glyph glyph-name="IJsmall" horiz-adv-x="776" 
d="M246 514v-514h-183v514h183zM715 192v322h-183v-305q0 -64 -72 -64q-69 0 -126 17l-29 -151q80 -25 180 -25q46 0 84.5 10t72.5 32.5t53.5 64.5t19.5 99z" />
    <glyph glyph-name="Dcroatsmall" horiz-adv-x="612" 
d="M26 200v122h37v192h259q132 0 191 -55t59 -200t-59 -202t-191 -57h-259v200h-37zM297 382h-51v-60h50v-122h-50v-68h51q49 0 70 23.5t21 101.5q0 79 -21 102t-70 23z" />
    <glyph glyph-name="bracketrightsmall" horiz-adv-x="434" 
d="M0 678h340v-842h-340v157h151v527h-151v158z" />
    <glyph glyph-name="parenrightsmall" horiz-adv-x="393" 
d="M325 250q0 -175 -65 -279t-175 -138l-83 133q35 16 55.5 31.5t39.5 46t27.5 81t8.5 125.5t-8.5 125t-27.5 80.5t-39.5 46.5t-55.5 32l83 133q110 -34 175 -138t65 -279z" />
    <glyph glyph-name="bracerightsmall" horiz-adv-x="391" 
d="M344 324v1v-145q-48 0 -75 -32t-27 -121q0 -50 -14 -87.5t-40 -60t-51.5 -35.5t-58.5 -23l-78 129q47 18 66 50t19 112q0 42 9 71t26.5 42.5t31 18.5t33.5 8q-19 3 -33 8.5t-31 19.5t-26.5 43.5t-9.5 72.5q0 80 -18 110.5t-67 50.5l78 126q33 -10 58.5 -23t51.5 -35.5
t40 -60t14 -87.5q0 -89 27 -121t75 -32z" />
    <glyph glyph-name="yensmall" horiz-adv-x="502" 
d="M43 215v75h80q-107 151 -166 224h205q47 -59 100 -140q53 72 90 140h193q-64 -107 -147 -224h65v-75h-112v-56h112v-75h-112v-84h-183v84h-125v75h125v56h-125z" />
    <glyph glyph-name="backslashsmall" horiz-adv-x="427" 
d="M-12 514h193l264 -514h-193z" />
    <glyph glyph-name="barsmall" horiz-adv-x="431" 
d="M120 697h191v-889h-191v889z" />
    <glyph glyph-name="percentsmall" horiz-adv-x="742" 
d="M635 514h-136l-395 -514h136zM170 529q80 0 114.5 -31.5t34.5 -115.5q0 -87 -34.5 -120.5t-114.5 -33.5q-79 0 -113 33.5t-34 120.5q0 84 34 115.5t113 31.5zM170 316q17 0 21.5 10.5t4.5 55.5q0 41 -4.5 51t-21.5 10q-16 0 -21 -10.5t-5 -50.5q0 -44 5 -55t21 -11z
M570 287q80 0 114.5 -31.5t34.5 -115.5q0 -87 -34.5 -120.5t-114.5 -33.5q-79 0 -113 33.5t-34 120.5q0 84 34 115.5t113 31.5zM570 74q17 0 21.5 10.5t4.5 55.5q0 41 -4.5 51t-21.5 10q-16 0 -21 -10.5t-5 -50.5q0 -44 5 -55t21 -11z" />
    <glyph glyph-name="degreesmall" horiz-adv-x="342" 
d="M170 529q80 0 114.5 -31.5t34.5 -115.5q0 -87 -34.5 -120.5t-114.5 -33.5q-79 0 -113 33.5t-34 120.5q0 84 34 115.5t113 31.5zM170 316q17 0 21.5 10.5t4.5 55.5q0 41 -4.5 51t-21.5 10q-16 0 -21 -10.5t-5 -50.5q0 -44 5 -55t21 -11z" />
    <glyph glyph-name="centsmall" horiz-adv-x="381" 
d="M203 529h79v-75q51 -4 75 -12l-28 -96q-9 3 -47 6v-178q34 3 47 7l28 -95q-22 -8 -75 -15v-85h-79v85q-159 23 -159 194q0 168 159 189v75zM177 263q0 -28 8.5 -50.5t17.5 -24.5v151q-9 -2 -17.5 -25t-8.5 -51z" />
    <glyph glyph-name="sixsmall" horiz-adv-x="578" 
d="M537 156q0 -97 -57.5 -133.5t-181.5 -36.5q-47 0 -79 4.5t-65 21t-52.5 45t-32 78.5t-12.5 121q0 152 68.5 212.5t201.5 60.5q106 0 203 -28l-39 -145q-95 26 -160 26q-60 0 -80.5 -16.5t-20.5 -52.5q62 11 107 11q104 0 152 -33.5t48 -134.5zM350 161q0 27 -11.5 35
t-43.5 8q-38 0 -65 -6q0 -80 58 -80q35 0 48.5 8.5t13.5 34.5z" />
    <glyph glyph-name="ninesmall" horiz-adv-x="578" 
d="M41 349q0 98 58.5 139t180.5 41q71 0 114 -7.5t78 -30.5t50 -68t15 -117q0 -82 -40 -152.5t-127 -153.5h-229q158 134 173 181q-57 -10 -95 -10q-86 0 -132 38.5t-46 139.5zM228 350q0 -27 11.5 -35t43.5 -8q36 0 63 6q0 51 -12 67.5t-44 16.5q-34 0 -48 -10.5t-14 -36.5
z" />
    <glyph glyph-name="daggersmall" horiz-adv-x="473" 
d="M30 367v147h133v133h146v-133h134v-147h-134v-203h-146v203h-133z" />
    <glyph glyph-name="numbersignsmall" horiz-adv-x="635" 
d="M42 301l7 116h93l8 97h146l-8 -97h73l8 97h146l-8 -97h100l-7 -116h-100l-7 -82h101l-8 -116h-100l-8 -103h-146l8 103h-74l-7 -103h-146l7 103h-92l8 116h92l7 82h-93zM281 301l-7 -82h73l7 82h-73z" />
    <glyph glyph-name="Obrevesmall" 
d="M295 -14q133 0 195 60.5t62 213.5q0 151 -62 210t-195 59q-131 0 -193 -59t-62 -210q0 -153 61.5 -213.5t193.5 -60.5zM295 389q46 0 59.5 -22.5t13.5 -109.5q0 -85 -14 -108t-59 -23q-44 0 -58 23t-14 108q0 87 13.5 109.5t58.5 22.5zM129 697h116q0 -27 12.5 -36.5
t41.5 -9.5q28 0 40.5 9.5t12.5 36.5h108q0 -148 -166 -148q-79 0 -122 36.5t-43 111.5z" />
    <glyph glyph-name="zeroop" horiz-adv-x="552" 
d="M275 -14q-118 0 -176.5 61.5t-58.5 212.5q0 150 59 209.5t176 59.5q119 0 178 -59.5t59 -209.5q0 -151 -59 -212.5t-178 -61.5zM275 389q-21 0 -30.5 -7.5t-15.5 -36.5t-6 -88q0 -83 11 -107t41 -24q32 0 42.5 23t10.5 108q0 86 -11 109t-42 23z" />
    <glyph glyph-name="oneop" horiz-adv-x="435" 
d="M372 0h-184v299l-156 -59l-49 153l389 136v-529z" />
    <glyph glyph-name="twoop" horiz-adv-x="601" 
d="M101 341l-42 162q104 26 245 26q131 0 179.5 -34.5t48.5 -124.5q0 -72 -44 -124.5t-163 -103.5h224v-142h-485v128q127 71 184.5 107.5t73 53.5t15.5 36q0 25 -14.5 34.5t-59.5 9.5q-34 0 -83 -8.5t-79 -19.5z" />
    <glyph glyph-name="threeop" horiz-adv-x="593" 
d="M161 91v165h113q37 0 48.5 8t11.5 39t-22 41t-98 10q-97 0 -158 -17l-34 168q111 24 243 24q158 0 216 -39.5t58 -145.5q0 -81 -31 -119.5t-120 -45.5q95 -4 130 -46.5t35 -132.5q0 -110 -65 -154.5t-223 -44.5q-133 0 -245 22l34 172q60 -17 160 -17q82 0 106 11t24 45
q0 35 -14.5 46t-50.5 11h-118z" />
    <glyph glyph-name="fourop" horiz-adv-x="630" 
d="M345 0h-339v65q176 298 284 449h235v-367h87v-147h-87v-192h-180v192zM345 147v192q-48 -68 -116 -192h116z" />
    <glyph glyph-name="fiveop" horiz-adv-x="609" 
d="M79 514h470v-168h-291v-85q38 2 54 2q149 0 203 -48.5t54 -171.5q0 -141 -59.5 -193.5t-216.5 -52.5q-53 0 -130 6.5t-115 15.5l34 172q53 -17 160 -17q77 0 97.5 11t20.5 53q0 41 -19.5 51.5t-102.5 10.5q-89 0 -159 -8v422z" />
    <glyph glyph-name="sixop" horiz-adv-x="631" 
d="M533 522q-54 17 -172 17q-62 0 -85 -17t-29 -81q33 5 83 5q150 0 205.5 -48.5t55.5 -170.5q0 -140 -58 -190.5t-216 -50.5q-155 0 -216 79t-61 290q0 145 29.5 221t96.5 107t195 31q115 0 206 -24zM393 222q0 38 -16.5 50.5t-74.5 12.5q-1 0 -58 -3q3 -77 17.5 -98
t55.5 -21q46 0 61 12t15 47z" />
    <glyph glyph-name="sevenop" horiz-adv-x="570" 
d="M580 514v-53q-60 -97 -161 -309t-143 -344h-216q52 144 131.5 308t134.5 230h-322v168h576z" />
    <glyph glyph-name="eightop" horiz-adv-x="632" 
d="M317 141q46 0 61.5 13.5t15.5 53.5q0 42 -16 59.5t-61 17.5q-46 0 -62 -17.5t-16 -59.5q0 -40 16 -53.5t62 -13.5zM317 432q38 0 54.5 13.5t16.5 49.5q0 38 -15.5 49.5t-55.5 11.5q-41 0 -57 -11.5t-16 -49.5q0 -36 17 -49.5t56 -13.5zM317 -14h-1q-160 0 -218 44.5
t-58 154.5q0 91 34 133t129 46q-89 7 -120.5 45.5t-31.5 119.5q0 70 19.5 107.5t77 57.5t168.5 20t168.5 -20t77 -57.5t19.5 -107.5q0 -81 -31.5 -119.5t-120.5 -45.5q95 -4 129 -46t34 -133q0 -110 -57.5 -154.5t-217.5 -44.5z" />
    <glyph glyph-name="nineop" horiz-adv-x="631" 
d="M143 -192q144 160 196 262h-38q-150 0 -205.5 48.5t-55.5 170.5q0 140 58 190t216 50q115 0 174.5 -23.5t81 -72.5t21.5 -143q0 -135 -56 -252t-163 -230h-229zM329 231q36 0 56 1q2 14 2 42q0 49 -12.5 64t-60.5 15q-47 0 -61.5 -11.5t-14.5 -48.5q0 -40 15.5 -51
t75.5 -11z" />
    <glyph glyph-name="two.alt" horiz-adv-x="630" 
d="M86 515l-39 162q99 37 259 37q71 0 116.5 -8t81 -30.5t51.5 -64.5t16 -108q0 -74 -32.5 -128t-121.5 -97q-67 -32 -95.5 -57t-35.5 -53h287v-168h-540q4 75 17 128.5t41 95t61.5 71t88.5 65.5q12 8 45 28t44.5 28.5t24 26t12.5 37.5q0 40 -16 51t-67 11q-105 0 -198 -27z
" />
    <glyph glyph-name="ccaront" horiz-adv-x="851" 
d="M501 358v-184q0 -108 46 -148t138 -40q97 0 166 28l-29 138q-43 -13 -74 -13q-36 0 -50 12.5t-14 43.5v163h151v156h-151v140l-183 -74v-66q-51 0 -118 7.5t-94 7.5q-116 0 -182.5 -61t-66.5 -208q0 -149 66 -211.5t183 -62.5q86 0 152 25l-34 143q-41 -15 -102 -15
q-47 0 -64.5 21.5t-17.5 96.5q0 55 9 81t24.5 32.5t48.5 6.5q8 0 73.5 -9.5t122.5 -9.5zM233 697l61 -66l59 66h148l-122 -129h-172l-126 129h152z" />
    <glyph glyph-name="scaront" horiz-adv-x="901" 
d="M551 174v184q-82 0 -180 15t-113 15q-31 0 -42.5 -4.5t-11.5 -23.5q0 -14 13 -19t70 -13q90 -13 128.5 -47t38.5 -113q0 -182 -241 -182q-106 0 -182 28l33 135q74 -19 140 -19q43 0 59.5 5.5t16.5 23.5q0 15 -18 21.5t-77 12.5q-82 8 -118.5 41t-36.5 114q0 181 236 181
q21 0 120 -7.5t165 -7.5v66l183 74v-140h151v-156h-151v-163q0 -31 14 -43.5t50 -12.5q31 0 74 13l29 -138q-69 -28 -166 -28q-92 0 -138 40t-46 148zM199 697l61 -66l59 66h148l-122 -129h-172l-126 129h152z" />
    <glyph glyph-name="ampersandsmall.2" horiz-adv-x="682" 
d="M682 198h-109v-178q-179 -34 -285 -34q-153 0 -209 30.5t-56 117.5q0 66 29.5 98t101.5 36q-69 5 -94.5 33t-25.5 90q0 83 50.5 110.5t203.5 27.5q106 0 209 -20l-33 -155q-88 24 -172 24q-41 0 -53 -5.5t-12 -22.5q0 -14 11 -18.5t45 -4.5h399v-129zM218 170
q0 -19 14 -25.5t61 -6.5q59 0 117 13v47h-127q-36 0 -50.5 -5t-14.5 -23z" />
    <glyph glyph-name="man" horiz-adv-x="524" 
d="M345 419v-611h-76v372h-13v-372h-76v611q-22 -1 -29 -10.5t-7 -37.5v-191h-94v194q0 83 41 109t171 26q129 0 170.5 -26t41.5 -109v-194h-94v191q0 28 -6.5 37.5t-28.5 10.5zM262 721q61 0 82 -16.5t21 -72.5q0 -63 -21 -82t-82 -19q-63 0 -84.5 19t-21.5 82
q0 56 21.5 72.5t84.5 16.5z" />
    <glyph glyph-name="woman" horiz-adv-x="524" 
d="M324 419v-239q104 -241 180 -372h-484q130 284 180 372v239q-36 -1 -46 -10t-10 -38v-191h-74v194q0 83 38 109t154 26q115 0 153.5 -26.5t38.5 -108.5v-194h-74v191q0 29 -10 38t-46 10zM262 721q61 0 82 -16.5t21 -72.5q0 -63 -21 -82t-82 -19q-63 0 -84.5 19t-21.5 82
q0 56 21.5 72.5t84.5 16.5z" />
    <glyph glyph-name="escaperight" horiz-adv-x="1267" 
d="M446 509q13 -60 73 -118t137 -58l-14 -80q-73 0 -133.5 36.5t-88.5 99.5l-49 -229q107 -2 154.5 -72t11.5 -220h-84q32 120 0 170.5t-152 50.5q-37 -128 -102 -182.5t-177 -54.5l18 77q68 0 111.5 41t66.5 149l65 308q-39 0 -74.5 -41.5t-52.5 -132.5h-82
q31 127 80.5 191.5t144.5 64.5h147zM1245 293l-273 -256l-54 57l163 159h-388l13 80h375l-163 159l54 57zM530 531h-74q-63 0 -84.5 19t-21.5 82q0 56 21.5 72.5t84.5 16.5t85 -18t11 -71z" />
    <glyph glyph-name="noentry" horiz-adv-x="853" 
d="M838 0h-124l-215 215v-407h-66v372h-13v-372h-66v407l-215 -215h-124l199 202v172q0 71 28 99l-223 224h133l187 -191q37 3 87 3q54 0 86 -4l189 192h133l-224 -225q28 -27 28 -98v-171zM426 721q61 0 82 -16.5t21 -72.5q0 -63 -21 -82t-82 -19q-63 0 -84.5 19t-21.5 82
q0 56 21.5 72.5t84.5 16.5zM308 371v-73l46 47v16l-42 41q-4 -7 -4 -31zM544 371q0 22 -4 31l-41 -41v-16l45 -46v72z" />
    <glyph glyph-name="escapeleft" horiz-adv-x="1267" 
d="M821 509h147q95 0 144.5 -64.5t80.5 -191.5h-82q-17 91 -52.5 132.5t-74.5 41.5l65 -308q23 -108 66.5 -149t111.5 -41l18 -77q-112 0 -177 54.5t-102 182.5q-120 0 -152 -50.5t0 -170.5h-84q-36 150 11.5 220t154.5 72l-49 229q-28 -63 -88.5 -99.5t-133.5 -36.5l-14 80
q77 0 137 58t73 118zM295 37l-273 256l273 256l54 -57l-163 -159h375l13 -80h-388l163 -159zM811 531h-74l-22 101q-11 53 11 71t85 18t84.5 -16.5t21.5 -72.5q0 -63 -21.5 -82t-84.5 -19z" />
    <glyph glyph-name="manneg" horiz-adv-x="684" 
d="M426 -192v611q22 -1 28.5 -10.5t6.5 -37.5v-191h94v194q0 83 -41.5 109t-170.5 26q-130 0 -171 -26t-41 -109v-194h94v191q0 28 7 37.5t29 10.5v-611h76v372h13v-372h76zM343 721q-63 0 -84.5 -16.5t-21.5 -72.5q0 -63 21.5 -82t84.5 -19q61 0 82 19t21 82q0 56 -21 72.5
t-82 16.5zM551 -232h-418q-61 0 -82 19t-21 82v803q0 56 21 72.5t82 16.5h418q61 0 82 -16.5t21 -72.5v-803q0 -63 -21 -82t-82 -19z" />
    <glyph glyph-name="womanneg" horiz-adv-x="684" 
d="M405 180v239q36 -1 46 -10t10 -38v-191h74v194q0 82 -38.5 108.5t-153.5 26.5q-116 0 -154 -26t-38 -109v-194h74v191q0 29 10 38t46 10v-239q-50 -88 -180 -372h484q-76 131 -180 372zM343 721q-63 0 -84.5 -16.5t-21.5 -72.5q0 -63 21.5 -82t84.5 -19q61 0 82 19t21 82
q0 56 -21 72.5t-82 16.5zM551 -232h-418q-61 0 -82 19t-21 82v803q0 56 21 72.5t82 16.5h418q61 0 82 -16.5t21 -72.5v-803q0 -63 -21 -82t-82 -19z" />
    <glyph glyph-name="escaperightneg" horiz-adv-x="1373" 
d="M1240 -232h-1107q-61 0 -82 19t-21 82v803q0 56 21 72.5t82 16.5h1107q61 0 82 -16.5t21 -72.5v-803q0 -63 -21 -82t-82 -19zM505 509h-147q-95 0 -144.5 -64.5t-80.5 -191.5h82q17 91 52.5 132.5t74.5 41.5l-65 -308q-23 -108 -66.5 -149t-111.5 -41l-18 -77
q112 0 177 54.5t102 182.5q120 0 152 -50.5t0 -170.5h84q36 150 -11.5 220t-154.5 72l49 229q28 -63 88.5 -99.5t133.5 -36.5l14 80q-77 0 -137 58t-73 118zM1031 37l273 256l-273 256l-54 -57l163 -159h-375l-13 -80h388l-163 -159zM515 531h74l22 101q11 53 -11 71t-85 18
t-84.5 -16.5t-21.5 -72.5q0 -63 21.5 -82t84.5 -19z" />
    <glyph glyph-name="escapeleftneg" horiz-adv-x="1373" 
d="M1240 -232h-1107q-61 0 -82 19t-21 82v803q0 56 21 72.5t82 16.5h1107q61 0 82 -16.5t21 -72.5v-803q0 -63 -21 -82t-82 -19zM868 509q-13 -60 -73 -118t-137 -58l14 -80q73 0 133.5 36.5t88.5 99.5l49 -229q-107 -2 -154.5 -72t-11.5 -220h84q-32 120 0 170.5t152 50.5
q37 -128 102 -182.5t177 -54.5l-18 77q-68 0 -111.5 41t-66.5 149l-65 308q39 0 74.5 -41.5t52.5 -132.5h82q-31 127 -80.5 191.5t-144.5 64.5h-147zM69 293l273 -256l54 57l-163 159h388l-13 80h-375l163 159l-54 57zM784 531h74q63 0 84.5 19t21.5 82q0 56 -21.5 72.5
t-84.5 16.5t-85 -18t-11 -71z" />
    </font>
</defs>
</svg>
